<svg xmlns="http://www.w3.org/2000/svg" width="16" height="12.979" viewBox="0 0 16 12.979"><path d="M2185.61,5018.592a9.249,9.249,0,0,0,9.333-9.166v-.612a7.237,7.237,0,0,0,1.6-1.689,7.385,7.385,0,0,1-1.867.533,3.456,3.456,0,0,0,1.422-1.778,8.154,8.154,0,0,1-2.044.8,3.179,3.179,0,0,0-2.4-1.066,3.341,3.341,0,0,0-3.289,3.289,1.713,1.713,0,0,0,.089.711,9.182,9.182,0,0,1-6.756-3.467,3.393,3.393,0,0,0-.444,1.689,3.528,3.528,0,0,0,1.422,2.756,2.984,2.984,0,0,1-1.511-.444h0a3.248,3.248,0,0,0,2.667,3.2,2.732,2.732,0,0,1-.889.089,1.5,1.5,0,0,1-.622-.089,3.366,3.366,0,0,0,3.111,2.311,6.714,6.714,0,0,1-4.089,1.422,2.432,2.432,0,0,1-.8-.089,8.381,8.381,0,0,0,5.067,1.6" transform="translate(-2180.543 -5005.614)" fill="#fff" fill-rule="evenodd"/></svg>