<svg xmlns="http://www.w3.org/2000/svg" width="150.826" height="55.424" viewBox="0 0 150.826 55.424"><defs><style>.a{fill:#b0b1b0;}.b{fill:#fff;}</style></defs><g transform="translate(-112.005 -1188.828)"><path class="a" d="M249.627,1188.828H125.217c-.509,0-1.011,0-1.517,0-.425,0-.845.011-1.274.018a18.3,18.3,0,0,0-2.776.245,9.212,9.212,0,0,0-2.634.869,8.926,8.926,0,0,0-2.243,1.633,8.7,8.7,0,0,0-1.633,2.246,9.157,9.157,0,0,0-.866,2.637,18.066,18.066,0,0,0-.248,2.774c-.013.425-.014.851-.021,1.276v32.028c.007.43.008.847.021,1.277a18.058,18.058,0,0,0,.248,2.774,9.147,9.147,0,0,0,.866,2.639,8.965,8.965,0,0,0,3.876,3.87,9.288,9.288,0,0,0,2.634.874,18.7,18.7,0,0,0,2.776.245c.429.009.849.014,1.274.014.506,0,1.008,0,1.517,0h124.41c.5,0,1,0,1.5,0,.422,0,.855-.005,1.278-.014a18.463,18.463,0,0,0,2.771-.245,9.446,9.446,0,0,0,2.644-.874,8.7,8.7,0,0,0,2.241-1.634,8.864,8.864,0,0,0,1.637-2.236,9.162,9.162,0,0,0,.858-2.639,18.853,18.853,0,0,0,.257-2.774c.005-.43.005-.847.005-1.277.011-.5.011-1,.011-1.516v-29c0-.507,0-1.011-.011-1.513,0-.425,0-.851-.005-1.276a18.863,18.863,0,0,0-.257-2.774,9.172,9.172,0,0,0-.858-2.637,8.955,8.955,0,0,0-3.878-3.879,9.368,9.368,0,0,0-2.644-.869,18.072,18.072,0,0,0-2.771-.245c-.423-.007-.856-.015-1.278-.018-.5,0-1,0-1.5,0Z"/><path d="M123.706,1243.04c-.422,0-.834-.006-1.253-.015a17.6,17.6,0,0,1-2.589-.226,8.158,8.158,0,0,1-2.3-.759,7.49,7.49,0,0,1-1.936-1.409,7.388,7.388,0,0,1-1.414-1.935,7.914,7.914,0,0,1-.752-2.3,17.18,17.18,0,0,1-.231-2.6c-.009-.292-.02-1.265-.02-1.265v-32.009s.012-.958.02-1.239a17.088,17.088,0,0,1,.23-2.594,7.94,7.94,0,0,1,.753-2.3,7.442,7.442,0,0,1,1.406-1.937,7.7,7.7,0,0,1,1.943-1.417,8.1,8.1,0,0,1,2.291-.754,17.4,17.4,0,0,1,2.6-.227l1.25-.017H251.122l1.266.018a17.047,17.047,0,0,1,2.575.225,8.208,8.208,0,0,1,2.315.759,7.748,7.748,0,0,1,3.346,3.353,8.007,8.007,0,0,1,.742,2.285,18.033,18.033,0,0,1,.241,2.615c0,.392,0,.814,0,1.233.011.52.011,1.014.011,1.513v29c0,.5,0,.995-.011,1.49,0,.451,0,.863-.006,1.288a17.5,17.5,0,0,1-.237,2.568,7.942,7.942,0,0,1-.748,2.314,7.566,7.566,0,0,1-1.407,1.92,7.468,7.468,0,0,1-1.939,1.417,8.122,8.122,0,0,1-2.311.762,17.419,17.419,0,0,1-2.59.226c-.406.009-.831.015-1.244.015l-1.5,0Z"/></g><g transform="translate(-112.005 -1188.828)"><path class="b" d="M169.047,1211.766h-5.614l-1.348,3.981h-2.378l5.318-14.728h2.47l5.318,14.728h-2.419Zm-5.032-1.837h4.45l-2.194-6.461h-.061Z"/><path class="b" d="M184.3,1210.378c0,3.337-1.786,5.481-4.481,5.481a3.638,3.638,0,0,1-3.378-1.878h-.051v5.318h-2.2v-14.29h2.133v1.786h.041a3.807,3.807,0,0,1,3.419-1.9C182.5,1204.9,184.3,1207.051,184.3,1210.378Zm-2.265,0c0-2.174-1.124-3.6-2.838-3.6-1.684,0-2.817,1.46-2.817,3.6,0,2.164,1.133,3.613,2.817,3.613C180.907,1213.991,182.031,1212.572,182.031,1210.378Z"/><path class="b" d="M196.116,1210.378c0,3.337-1.787,5.481-4.482,5.481a3.641,3.641,0,0,1-3.379-1.878H188.2v5.318H186v-14.29h2.134v1.786h.04a3.808,3.808,0,0,1,3.419-1.9C194.319,1204.9,196.116,1207.051,196.116,1210.378Zm-2.267,0c0-2.174-1.123-3.6-2.837-3.6-1.684,0-2.817,1.46-2.817,3.6,0,2.164,1.133,3.613,2.817,3.613C192.726,1213.991,193.849,1212.572,193.849,1210.378Z"/><path class="b" d="M203.925,1211.643c.164,1.461,1.583,2.42,3.521,2.42,1.858,0,3.2-.959,3.2-2.276,0-1.143-.806-1.828-2.715-2.3l-1.909-.46c-2.7-.653-3.96-1.918-3.96-3.97,0-2.541,2.215-4.287,5.358-4.287,3.113,0,5.247,1.746,5.319,4.287h-2.225c-.133-1.47-1.348-2.357-3.124-2.357s-2.99.9-2.99,2.2c0,1.041.776,1.654,2.674,2.123l1.623.4c3.021.715,4.276,1.929,4.276,4.083,0,2.756-2.194,4.481-5.685,4.481-3.266,0-5.471-1.685-5.614-4.349Z"/><path class="b" d="M217.727,1202.468v2.541h2.042v1.745h-2.042v5.92c0,.92.409,1.348,1.306,1.348a6.782,6.782,0,0,0,.725-.051v1.735a6.01,6.01,0,0,1-1.224.1c-2.174,0-3.022-.816-3.022-2.9v-6.155h-1.561v-1.745h1.561v-2.541Z"/><path class="b" d="M220.95,1210.378c0-3.378,1.99-5.5,5.093-5.5s5.094,2.123,5.094,5.5-1.97,5.5-5.094,5.5S220.95,1213.766,220.95,1210.378Zm7.941,0c0-2.317-1.062-3.685-2.848-3.685s-2.848,1.378-2.848,3.685c0,2.327,1.062,3.685,2.848,3.685S228.891,1212.7,228.891,1210.378Z"/><path class="b" d="M232.954,1205.009h2.1v1.828h.051a2.561,2.561,0,0,1,2.583-1.94,3.375,3.375,0,0,1,.755.082v2.061a3.106,3.106,0,0,0-.99-.133,2.221,2.221,0,0,0-2.3,2.471v6.369h-2.2Z"/><path class="b" d="M248.607,1212.593c-.3,1.949-2.194,3.287-4.623,3.287-3.124,0-5.063-2.093-5.063-5.451s1.949-5.552,4.97-5.552c2.971,0,4.839,2.041,4.839,5.3v.756h-7.584v.133a2.8,2.8,0,0,0,2.889,3.041,2.428,2.428,0,0,0,2.479-1.51Zm-7.45-3.205h5.368a2.583,2.583,0,0,0-2.634-2.725A2.717,2.717,0,0,0,241.157,1209.388Z"/></g><g transform="translate(-112.005 -1188.828)"><path class="b" d="M159.983,1224.028l.8-.509c.306.3.584.576.834.834.191-.208.372-.424.541-.647a8.276,8.276,0,0,0,.491-.722h-2.751v-.968h3.871v.828a11.392,11.392,0,0,1-.735,1.191,9.464,9.464,0,0,1-.818,1c.157.192.314.369.471.535h1.54v.674a9.213,9.213,0,0,1-.623,2.127l-.866-.324a7.908,7.908,0,0,0,.471-1.452h-.993v4.577q0,1.057-.987,1.057h-1.108l-.235-1.005c.174.03.342.05.5.063s.322.019.483.019c.2,0,.293-.131.293-.4v-4.316h-1.63v-1.025H161.5q-.313-.357-.691-.742T159.983,1224.028Zm4.763-.273h1.63c.05-.133.095-.259.133-.379s.076-.252.115-.392h-2.311v-.968h5.761v.968h-2.355c-.047.14-.089.27-.128.392s-.078.246-.121.379h2.2v6.322H168.33q.586.348,1.082.709a9.272,9.272,0,0,1,.885.722l-.7.695a11.951,11.951,0,0,0-1.948-1.528l.655-.6h-2.177l.7.586a7.068,7.068,0,0,1-1.013.868,9.47,9.47,0,0,1-1.228.735l-.625-.77a9.255,9.255,0,0,0,1.178-.668,9.5,9.5,0,0,0,.974-.751h-1.368Zm1.031,1.782h2.865v-.885h-2.865Zm0,1.8h2.865v-.936h-2.865Zm2.865,1.839v-.993h-2.865v.993Z"/><path class="b" d="M172.256,1223.009h1.68a5.69,5.69,0,0,0-.535-1.12l1.057-.3a10.007,10.007,0,0,1,.535,1.419h1.515v1.019h-4.252Zm1.33,8.608v.7h-1.057v-4.272h3.629v4.067h-1.044v-.5Zm-.974-6.888h3.425v.954h-3.425Zm0,1.591h3.425v.994h-3.425Zm2.5,4.279v-1.541h-1.528v1.541Zm1.655-8.322H182.7v1.031h-2.088v7.513q0,1.344-1.134,1.344H177.8l-.223-1.057c.259.017.516.031.774.044s.506.019.747.019q.459,0,.459-.611v-7.252h-2.789Z"/></g><g transform="translate(-112.005 -1188.828)"><path class="b" d="M146.325,1216.957a6.859,6.859,0,0,1,3.266-5.754,7.019,7.019,0,0,0-5.531-2.989c-2.326-.245-4.582,1.392-5.768,1.392-1.208,0-3.034-1.368-5-1.328a7.369,7.369,0,0,0-6.2,3.78c-2.679,4.64-.68,11.458,1.887,15.209,1.284,1.836,2.785,3.888,4.749,3.815,1.922-.08,2.64-1.226,4.96-1.226,2.3,0,2.971,1.226,4.975,1.18,2.063-.034,3.362-1.845,4.6-3.7a15.2,15.2,0,0,0,2.1-4.285A6.626,6.626,0,0,1,146.325,1216.957Z"/><path class="b" d="M142.54,1205.747a6.753,6.753,0,0,0,1.545-4.836,6.868,6.868,0,0,0-4.445,2.3,6.425,6.425,0,0,0-1.585,4.658A5.678,5.678,0,0,0,142.54,1205.747Z"/></g></svg>