<svg xmlns="http://www.w3.org/2000/svg" width="174.894" height="183.691" viewBox="0 0 174.894 183.691"><defs><style>.a{fill:#ee664e;}.b{fill:#176299;}</style></defs><g transform="translate(0 0)"><g transform="translate(0 0)"><path class="a" d="M203.915,297.53H164.024L182.145,266.4a2.121,2.121,0,0,1,3.667,0Z" transform="translate(-96.487 -231.541)"/><g transform="translate(48.018)"><path class="a" d="M189.48,231.773a2.508,2.508,0,0,0,2.367-2.555l-.3-7.761a2.462,2.462,0,0,0-4.921.188l.3,7.761A2.507,2.507,0,0,0,189.48,231.773Z" transform="translate(-150.588 -219.09)"/><path class="a" d="M159.528,241.789a2.3,2.3,0,0,0,3.407-.13,2.516,2.516,0,0,0-.134-3.5l-5.7-5.28a2.478,2.478,0,1,0-3.368,3.635Z" transform="translate(-141.525 -222.628)"/><path class="a" d="M147.89,261.306l-7.58-1.689a2.463,2.463,0,0,0-1.071,4.807l7.581,1.689a2.463,2.463,0,1,0,1.071-4.807Z" transform="translate(-137.315 -229.984)"/><path class="a" d="M218.158,239.475a2.3,2.3,0,0,1-3.407.131,2.516,2.516,0,0,1-.134-3.5l5.28-5.7a2.478,2.478,0,1,1,3.635,3.368Z" transform="translate(-157.949 -221.926)"/><path class="a" d="M230.462,258.049l7.43-2.262a2.463,2.463,0,1,1,1.435,4.712l-7.43,2.262a2.462,2.462,0,0,1-1.434-4.712Z" transform="translate(-161.919 -228.94)"/></g><path class="b" d="M217.914,348.273H133.659l21.07-36.2h42.134Z" transform="translate(-88.313 -244.118)"/><path class="b" d="M232.457,401.726H102.085l21.743-37.344h86.919Z" transform="translate(-79.815 -258.198)"/><path class="b" d="M244.877,456.405H73.241a1.627,1.627,0,0,1-1.405-2.445l20.752-35.648H225.55l20.733,35.648A1.627,1.627,0,0,1,244.877,456.405Z" transform="translate(-71.612 -272.714)"/></g></g></svg>