<svg xmlns="http://www.w3.org/2000/svg" xmlns:xlink="http://www.w3.org/1999/xlink" width="591.741" height="311.741" viewBox="0 0 591.741 311.741"><defs><clipPath id="a"><rect width="591.741" height="311.741" fill="none"/></clipPath></defs><g clip-path="url(#a)"><g transform="translate(-23.141 -220.273)"><g transform="translate(28.419 233.744)"><path d="M28.474,248.064a4.192,4.192,0,0,0,.279.437c1.993-4.185,7.254-8.389,17.64-8.69,10.415-.305,16.311,1.032,19.523,2.75,1.792-.54,3.268-1.476,3.466-2.845v6.806c.4,2.783-4.057,4.071-7.335,4.071s-5.58,1.792-7.372,3.778-4.372,5.665-10.533,6.16-13.286-.818-15.668-4.989a5.97,5.97,0,0,1-.7-2.955v-7.475A5.969,5.969,0,0,0,28.474,248.064Z" transform="translate(-27.776 -232.293)" fill="#c2523e"/><path d="M27.776,245.112a5.969,5.969,0,0,0,.7,2.952,4.192,4.192,0,0,0,.279.437c2.614,3.829,9.449,5.033,15.389,4.556,6.161-.5,8.745-4.174,10.533-6.161s4.09-3.777,7.372-3.777a13.886,13.886,0,0,0,3.869-.558c1.792-.54,3.268-1.476,3.466-2.845a2.272,2.272,0,0,0,0-.669c-.4-2.782-4.813-7.239-22.989-6.711C32.5,232.74,27.776,240.123,27.776,245.112Z" transform="translate(-27.776 -232.293)" fill="#f5664e"/><g transform="translate(-27.776 -232.293)"><path d="M49.493,245.68c3.413.672,2.979-1.375,7.256-3.666s6.491.764,8.554-2.826-13.672-4.888-16.345-3.971S44.452,244.687,49.493,245.68Z" fill="#f79a8a"/><path d="M34.294,248.2c4.922,1.875,7.332-.688,9.471-6.034s1.3-6.95-.382-6.874-7.943,1.756-9.929,5.079S31.087,246.979,34.294,248.2Z" fill="#f79a8a"/><path d="M42.925,246.9c-.931,1.074-1.6,1.451-1.6,2.368s.458,1.375,3.36.687,3.514-2.643,2.6-4.147-2.065-1.9-2.634-1.661S43.8,245.893,42.925,246.9Z" fill="#f79a8a"/></g></g></g><g transform="translate(42.859 -220.273)"><g transform="translate(28.419 233.744)"><path d="M28.474,248.064a4.192,4.192,0,0,0,.279.437c1.993-4.185,7.254-8.389,17.64-8.69,10.415-.305,16.311,1.032,19.523,2.75,1.792-.54,3.268-1.476,3.466-2.845v6.806c.4,2.783-4.057,4.071-7.335,4.071s-5.58,1.792-7.372,3.778-4.372,5.665-10.533,6.16-13.286-.818-15.668-4.989a5.97,5.97,0,0,1-.7-2.955v-7.475A5.969,5.969,0,0,0,28.474,248.064Z" transform="translate(-27.776 -232.293)" fill="#c2523e"/><path d="M27.776,245.112a5.969,5.969,0,0,0,.7,2.952,4.192,4.192,0,0,0,.279.437c2.614,3.829,9.449,5.033,15.389,4.556,6.161-.5,8.745-4.174,10.533-6.161s4.09-3.777,7.372-3.777a13.886,13.886,0,0,0,3.869-.558c1.792-.54,3.268-1.476,3.466-2.845a2.272,2.272,0,0,0,0-.669c-.4-2.782-4.813-7.239-22.989-6.711C32.5,232.74,27.776,240.123,27.776,245.112Z" transform="translate(-27.776 -232.293)" fill="#f5664e"/><g transform="translate(-27.776 -232.293)"><path d="M49.493,245.68c3.413.672,2.979-1.375,7.256-3.666s6.491.764,8.554-2.826-13.672-4.888-16.345-3.971S44.452,244.687,49.493,245.68Z" fill="#f79a8a"/><path d="M34.294,248.2c4.922,1.875,7.332-.688,9.471-6.034s1.3-6.95-.382-6.874-7.943,1.756-9.929,5.079S31.087,246.979,34.294,248.2Z" fill="#f79a8a"/><path d="M42.925,246.9c-.931,1.074-1.6,1.451-1.6,2.368s.458,1.375,3.36.687,3.514-2.643,2.6-4.147-2.065-1.9-2.634-1.661S43.8,245.893,42.925,246.9Z" fill="#f79a8a"/></g></g></g><g transform="translate(108.859 -220.273)"><g transform="translate(28.419 233.744)"><path d="M28.474,248.064a4.192,4.192,0,0,0,.279.437c1.993-4.185,7.254-8.389,17.64-8.69,10.415-.305,16.311,1.032,19.523,2.75,1.792-.54,3.268-1.476,3.466-2.845v6.806c.4,2.783-4.057,4.071-7.335,4.071s-5.58,1.792-7.372,3.778-4.372,5.665-10.533,6.16-13.286-.818-15.668-4.989a5.97,5.97,0,0,1-.7-2.955v-7.475A5.969,5.969,0,0,0,28.474,248.064Z" transform="translate(-27.776 -232.293)" fill="#c2523e"/><path d="M27.776,245.112a5.969,5.969,0,0,0,.7,2.952,4.192,4.192,0,0,0,.279.437c2.614,3.829,9.449,5.033,15.389,4.556,6.161-.5,8.745-4.174,10.533-6.161s4.09-3.777,7.372-3.777a13.886,13.886,0,0,0,3.869-.558c1.792-.54,3.268-1.476,3.466-2.845a2.272,2.272,0,0,0,0-.669c-.4-2.782-4.813-7.239-22.989-6.711C32.5,232.74,27.776,240.123,27.776,245.112Z" transform="translate(-27.776 -232.293)" fill="#f5664e"/><g transform="translate(-27.776 -232.293)"><path d="M49.493,245.68c3.413.672,2.979-1.375,7.256-3.666s6.491.764,8.554-2.826-13.672-4.888-16.345-3.971S44.452,244.687,49.493,245.68Z" fill="#f79a8a"/><path d="M34.294,248.2c4.922,1.875,7.332-.688,9.471-6.034s1.3-6.95-.382-6.874-7.943,1.756-9.929,5.079S31.087,246.979,34.294,248.2Z" fill="#f79a8a"/><path d="M42.925,246.9c-.931,1.074-1.6,1.451-1.6,2.368s.458,1.375,3.36.687,3.514-2.643,2.6-4.147-2.065-1.9-2.634-1.661S43.8,245.893,42.925,246.9Z" fill="#f79a8a"/></g></g></g><g transform="translate(174.859 -220.273)"><g transform="translate(28.419 233.744)"><path d="M28.474,248.064a4.192,4.192,0,0,0,.279.437c1.993-4.185,7.254-8.389,17.64-8.69,10.415-.305,16.311,1.032,19.523,2.75,1.792-.54,3.268-1.476,3.466-2.845v6.806c.4,2.783-4.057,4.071-7.335,4.071s-5.58,1.792-7.372,3.778-4.372,5.665-10.533,6.16-13.286-.818-15.668-4.989a5.97,5.97,0,0,1-.7-2.955v-7.475A5.969,5.969,0,0,0,28.474,248.064Z" transform="translate(-27.776 -232.293)" fill="#c2523e"/><path d="M27.776,245.112a5.969,5.969,0,0,0,.7,2.952,4.192,4.192,0,0,0,.279.437c2.614,3.829,9.449,5.033,15.389,4.556,6.161-.5,8.745-4.174,10.533-6.161s4.09-3.777,7.372-3.777a13.886,13.886,0,0,0,3.869-.558c1.792-.54,3.268-1.476,3.466-2.845a2.272,2.272,0,0,0,0-.669c-.4-2.782-4.813-7.239-22.989-6.711C32.5,232.74,27.776,240.123,27.776,245.112Z" transform="translate(-27.776 -232.293)" fill="#f5664e"/><g transform="translate(-27.776 -232.293)"><path d="M49.493,245.68c3.413.672,2.979-1.375,7.256-3.666s6.491.764,8.554-2.826-13.672-4.888-16.345-3.971S44.452,244.687,49.493,245.68Z" fill="#f79a8a"/><path d="M34.294,248.2c4.922,1.875,7.332-.688,9.471-6.034s1.3-6.95-.382-6.874-7.943,1.756-9.929,5.079S31.087,246.979,34.294,248.2Z" fill="#f79a8a"/><path d="M42.925,246.9c-.931,1.074-1.6,1.451-1.6,2.368s.458,1.375,3.36.687,3.514-2.643,2.6-4.147-2.065-1.9-2.634-1.661S43.8,245.893,42.925,246.9Z" fill="#f79a8a"/></g></g></g><g transform="translate(240.859 -220.273)"><g transform="translate(28.419 233.744)"><path d="M28.474,248.064a4.192,4.192,0,0,0,.279.437c1.993-4.185,7.254-8.389,17.64-8.69,10.415-.305,16.311,1.032,19.523,2.75,1.792-.54,3.268-1.476,3.466-2.845v6.806c.4,2.783-4.057,4.071-7.335,4.071s-5.58,1.792-7.372,3.778-4.372,5.665-10.533,6.16-13.286-.818-15.668-4.989a5.97,5.97,0,0,1-.7-2.955v-7.475A5.969,5.969,0,0,0,28.474,248.064Z" transform="translate(-27.776 -232.293)" fill="#c2523e"/><path d="M27.776,245.112a5.969,5.969,0,0,0,.7,2.952,4.192,4.192,0,0,0,.279.437c2.614,3.829,9.449,5.033,15.389,4.556,6.161-.5,8.745-4.174,10.533-6.161s4.09-3.777,7.372-3.777a13.886,13.886,0,0,0,3.869-.558c1.792-.54,3.268-1.476,3.466-2.845a2.272,2.272,0,0,0,0-.669c-.4-2.782-4.813-7.239-22.989-6.711C32.5,232.74,27.776,240.123,27.776,245.112Z" transform="translate(-27.776 -232.293)" fill="#f5664e"/><g transform="translate(-27.776 -232.293)"><path d="M49.493,245.68c3.413.672,2.979-1.375,7.256-3.666s6.491.764,8.554-2.826-13.672-4.888-16.345-3.971S44.452,244.687,49.493,245.68Z" fill="#f79a8a"/><path d="M34.294,248.2c4.922,1.875,7.332-.688,9.471-6.034s1.3-6.95-.382-6.874-7.943,1.756-9.929,5.079S31.087,246.979,34.294,248.2Z" fill="#f79a8a"/><path d="M42.925,246.9c-.931,1.074-1.6,1.451-1.6,2.368s.458,1.375,3.36.687,3.514-2.643,2.6-4.147-2.065-1.9-2.634-1.661S43.8,245.893,42.925,246.9Z" fill="#f79a8a"/></g></g></g><g transform="translate(306.859 -220.273)"><g transform="translate(28.419 233.744)"><path d="M28.474,248.064a4.192,4.192,0,0,0,.279.437c1.993-4.185,7.254-8.389,17.64-8.69,10.415-.305,16.311,1.032,19.523,2.75,1.792-.54,3.268-1.476,3.466-2.845v6.806c.4,2.783-4.057,4.071-7.335,4.071s-5.58,1.792-7.372,3.778-4.372,5.665-10.533,6.16-13.286-.818-15.668-4.989a5.97,5.97,0,0,1-.7-2.955v-7.475A5.969,5.969,0,0,0,28.474,248.064Z" transform="translate(-27.776 -232.293)" fill="#c2523e"/><path d="M27.776,245.112a5.969,5.969,0,0,0,.7,2.952,4.192,4.192,0,0,0,.279.437c2.614,3.829,9.449,5.033,15.389,4.556,6.161-.5,8.745-4.174,10.533-6.161s4.09-3.777,7.372-3.777a13.886,13.886,0,0,0,3.869-.558c1.792-.54,3.268-1.476,3.466-2.845a2.272,2.272,0,0,0,0-.669c-.4-2.782-4.813-7.239-22.989-6.711C32.5,232.74,27.776,240.123,27.776,245.112Z" transform="translate(-27.776 -232.293)" fill="#f5664e"/><g transform="translate(-27.776 -232.293)"><path d="M49.493,245.68c3.413.672,2.979-1.375,7.256-3.666s6.491.764,8.554-2.826-13.672-4.888-16.345-3.971S44.452,244.687,49.493,245.68Z" fill="#f79a8a"/><path d="M34.294,248.2c4.922,1.875,7.332-.688,9.471-6.034s1.3-6.95-.382-6.874-7.943,1.756-9.929,5.079S31.087,246.979,34.294,248.2Z" fill="#f79a8a"/><path d="M42.925,246.9c-.931,1.074-1.6,1.451-1.6,2.368s.458,1.375,3.36.687,3.514-2.643,2.6-4.147-2.065-1.9-2.634-1.661S43.8,245.893,42.925,246.9Z" fill="#f79a8a"/></g></g></g><g transform="translate(372.859 -220.273)"><g transform="translate(28.419 233.744)"><path d="M28.474,248.064a4.192,4.192,0,0,0,.279.437c1.993-4.185,7.254-8.389,17.64-8.69,10.415-.305,16.311,1.032,19.523,2.75,1.792-.54,3.268-1.476,3.466-2.845v6.806c.4,2.783-4.057,4.071-7.335,4.071s-5.58,1.792-7.372,3.778-4.372,5.665-10.533,6.16-13.286-.818-15.668-4.989a5.97,5.97,0,0,1-.7-2.955v-7.475A5.969,5.969,0,0,0,28.474,248.064Z" transform="translate(-27.776 -232.293)" fill="#c2523e"/><path d="M27.776,245.112a5.969,5.969,0,0,0,.7,2.952,4.192,4.192,0,0,0,.279.437c2.614,3.829,9.449,5.033,15.389,4.556,6.161-.5,8.745-4.174,10.533-6.161s4.09-3.777,7.372-3.777a13.886,13.886,0,0,0,3.869-.558c1.792-.54,3.268-1.476,3.466-2.845a2.272,2.272,0,0,0,0-.669c-.4-2.782-4.813-7.239-22.989-6.711C32.5,232.74,27.776,240.123,27.776,245.112Z" transform="translate(-27.776 -232.293)" fill="#f5664e"/><g transform="translate(-27.776 -232.293)"><path d="M49.493,245.68c3.413.672,2.979-1.375,7.256-3.666s6.491.764,8.554-2.826-13.672-4.888-16.345-3.971S44.452,244.687,49.493,245.68Z" fill="#f79a8a"/><path d="M34.294,248.2c4.922,1.875,7.332-.688,9.471-6.034s1.3-6.95-.382-6.874-7.943,1.756-9.929,5.079S31.087,246.979,34.294,248.2Z" fill="#f79a8a"/><path d="M42.925,246.9c-.931,1.074-1.6,1.451-1.6,2.368s.458,1.375,3.36.687,3.514-2.643,2.6-4.147-2.065-1.9-2.634-1.661S43.8,245.893,42.925,246.9Z" fill="#f79a8a"/></g></g></g><g transform="translate(438.859 -220.273)"><g transform="translate(28.419 233.744)"><path d="M28.474,248.064a4.192,4.192,0,0,0,.279.437c1.993-4.185,7.254-8.389,17.64-8.69,10.415-.305,16.311,1.032,19.523,2.75,1.792-.54,3.268-1.476,3.466-2.845v6.806c.4,2.783-4.057,4.071-7.335,4.071s-5.58,1.792-7.372,3.778-4.372,5.665-10.533,6.16-13.286-.818-15.668-4.989a5.97,5.97,0,0,1-.7-2.955v-7.475A5.969,5.969,0,0,0,28.474,248.064Z" transform="translate(-27.776 -232.293)" fill="#c2523e"/><path d="M27.776,245.112a5.969,5.969,0,0,0,.7,2.952,4.192,4.192,0,0,0,.279.437c2.614,3.829,9.449,5.033,15.389,4.556,6.161-.5,8.745-4.174,10.533-6.161s4.09-3.777,7.372-3.777a13.886,13.886,0,0,0,3.869-.558c1.792-.54,3.268-1.476,3.466-2.845a2.272,2.272,0,0,0,0-.669c-.4-2.782-4.813-7.239-22.989-6.711C32.5,232.74,27.776,240.123,27.776,245.112Z" transform="translate(-27.776 -232.293)" fill="#f5664e"/><g transform="translate(-27.776 -232.293)"><path d="M49.493,245.68c3.413.672,2.979-1.375,7.256-3.666s6.491.764,8.554-2.826-13.672-4.888-16.345-3.971S44.452,244.687,49.493,245.68Z" fill="#f79a8a"/><path d="M34.294,248.2c4.922,1.875,7.332-.688,9.471-6.034s1.3-6.95-.382-6.874-7.943,1.756-9.929,5.079S31.087,246.979,34.294,248.2Z" fill="#f79a8a"/><path d="M42.925,246.9c-.931,1.074-1.6,1.451-1.6,2.368s.458,1.375,3.36.687,3.514-2.643,2.6-4.147-2.065-1.9-2.634-1.661S43.8,245.893,42.925,246.9Z" fill="#f79a8a"/></g></g></g><g transform="translate(504.859 -220.273)"><g transform="translate(28.419 233.744)"><path d="M28.474,248.064a4.192,4.192,0,0,0,.279.437c1.993-4.185,7.254-8.389,17.64-8.69,10.415-.305,16.311,1.032,19.523,2.75,1.792-.54,3.268-1.476,3.466-2.845v6.806c.4,2.783-4.057,4.071-7.335,4.071s-5.58,1.792-7.372,3.778-4.372,5.665-10.533,6.16-13.286-.818-15.668-4.989a5.97,5.97,0,0,1-.7-2.955v-7.475A5.969,5.969,0,0,0,28.474,248.064Z" transform="translate(-27.776 -232.293)" fill="#c2523e"/><path d="M27.776,245.112a5.969,5.969,0,0,0,.7,2.952,4.192,4.192,0,0,0,.279.437c2.614,3.829,9.449,5.033,15.389,4.556,6.161-.5,8.745-4.174,10.533-6.161s4.09-3.777,7.372-3.777a13.886,13.886,0,0,0,3.869-.558c1.792-.54,3.268-1.476,3.466-2.845a2.272,2.272,0,0,0,0-.669c-.4-2.782-4.813-7.239-22.989-6.711C32.5,232.74,27.776,240.123,27.776,245.112Z" transform="translate(-27.776 -232.293)" fill="#f5664e"/><g transform="translate(-27.776 -232.293)"><path d="M49.493,245.68c3.413.672,2.979-1.375,7.256-3.666s6.491.764,8.554-2.826-13.672-4.888-16.345-3.971S44.452,244.687,49.493,245.68Z" fill="#f79a8a"/><path d="M34.294,248.2c4.922,1.875,7.332-.688,9.471-6.034s1.3-6.95-.382-6.874-7.943,1.756-9.929,5.079S31.087,246.979,34.294,248.2Z" fill="#f79a8a"/><path d="M42.925,246.9c-.931,1.074-1.6,1.451-1.6,2.368s.458,1.375,3.36.687,3.514-2.643,2.6-4.147-2.065-1.9-2.634-1.661S43.8,245.893,42.925,246.9Z" fill="#f79a8a"/></g></g></g><g transform="translate(-23.141 -157.273)"><g transform="translate(28.419 233.744)"><path d="M28.474,248.064a4.192,4.192,0,0,0,.279.437c1.993-4.185,7.254-8.389,17.64-8.69,10.415-.305,16.311,1.032,19.523,2.75,1.792-.54,3.268-1.476,3.466-2.845v6.806c.4,2.783-4.057,4.071-7.335,4.071s-5.58,1.792-7.372,3.778-4.372,5.665-10.533,6.16-13.286-.818-15.668-4.989a5.97,5.97,0,0,1-.7-2.955v-7.475A5.969,5.969,0,0,0,28.474,248.064Z" transform="translate(-27.776 -232.293)" fill="#c2523e"/><path d="M27.776,245.112a5.969,5.969,0,0,0,.7,2.952,4.192,4.192,0,0,0,.279.437c2.614,3.829,9.449,5.033,15.389,4.556,6.161-.5,8.745-4.174,10.533-6.161s4.09-3.777,7.372-3.777a13.886,13.886,0,0,0,3.869-.558c1.792-.54,3.268-1.476,3.466-2.845a2.272,2.272,0,0,0,0-.669c-.4-2.782-4.813-7.239-22.989-6.711C32.5,232.74,27.776,240.123,27.776,245.112Z" transform="translate(-27.776 -232.293)" fill="#f5664e"/><g transform="translate(-27.776 -232.293)"><path d="M49.493,245.68c3.413.672,2.979-1.375,7.256-3.666s6.491.764,8.554-2.826-13.672-4.888-16.345-3.971S44.452,244.687,49.493,245.68Z" fill="#f79a8a"/><path d="M34.294,248.2c4.922,1.875,7.332-.688,9.471-6.034s1.3-6.95-.382-6.874-7.943,1.756-9.929,5.079S31.087,246.979,34.294,248.2Z" fill="#f79a8a"/><path d="M42.925,246.9c-.931,1.074-1.6,1.451-1.6,2.368s.458,1.375,3.36.687,3.514-2.643,2.6-4.147-2.065-1.9-2.634-1.661S43.8,245.893,42.925,246.9Z" fill="#f79a8a"/></g></g></g><g transform="translate(42.859 -157.273)"><g transform="translate(28.419 233.744)"><path d="M28.474,248.064a4.192,4.192,0,0,0,.279.437c1.993-4.185,7.254-8.389,17.64-8.69,10.415-.305,16.311,1.032,19.523,2.75,1.792-.54,3.268-1.476,3.466-2.845v6.806c.4,2.783-4.057,4.071-7.335,4.071s-5.58,1.792-7.372,3.778-4.372,5.665-10.533,6.16-13.286-.818-15.668-4.989a5.97,5.97,0,0,1-.7-2.955v-7.475A5.969,5.969,0,0,0,28.474,248.064Z" transform="translate(-27.776 -232.293)" fill="#c2523e"/><path d="M27.776,245.112a5.969,5.969,0,0,0,.7,2.952,4.192,4.192,0,0,0,.279.437c2.614,3.829,9.449,5.033,15.389,4.556,6.161-.5,8.745-4.174,10.533-6.161s4.09-3.777,7.372-3.777a13.886,13.886,0,0,0,3.869-.558c1.792-.54,3.268-1.476,3.466-2.845a2.272,2.272,0,0,0,0-.669c-.4-2.782-4.813-7.239-22.989-6.711C32.5,232.74,27.776,240.123,27.776,245.112Z" transform="translate(-27.776 -232.293)" fill="#f5664e"/><g transform="translate(-27.776 -232.293)"><path d="M49.493,245.68c3.413.672,2.979-1.375,7.256-3.666s6.491.764,8.554-2.826-13.672-4.888-16.345-3.971S44.452,244.687,49.493,245.68Z" fill="#f79a8a"/><path d="M34.294,248.2c4.922,1.875,7.332-.688,9.471-6.034s1.3-6.95-.382-6.874-7.943,1.756-9.929,5.079S31.087,246.979,34.294,248.2Z" fill="#f79a8a"/><path d="M42.925,246.9c-.931,1.074-1.6,1.451-1.6,2.368s.458,1.375,3.36.687,3.514-2.643,2.6-4.147-2.065-1.9-2.634-1.661S43.8,245.893,42.925,246.9Z" fill="#f79a8a"/></g></g></g><g transform="translate(108.859 -157.273)"><g transform="translate(28.419 233.744)"><path d="M28.474,248.064a4.192,4.192,0,0,0,.279.437c1.993-4.185,7.254-8.389,17.64-8.69,10.415-.305,16.311,1.032,19.523,2.75,1.792-.54,3.268-1.476,3.466-2.845v6.806c.4,2.783-4.057,4.071-7.335,4.071s-5.58,1.792-7.372,3.778-4.372,5.665-10.533,6.16-13.286-.818-15.668-4.989a5.97,5.97,0,0,1-.7-2.955v-7.475A5.969,5.969,0,0,0,28.474,248.064Z" transform="translate(-27.776 -232.293)" fill="#c2523e"/><path d="M27.776,245.112a5.969,5.969,0,0,0,.7,2.952,4.192,4.192,0,0,0,.279.437c2.614,3.829,9.449,5.033,15.389,4.556,6.161-.5,8.745-4.174,10.533-6.161s4.09-3.777,7.372-3.777a13.886,13.886,0,0,0,3.869-.558c1.792-.54,3.268-1.476,3.466-2.845a2.272,2.272,0,0,0,0-.669c-.4-2.782-4.813-7.239-22.989-6.711C32.5,232.74,27.776,240.123,27.776,245.112Z" transform="translate(-27.776 -232.293)" fill="#f5664e"/><g transform="translate(-27.776 -232.293)"><path d="M49.493,245.68c3.413.672,2.979-1.375,7.256-3.666s6.491.764,8.554-2.826-13.672-4.888-16.345-3.971S44.452,244.687,49.493,245.68Z" fill="#f79a8a"/><path d="M34.294,248.2c4.922,1.875,7.332-.688,9.471-6.034s1.3-6.95-.382-6.874-7.943,1.756-9.929,5.079S31.087,246.979,34.294,248.2Z" fill="#f79a8a"/><path d="M42.925,246.9c-.931,1.074-1.6,1.451-1.6,2.368s.458,1.375,3.36.687,3.514-2.643,2.6-4.147-2.065-1.9-2.634-1.661S43.8,245.893,42.925,246.9Z" fill="#f79a8a"/></g></g></g><g transform="translate(174.859 -157.273)"><g transform="translate(28.419 233.744)"><path d="M28.474,248.064a4.192,4.192,0,0,0,.279.437c1.993-4.185,7.254-8.389,17.64-8.69,10.415-.305,16.311,1.032,19.523,2.75,1.792-.54,3.268-1.476,3.466-2.845v6.806c.4,2.783-4.057,4.071-7.335,4.071s-5.58,1.792-7.372,3.778-4.372,5.665-10.533,6.16-13.286-.818-15.668-4.989a5.97,5.97,0,0,1-.7-2.955v-7.475A5.969,5.969,0,0,0,28.474,248.064Z" transform="translate(-27.776 -232.293)" fill="#c2523e"/><path d="M27.776,245.112a5.969,5.969,0,0,0,.7,2.952,4.192,4.192,0,0,0,.279.437c2.614,3.829,9.449,5.033,15.389,4.556,6.161-.5,8.745-4.174,10.533-6.161s4.09-3.777,7.372-3.777a13.886,13.886,0,0,0,3.869-.558c1.792-.54,3.268-1.476,3.466-2.845a2.272,2.272,0,0,0,0-.669c-.4-2.782-4.813-7.239-22.989-6.711C32.5,232.74,27.776,240.123,27.776,245.112Z" transform="translate(-27.776 -232.293)" fill="#f5664e"/><g transform="translate(-27.776 -232.293)"><path d="M49.493,245.68c3.413.672,2.979-1.375,7.256-3.666s6.491.764,8.554-2.826-13.672-4.888-16.345-3.971S44.452,244.687,49.493,245.68Z" fill="#f79a8a"/><path d="M34.294,248.2c4.922,1.875,7.332-.688,9.471-6.034s1.3-6.95-.382-6.874-7.943,1.756-9.929,5.079S31.087,246.979,34.294,248.2Z" fill="#f79a8a"/><path d="M42.925,246.9c-.931,1.074-1.6,1.451-1.6,2.368s.458,1.375,3.36.687,3.514-2.643,2.6-4.147-2.065-1.9-2.634-1.661S43.8,245.893,42.925,246.9Z" fill="#f79a8a"/></g></g></g><g transform="translate(240.859 -157.273)"><g transform="translate(28.419 233.744)"><path d="M28.474,248.064a4.192,4.192,0,0,0,.279.437c1.993-4.185,7.254-8.389,17.64-8.69,10.415-.305,16.311,1.032,19.523,2.75,1.792-.54,3.268-1.476,3.466-2.845v6.806c.4,2.783-4.057,4.071-7.335,4.071s-5.58,1.792-7.372,3.778-4.372,5.665-10.533,6.16-13.286-.818-15.668-4.989a5.97,5.97,0,0,1-.7-2.955v-7.475A5.969,5.969,0,0,0,28.474,248.064Z" transform="translate(-27.776 -232.293)" fill="#c2523e"/><path d="M27.776,245.112a5.969,5.969,0,0,0,.7,2.952,4.192,4.192,0,0,0,.279.437c2.614,3.829,9.449,5.033,15.389,4.556,6.161-.5,8.745-4.174,10.533-6.161s4.09-3.777,7.372-3.777a13.886,13.886,0,0,0,3.869-.558c1.792-.54,3.268-1.476,3.466-2.845a2.272,2.272,0,0,0,0-.669c-.4-2.782-4.813-7.239-22.989-6.711C32.5,232.74,27.776,240.123,27.776,245.112Z" transform="translate(-27.776 -232.293)" fill="#f5664e"/><g transform="translate(-27.776 -232.293)"><path d="M49.493,245.68c3.413.672,2.979-1.375,7.256-3.666s6.491.764,8.554-2.826-13.672-4.888-16.345-3.971S44.452,244.687,49.493,245.68Z" fill="#f79a8a"/><path d="M34.294,248.2c4.922,1.875,7.332-.688,9.471-6.034s1.3-6.95-.382-6.874-7.943,1.756-9.929,5.079S31.087,246.979,34.294,248.2Z" fill="#f79a8a"/><path d="M42.925,246.9c-.931,1.074-1.6,1.451-1.6,2.368s.458,1.375,3.36.687,3.514-2.643,2.6-4.147-2.065-1.9-2.634-1.661S43.8,245.893,42.925,246.9Z" fill="#f79a8a"/></g></g></g><g transform="translate(306.859 -157.273)"><g transform="translate(28.419 233.744)"><path d="M28.474,248.064a4.192,4.192,0,0,0,.279.437c1.993-4.185,7.254-8.389,17.64-8.69,10.415-.305,16.311,1.032,19.523,2.75,1.792-.54,3.268-1.476,3.466-2.845v6.806c.4,2.783-4.057,4.071-7.335,4.071s-5.58,1.792-7.372,3.778-4.372,5.665-10.533,6.16-13.286-.818-15.668-4.989a5.97,5.97,0,0,1-.7-2.955v-7.475A5.969,5.969,0,0,0,28.474,248.064Z" transform="translate(-27.776 -232.293)" fill="#c2523e"/><path d="M27.776,245.112a5.969,5.969,0,0,0,.7,2.952,4.192,4.192,0,0,0,.279.437c2.614,3.829,9.449,5.033,15.389,4.556,6.161-.5,8.745-4.174,10.533-6.161s4.09-3.777,7.372-3.777a13.886,13.886,0,0,0,3.869-.558c1.792-.54,3.268-1.476,3.466-2.845a2.272,2.272,0,0,0,0-.669c-.4-2.782-4.813-7.239-22.989-6.711C32.5,232.74,27.776,240.123,27.776,245.112Z" transform="translate(-27.776 -232.293)" fill="#f5664e"/><g transform="translate(-27.776 -232.293)"><path d="M49.493,245.68c3.413.672,2.979-1.375,7.256-3.666s6.491.764,8.554-2.826-13.672-4.888-16.345-3.971S44.452,244.687,49.493,245.68Z" fill="#f79a8a"/><path d="M34.294,248.2c4.922,1.875,7.332-.688,9.471-6.034s1.3-6.95-.382-6.874-7.943,1.756-9.929,5.079S31.087,246.979,34.294,248.2Z" fill="#f79a8a"/><path d="M42.925,246.9c-.931,1.074-1.6,1.451-1.6,2.368s.458,1.375,3.36.687,3.514-2.643,2.6-4.147-2.065-1.9-2.634-1.661S43.8,245.893,42.925,246.9Z" fill="#f79a8a"/></g></g></g><g transform="translate(372.859 -157.273)"><g transform="translate(28.419 233.744)"><path d="M28.474,248.064a4.192,4.192,0,0,0,.279.437c1.993-4.185,7.254-8.389,17.64-8.69,10.415-.305,16.311,1.032,19.523,2.75,1.792-.54,3.268-1.476,3.466-2.845v6.806c.4,2.783-4.057,4.071-7.335,4.071s-5.58,1.792-7.372,3.778-4.372,5.665-10.533,6.16-13.286-.818-15.668-4.989a5.97,5.97,0,0,1-.7-2.955v-7.475A5.969,5.969,0,0,0,28.474,248.064Z" transform="translate(-27.776 -232.293)" fill="#c2523e"/><path d="M27.776,245.112a5.969,5.969,0,0,0,.7,2.952,4.192,4.192,0,0,0,.279.437c2.614,3.829,9.449,5.033,15.389,4.556,6.161-.5,8.745-4.174,10.533-6.161s4.09-3.777,7.372-3.777a13.886,13.886,0,0,0,3.869-.558c1.792-.54,3.268-1.476,3.466-2.845a2.272,2.272,0,0,0,0-.669c-.4-2.782-4.813-7.239-22.989-6.711C32.5,232.74,27.776,240.123,27.776,245.112Z" transform="translate(-27.776 -232.293)" fill="#f5664e"/><g transform="translate(-27.776 -232.293)"><path d="M49.493,245.68c3.413.672,2.979-1.375,7.256-3.666s6.491.764,8.554-2.826-13.672-4.888-16.345-3.971S44.452,244.687,49.493,245.68Z" fill="#f79a8a"/><path d="M34.294,248.2c4.922,1.875,7.332-.688,9.471-6.034s1.3-6.95-.382-6.874-7.943,1.756-9.929,5.079S31.087,246.979,34.294,248.2Z" fill="#f79a8a"/><path d="M42.925,246.9c-.931,1.074-1.6,1.451-1.6,2.368s.458,1.375,3.36.687,3.514-2.643,2.6-4.147-2.065-1.9-2.634-1.661S43.8,245.893,42.925,246.9Z" fill="#f79a8a"/></g></g></g><g transform="translate(438.859 -157.273)"><g transform="translate(28.419 233.744)"><path d="M28.474,248.064a4.192,4.192,0,0,0,.279.437c1.993-4.185,7.254-8.389,17.64-8.69,10.415-.305,16.311,1.032,19.523,2.75,1.792-.54,3.268-1.476,3.466-2.845v6.806c.4,2.783-4.057,4.071-7.335,4.071s-5.58,1.792-7.372,3.778-4.372,5.665-10.533,6.16-13.286-.818-15.668-4.989a5.97,5.97,0,0,1-.7-2.955v-7.475A5.969,5.969,0,0,0,28.474,248.064Z" transform="translate(-27.776 -232.293)" fill="#c2523e"/><path d="M27.776,245.112a5.969,5.969,0,0,0,.7,2.952,4.192,4.192,0,0,0,.279.437c2.614,3.829,9.449,5.033,15.389,4.556,6.161-.5,8.745-4.174,10.533-6.161s4.09-3.777,7.372-3.777a13.886,13.886,0,0,0,3.869-.558c1.792-.54,3.268-1.476,3.466-2.845a2.272,2.272,0,0,0,0-.669c-.4-2.782-4.813-7.239-22.989-6.711C32.5,232.74,27.776,240.123,27.776,245.112Z" transform="translate(-27.776 -232.293)" fill="#f5664e"/><g transform="translate(-27.776 -232.293)"><path d="M49.493,245.68c3.413.672,2.979-1.375,7.256-3.666s6.491.764,8.554-2.826-13.672-4.888-16.345-3.971S44.452,244.687,49.493,245.68Z" fill="#f79a8a"/><path d="M34.294,248.2c4.922,1.875,7.332-.688,9.471-6.034s1.3-6.95-.382-6.874-7.943,1.756-9.929,5.079S31.087,246.979,34.294,248.2Z" fill="#f79a8a"/><path d="M42.925,246.9c-.931,1.074-1.6,1.451-1.6,2.368s.458,1.375,3.36.687,3.514-2.643,2.6-4.147-2.065-1.9-2.634-1.661S43.8,245.893,42.925,246.9Z" fill="#f79a8a"/></g></g></g><g transform="translate(504.859 -157.273)"><g transform="translate(28.419 233.744)"><path d="M28.474,248.064a4.192,4.192,0,0,0,.279.437c1.993-4.185,7.254-8.389,17.64-8.69,10.415-.305,16.311,1.032,19.523,2.75,1.792-.54,3.268-1.476,3.466-2.845v6.806c.4,2.783-4.057,4.071-7.335,4.071s-5.58,1.792-7.372,3.778-4.372,5.665-10.533,6.16-13.286-.818-15.668-4.989a5.97,5.97,0,0,1-.7-2.955v-7.475A5.969,5.969,0,0,0,28.474,248.064Z" transform="translate(-27.776 -232.293)" fill="#c2523e"/><path d="M27.776,245.112a5.969,5.969,0,0,0,.7,2.952,4.192,4.192,0,0,0,.279.437c2.614,3.829,9.449,5.033,15.389,4.556,6.161-.5,8.745-4.174,10.533-6.161s4.09-3.777,7.372-3.777a13.886,13.886,0,0,0,3.869-.558c1.792-.54,3.268-1.476,3.466-2.845a2.272,2.272,0,0,0,0-.669c-.4-2.782-4.813-7.239-22.989-6.711C32.5,232.74,27.776,240.123,27.776,245.112Z" transform="translate(-27.776 -232.293)" fill="#f5664e"/><g transform="translate(-27.776 -232.293)"><path d="M49.493,245.68c3.413.672,2.979-1.375,7.256-3.666s6.491.764,8.554-2.826-13.672-4.888-16.345-3.971S44.452,244.687,49.493,245.68Z" fill="#f79a8a"/><path d="M34.294,248.2c4.922,1.875,7.332-.688,9.471-6.034s1.3-6.95-.382-6.874-7.943,1.756-9.929,5.079S31.087,246.979,34.294,248.2Z" fill="#f79a8a"/><path d="M42.925,246.9c-.931,1.074-1.6,1.451-1.6,2.368s.458,1.375,3.36.687,3.514-2.643,2.6-4.147-2.065-1.9-2.634-1.661S43.8,245.893,42.925,246.9Z" fill="#f79a8a"/></g></g></g><g transform="translate(-23.141 -94.273)"><g transform="translate(28.419 233.744)"><path d="M28.474,248.064a4.192,4.192,0,0,0,.279.437c1.993-4.185,7.254-8.389,17.64-8.69,10.415-.305,16.311,1.032,19.523,2.75,1.792-.54,3.268-1.476,3.466-2.845v6.806c.4,2.783-4.057,4.071-7.335,4.071s-5.58,1.792-7.372,3.778-4.372,5.665-10.533,6.16-13.286-.818-15.668-4.989a5.97,5.97,0,0,1-.7-2.955v-7.475A5.969,5.969,0,0,0,28.474,248.064Z" transform="translate(-27.776 -232.293)" fill="#c2523e"/><path d="M27.776,245.112a5.969,5.969,0,0,0,.7,2.952,4.192,4.192,0,0,0,.279.437c2.614,3.829,9.449,5.033,15.389,4.556,6.161-.5,8.745-4.174,10.533-6.161s4.09-3.777,7.372-3.777a13.886,13.886,0,0,0,3.869-.558c1.792-.54,3.268-1.476,3.466-2.845a2.272,2.272,0,0,0,0-.669c-.4-2.782-4.813-7.239-22.989-6.711C32.5,232.74,27.776,240.123,27.776,245.112Z" transform="translate(-27.776 -232.293)" fill="#f5664e"/><g transform="translate(-27.776 -232.293)"><path d="M49.493,245.68c3.413.672,2.979-1.375,7.256-3.666s6.491.764,8.554-2.826-13.672-4.888-16.345-3.971S44.452,244.687,49.493,245.68Z" fill="#f79a8a"/><path d="M34.294,248.2c4.922,1.875,7.332-.688,9.471-6.034s1.3-6.95-.382-6.874-7.943,1.756-9.929,5.079S31.087,246.979,34.294,248.2Z" fill="#f79a8a"/><path d="M42.925,246.9c-.931,1.074-1.6,1.451-1.6,2.368s.458,1.375,3.36.687,3.514-2.643,2.6-4.147-2.065-1.9-2.634-1.661S43.8,245.893,42.925,246.9Z" fill="#f79a8a"/></g></g></g><g transform="translate(42.859 -94.273)"><g transform="translate(28.419 233.744)"><path d="M28.474,248.064a4.192,4.192,0,0,0,.279.437c1.993-4.185,7.254-8.389,17.64-8.69,10.415-.305,16.311,1.032,19.523,2.75,1.792-.54,3.268-1.476,3.466-2.845v6.806c.4,2.783-4.057,4.071-7.335,4.071s-5.58,1.792-7.372,3.778-4.372,5.665-10.533,6.16-13.286-.818-15.668-4.989a5.97,5.97,0,0,1-.7-2.955v-7.475A5.969,5.969,0,0,0,28.474,248.064Z" transform="translate(-27.776 -232.293)" fill="#c2523e"/><path d="M27.776,245.112a5.969,5.969,0,0,0,.7,2.952,4.192,4.192,0,0,0,.279.437c2.614,3.829,9.449,5.033,15.389,4.556,6.161-.5,8.745-4.174,10.533-6.161s4.09-3.777,7.372-3.777a13.886,13.886,0,0,0,3.869-.558c1.792-.54,3.268-1.476,3.466-2.845a2.272,2.272,0,0,0,0-.669c-.4-2.782-4.813-7.239-22.989-6.711C32.5,232.74,27.776,240.123,27.776,245.112Z" transform="translate(-27.776 -232.293)" fill="#f5664e"/><g transform="translate(-27.776 -232.293)"><path d="M49.493,245.68c3.413.672,2.979-1.375,7.256-3.666s6.491.764,8.554-2.826-13.672-4.888-16.345-3.971S44.452,244.687,49.493,245.68Z" fill="#f79a8a"/><path d="M34.294,248.2c4.922,1.875,7.332-.688,9.471-6.034s1.3-6.95-.382-6.874-7.943,1.756-9.929,5.079S31.087,246.979,34.294,248.2Z" fill="#f79a8a"/><path d="M42.925,246.9c-.931,1.074-1.6,1.451-1.6,2.368s.458,1.375,3.36.687,3.514-2.643,2.6-4.147-2.065-1.9-2.634-1.661S43.8,245.893,42.925,246.9Z" fill="#f79a8a"/></g></g></g><g transform="translate(108.859 -94.273)"><g transform="translate(28.419 233.744)"><path d="M28.474,248.064a4.192,4.192,0,0,0,.279.437c1.993-4.185,7.254-8.389,17.64-8.69,10.415-.305,16.311,1.032,19.523,2.75,1.792-.54,3.268-1.476,3.466-2.845v6.806c.4,2.783-4.057,4.071-7.335,4.071s-5.58,1.792-7.372,3.778-4.372,5.665-10.533,6.16-13.286-.818-15.668-4.989a5.97,5.97,0,0,1-.7-2.955v-7.475A5.969,5.969,0,0,0,28.474,248.064Z" transform="translate(-27.776 -232.293)" fill="#c2523e"/><path d="M27.776,245.112a5.969,5.969,0,0,0,.7,2.952,4.192,4.192,0,0,0,.279.437c2.614,3.829,9.449,5.033,15.389,4.556,6.161-.5,8.745-4.174,10.533-6.161s4.09-3.777,7.372-3.777a13.886,13.886,0,0,0,3.869-.558c1.792-.54,3.268-1.476,3.466-2.845a2.272,2.272,0,0,0,0-.669c-.4-2.782-4.813-7.239-22.989-6.711C32.5,232.74,27.776,240.123,27.776,245.112Z" transform="translate(-27.776 -232.293)" fill="#f5664e"/><g transform="translate(-27.776 -232.293)"><path d="M49.493,245.68c3.413.672,2.979-1.375,7.256-3.666s6.491.764,8.554-2.826-13.672-4.888-16.345-3.971S44.452,244.687,49.493,245.68Z" fill="#f79a8a"/><path d="M34.294,248.2c4.922,1.875,7.332-.688,9.471-6.034s1.3-6.95-.382-6.874-7.943,1.756-9.929,5.079S31.087,246.979,34.294,248.2Z" fill="#f79a8a"/><path d="M42.925,246.9c-.931,1.074-1.6,1.451-1.6,2.368s.458,1.375,3.36.687,3.514-2.643,2.6-4.147-2.065-1.9-2.634-1.661S43.8,245.893,42.925,246.9Z" fill="#f79a8a"/></g></g></g><g transform="translate(174.859 -94.273)"><g transform="translate(28.419 233.744)"><path d="M28.474,248.064a4.192,4.192,0,0,0,.279.437c1.993-4.185,7.254-8.389,17.64-8.69,10.415-.305,16.311,1.032,19.523,2.75,1.792-.54,3.268-1.476,3.466-2.845v6.806c.4,2.783-4.057,4.071-7.335,4.071s-5.58,1.792-7.372,3.778-4.372,5.665-10.533,6.16-13.286-.818-15.668-4.989a5.97,5.97,0,0,1-.7-2.955v-7.475A5.969,5.969,0,0,0,28.474,248.064Z" transform="translate(-27.776 -232.293)" fill="#c2523e"/><path d="M27.776,245.112a5.969,5.969,0,0,0,.7,2.952,4.192,4.192,0,0,0,.279.437c2.614,3.829,9.449,5.033,15.389,4.556,6.161-.5,8.745-4.174,10.533-6.161s4.09-3.777,7.372-3.777a13.886,13.886,0,0,0,3.869-.558c1.792-.54,3.268-1.476,3.466-2.845a2.272,2.272,0,0,0,0-.669c-.4-2.782-4.813-7.239-22.989-6.711C32.5,232.74,27.776,240.123,27.776,245.112Z" transform="translate(-27.776 -232.293)" fill="#f5664e"/><g transform="translate(-27.776 -232.293)"><path d="M49.493,245.68c3.413.672,2.979-1.375,7.256-3.666s6.491.764,8.554-2.826-13.672-4.888-16.345-3.971S44.452,244.687,49.493,245.68Z" fill="#f79a8a"/><path d="M34.294,248.2c4.922,1.875,7.332-.688,9.471-6.034s1.3-6.95-.382-6.874-7.943,1.756-9.929,5.079S31.087,246.979,34.294,248.2Z" fill="#f79a8a"/><path d="M42.925,246.9c-.931,1.074-1.6,1.451-1.6,2.368s.458,1.375,3.36.687,3.514-2.643,2.6-4.147-2.065-1.9-2.634-1.661S43.8,245.893,42.925,246.9Z" fill="#f79a8a"/></g></g></g><g transform="translate(240.859 -94.273)"><g transform="translate(28.419 233.744)"><path d="M28.474,248.064a4.192,4.192,0,0,0,.279.437c1.993-4.185,7.254-8.389,17.64-8.69,10.415-.305,16.311,1.032,19.523,2.75,1.792-.54,3.268-1.476,3.466-2.845v6.806c.4,2.783-4.057,4.071-7.335,4.071s-5.58,1.792-7.372,3.778-4.372,5.665-10.533,6.16-13.286-.818-15.668-4.989a5.97,5.97,0,0,1-.7-2.955v-7.475A5.969,5.969,0,0,0,28.474,248.064Z" transform="translate(-27.776 -232.293)" fill="#c2523e"/><path d="M27.776,245.112a5.969,5.969,0,0,0,.7,2.952,4.192,4.192,0,0,0,.279.437c2.614,3.829,9.449,5.033,15.389,4.556,6.161-.5,8.745-4.174,10.533-6.161s4.09-3.777,7.372-3.777a13.886,13.886,0,0,0,3.869-.558c1.792-.54,3.268-1.476,3.466-2.845a2.272,2.272,0,0,0,0-.669c-.4-2.782-4.813-7.239-22.989-6.711C32.5,232.74,27.776,240.123,27.776,245.112Z" transform="translate(-27.776 -232.293)" fill="#f5664e"/><g transform="translate(-27.776 -232.293)"><path d="M49.493,245.68c3.413.672,2.979-1.375,7.256-3.666s6.491.764,8.554-2.826-13.672-4.888-16.345-3.971S44.452,244.687,49.493,245.68Z" fill="#f79a8a"/><path d="M34.294,248.2c4.922,1.875,7.332-.688,9.471-6.034s1.3-6.95-.382-6.874-7.943,1.756-9.929,5.079S31.087,246.979,34.294,248.2Z" fill="#f79a8a"/><path d="M42.925,246.9c-.931,1.074-1.6,1.451-1.6,2.368s.458,1.375,3.36.687,3.514-2.643,2.6-4.147-2.065-1.9-2.634-1.661S43.8,245.893,42.925,246.9Z" fill="#f79a8a"/></g></g></g><g transform="translate(306.859 -94.273)"><g transform="translate(28.419 233.744)"><path d="M28.474,248.064a4.192,4.192,0,0,0,.279.437c1.993-4.185,7.254-8.389,17.64-8.69,10.415-.305,16.311,1.032,19.523,2.75,1.792-.54,3.268-1.476,3.466-2.845v6.806c.4,2.783-4.057,4.071-7.335,4.071s-5.58,1.792-7.372,3.778-4.372,5.665-10.533,6.16-13.286-.818-15.668-4.989a5.97,5.97,0,0,1-.7-2.955v-7.475A5.969,5.969,0,0,0,28.474,248.064Z" transform="translate(-27.776 -232.293)" fill="#c2523e"/><path d="M27.776,245.112a5.969,5.969,0,0,0,.7,2.952,4.192,4.192,0,0,0,.279.437c2.614,3.829,9.449,5.033,15.389,4.556,6.161-.5,8.745-4.174,10.533-6.161s4.09-3.777,7.372-3.777a13.886,13.886,0,0,0,3.869-.558c1.792-.54,3.268-1.476,3.466-2.845a2.272,2.272,0,0,0,0-.669c-.4-2.782-4.813-7.239-22.989-6.711C32.5,232.74,27.776,240.123,27.776,245.112Z" transform="translate(-27.776 -232.293)" fill="#f5664e"/><g transform="translate(-27.776 -232.293)"><path d="M49.493,245.68c3.413.672,2.979-1.375,7.256-3.666s6.491.764,8.554-2.826-13.672-4.888-16.345-3.971S44.452,244.687,49.493,245.68Z" fill="#f79a8a"/><path d="M34.294,248.2c4.922,1.875,7.332-.688,9.471-6.034s1.3-6.95-.382-6.874-7.943,1.756-9.929,5.079S31.087,246.979,34.294,248.2Z" fill="#f79a8a"/><path d="M42.925,246.9c-.931,1.074-1.6,1.451-1.6,2.368s.458,1.375,3.36.687,3.514-2.643,2.6-4.147-2.065-1.9-2.634-1.661S43.8,245.893,42.925,246.9Z" fill="#f79a8a"/></g></g></g><g transform="translate(372.859 -94.273)"><g transform="translate(28.419 233.744)"><path d="M28.474,248.064a4.192,4.192,0,0,0,.279.437c1.993-4.185,7.254-8.389,17.64-8.69,10.415-.305,16.311,1.032,19.523,2.75,1.792-.54,3.268-1.476,3.466-2.845v6.806c.4,2.783-4.057,4.071-7.335,4.071s-5.58,1.792-7.372,3.778-4.372,5.665-10.533,6.16-13.286-.818-15.668-4.989a5.97,5.97,0,0,1-.7-2.955v-7.475A5.969,5.969,0,0,0,28.474,248.064Z" transform="translate(-27.776 -232.293)" fill="#c2523e"/><path d="M27.776,245.112a5.969,5.969,0,0,0,.7,2.952,4.192,4.192,0,0,0,.279.437c2.614,3.829,9.449,5.033,15.389,4.556,6.161-.5,8.745-4.174,10.533-6.161s4.09-3.777,7.372-3.777a13.886,13.886,0,0,0,3.869-.558c1.792-.54,3.268-1.476,3.466-2.845a2.272,2.272,0,0,0,0-.669c-.4-2.782-4.813-7.239-22.989-6.711C32.5,232.74,27.776,240.123,27.776,245.112Z" transform="translate(-27.776 -232.293)" fill="#f5664e"/><g transform="translate(-27.776 -232.293)"><path d="M49.493,245.68c3.413.672,2.979-1.375,7.256-3.666s6.491.764,8.554-2.826-13.672-4.888-16.345-3.971S44.452,244.687,49.493,245.68Z" fill="#f79a8a"/><path d="M34.294,248.2c4.922,1.875,7.332-.688,9.471-6.034s1.3-6.95-.382-6.874-7.943,1.756-9.929,5.079S31.087,246.979,34.294,248.2Z" fill="#f79a8a"/><path d="M42.925,246.9c-.931,1.074-1.6,1.451-1.6,2.368s.458,1.375,3.36.687,3.514-2.643,2.6-4.147-2.065-1.9-2.634-1.661S43.8,245.893,42.925,246.9Z" fill="#f79a8a"/></g></g></g><g transform="translate(438.859 -94.273)"><g transform="translate(28.419 233.744)"><path d="M28.474,248.064a4.192,4.192,0,0,0,.279.437c1.993-4.185,7.254-8.389,17.64-8.69,10.415-.305,16.311,1.032,19.523,2.75,1.792-.54,3.268-1.476,3.466-2.845v6.806c.4,2.783-4.057,4.071-7.335,4.071s-5.58,1.792-7.372,3.778-4.372,5.665-10.533,6.16-13.286-.818-15.668-4.989a5.97,5.97,0,0,1-.7-2.955v-7.475A5.969,5.969,0,0,0,28.474,248.064Z" transform="translate(-27.776 -232.293)" fill="#c2523e"/><path d="M27.776,245.112a5.969,5.969,0,0,0,.7,2.952,4.192,4.192,0,0,0,.279.437c2.614,3.829,9.449,5.033,15.389,4.556,6.161-.5,8.745-4.174,10.533-6.161s4.09-3.777,7.372-3.777a13.886,13.886,0,0,0,3.869-.558c1.792-.54,3.268-1.476,3.466-2.845a2.272,2.272,0,0,0,0-.669c-.4-2.782-4.813-7.239-22.989-6.711C32.5,232.74,27.776,240.123,27.776,245.112Z" transform="translate(-27.776 -232.293)" fill="#f5664e"/><g transform="translate(-27.776 -232.293)"><path d="M49.493,245.68c3.413.672,2.979-1.375,7.256-3.666s6.491.764,8.554-2.826-13.672-4.888-16.345-3.971S44.452,244.687,49.493,245.68Z" fill="#f79a8a"/><path d="M34.294,248.2c4.922,1.875,7.332-.688,9.471-6.034s1.3-6.95-.382-6.874-7.943,1.756-9.929,5.079S31.087,246.979,34.294,248.2Z" fill="#f79a8a"/><path d="M42.925,246.9c-.931,1.074-1.6,1.451-1.6,2.368s.458,1.375,3.36.687,3.514-2.643,2.6-4.147-2.065-1.9-2.634-1.661S43.8,245.893,42.925,246.9Z" fill="#f79a8a"/></g></g></g><g transform="translate(504.859 -94.273)"><g transform="translate(28.419 233.744)"><path d="M28.474,248.064a4.192,4.192,0,0,0,.279.437c1.993-4.185,7.254-8.389,17.64-8.69,10.415-.305,16.311,1.032,19.523,2.75,1.792-.54,3.268-1.476,3.466-2.845v6.806c.4,2.783-4.057,4.071-7.335,4.071s-5.58,1.792-7.372,3.778-4.372,5.665-10.533,6.16-13.286-.818-15.668-4.989a5.97,5.97,0,0,1-.7-2.955v-7.475A5.969,5.969,0,0,0,28.474,248.064Z" transform="translate(-27.776 -232.293)" fill="#c2523e"/><path d="M27.776,245.112a5.969,5.969,0,0,0,.7,2.952,4.192,4.192,0,0,0,.279.437c2.614,3.829,9.449,5.033,15.389,4.556,6.161-.5,8.745-4.174,10.533-6.161s4.09-3.777,7.372-3.777a13.886,13.886,0,0,0,3.869-.558c1.792-.54,3.268-1.476,3.466-2.845a2.272,2.272,0,0,0,0-.669c-.4-2.782-4.813-7.239-22.989-6.711C32.5,232.74,27.776,240.123,27.776,245.112Z" transform="translate(-27.776 -232.293)" fill="#f5664e"/><g transform="translate(-27.776 -232.293)"><path d="M49.493,245.68c3.413.672,2.979-1.375,7.256-3.666s6.491.764,8.554-2.826-13.672-4.888-16.345-3.971S44.452,244.687,49.493,245.68Z" fill="#f79a8a"/><path d="M34.294,248.2c4.922,1.875,7.332-.688,9.471-6.034s1.3-6.95-.382-6.874-7.943,1.756-9.929,5.079S31.087,246.979,34.294,248.2Z" fill="#f79a8a"/><path d="M42.925,246.9c-.931,1.074-1.6,1.451-1.6,2.368s.458,1.375,3.36.687,3.514-2.643,2.6-4.147-2.065-1.9-2.634-1.661S43.8,245.893,42.925,246.9Z" fill="#f79a8a"/></g></g></g><g transform="translate(-23.141 -31.273)"><g transform="translate(28.419 233.744)"><path d="M28.474,248.064a4.192,4.192,0,0,0,.279.437c1.993-4.185,7.254-8.389,17.64-8.69,10.415-.305,16.311,1.032,19.523,2.75,1.792-.54,3.268-1.476,3.466-2.845v6.806c.4,2.783-4.057,4.071-7.335,4.071s-5.58,1.792-7.372,3.778-4.372,5.665-10.533,6.16-13.286-.818-15.668-4.989a5.97,5.97,0,0,1-.7-2.955v-7.475A5.969,5.969,0,0,0,28.474,248.064Z" transform="translate(-27.776 -232.293)" fill="#c2523e"/><path d="M27.776,245.112a5.969,5.969,0,0,0,.7,2.952,4.192,4.192,0,0,0,.279.437c2.614,3.829,9.449,5.033,15.389,4.556,6.161-.5,8.745-4.174,10.533-6.161s4.09-3.777,7.372-3.777a13.886,13.886,0,0,0,3.869-.558c1.792-.54,3.268-1.476,3.466-2.845a2.272,2.272,0,0,0,0-.669c-.4-2.782-4.813-7.239-22.989-6.711C32.5,232.74,27.776,240.123,27.776,245.112Z" transform="translate(-27.776 -232.293)" fill="#f5664e"/><g transform="translate(-27.776 -232.293)"><path d="M49.493,245.68c3.413.672,2.979-1.375,7.256-3.666s6.491.764,8.554-2.826-13.672-4.888-16.345-3.971S44.452,244.687,49.493,245.68Z" fill="#f79a8a"/><path d="M34.294,248.2c4.922,1.875,7.332-.688,9.471-6.034s1.3-6.95-.382-6.874-7.943,1.756-9.929,5.079S31.087,246.979,34.294,248.2Z" fill="#f79a8a"/><path d="M42.925,246.9c-.931,1.074-1.6,1.451-1.6,2.368s.458,1.375,3.36.687,3.514-2.643,2.6-4.147-2.065-1.9-2.634-1.661S43.8,245.893,42.925,246.9Z" fill="#f79a8a"/></g></g></g><g transform="translate(42.859 -31.273)"><g transform="translate(28.419 233.744)"><path d="M28.474,248.064a4.192,4.192,0,0,0,.279.437c1.993-4.185,7.254-8.389,17.64-8.69,10.415-.305,16.311,1.032,19.523,2.75,1.792-.54,3.268-1.476,3.466-2.845v6.806c.4,2.783-4.057,4.071-7.335,4.071s-5.58,1.792-7.372,3.778-4.372,5.665-10.533,6.16-13.286-.818-15.668-4.989a5.97,5.97,0,0,1-.7-2.955v-7.475A5.969,5.969,0,0,0,28.474,248.064Z" transform="translate(-27.776 -232.293)" fill="#c2523e"/><path d="M27.776,245.112a5.969,5.969,0,0,0,.7,2.952,4.192,4.192,0,0,0,.279.437c2.614,3.829,9.449,5.033,15.389,4.556,6.161-.5,8.745-4.174,10.533-6.161s4.09-3.777,7.372-3.777a13.886,13.886,0,0,0,3.869-.558c1.792-.54,3.268-1.476,3.466-2.845a2.272,2.272,0,0,0,0-.669c-.4-2.782-4.813-7.239-22.989-6.711C32.5,232.74,27.776,240.123,27.776,245.112Z" transform="translate(-27.776 -232.293)" fill="#f5664e"/><g transform="translate(-27.776 -232.293)"><path d="M49.493,245.68c3.413.672,2.979-1.375,7.256-3.666s6.491.764,8.554-2.826-13.672-4.888-16.345-3.971S44.452,244.687,49.493,245.68Z" fill="#f79a8a"/><path d="M34.294,248.2c4.922,1.875,7.332-.688,9.471-6.034s1.3-6.95-.382-6.874-7.943,1.756-9.929,5.079S31.087,246.979,34.294,248.2Z" fill="#f79a8a"/><path d="M42.925,246.9c-.931,1.074-1.6,1.451-1.6,2.368s.458,1.375,3.36.687,3.514-2.643,2.6-4.147-2.065-1.9-2.634-1.661S43.8,245.893,42.925,246.9Z" fill="#f79a8a"/></g></g></g><g transform="translate(108.859 -31.273)"><g transform="translate(28.419 233.744)"><path d="M28.474,248.064a4.192,4.192,0,0,0,.279.437c1.993-4.185,7.254-8.389,17.64-8.69,10.415-.305,16.311,1.032,19.523,2.75,1.792-.54,3.268-1.476,3.466-2.845v6.806c.4,2.783-4.057,4.071-7.335,4.071s-5.58,1.792-7.372,3.778-4.372,5.665-10.533,6.16-13.286-.818-15.668-4.989a5.97,5.97,0,0,1-.7-2.955v-7.475A5.969,5.969,0,0,0,28.474,248.064Z" transform="translate(-27.776 -232.293)" fill="#c2523e"/><path d="M27.776,245.112a5.969,5.969,0,0,0,.7,2.952,4.192,4.192,0,0,0,.279.437c2.614,3.829,9.449,5.033,15.389,4.556,6.161-.5,8.745-4.174,10.533-6.161s4.09-3.777,7.372-3.777a13.886,13.886,0,0,0,3.869-.558c1.792-.54,3.268-1.476,3.466-2.845a2.272,2.272,0,0,0,0-.669c-.4-2.782-4.813-7.239-22.989-6.711C32.5,232.74,27.776,240.123,27.776,245.112Z" transform="translate(-27.776 -232.293)" fill="#f5664e"/><g transform="translate(-27.776 -232.293)"><path d="M49.493,245.68c3.413.672,2.979-1.375,7.256-3.666s6.491.764,8.554-2.826-13.672-4.888-16.345-3.971S44.452,244.687,49.493,245.68Z" fill="#f79a8a"/><path d="M34.294,248.2c4.922,1.875,7.332-.688,9.471-6.034s1.3-6.95-.382-6.874-7.943,1.756-9.929,5.079S31.087,246.979,34.294,248.2Z" fill="#f79a8a"/><path d="M42.925,246.9c-.931,1.074-1.6,1.451-1.6,2.368s.458,1.375,3.36.687,3.514-2.643,2.6-4.147-2.065-1.9-2.634-1.661S43.8,245.893,42.925,246.9Z" fill="#f79a8a"/></g></g></g><g transform="translate(174.859 -31.273)"><g transform="translate(28.419 233.744)"><path d="M28.474,248.064a4.192,4.192,0,0,0,.279.437c1.993-4.185,7.254-8.389,17.64-8.69,10.415-.305,16.311,1.032,19.523,2.75,1.792-.54,3.268-1.476,3.466-2.845v6.806c.4,2.783-4.057,4.071-7.335,4.071s-5.58,1.792-7.372,3.778-4.372,5.665-10.533,6.16-13.286-.818-15.668-4.989a5.97,5.97,0,0,1-.7-2.955v-7.475A5.969,5.969,0,0,0,28.474,248.064Z" transform="translate(-27.776 -232.293)" fill="#c2523e"/><path d="M27.776,245.112a5.969,5.969,0,0,0,.7,2.952,4.192,4.192,0,0,0,.279.437c2.614,3.829,9.449,5.033,15.389,4.556,6.161-.5,8.745-4.174,10.533-6.161s4.09-3.777,7.372-3.777a13.886,13.886,0,0,0,3.869-.558c1.792-.54,3.268-1.476,3.466-2.845a2.272,2.272,0,0,0,0-.669c-.4-2.782-4.813-7.239-22.989-6.711C32.5,232.74,27.776,240.123,27.776,245.112Z" transform="translate(-27.776 -232.293)" fill="#f5664e"/><g transform="translate(-27.776 -232.293)"><path d="M49.493,245.68c3.413.672,2.979-1.375,7.256-3.666s6.491.764,8.554-2.826-13.672-4.888-16.345-3.971S44.452,244.687,49.493,245.68Z" fill="#f79a8a"/><path d="M34.294,248.2c4.922,1.875,7.332-.688,9.471-6.034s1.3-6.95-.382-6.874-7.943,1.756-9.929,5.079S31.087,246.979,34.294,248.2Z" fill="#f79a8a"/><path d="M42.925,246.9c-.931,1.074-1.6,1.451-1.6,2.368s.458,1.375,3.36.687,3.514-2.643,2.6-4.147-2.065-1.9-2.634-1.661S43.8,245.893,42.925,246.9Z" fill="#f79a8a"/></g></g></g><g transform="translate(240.859 -31.273)"><g transform="translate(28.419 233.744)"><path d="M28.474,248.064a4.192,4.192,0,0,0,.279.437c1.993-4.185,7.254-8.389,17.64-8.69,10.415-.305,16.311,1.032,19.523,2.75,1.792-.54,3.268-1.476,3.466-2.845v6.806c.4,2.783-4.057,4.071-7.335,4.071s-5.58,1.792-7.372,3.778-4.372,5.665-10.533,6.16-13.286-.818-15.668-4.989a5.97,5.97,0,0,1-.7-2.955v-7.475A5.969,5.969,0,0,0,28.474,248.064Z" transform="translate(-27.776 -232.293)" fill="#c2523e"/><path d="M27.776,245.112a5.969,5.969,0,0,0,.7,2.952,4.192,4.192,0,0,0,.279.437c2.614,3.829,9.449,5.033,15.389,4.556,6.161-.5,8.745-4.174,10.533-6.161s4.09-3.777,7.372-3.777a13.886,13.886,0,0,0,3.869-.558c1.792-.54,3.268-1.476,3.466-2.845a2.272,2.272,0,0,0,0-.669c-.4-2.782-4.813-7.239-22.989-6.711C32.5,232.74,27.776,240.123,27.776,245.112Z" transform="translate(-27.776 -232.293)" fill="#f5664e"/><g transform="translate(-27.776 -232.293)"><path d="M49.493,245.68c3.413.672,2.979-1.375,7.256-3.666s6.491.764,8.554-2.826-13.672-4.888-16.345-3.971S44.452,244.687,49.493,245.68Z" fill="#f79a8a"/><path d="M34.294,248.2c4.922,1.875,7.332-.688,9.471-6.034s1.3-6.95-.382-6.874-7.943,1.756-9.929,5.079S31.087,246.979,34.294,248.2Z" fill="#f79a8a"/><path d="M42.925,246.9c-.931,1.074-1.6,1.451-1.6,2.368s.458,1.375,3.36.687,3.514-2.643,2.6-4.147-2.065-1.9-2.634-1.661S43.8,245.893,42.925,246.9Z" fill="#f79a8a"/></g></g></g><g transform="translate(306.859 -31.273)"><g transform="translate(28.419 233.744)"><path d="M28.474,248.064a4.192,4.192,0,0,0,.279.437c1.993-4.185,7.254-8.389,17.64-8.69,10.415-.305,16.311,1.032,19.523,2.75,1.792-.54,3.268-1.476,3.466-2.845v6.806c.4,2.783-4.057,4.071-7.335,4.071s-5.58,1.792-7.372,3.778-4.372,5.665-10.533,6.16-13.286-.818-15.668-4.989a5.97,5.97,0,0,1-.7-2.955v-7.475A5.969,5.969,0,0,0,28.474,248.064Z" transform="translate(-27.776 -232.293)" fill="#c2523e"/><path d="M27.776,245.112a5.969,5.969,0,0,0,.7,2.952,4.192,4.192,0,0,0,.279.437c2.614,3.829,9.449,5.033,15.389,4.556,6.161-.5,8.745-4.174,10.533-6.161s4.09-3.777,7.372-3.777a13.886,13.886,0,0,0,3.869-.558c1.792-.54,3.268-1.476,3.466-2.845a2.272,2.272,0,0,0,0-.669c-.4-2.782-4.813-7.239-22.989-6.711C32.5,232.74,27.776,240.123,27.776,245.112Z" transform="translate(-27.776 -232.293)" fill="#f5664e"/><g transform="translate(-27.776 -232.293)"><path d="M49.493,245.68c3.413.672,2.979-1.375,7.256-3.666s6.491.764,8.554-2.826-13.672-4.888-16.345-3.971S44.452,244.687,49.493,245.68Z" fill="#f79a8a"/><path d="M34.294,248.2c4.922,1.875,7.332-.688,9.471-6.034s1.3-6.95-.382-6.874-7.943,1.756-9.929,5.079S31.087,246.979,34.294,248.2Z" fill="#f79a8a"/><path d="M42.925,246.9c-.931,1.074-1.6,1.451-1.6,2.368s.458,1.375,3.36.687,3.514-2.643,2.6-4.147-2.065-1.9-2.634-1.661S43.8,245.893,42.925,246.9Z" fill="#f79a8a"/></g></g></g><g transform="translate(372.859 -31.273)"><g transform="translate(28.419 233.744)"><path d="M28.474,248.064a4.192,4.192,0,0,0,.279.437c1.993-4.185,7.254-8.389,17.64-8.69,10.415-.305,16.311,1.032,19.523,2.75,1.792-.54,3.268-1.476,3.466-2.845v6.806c.4,2.783-4.057,4.071-7.335,4.071s-5.58,1.792-7.372,3.778-4.372,5.665-10.533,6.16-13.286-.818-15.668-4.989a5.97,5.97,0,0,1-.7-2.955v-7.475A5.969,5.969,0,0,0,28.474,248.064Z" transform="translate(-27.776 -232.293)" fill="#c2523e"/><path d="M27.776,245.112a5.969,5.969,0,0,0,.7,2.952,4.192,4.192,0,0,0,.279.437c2.614,3.829,9.449,5.033,15.389,4.556,6.161-.5,8.745-4.174,10.533-6.161s4.09-3.777,7.372-3.777a13.886,13.886,0,0,0,3.869-.558c1.792-.54,3.268-1.476,3.466-2.845a2.272,2.272,0,0,0,0-.669c-.4-2.782-4.813-7.239-22.989-6.711C32.5,232.74,27.776,240.123,27.776,245.112Z" transform="translate(-27.776 -232.293)" fill="#f5664e"/><g transform="translate(-27.776 -232.293)"><path d="M49.493,245.68c3.413.672,2.979-1.375,7.256-3.666s6.491.764,8.554-2.826-13.672-4.888-16.345-3.971S44.452,244.687,49.493,245.68Z" fill="#f79a8a"/><path d="M34.294,248.2c4.922,1.875,7.332-.688,9.471-6.034s1.3-6.95-.382-6.874-7.943,1.756-9.929,5.079S31.087,246.979,34.294,248.2Z" fill="#f79a8a"/><path d="M42.925,246.9c-.931,1.074-1.6,1.451-1.6,2.368s.458,1.375,3.36.687,3.514-2.643,2.6-4.147-2.065-1.9-2.634-1.661S43.8,245.893,42.925,246.9Z" fill="#f79a8a"/></g></g></g><g transform="translate(438.859 -31.273)"><g transform="translate(28.419 233.744)"><path d="M28.474,248.064a4.192,4.192,0,0,0,.279.437c1.993-4.185,7.254-8.389,17.64-8.69,10.415-.305,16.311,1.032,19.523,2.75,1.792-.54,3.268-1.476,3.466-2.845v6.806c.4,2.783-4.057,4.071-7.335,4.071s-5.58,1.792-7.372,3.778-4.372,5.665-10.533,6.16-13.286-.818-15.668-4.989a5.97,5.97,0,0,1-.7-2.955v-7.475A5.969,5.969,0,0,0,28.474,248.064Z" transform="translate(-27.776 -232.293)" fill="#c2523e"/><path d="M27.776,245.112a5.969,5.969,0,0,0,.7,2.952,4.192,4.192,0,0,0,.279.437c2.614,3.829,9.449,5.033,15.389,4.556,6.161-.5,8.745-4.174,10.533-6.161s4.09-3.777,7.372-3.777a13.886,13.886,0,0,0,3.869-.558c1.792-.54,3.268-1.476,3.466-2.845a2.272,2.272,0,0,0,0-.669c-.4-2.782-4.813-7.239-22.989-6.711C32.5,232.74,27.776,240.123,27.776,245.112Z" transform="translate(-27.776 -232.293)" fill="#f5664e"/><g transform="translate(-27.776 -232.293)"><path d="M49.493,245.68c3.413.672,2.979-1.375,7.256-3.666s6.491.764,8.554-2.826-13.672-4.888-16.345-3.971S44.452,244.687,49.493,245.68Z" fill="#f79a8a"/><path d="M34.294,248.2c4.922,1.875,7.332-.688,9.471-6.034s1.3-6.95-.382-6.874-7.943,1.756-9.929,5.079S31.087,246.979,34.294,248.2Z" fill="#f79a8a"/><path d="M42.925,246.9c-.931,1.074-1.6,1.451-1.6,2.368s.458,1.375,3.36.687,3.514-2.643,2.6-4.147-2.065-1.9-2.634-1.661S43.8,245.893,42.925,246.9Z" fill="#f79a8a"/></g></g></g><g transform="translate(504.859 -31.273)"><g transform="translate(28.419 233.744)"><path d="M28.474,248.064a4.192,4.192,0,0,0,.279.437c1.993-4.185,7.254-8.389,17.64-8.69,10.415-.305,16.311,1.032,19.523,2.75,1.792-.54,3.268-1.476,3.466-2.845v6.806c.4,2.783-4.057,4.071-7.335,4.071s-5.58,1.792-7.372,3.778-4.372,5.665-10.533,6.16-13.286-.818-15.668-4.989a5.97,5.97,0,0,1-.7-2.955v-7.475A5.969,5.969,0,0,0,28.474,248.064Z" transform="translate(-27.776 -232.293)" fill="#c2523e"/><path d="M27.776,245.112a5.969,5.969,0,0,0,.7,2.952,4.192,4.192,0,0,0,.279.437c2.614,3.829,9.449,5.033,15.389,4.556,6.161-.5,8.745-4.174,10.533-6.161s4.09-3.777,7.372-3.777a13.886,13.886,0,0,0,3.869-.558c1.792-.54,3.268-1.476,3.466-2.845a2.272,2.272,0,0,0,0-.669c-.4-2.782-4.813-7.239-22.989-6.711C32.5,232.74,27.776,240.123,27.776,245.112Z" transform="translate(-27.776 -232.293)" fill="#f5664e"/><g transform="translate(-27.776 -232.293)"><path d="M49.493,245.68c3.413.672,2.979-1.375,7.256-3.666s6.491.764,8.554-2.826-13.672-4.888-16.345-3.971S44.452,244.687,49.493,245.68Z" fill="#f79a8a"/><path d="M34.294,248.2c4.922,1.875,7.332-.688,9.471-6.034s1.3-6.95-.382-6.874-7.943,1.756-9.929,5.079S31.087,246.979,34.294,248.2Z" fill="#f79a8a"/><path d="M42.925,246.9c-.931,1.074-1.6,1.451-1.6,2.368s.458,1.375,3.36.687,3.514-2.643,2.6-4.147-2.065-1.9-2.634-1.661S43.8,245.893,42.925,246.9Z" fill="#f79a8a"/></g></g></g><g transform="translate(-23.141 31.727)"><g transform="translate(28.419 233.744)"><path d="M28.474,248.064a4.192,4.192,0,0,0,.279.437c1.993-4.185,7.254-8.389,17.64-8.69,10.415-.305,16.311,1.032,19.523,2.75,1.792-.54,3.268-1.476,3.466-2.845v6.806c.4,2.783-4.057,4.071-7.335,4.071s-5.58,1.792-7.372,3.778-4.372,5.665-10.533,6.16-13.286-.818-15.668-4.989a5.97,5.97,0,0,1-.7-2.955v-7.475A5.969,5.969,0,0,0,28.474,248.064Z" transform="translate(-27.776 -232.293)" fill="#c2523e"/><path d="M27.776,245.112a5.969,5.969,0,0,0,.7,2.952,4.192,4.192,0,0,0,.279.437c2.614,3.829,9.449,5.033,15.389,4.556,6.161-.5,8.745-4.174,10.533-6.161s4.09-3.777,7.372-3.777a13.886,13.886,0,0,0,3.869-.558c1.792-.54,3.268-1.476,3.466-2.845a2.272,2.272,0,0,0,0-.669c-.4-2.782-4.813-7.239-22.989-6.711C32.5,232.74,27.776,240.123,27.776,245.112Z" transform="translate(-27.776 -232.293)" fill="#f5664e"/><g transform="translate(-27.776 -232.293)"><path d="M49.493,245.68c3.413.672,2.979-1.375,7.256-3.666s6.491.764,8.554-2.826-13.672-4.888-16.345-3.971S44.452,244.687,49.493,245.68Z" fill="#f79a8a"/><path d="M34.294,248.2c4.922,1.875,7.332-.688,9.471-6.034s1.3-6.95-.382-6.874-7.943,1.756-9.929,5.079S31.087,246.979,34.294,248.2Z" fill="#f79a8a"/><path d="M42.925,246.9c-.931,1.074-1.6,1.451-1.6,2.368s.458,1.375,3.36.687,3.514-2.643,2.6-4.147-2.065-1.9-2.634-1.661S43.8,245.893,42.925,246.9Z" fill="#f79a8a"/></g></g></g><g transform="translate(42.859 31.727)"><g transform="translate(28.419 233.744)"><path d="M28.474,248.064a4.192,4.192,0,0,0,.279.437c1.993-4.185,7.254-8.389,17.64-8.69,10.415-.305,16.311,1.032,19.523,2.75,1.792-.54,3.268-1.476,3.466-2.845v6.806c.4,2.783-4.057,4.071-7.335,4.071s-5.58,1.792-7.372,3.778-4.372,5.665-10.533,6.16-13.286-.818-15.668-4.989a5.97,5.97,0,0,1-.7-2.955v-7.475A5.969,5.969,0,0,0,28.474,248.064Z" transform="translate(-27.776 -232.293)" fill="#c2523e"/><path d="M27.776,245.112a5.969,5.969,0,0,0,.7,2.952,4.192,4.192,0,0,0,.279.437c2.614,3.829,9.449,5.033,15.389,4.556,6.161-.5,8.745-4.174,10.533-6.161s4.09-3.777,7.372-3.777a13.886,13.886,0,0,0,3.869-.558c1.792-.54,3.268-1.476,3.466-2.845a2.272,2.272,0,0,0,0-.669c-.4-2.782-4.813-7.239-22.989-6.711C32.5,232.74,27.776,240.123,27.776,245.112Z" transform="translate(-27.776 -232.293)" fill="#f5664e"/><g transform="translate(-27.776 -232.293)"><path d="M49.493,245.68c3.413.672,2.979-1.375,7.256-3.666s6.491.764,8.554-2.826-13.672-4.888-16.345-3.971S44.452,244.687,49.493,245.68Z" fill="#f79a8a"/><path d="M34.294,248.2c4.922,1.875,7.332-.688,9.471-6.034s1.3-6.95-.382-6.874-7.943,1.756-9.929,5.079S31.087,246.979,34.294,248.2Z" fill="#f79a8a"/><path d="M42.925,246.9c-.931,1.074-1.6,1.451-1.6,2.368s.458,1.375,3.36.687,3.514-2.643,2.6-4.147-2.065-1.9-2.634-1.661S43.8,245.893,42.925,246.9Z" fill="#f79a8a"/></g></g></g><g transform="translate(108.859 31.727)"><g transform="translate(28.419 233.744)"><path d="M28.474,248.064a4.192,4.192,0,0,0,.279.437c1.993-4.185,7.254-8.389,17.64-8.69,10.415-.305,16.311,1.032,19.523,2.75,1.792-.54,3.268-1.476,3.466-2.845v6.806c.4,2.783-4.057,4.071-7.335,4.071s-5.58,1.792-7.372,3.778-4.372,5.665-10.533,6.16-13.286-.818-15.668-4.989a5.97,5.97,0,0,1-.7-2.955v-7.475A5.969,5.969,0,0,0,28.474,248.064Z" transform="translate(-27.776 -232.293)" fill="#c2523e"/><path d="M27.776,245.112a5.969,5.969,0,0,0,.7,2.952,4.192,4.192,0,0,0,.279.437c2.614,3.829,9.449,5.033,15.389,4.556,6.161-.5,8.745-4.174,10.533-6.161s4.09-3.777,7.372-3.777a13.886,13.886,0,0,0,3.869-.558c1.792-.54,3.268-1.476,3.466-2.845a2.272,2.272,0,0,0,0-.669c-.4-2.782-4.813-7.239-22.989-6.711C32.5,232.74,27.776,240.123,27.776,245.112Z" transform="translate(-27.776 -232.293)" fill="#f5664e"/><g transform="translate(-27.776 -232.293)"><path d="M49.493,245.68c3.413.672,2.979-1.375,7.256-3.666s6.491.764,8.554-2.826-13.672-4.888-16.345-3.971S44.452,244.687,49.493,245.68Z" fill="#f79a8a"/><path d="M34.294,248.2c4.922,1.875,7.332-.688,9.471-6.034s1.3-6.95-.382-6.874-7.943,1.756-9.929,5.079S31.087,246.979,34.294,248.2Z" fill="#f79a8a"/><path d="M42.925,246.9c-.931,1.074-1.6,1.451-1.6,2.368s.458,1.375,3.36.687,3.514-2.643,2.6-4.147-2.065-1.9-2.634-1.661S43.8,245.893,42.925,246.9Z" fill="#f79a8a"/></g></g></g><g transform="translate(174.859 31.727)"><g transform="translate(28.419 233.744)"><path d="M28.474,248.064a4.192,4.192,0,0,0,.279.437c1.993-4.185,7.254-8.389,17.64-8.69,10.415-.305,16.311,1.032,19.523,2.75,1.792-.54,3.268-1.476,3.466-2.845v6.806c.4,2.783-4.057,4.071-7.335,4.071s-5.58,1.792-7.372,3.778-4.372,5.665-10.533,6.16-13.286-.818-15.668-4.989a5.97,5.97,0,0,1-.7-2.955v-7.475A5.969,5.969,0,0,0,28.474,248.064Z" transform="translate(-27.776 -232.293)" fill="#c2523e"/><path d="M27.776,245.112a5.969,5.969,0,0,0,.7,2.952,4.192,4.192,0,0,0,.279.437c2.614,3.829,9.449,5.033,15.389,4.556,6.161-.5,8.745-4.174,10.533-6.161s4.09-3.777,7.372-3.777a13.886,13.886,0,0,0,3.869-.558c1.792-.54,3.268-1.476,3.466-2.845a2.272,2.272,0,0,0,0-.669c-.4-2.782-4.813-7.239-22.989-6.711C32.5,232.74,27.776,240.123,27.776,245.112Z" transform="translate(-27.776 -232.293)" fill="#f5664e"/><g transform="translate(-27.776 -232.293)"><path d="M49.493,245.68c3.413.672,2.979-1.375,7.256-3.666s6.491.764,8.554-2.826-13.672-4.888-16.345-3.971S44.452,244.687,49.493,245.68Z" fill="#f79a8a"/><path d="M34.294,248.2c4.922,1.875,7.332-.688,9.471-6.034s1.3-6.95-.382-6.874-7.943,1.756-9.929,5.079S31.087,246.979,34.294,248.2Z" fill="#f79a8a"/><path d="M42.925,246.9c-.931,1.074-1.6,1.451-1.6,2.368s.458,1.375,3.36.687,3.514-2.643,2.6-4.147-2.065-1.9-2.634-1.661S43.8,245.893,42.925,246.9Z" fill="#f79a8a"/></g></g></g><g transform="translate(240.859 31.727)"><g transform="translate(28.419 233.744)"><path d="M28.474,248.064a4.192,4.192,0,0,0,.279.437c1.993-4.185,7.254-8.389,17.64-8.69,10.415-.305,16.311,1.032,19.523,2.75,1.792-.54,3.268-1.476,3.466-2.845v6.806c.4,2.783-4.057,4.071-7.335,4.071s-5.58,1.792-7.372,3.778-4.372,5.665-10.533,6.16-13.286-.818-15.668-4.989a5.97,5.97,0,0,1-.7-2.955v-7.475A5.969,5.969,0,0,0,28.474,248.064Z" transform="translate(-27.776 -232.293)" fill="#c2523e"/><path d="M27.776,245.112a5.969,5.969,0,0,0,.7,2.952,4.192,4.192,0,0,0,.279.437c2.614,3.829,9.449,5.033,15.389,4.556,6.161-.5,8.745-4.174,10.533-6.161s4.09-3.777,7.372-3.777a13.886,13.886,0,0,0,3.869-.558c1.792-.54,3.268-1.476,3.466-2.845a2.272,2.272,0,0,0,0-.669c-.4-2.782-4.813-7.239-22.989-6.711C32.5,232.74,27.776,240.123,27.776,245.112Z" transform="translate(-27.776 -232.293)" fill="#f5664e"/><g transform="translate(-27.776 -232.293)"><path d="M49.493,245.68c3.413.672,2.979-1.375,7.256-3.666s6.491.764,8.554-2.826-13.672-4.888-16.345-3.971S44.452,244.687,49.493,245.68Z" fill="#f79a8a"/><path d="M34.294,248.2c4.922,1.875,7.332-.688,9.471-6.034s1.3-6.95-.382-6.874-7.943,1.756-9.929,5.079S31.087,246.979,34.294,248.2Z" fill="#f79a8a"/><path d="M42.925,246.9c-.931,1.074-1.6,1.451-1.6,2.368s.458,1.375,3.36.687,3.514-2.643,2.6-4.147-2.065-1.9-2.634-1.661S43.8,245.893,42.925,246.9Z" fill="#f79a8a"/></g></g></g><g transform="translate(306.859 31.727)"><g transform="translate(28.419 233.744)"><path d="M28.474,248.064a4.192,4.192,0,0,0,.279.437c1.993-4.185,7.254-8.389,17.64-8.69,10.415-.305,16.311,1.032,19.523,2.75,1.792-.54,3.268-1.476,3.466-2.845v6.806c.4,2.783-4.057,4.071-7.335,4.071s-5.58,1.792-7.372,3.778-4.372,5.665-10.533,6.16-13.286-.818-15.668-4.989a5.97,5.97,0,0,1-.7-2.955v-7.475A5.969,5.969,0,0,0,28.474,248.064Z" transform="translate(-27.776 -232.293)" fill="#c2523e"/><path d="M27.776,245.112a5.969,5.969,0,0,0,.7,2.952,4.192,4.192,0,0,0,.279.437c2.614,3.829,9.449,5.033,15.389,4.556,6.161-.5,8.745-4.174,10.533-6.161s4.09-3.777,7.372-3.777a13.886,13.886,0,0,0,3.869-.558c1.792-.54,3.268-1.476,3.466-2.845a2.272,2.272,0,0,0,0-.669c-.4-2.782-4.813-7.239-22.989-6.711C32.5,232.74,27.776,240.123,27.776,245.112Z" transform="translate(-27.776 -232.293)" fill="#f5664e"/><g transform="translate(-27.776 -232.293)"><path d="M49.493,245.68c3.413.672,2.979-1.375,7.256-3.666s6.491.764,8.554-2.826-13.672-4.888-16.345-3.971S44.452,244.687,49.493,245.68Z" fill="#f79a8a"/><path d="M34.294,248.2c4.922,1.875,7.332-.688,9.471-6.034s1.3-6.95-.382-6.874-7.943,1.756-9.929,5.079S31.087,246.979,34.294,248.2Z" fill="#f79a8a"/><path d="M42.925,246.9c-.931,1.074-1.6,1.451-1.6,2.368s.458,1.375,3.36.687,3.514-2.643,2.6-4.147-2.065-1.9-2.634-1.661S43.8,245.893,42.925,246.9Z" fill="#f79a8a"/></g></g></g><g transform="translate(372.859 31.727)"><g transform="translate(28.419 233.744)"><path d="M28.474,248.064a4.192,4.192,0,0,0,.279.437c1.993-4.185,7.254-8.389,17.64-8.69,10.415-.305,16.311,1.032,19.523,2.75,1.792-.54,3.268-1.476,3.466-2.845v6.806c.4,2.783-4.057,4.071-7.335,4.071s-5.58,1.792-7.372,3.778-4.372,5.665-10.533,6.16-13.286-.818-15.668-4.989a5.97,5.97,0,0,1-.7-2.955v-7.475A5.969,5.969,0,0,0,28.474,248.064Z" transform="translate(-27.776 -232.293)" fill="#c2523e"/><path d="M27.776,245.112a5.969,5.969,0,0,0,.7,2.952,4.192,4.192,0,0,0,.279.437c2.614,3.829,9.449,5.033,15.389,4.556,6.161-.5,8.745-4.174,10.533-6.161s4.09-3.777,7.372-3.777a13.886,13.886,0,0,0,3.869-.558c1.792-.54,3.268-1.476,3.466-2.845a2.272,2.272,0,0,0,0-.669c-.4-2.782-4.813-7.239-22.989-6.711C32.5,232.74,27.776,240.123,27.776,245.112Z" transform="translate(-27.776 -232.293)" fill="#f5664e"/><g transform="translate(-27.776 -232.293)"><path d="M49.493,245.68c3.413.672,2.979-1.375,7.256-3.666s6.491.764,8.554-2.826-13.672-4.888-16.345-3.971S44.452,244.687,49.493,245.68Z" fill="#f79a8a"/><path d="M34.294,248.2c4.922,1.875,7.332-.688,9.471-6.034s1.3-6.95-.382-6.874-7.943,1.756-9.929,5.079S31.087,246.979,34.294,248.2Z" fill="#f79a8a"/><path d="M42.925,246.9c-.931,1.074-1.6,1.451-1.6,2.368s.458,1.375,3.36.687,3.514-2.643,2.6-4.147-2.065-1.9-2.634-1.661S43.8,245.893,42.925,246.9Z" fill="#f79a8a"/></g></g></g><g transform="translate(438.859 31.727)"><g transform="translate(28.419 233.744)"><path d="M28.474,248.064a4.192,4.192,0,0,0,.279.437c1.993-4.185,7.254-8.389,17.64-8.69,10.415-.305,16.311,1.032,19.523,2.75,1.792-.54,3.268-1.476,3.466-2.845v6.806c.4,2.783-4.057,4.071-7.335,4.071s-5.58,1.792-7.372,3.778-4.372,5.665-10.533,6.16-13.286-.818-15.668-4.989a5.97,5.97,0,0,1-.7-2.955v-7.475A5.969,5.969,0,0,0,28.474,248.064Z" transform="translate(-27.776 -232.293)" fill="#c2523e"/><path d="M27.776,245.112a5.969,5.969,0,0,0,.7,2.952,4.192,4.192,0,0,0,.279.437c2.614,3.829,9.449,5.033,15.389,4.556,6.161-.5,8.745-4.174,10.533-6.161s4.09-3.777,7.372-3.777a13.886,13.886,0,0,0,3.869-.558c1.792-.54,3.268-1.476,3.466-2.845a2.272,2.272,0,0,0,0-.669c-.4-2.782-4.813-7.239-22.989-6.711C32.5,232.74,27.776,240.123,27.776,245.112Z" transform="translate(-27.776 -232.293)" fill="#f5664e"/><g transform="translate(-27.776 -232.293)"><path d="M49.493,245.68c3.413.672,2.979-1.375,7.256-3.666s6.491.764,8.554-2.826-13.672-4.888-16.345-3.971S44.452,244.687,49.493,245.68Z" fill="#f79a8a"/><path d="M34.294,248.2c4.922,1.875,7.332-.688,9.471-6.034s1.3-6.95-.382-6.874-7.943,1.756-9.929,5.079S31.087,246.979,34.294,248.2Z" fill="#f79a8a"/><path d="M42.925,246.9c-.931,1.074-1.6,1.451-1.6,2.368s.458,1.375,3.36.687,3.514-2.643,2.6-4.147-2.065-1.9-2.634-1.661S43.8,245.893,42.925,246.9Z" fill="#f79a8a"/></g></g></g><g transform="translate(504.859 31.727)"><g transform="translate(28.419 233.744)"><path d="M28.474,248.064a4.192,4.192,0,0,0,.279.437c1.993-4.185,7.254-8.389,17.64-8.69,10.415-.305,16.311,1.032,19.523,2.75,1.792-.54,3.268-1.476,3.466-2.845v6.806c.4,2.783-4.057,4.071-7.335,4.071s-5.58,1.792-7.372,3.778-4.372,5.665-10.533,6.16-13.286-.818-15.668-4.989a5.97,5.97,0,0,1-.7-2.955v-7.475A5.969,5.969,0,0,0,28.474,248.064Z" transform="translate(-27.776 -232.293)" fill="#c2523e"/><path d="M27.776,245.112a5.969,5.969,0,0,0,.7,2.952,4.192,4.192,0,0,0,.279.437c2.614,3.829,9.449,5.033,15.389,4.556,6.161-.5,8.745-4.174,10.533-6.161s4.09-3.777,7.372-3.777a13.886,13.886,0,0,0,3.869-.558c1.792-.54,3.268-1.476,3.466-2.845a2.272,2.272,0,0,0,0-.669c-.4-2.782-4.813-7.239-22.989-6.711C32.5,232.74,27.776,240.123,27.776,245.112Z" transform="translate(-27.776 -232.293)" fill="#f5664e"/><g transform="translate(-27.776 -232.293)"><path d="M49.493,245.68c3.413.672,2.979-1.375,7.256-3.666s6.491.764,8.554-2.826-13.672-4.888-16.345-3.971S44.452,244.687,49.493,245.68Z" fill="#f79a8a"/><path d="M34.294,248.2c4.922,1.875,7.332-.688,9.471-6.034s1.3-6.95-.382-6.874-7.943,1.756-9.929,5.079S31.087,246.979,34.294,248.2Z" fill="#f79a8a"/><path d="M42.925,246.9c-.931,1.074-1.6,1.451-1.6,2.368s.458,1.375,3.36.687,3.514-2.643,2.6-4.147-2.065-1.9-2.634-1.661S43.8,245.893,42.925,246.9Z" fill="#f79a8a"/></g></g></g></g></svg>