<svg xmlns="http://www.w3.org/2000/svg" xmlns:xlink="http://www.w3.org/1999/xlink" width="591.741" height="311.741" viewBox="0 0 591.741 311.741"><defs><clipPath id="a"><rect width="591.741" height="311.741" fill="none"/></clipPath></defs><g clip-path="url(#a)"><g transform="translate(-23.141 -220.273)"><g transform="translate(24.419 229.744)"><rect width="13.451" height="9.255" transform="translate(32.318 0.736) rotate(12.521)" fill="#262729"/><line x1="48.638" transform="translate(0.049 7.647)" fill="none"/><g transform="translate(-22.687 -231.578)"><ellipse cx="14.638" cy="14.152" rx="14.638" ry="14.152" transform="translate(25.767 231.578)" fill="#f0bd5a"/><ellipse cx="11.194" cy="10.822" rx="11.194" ry="10.822" transform="translate(29.211 234.908)" fill="#f2d496"/><ellipse cx="9.273" cy="8.965" rx="9.273" ry="8.965" transform="translate(31.132 236.765)" fill="#f0bd5a"/></g><path d="M71.325,239.094H22.687a24.321,24.321,0,0,0,15.29,22.577l-1.035,4.257H57.07l-1.035-4.257A24.321,24.321,0,0,0,71.325,239.094Z" transform="translate(-22.687 -231.578)" fill="#fff"/></g></g><g transform="translate(42.859 -220.273)"><g transform="translate(24.419 229.744)"><rect width="13.451" height="9.255" transform="translate(32.318 0.736) rotate(12.521)" fill="#262729"/><line x1="48.638" transform="translate(0.049 7.647)" fill="none"/><g transform="translate(-22.687 -231.578)"><ellipse cx="14.638" cy="14.152" rx="14.638" ry="14.152" transform="translate(25.767 231.578)" fill="#f0bd5a"/><ellipse cx="11.194" cy="10.822" rx="11.194" ry="10.822" transform="translate(29.211 234.908)" fill="#f2d496"/><ellipse cx="9.273" cy="8.965" rx="9.273" ry="8.965" transform="translate(31.132 236.765)" fill="#f0bd5a"/></g><path d="M71.325,239.094H22.687a24.321,24.321,0,0,0,15.29,22.577l-1.035,4.257H57.07l-1.035-4.257A24.321,24.321,0,0,0,71.325,239.094Z" transform="translate(-22.687 -231.578)" fill="#fff"/></g></g><g transform="translate(108.859 -220.273)"><g transform="translate(24.419 229.744)"><rect width="13.451" height="9.255" transform="translate(32.318 0.736) rotate(12.521)" fill="#262729"/><line x1="48.638" transform="translate(0.049 7.647)" fill="none"/><g transform="translate(-22.687 -231.578)"><ellipse cx="14.638" cy="14.152" rx="14.638" ry="14.152" transform="translate(25.767 231.578)" fill="#f0bd5a"/><ellipse cx="11.194" cy="10.822" rx="11.194" ry="10.822" transform="translate(29.211 234.908)" fill="#f2d496"/><ellipse cx="9.273" cy="8.965" rx="9.273" ry="8.965" transform="translate(31.132 236.765)" fill="#f0bd5a"/></g><path d="M71.325,239.094H22.687a24.321,24.321,0,0,0,15.29,22.577l-1.035,4.257H57.07l-1.035-4.257A24.321,24.321,0,0,0,71.325,239.094Z" transform="translate(-22.687 -231.578)" fill="#fff"/></g></g><g transform="translate(174.859 -220.273)"><g transform="translate(24.419 229.744)"><rect width="13.451" height="9.255" transform="translate(32.318 0.736) rotate(12.521)" fill="#262729"/><line x1="48.638" transform="translate(0.049 7.647)" fill="none"/><g transform="translate(-22.687 -231.578)"><ellipse cx="14.638" cy="14.152" rx="14.638" ry="14.152" transform="translate(25.767 231.578)" fill="#f0bd5a"/><ellipse cx="11.194" cy="10.822" rx="11.194" ry="10.822" transform="translate(29.211 234.908)" fill="#f2d496"/><ellipse cx="9.273" cy="8.965" rx="9.273" ry="8.965" transform="translate(31.132 236.765)" fill="#f0bd5a"/></g><path d="M71.325,239.094H22.687a24.321,24.321,0,0,0,15.29,22.577l-1.035,4.257H57.07l-1.035-4.257A24.321,24.321,0,0,0,71.325,239.094Z" transform="translate(-22.687 -231.578)" fill="#fff"/></g></g><g transform="translate(240.859 -220.273)"><g transform="translate(24.419 229.744)"><rect width="13.451" height="9.255" transform="translate(32.318 0.736) rotate(12.521)" fill="#262729"/><line x1="48.638" transform="translate(0.049 7.647)" fill="none"/><g transform="translate(-22.687 -231.578)"><ellipse cx="14.638" cy="14.152" rx="14.638" ry="14.152" transform="translate(25.767 231.578)" fill="#f0bd5a"/><ellipse cx="11.194" cy="10.822" rx="11.194" ry="10.822" transform="translate(29.211 234.908)" fill="#f2d496"/><ellipse cx="9.273" cy="8.965" rx="9.273" ry="8.965" transform="translate(31.132 236.765)" fill="#f0bd5a"/></g><path d="M71.325,239.094H22.687a24.321,24.321,0,0,0,15.29,22.577l-1.035,4.257H57.07l-1.035-4.257A24.321,24.321,0,0,0,71.325,239.094Z" transform="translate(-22.687 -231.578)" fill="#fff"/></g></g><g transform="translate(306.859 -220.273)"><g transform="translate(24.419 229.744)"><rect width="13.451" height="9.255" transform="translate(32.318 0.736) rotate(12.521)" fill="#262729"/><line x1="48.638" transform="translate(0.049 7.647)" fill="none"/><g transform="translate(-22.687 -231.578)"><ellipse cx="14.638" cy="14.152" rx="14.638" ry="14.152" transform="translate(25.767 231.578)" fill="#f0bd5a"/><ellipse cx="11.194" cy="10.822" rx="11.194" ry="10.822" transform="translate(29.211 234.908)" fill="#f2d496"/><ellipse cx="9.273" cy="8.965" rx="9.273" ry="8.965" transform="translate(31.132 236.765)" fill="#f0bd5a"/></g><path d="M71.325,239.094H22.687a24.321,24.321,0,0,0,15.29,22.577l-1.035,4.257H57.07l-1.035-4.257A24.321,24.321,0,0,0,71.325,239.094Z" transform="translate(-22.687 -231.578)" fill="#fff"/></g></g><g transform="translate(372.859 -220.273)"><g transform="translate(24.419 229.744)"><rect width="13.451" height="9.255" transform="translate(32.318 0.736) rotate(12.521)" fill="#262729"/><line x1="48.638" transform="translate(0.049 7.647)" fill="none"/><g transform="translate(-22.687 -231.578)"><ellipse cx="14.638" cy="14.152" rx="14.638" ry="14.152" transform="translate(25.767 231.578)" fill="#f0bd5a"/><ellipse cx="11.194" cy="10.822" rx="11.194" ry="10.822" transform="translate(29.211 234.908)" fill="#f2d496"/><ellipse cx="9.273" cy="8.965" rx="9.273" ry="8.965" transform="translate(31.132 236.765)" fill="#f0bd5a"/></g><path d="M71.325,239.094H22.687a24.321,24.321,0,0,0,15.29,22.577l-1.035,4.257H57.07l-1.035-4.257A24.321,24.321,0,0,0,71.325,239.094Z" transform="translate(-22.687 -231.578)" fill="#fff"/></g></g><g transform="translate(438.859 -220.273)"><g transform="translate(24.419 229.744)"><rect width="13.451" height="9.255" transform="translate(32.318 0.736) rotate(12.521)" fill="#262729"/><line x1="48.638" transform="translate(0.049 7.647)" fill="none"/><g transform="translate(-22.687 -231.578)"><ellipse cx="14.638" cy="14.152" rx="14.638" ry="14.152" transform="translate(25.767 231.578)" fill="#f0bd5a"/><ellipse cx="11.194" cy="10.822" rx="11.194" ry="10.822" transform="translate(29.211 234.908)" fill="#f2d496"/><ellipse cx="9.273" cy="8.965" rx="9.273" ry="8.965" transform="translate(31.132 236.765)" fill="#f0bd5a"/></g><path d="M71.325,239.094H22.687a24.321,24.321,0,0,0,15.29,22.577l-1.035,4.257H57.07l-1.035-4.257A24.321,24.321,0,0,0,71.325,239.094Z" transform="translate(-22.687 -231.578)" fill="#fff"/></g></g><g transform="translate(504.859 -220.273)"><g transform="translate(24.419 229.744)"><rect width="13.451" height="9.255" transform="translate(32.318 0.736) rotate(12.521)" fill="#262729"/><line x1="48.638" transform="translate(0.049 7.647)" fill="none"/><g transform="translate(-22.687 -231.578)"><ellipse cx="14.638" cy="14.152" rx="14.638" ry="14.152" transform="translate(25.767 231.578)" fill="#f0bd5a"/><ellipse cx="11.194" cy="10.822" rx="11.194" ry="10.822" transform="translate(29.211 234.908)" fill="#f2d496"/><ellipse cx="9.273" cy="8.965" rx="9.273" ry="8.965" transform="translate(31.132 236.765)" fill="#f0bd5a"/></g><path d="M71.325,239.094H22.687a24.321,24.321,0,0,0,15.29,22.577l-1.035,4.257H57.07l-1.035-4.257A24.321,24.321,0,0,0,71.325,239.094Z" transform="translate(-22.687 -231.578)" fill="#fff"/></g></g><g transform="translate(-23.141 -157.273)"><g transform="translate(24.419 229.744)"><rect width="13.451" height="9.255" transform="translate(32.318 0.736) rotate(12.521)" fill="#262729"/><line x1="48.638" transform="translate(0.049 7.647)" fill="none"/><g transform="translate(-22.687 -231.578)"><ellipse cx="14.638" cy="14.152" rx="14.638" ry="14.152" transform="translate(25.767 231.578)" fill="#f0bd5a"/><ellipse cx="11.194" cy="10.822" rx="11.194" ry="10.822" transform="translate(29.211 234.908)" fill="#f2d496"/><ellipse cx="9.273" cy="8.965" rx="9.273" ry="8.965" transform="translate(31.132 236.765)" fill="#f0bd5a"/></g><path d="M71.325,239.094H22.687a24.321,24.321,0,0,0,15.29,22.577l-1.035,4.257H57.07l-1.035-4.257A24.321,24.321,0,0,0,71.325,239.094Z" transform="translate(-22.687 -231.578)" fill="#fff"/></g></g><g transform="translate(42.859 -157.273)"><g transform="translate(24.419 229.744)"><rect width="13.451" height="9.255" transform="translate(32.318 0.736) rotate(12.521)" fill="#262729"/><line x1="48.638" transform="translate(0.049 7.647)" fill="none"/><g transform="translate(-22.687 -231.578)"><ellipse cx="14.638" cy="14.152" rx="14.638" ry="14.152" transform="translate(25.767 231.578)" fill="#f0bd5a"/><ellipse cx="11.194" cy="10.822" rx="11.194" ry="10.822" transform="translate(29.211 234.908)" fill="#f2d496"/><ellipse cx="9.273" cy="8.965" rx="9.273" ry="8.965" transform="translate(31.132 236.765)" fill="#f0bd5a"/></g><path d="M71.325,239.094H22.687a24.321,24.321,0,0,0,15.29,22.577l-1.035,4.257H57.07l-1.035-4.257A24.321,24.321,0,0,0,71.325,239.094Z" transform="translate(-22.687 -231.578)" fill="#fff"/></g></g><g transform="translate(108.859 -157.273)"><g transform="translate(24.419 229.744)"><rect width="13.451" height="9.255" transform="translate(32.318 0.736) rotate(12.521)" fill="#262729"/><line x1="48.638" transform="translate(0.049 7.647)" fill="none"/><g transform="translate(-22.687 -231.578)"><ellipse cx="14.638" cy="14.152" rx="14.638" ry="14.152" transform="translate(25.767 231.578)" fill="#f0bd5a"/><ellipse cx="11.194" cy="10.822" rx="11.194" ry="10.822" transform="translate(29.211 234.908)" fill="#f2d496"/><ellipse cx="9.273" cy="8.965" rx="9.273" ry="8.965" transform="translate(31.132 236.765)" fill="#f0bd5a"/></g><path d="M71.325,239.094H22.687a24.321,24.321,0,0,0,15.29,22.577l-1.035,4.257H57.07l-1.035-4.257A24.321,24.321,0,0,0,71.325,239.094Z" transform="translate(-22.687 -231.578)" fill="#fff"/></g></g><g transform="translate(174.859 -157.273)"><g transform="translate(24.419 229.744)"><rect width="13.451" height="9.255" transform="translate(32.318 0.736) rotate(12.521)" fill="#262729"/><line x1="48.638" transform="translate(0.049 7.647)" fill="none"/><g transform="translate(-22.687 -231.578)"><ellipse cx="14.638" cy="14.152" rx="14.638" ry="14.152" transform="translate(25.767 231.578)" fill="#f0bd5a"/><ellipse cx="11.194" cy="10.822" rx="11.194" ry="10.822" transform="translate(29.211 234.908)" fill="#f2d496"/><ellipse cx="9.273" cy="8.965" rx="9.273" ry="8.965" transform="translate(31.132 236.765)" fill="#f0bd5a"/></g><path d="M71.325,239.094H22.687a24.321,24.321,0,0,0,15.29,22.577l-1.035,4.257H57.07l-1.035-4.257A24.321,24.321,0,0,0,71.325,239.094Z" transform="translate(-22.687 -231.578)" fill="#fff"/></g></g><g transform="translate(240.859 -157.273)"><g transform="translate(24.419 229.744)"><rect width="13.451" height="9.255" transform="translate(32.318 0.736) rotate(12.521)" fill="#262729"/><line x1="48.638" transform="translate(0.049 7.647)" fill="none"/><g transform="translate(-22.687 -231.578)"><ellipse cx="14.638" cy="14.152" rx="14.638" ry="14.152" transform="translate(25.767 231.578)" fill="#f0bd5a"/><ellipse cx="11.194" cy="10.822" rx="11.194" ry="10.822" transform="translate(29.211 234.908)" fill="#f2d496"/><ellipse cx="9.273" cy="8.965" rx="9.273" ry="8.965" transform="translate(31.132 236.765)" fill="#f0bd5a"/></g><path d="M71.325,239.094H22.687a24.321,24.321,0,0,0,15.29,22.577l-1.035,4.257H57.07l-1.035-4.257A24.321,24.321,0,0,0,71.325,239.094Z" transform="translate(-22.687 -231.578)" fill="#fff"/></g></g><g transform="translate(306.859 -157.273)"><g transform="translate(24.419 229.744)"><rect width="13.451" height="9.255" transform="translate(32.318 0.736) rotate(12.521)" fill="#262729"/><line x1="48.638" transform="translate(0.049 7.647)" fill="none"/><g transform="translate(-22.687 -231.578)"><ellipse cx="14.638" cy="14.152" rx="14.638" ry="14.152" transform="translate(25.767 231.578)" fill="#f0bd5a"/><ellipse cx="11.194" cy="10.822" rx="11.194" ry="10.822" transform="translate(29.211 234.908)" fill="#f2d496"/><ellipse cx="9.273" cy="8.965" rx="9.273" ry="8.965" transform="translate(31.132 236.765)" fill="#f0bd5a"/></g><path d="M71.325,239.094H22.687a24.321,24.321,0,0,0,15.29,22.577l-1.035,4.257H57.07l-1.035-4.257A24.321,24.321,0,0,0,71.325,239.094Z" transform="translate(-22.687 -231.578)" fill="#fff"/></g></g><g transform="translate(372.859 -157.273)"><g transform="translate(24.419 229.744)"><rect width="13.451" height="9.255" transform="translate(32.318 0.736) rotate(12.521)" fill="#262729"/><line x1="48.638" transform="translate(0.049 7.647)" fill="none"/><g transform="translate(-22.687 -231.578)"><ellipse cx="14.638" cy="14.152" rx="14.638" ry="14.152" transform="translate(25.767 231.578)" fill="#f0bd5a"/><ellipse cx="11.194" cy="10.822" rx="11.194" ry="10.822" transform="translate(29.211 234.908)" fill="#f2d496"/><ellipse cx="9.273" cy="8.965" rx="9.273" ry="8.965" transform="translate(31.132 236.765)" fill="#f0bd5a"/></g><path d="M71.325,239.094H22.687a24.321,24.321,0,0,0,15.29,22.577l-1.035,4.257H57.07l-1.035-4.257A24.321,24.321,0,0,0,71.325,239.094Z" transform="translate(-22.687 -231.578)" fill="#fff"/></g></g><g transform="translate(438.859 -157.273)"><g transform="translate(24.419 229.744)"><rect width="13.451" height="9.255" transform="translate(32.318 0.736) rotate(12.521)" fill="#262729"/><line x1="48.638" transform="translate(0.049 7.647)" fill="none"/><g transform="translate(-22.687 -231.578)"><ellipse cx="14.638" cy="14.152" rx="14.638" ry="14.152" transform="translate(25.767 231.578)" fill="#f0bd5a"/><ellipse cx="11.194" cy="10.822" rx="11.194" ry="10.822" transform="translate(29.211 234.908)" fill="#f2d496"/><ellipse cx="9.273" cy="8.965" rx="9.273" ry="8.965" transform="translate(31.132 236.765)" fill="#f0bd5a"/></g><path d="M71.325,239.094H22.687a24.321,24.321,0,0,0,15.29,22.577l-1.035,4.257H57.07l-1.035-4.257A24.321,24.321,0,0,0,71.325,239.094Z" transform="translate(-22.687 -231.578)" fill="#fff"/></g></g><g transform="translate(504.859 -157.273)"><g transform="translate(24.419 229.744)"><rect width="13.451" height="9.255" transform="translate(32.318 0.736) rotate(12.521)" fill="#262729"/><line x1="48.638" transform="translate(0.049 7.647)" fill="none"/><g transform="translate(-22.687 -231.578)"><ellipse cx="14.638" cy="14.152" rx="14.638" ry="14.152" transform="translate(25.767 231.578)" fill="#f0bd5a"/><ellipse cx="11.194" cy="10.822" rx="11.194" ry="10.822" transform="translate(29.211 234.908)" fill="#f2d496"/><ellipse cx="9.273" cy="8.965" rx="9.273" ry="8.965" transform="translate(31.132 236.765)" fill="#f0bd5a"/></g><path d="M71.325,239.094H22.687a24.321,24.321,0,0,0,15.29,22.577l-1.035,4.257H57.07l-1.035-4.257A24.321,24.321,0,0,0,71.325,239.094Z" transform="translate(-22.687 -231.578)" fill="#fff"/></g></g><g transform="translate(-23.141 -94.273)"><g transform="translate(24.419 229.744)"><rect width="13.451" height="9.255" transform="translate(32.318 0.736) rotate(12.521)" fill="#262729"/><line x1="48.638" transform="translate(0.049 7.647)" fill="none"/><g transform="translate(-22.687 -231.578)"><ellipse cx="14.638" cy="14.152" rx="14.638" ry="14.152" transform="translate(25.767 231.578)" fill="#f0bd5a"/><ellipse cx="11.194" cy="10.822" rx="11.194" ry="10.822" transform="translate(29.211 234.908)" fill="#f2d496"/><ellipse cx="9.273" cy="8.965" rx="9.273" ry="8.965" transform="translate(31.132 236.765)" fill="#f0bd5a"/></g><path d="M71.325,239.094H22.687a24.321,24.321,0,0,0,15.29,22.577l-1.035,4.257H57.07l-1.035-4.257A24.321,24.321,0,0,0,71.325,239.094Z" transform="translate(-22.687 -231.578)" fill="#fff"/></g></g><g transform="translate(42.859 -94.273)"><g transform="translate(24.419 229.744)"><rect width="13.451" height="9.255" transform="translate(32.318 0.736) rotate(12.521)" fill="#262729"/><line x1="48.638" transform="translate(0.049 7.647)" fill="none"/><g transform="translate(-22.687 -231.578)"><ellipse cx="14.638" cy="14.152" rx="14.638" ry="14.152" transform="translate(25.767 231.578)" fill="#f0bd5a"/><ellipse cx="11.194" cy="10.822" rx="11.194" ry="10.822" transform="translate(29.211 234.908)" fill="#f2d496"/><ellipse cx="9.273" cy="8.965" rx="9.273" ry="8.965" transform="translate(31.132 236.765)" fill="#f0bd5a"/></g><path d="M71.325,239.094H22.687a24.321,24.321,0,0,0,15.29,22.577l-1.035,4.257H57.07l-1.035-4.257A24.321,24.321,0,0,0,71.325,239.094Z" transform="translate(-22.687 -231.578)" fill="#fff"/></g></g><g transform="translate(108.859 -94.273)"><g transform="translate(24.419 229.744)"><rect width="13.451" height="9.255" transform="translate(32.318 0.736) rotate(12.521)" fill="#262729"/><line x1="48.638" transform="translate(0.049 7.647)" fill="none"/><g transform="translate(-22.687 -231.578)"><ellipse cx="14.638" cy="14.152" rx="14.638" ry="14.152" transform="translate(25.767 231.578)" fill="#f0bd5a"/><ellipse cx="11.194" cy="10.822" rx="11.194" ry="10.822" transform="translate(29.211 234.908)" fill="#f2d496"/><ellipse cx="9.273" cy="8.965" rx="9.273" ry="8.965" transform="translate(31.132 236.765)" fill="#f0bd5a"/></g><path d="M71.325,239.094H22.687a24.321,24.321,0,0,0,15.29,22.577l-1.035,4.257H57.07l-1.035-4.257A24.321,24.321,0,0,0,71.325,239.094Z" transform="translate(-22.687 -231.578)" fill="#fff"/></g></g><g transform="translate(174.859 -94.273)"><g transform="translate(24.419 229.744)"><rect width="13.451" height="9.255" transform="translate(32.318 0.736) rotate(12.521)" fill="#262729"/><line x1="48.638" transform="translate(0.049 7.647)" fill="none"/><g transform="translate(-22.687 -231.578)"><ellipse cx="14.638" cy="14.152" rx="14.638" ry="14.152" transform="translate(25.767 231.578)" fill="#f0bd5a"/><ellipse cx="11.194" cy="10.822" rx="11.194" ry="10.822" transform="translate(29.211 234.908)" fill="#f2d496"/><ellipse cx="9.273" cy="8.965" rx="9.273" ry="8.965" transform="translate(31.132 236.765)" fill="#f0bd5a"/></g><path d="M71.325,239.094H22.687a24.321,24.321,0,0,0,15.29,22.577l-1.035,4.257H57.07l-1.035-4.257A24.321,24.321,0,0,0,71.325,239.094Z" transform="translate(-22.687 -231.578)" fill="#fff"/></g></g><g transform="translate(240.859 -94.273)"><g transform="translate(24.419 229.744)"><rect width="13.451" height="9.255" transform="translate(32.318 0.736) rotate(12.521)" fill="#262729"/><line x1="48.638" transform="translate(0.049 7.647)" fill="none"/><g transform="translate(-22.687 -231.578)"><ellipse cx="14.638" cy="14.152" rx="14.638" ry="14.152" transform="translate(25.767 231.578)" fill="#f0bd5a"/><ellipse cx="11.194" cy="10.822" rx="11.194" ry="10.822" transform="translate(29.211 234.908)" fill="#f2d496"/><ellipse cx="9.273" cy="8.965" rx="9.273" ry="8.965" transform="translate(31.132 236.765)" fill="#f0bd5a"/></g><path d="M71.325,239.094H22.687a24.321,24.321,0,0,0,15.29,22.577l-1.035,4.257H57.07l-1.035-4.257A24.321,24.321,0,0,0,71.325,239.094Z" transform="translate(-22.687 -231.578)" fill="#fff"/></g></g><g transform="translate(306.859 -94.273)"><g transform="translate(24.419 229.744)"><rect width="13.451" height="9.255" transform="translate(32.318 0.736) rotate(12.521)" fill="#262729"/><line x1="48.638" transform="translate(0.049 7.647)" fill="none"/><g transform="translate(-22.687 -231.578)"><ellipse cx="14.638" cy="14.152" rx="14.638" ry="14.152" transform="translate(25.767 231.578)" fill="#f0bd5a"/><ellipse cx="11.194" cy="10.822" rx="11.194" ry="10.822" transform="translate(29.211 234.908)" fill="#f2d496"/><ellipse cx="9.273" cy="8.965" rx="9.273" ry="8.965" transform="translate(31.132 236.765)" fill="#f0bd5a"/></g><path d="M71.325,239.094H22.687a24.321,24.321,0,0,0,15.29,22.577l-1.035,4.257H57.07l-1.035-4.257A24.321,24.321,0,0,0,71.325,239.094Z" transform="translate(-22.687 -231.578)" fill="#fff"/></g></g><g transform="translate(372.859 -94.273)"><g transform="translate(24.419 229.744)"><rect width="13.451" height="9.255" transform="translate(32.318 0.736) rotate(12.521)" fill="#262729"/><line x1="48.638" transform="translate(0.049 7.647)" fill="none"/><g transform="translate(-22.687 -231.578)"><ellipse cx="14.638" cy="14.152" rx="14.638" ry="14.152" transform="translate(25.767 231.578)" fill="#f0bd5a"/><ellipse cx="11.194" cy="10.822" rx="11.194" ry="10.822" transform="translate(29.211 234.908)" fill="#f2d496"/><ellipse cx="9.273" cy="8.965" rx="9.273" ry="8.965" transform="translate(31.132 236.765)" fill="#f0bd5a"/></g><path d="M71.325,239.094H22.687a24.321,24.321,0,0,0,15.29,22.577l-1.035,4.257H57.07l-1.035-4.257A24.321,24.321,0,0,0,71.325,239.094Z" transform="translate(-22.687 -231.578)" fill="#fff"/></g></g><g transform="translate(438.859 -94.273)"><g transform="translate(24.419 229.744)"><rect width="13.451" height="9.255" transform="translate(32.318 0.736) rotate(12.521)" fill="#262729"/><line x1="48.638" transform="translate(0.049 7.647)" fill="none"/><g transform="translate(-22.687 -231.578)"><ellipse cx="14.638" cy="14.152" rx="14.638" ry="14.152" transform="translate(25.767 231.578)" fill="#f0bd5a"/><ellipse cx="11.194" cy="10.822" rx="11.194" ry="10.822" transform="translate(29.211 234.908)" fill="#f2d496"/><ellipse cx="9.273" cy="8.965" rx="9.273" ry="8.965" transform="translate(31.132 236.765)" fill="#f0bd5a"/></g><path d="M71.325,239.094H22.687a24.321,24.321,0,0,0,15.29,22.577l-1.035,4.257H57.07l-1.035-4.257A24.321,24.321,0,0,0,71.325,239.094Z" transform="translate(-22.687 -231.578)" fill="#fff"/></g></g><g transform="translate(504.859 -94.273)"><g transform="translate(24.419 229.744)"><rect width="13.451" height="9.255" transform="translate(32.318 0.736) rotate(12.521)" fill="#262729"/><line x1="48.638" transform="translate(0.049 7.647)" fill="none"/><g transform="translate(-22.687 -231.578)"><ellipse cx="14.638" cy="14.152" rx="14.638" ry="14.152" transform="translate(25.767 231.578)" fill="#f0bd5a"/><ellipse cx="11.194" cy="10.822" rx="11.194" ry="10.822" transform="translate(29.211 234.908)" fill="#f2d496"/><ellipse cx="9.273" cy="8.965" rx="9.273" ry="8.965" transform="translate(31.132 236.765)" fill="#f0bd5a"/></g><path d="M71.325,239.094H22.687a24.321,24.321,0,0,0,15.29,22.577l-1.035,4.257H57.07l-1.035-4.257A24.321,24.321,0,0,0,71.325,239.094Z" transform="translate(-22.687 -231.578)" fill="#fff"/></g></g><g transform="translate(-23.141 -31.273)"><g transform="translate(24.419 229.744)"><rect width="13.451" height="9.255" transform="translate(32.318 0.736) rotate(12.521)" fill="#262729"/><line x1="48.638" transform="translate(0.049 7.647)" fill="none"/><g transform="translate(-22.687 -231.578)"><ellipse cx="14.638" cy="14.152" rx="14.638" ry="14.152" transform="translate(25.767 231.578)" fill="#f0bd5a"/><ellipse cx="11.194" cy="10.822" rx="11.194" ry="10.822" transform="translate(29.211 234.908)" fill="#f2d496"/><ellipse cx="9.273" cy="8.965" rx="9.273" ry="8.965" transform="translate(31.132 236.765)" fill="#f0bd5a"/></g><path d="M71.325,239.094H22.687a24.321,24.321,0,0,0,15.29,22.577l-1.035,4.257H57.07l-1.035-4.257A24.321,24.321,0,0,0,71.325,239.094Z" transform="translate(-22.687 -231.578)" fill="#fff"/></g></g><g transform="translate(42.859 -31.273)"><g transform="translate(24.419 229.744)"><rect width="13.451" height="9.255" transform="translate(32.318 0.736) rotate(12.521)" fill="#262729"/><line x1="48.638" transform="translate(0.049 7.647)" fill="none"/><g transform="translate(-22.687 -231.578)"><ellipse cx="14.638" cy="14.152" rx="14.638" ry="14.152" transform="translate(25.767 231.578)" fill="#f0bd5a"/><ellipse cx="11.194" cy="10.822" rx="11.194" ry="10.822" transform="translate(29.211 234.908)" fill="#f2d496"/><ellipse cx="9.273" cy="8.965" rx="9.273" ry="8.965" transform="translate(31.132 236.765)" fill="#f0bd5a"/></g><path d="M71.325,239.094H22.687a24.321,24.321,0,0,0,15.29,22.577l-1.035,4.257H57.07l-1.035-4.257A24.321,24.321,0,0,0,71.325,239.094Z" transform="translate(-22.687 -231.578)" fill="#fff"/></g></g><g transform="translate(108.859 -31.273)"><g transform="translate(24.419 229.744)"><rect width="13.451" height="9.255" transform="translate(32.318 0.736) rotate(12.521)" fill="#262729"/><line x1="48.638" transform="translate(0.049 7.647)" fill="none"/><g transform="translate(-22.687 -231.578)"><ellipse cx="14.638" cy="14.152" rx="14.638" ry="14.152" transform="translate(25.767 231.578)" fill="#f0bd5a"/><ellipse cx="11.194" cy="10.822" rx="11.194" ry="10.822" transform="translate(29.211 234.908)" fill="#f2d496"/><ellipse cx="9.273" cy="8.965" rx="9.273" ry="8.965" transform="translate(31.132 236.765)" fill="#f0bd5a"/></g><path d="M71.325,239.094H22.687a24.321,24.321,0,0,0,15.29,22.577l-1.035,4.257H57.07l-1.035-4.257A24.321,24.321,0,0,0,71.325,239.094Z" transform="translate(-22.687 -231.578)" fill="#fff"/></g></g><g transform="translate(174.859 -31.273)"><g transform="translate(24.419 229.744)"><rect width="13.451" height="9.255" transform="translate(32.318 0.736) rotate(12.521)" fill="#262729"/><line x1="48.638" transform="translate(0.049 7.647)" fill="none"/><g transform="translate(-22.687 -231.578)"><ellipse cx="14.638" cy="14.152" rx="14.638" ry="14.152" transform="translate(25.767 231.578)" fill="#f0bd5a"/><ellipse cx="11.194" cy="10.822" rx="11.194" ry="10.822" transform="translate(29.211 234.908)" fill="#f2d496"/><ellipse cx="9.273" cy="8.965" rx="9.273" ry="8.965" transform="translate(31.132 236.765)" fill="#f0bd5a"/></g><path d="M71.325,239.094H22.687a24.321,24.321,0,0,0,15.29,22.577l-1.035,4.257H57.07l-1.035-4.257A24.321,24.321,0,0,0,71.325,239.094Z" transform="translate(-22.687 -231.578)" fill="#fff"/></g></g><g transform="translate(240.859 -31.273)"><g transform="translate(24.419 229.744)"><rect width="13.451" height="9.255" transform="translate(32.318 0.736) rotate(12.521)" fill="#262729"/><line x1="48.638" transform="translate(0.049 7.647)" fill="none"/><g transform="translate(-22.687 -231.578)"><ellipse cx="14.638" cy="14.152" rx="14.638" ry="14.152" transform="translate(25.767 231.578)" fill="#f0bd5a"/><ellipse cx="11.194" cy="10.822" rx="11.194" ry="10.822" transform="translate(29.211 234.908)" fill="#f2d496"/><ellipse cx="9.273" cy="8.965" rx="9.273" ry="8.965" transform="translate(31.132 236.765)" fill="#f0bd5a"/></g><path d="M71.325,239.094H22.687a24.321,24.321,0,0,0,15.29,22.577l-1.035,4.257H57.07l-1.035-4.257A24.321,24.321,0,0,0,71.325,239.094Z" transform="translate(-22.687 -231.578)" fill="#fff"/></g></g><g transform="translate(306.859 -31.273)"><g transform="translate(24.419 229.744)"><rect width="13.451" height="9.255" transform="translate(32.318 0.736) rotate(12.521)" fill="#262729"/><line x1="48.638" transform="translate(0.049 7.647)" fill="none"/><g transform="translate(-22.687 -231.578)"><ellipse cx="14.638" cy="14.152" rx="14.638" ry="14.152" transform="translate(25.767 231.578)" fill="#f0bd5a"/><ellipse cx="11.194" cy="10.822" rx="11.194" ry="10.822" transform="translate(29.211 234.908)" fill="#f2d496"/><ellipse cx="9.273" cy="8.965" rx="9.273" ry="8.965" transform="translate(31.132 236.765)" fill="#f0bd5a"/></g><path d="M71.325,239.094H22.687a24.321,24.321,0,0,0,15.29,22.577l-1.035,4.257H57.07l-1.035-4.257A24.321,24.321,0,0,0,71.325,239.094Z" transform="translate(-22.687 -231.578)" fill="#fff"/></g></g><g transform="translate(372.859 -31.273)"><g transform="translate(24.419 229.744)"><rect width="13.451" height="9.255" transform="translate(32.318 0.736) rotate(12.521)" fill="#262729"/><line x1="48.638" transform="translate(0.049 7.647)" fill="none"/><g transform="translate(-22.687 -231.578)"><ellipse cx="14.638" cy="14.152" rx="14.638" ry="14.152" transform="translate(25.767 231.578)" fill="#f0bd5a"/><ellipse cx="11.194" cy="10.822" rx="11.194" ry="10.822" transform="translate(29.211 234.908)" fill="#f2d496"/><ellipse cx="9.273" cy="8.965" rx="9.273" ry="8.965" transform="translate(31.132 236.765)" fill="#f0bd5a"/></g><path d="M71.325,239.094H22.687a24.321,24.321,0,0,0,15.29,22.577l-1.035,4.257H57.07l-1.035-4.257A24.321,24.321,0,0,0,71.325,239.094Z" transform="translate(-22.687 -231.578)" fill="#fff"/></g></g><g transform="translate(438.859 -31.273)"><g transform="translate(24.419 229.744)"><rect width="13.451" height="9.255" transform="translate(32.318 0.736) rotate(12.521)" fill="#262729"/><line x1="48.638" transform="translate(0.049 7.647)" fill="none"/><g transform="translate(-22.687 -231.578)"><ellipse cx="14.638" cy="14.152" rx="14.638" ry="14.152" transform="translate(25.767 231.578)" fill="#f0bd5a"/><ellipse cx="11.194" cy="10.822" rx="11.194" ry="10.822" transform="translate(29.211 234.908)" fill="#f2d496"/><ellipse cx="9.273" cy="8.965" rx="9.273" ry="8.965" transform="translate(31.132 236.765)" fill="#f0bd5a"/></g><path d="M71.325,239.094H22.687a24.321,24.321,0,0,0,15.29,22.577l-1.035,4.257H57.07l-1.035-4.257A24.321,24.321,0,0,0,71.325,239.094Z" transform="translate(-22.687 -231.578)" fill="#fff"/></g></g><g transform="translate(504.859 -31.273)"><g transform="translate(24.419 229.744)"><rect width="13.451" height="9.255" transform="translate(32.318 0.736) rotate(12.521)" fill="#262729"/><line x1="48.638" transform="translate(0.049 7.647)" fill="none"/><g transform="translate(-22.687 -231.578)"><ellipse cx="14.638" cy="14.152" rx="14.638" ry="14.152" transform="translate(25.767 231.578)" fill="#f0bd5a"/><ellipse cx="11.194" cy="10.822" rx="11.194" ry="10.822" transform="translate(29.211 234.908)" fill="#f2d496"/><ellipse cx="9.273" cy="8.965" rx="9.273" ry="8.965" transform="translate(31.132 236.765)" fill="#f0bd5a"/></g><path d="M71.325,239.094H22.687a24.321,24.321,0,0,0,15.29,22.577l-1.035,4.257H57.07l-1.035-4.257A24.321,24.321,0,0,0,71.325,239.094Z" transform="translate(-22.687 -231.578)" fill="#fff"/></g></g><g transform="translate(-23.141 31.727)"><g transform="translate(24.419 229.744)"><rect width="13.451" height="9.255" transform="translate(32.318 0.736) rotate(12.521)" fill="#262729"/><line x1="48.638" transform="translate(0.049 7.647)" fill="none"/><g transform="translate(-22.687 -231.578)"><ellipse cx="14.638" cy="14.152" rx="14.638" ry="14.152" transform="translate(25.767 231.578)" fill="#f0bd5a"/><ellipse cx="11.194" cy="10.822" rx="11.194" ry="10.822" transform="translate(29.211 234.908)" fill="#f2d496"/><ellipse cx="9.273" cy="8.965" rx="9.273" ry="8.965" transform="translate(31.132 236.765)" fill="#f0bd5a"/></g><path d="M71.325,239.094H22.687a24.321,24.321,0,0,0,15.29,22.577l-1.035,4.257H57.07l-1.035-4.257A24.321,24.321,0,0,0,71.325,239.094Z" transform="translate(-22.687 -231.578)" fill="#fff"/></g></g><g transform="translate(42.859 31.727)"><g transform="translate(24.419 229.744)"><rect width="13.451" height="9.255" transform="translate(32.318 0.736) rotate(12.521)" fill="#262729"/><line x1="48.638" transform="translate(0.049 7.647)" fill="none"/><g transform="translate(-22.687 -231.578)"><ellipse cx="14.638" cy="14.152" rx="14.638" ry="14.152" transform="translate(25.767 231.578)" fill="#f0bd5a"/><ellipse cx="11.194" cy="10.822" rx="11.194" ry="10.822" transform="translate(29.211 234.908)" fill="#f2d496"/><ellipse cx="9.273" cy="8.965" rx="9.273" ry="8.965" transform="translate(31.132 236.765)" fill="#f0bd5a"/></g><path d="M71.325,239.094H22.687a24.321,24.321,0,0,0,15.29,22.577l-1.035,4.257H57.07l-1.035-4.257A24.321,24.321,0,0,0,71.325,239.094Z" transform="translate(-22.687 -231.578)" fill="#fff"/></g></g><g transform="translate(108.859 31.727)"><g transform="translate(24.419 229.744)"><rect width="13.451" height="9.255" transform="translate(32.318 0.736) rotate(12.521)" fill="#262729"/><line x1="48.638" transform="translate(0.049 7.647)" fill="none"/><g transform="translate(-22.687 -231.578)"><ellipse cx="14.638" cy="14.152" rx="14.638" ry="14.152" transform="translate(25.767 231.578)" fill="#f0bd5a"/><ellipse cx="11.194" cy="10.822" rx="11.194" ry="10.822" transform="translate(29.211 234.908)" fill="#f2d496"/><ellipse cx="9.273" cy="8.965" rx="9.273" ry="8.965" transform="translate(31.132 236.765)" fill="#f0bd5a"/></g><path d="M71.325,239.094H22.687a24.321,24.321,0,0,0,15.29,22.577l-1.035,4.257H57.07l-1.035-4.257A24.321,24.321,0,0,0,71.325,239.094Z" transform="translate(-22.687 -231.578)" fill="#fff"/></g></g><g transform="translate(174.859 31.727)"><g transform="translate(24.419 229.744)"><rect width="13.451" height="9.255" transform="translate(32.318 0.736) rotate(12.521)" fill="#262729"/><line x1="48.638" transform="translate(0.049 7.647)" fill="none"/><g transform="translate(-22.687 -231.578)"><ellipse cx="14.638" cy="14.152" rx="14.638" ry="14.152" transform="translate(25.767 231.578)" fill="#f0bd5a"/><ellipse cx="11.194" cy="10.822" rx="11.194" ry="10.822" transform="translate(29.211 234.908)" fill="#f2d496"/><ellipse cx="9.273" cy="8.965" rx="9.273" ry="8.965" transform="translate(31.132 236.765)" fill="#f0bd5a"/></g><path d="M71.325,239.094H22.687a24.321,24.321,0,0,0,15.29,22.577l-1.035,4.257H57.07l-1.035-4.257A24.321,24.321,0,0,0,71.325,239.094Z" transform="translate(-22.687 -231.578)" fill="#fff"/></g></g><g transform="translate(240.859 31.727)"><g transform="translate(24.419 229.744)"><rect width="13.451" height="9.255" transform="translate(32.318 0.736) rotate(12.521)" fill="#262729"/><line x1="48.638" transform="translate(0.049 7.647)" fill="none"/><g transform="translate(-22.687 -231.578)"><ellipse cx="14.638" cy="14.152" rx="14.638" ry="14.152" transform="translate(25.767 231.578)" fill="#f0bd5a"/><ellipse cx="11.194" cy="10.822" rx="11.194" ry="10.822" transform="translate(29.211 234.908)" fill="#f2d496"/><ellipse cx="9.273" cy="8.965" rx="9.273" ry="8.965" transform="translate(31.132 236.765)" fill="#f0bd5a"/></g><path d="M71.325,239.094H22.687a24.321,24.321,0,0,0,15.29,22.577l-1.035,4.257H57.07l-1.035-4.257A24.321,24.321,0,0,0,71.325,239.094Z" transform="translate(-22.687 -231.578)" fill="#fff"/></g></g><g transform="translate(306.859 31.727)"><g transform="translate(24.419 229.744)"><rect width="13.451" height="9.255" transform="translate(32.318 0.736) rotate(12.521)" fill="#262729"/><line x1="48.638" transform="translate(0.049 7.647)" fill="none"/><g transform="translate(-22.687 -231.578)"><ellipse cx="14.638" cy="14.152" rx="14.638" ry="14.152" transform="translate(25.767 231.578)" fill="#f0bd5a"/><ellipse cx="11.194" cy="10.822" rx="11.194" ry="10.822" transform="translate(29.211 234.908)" fill="#f2d496"/><ellipse cx="9.273" cy="8.965" rx="9.273" ry="8.965" transform="translate(31.132 236.765)" fill="#f0bd5a"/></g><path d="M71.325,239.094H22.687a24.321,24.321,0,0,0,15.29,22.577l-1.035,4.257H57.07l-1.035-4.257A24.321,24.321,0,0,0,71.325,239.094Z" transform="translate(-22.687 -231.578)" fill="#fff"/></g></g><g transform="translate(372.859 31.727)"><g transform="translate(24.419 229.744)"><rect width="13.451" height="9.255" transform="translate(32.318 0.736) rotate(12.521)" fill="#262729"/><line x1="48.638" transform="translate(0.049 7.647)" fill="none"/><g transform="translate(-22.687 -231.578)"><ellipse cx="14.638" cy="14.152" rx="14.638" ry="14.152" transform="translate(25.767 231.578)" fill="#f0bd5a"/><ellipse cx="11.194" cy="10.822" rx="11.194" ry="10.822" transform="translate(29.211 234.908)" fill="#f2d496"/><ellipse cx="9.273" cy="8.965" rx="9.273" ry="8.965" transform="translate(31.132 236.765)" fill="#f0bd5a"/></g><path d="M71.325,239.094H22.687a24.321,24.321,0,0,0,15.29,22.577l-1.035,4.257H57.07l-1.035-4.257A24.321,24.321,0,0,0,71.325,239.094Z" transform="translate(-22.687 -231.578)" fill="#fff"/></g></g><g transform="translate(438.859 31.727)"><g transform="translate(24.419 229.744)"><rect width="13.451" height="9.255" transform="translate(32.318 0.736) rotate(12.521)" fill="#262729"/><line x1="48.638" transform="translate(0.049 7.647)" fill="none"/><g transform="translate(-22.687 -231.578)"><ellipse cx="14.638" cy="14.152" rx="14.638" ry="14.152" transform="translate(25.767 231.578)" fill="#f0bd5a"/><ellipse cx="11.194" cy="10.822" rx="11.194" ry="10.822" transform="translate(29.211 234.908)" fill="#f2d496"/><ellipse cx="9.273" cy="8.965" rx="9.273" ry="8.965" transform="translate(31.132 236.765)" fill="#f0bd5a"/></g><path d="M71.325,239.094H22.687a24.321,24.321,0,0,0,15.29,22.577l-1.035,4.257H57.07l-1.035-4.257A24.321,24.321,0,0,0,71.325,239.094Z" transform="translate(-22.687 -231.578)" fill="#fff"/></g></g><g transform="translate(504.859 31.727)"><g transform="translate(24.419 229.744)"><rect width="13.451" height="9.255" transform="translate(32.318 0.736) rotate(12.521)" fill="#262729"/><line x1="48.638" transform="translate(0.049 7.647)" fill="none"/><g transform="translate(-22.687 -231.578)"><ellipse cx="14.638" cy="14.152" rx="14.638" ry="14.152" transform="translate(25.767 231.578)" fill="#f0bd5a"/><ellipse cx="11.194" cy="10.822" rx="11.194" ry="10.822" transform="translate(29.211 234.908)" fill="#f2d496"/><ellipse cx="9.273" cy="8.965" rx="9.273" ry="8.965" transform="translate(31.132 236.765)" fill="#f0bd5a"/></g><path d="M71.325,239.094H22.687a24.321,24.321,0,0,0,15.29,22.577l-1.035,4.257H57.07l-1.035-4.257A24.321,24.321,0,0,0,71.325,239.094Z" transform="translate(-22.687 -231.578)" fill="#fff"/></g></g></g></svg>