<svg xmlns="http://www.w3.org/2000/svg" xmlns:xlink="http://www.w3.org/1999/xlink" width="580.741" height="311.741" viewBox="0 0 580.741 311.741"><defs><clipPath id="a"><rect width="580.741" height="311.741" fill="none"/></clipPath></defs><g clip-path="url(#a)"><g transform="translate(-23.141 -220.273)"><g transform="translate(23.141 220.273)"><circle cx="23.371" cy="23.371" r="23.371" fill="#f0bd5a"/><circle cx="18.049" cy="18.049" r="18.049" transform="translate(5.322 5.321)" fill="#f2d496"/><g transform="translate(-23.141 -220.273)"><path d="M48.169,251.725v2.349h-2.8v-2.326a10.254,10.254,0,0,1-5.474-2.373l2.514-3.054a7.5,7.5,0,0,0,4.416,2.067c1.222,0,1.645-.328,1.645-.939,0-2.185-7.659-.87-7.659-6.508a5.08,5.08,0,0,1,4.558-4.887h0v-2.537h2.8v2.514h0a5,5,0,0,1,4.581,4.228l-3.853.94a1.911,1.911,0,0,0-2.044-1.738c-1.081,0-1.668.47-1.668,1.151,0,2.419,7.683.869,7.683,6.7,0,2.09-1.363,3.97-4.7,4.417Z" fill="#f0bd5a"/></g></g></g><g transform="translate(42.859 -220.273)"><g transform="translate(23.141 220.273)"><circle cx="23.371" cy="23.371" r="23.371" fill="#f0bd5a"/><circle cx="18.049" cy="18.049" r="18.049" transform="translate(5.322 5.321)" fill="#f2d496"/><g transform="translate(-23.141 -220.273)"><path d="M48.169,251.725v2.349h-2.8v-2.326a10.254,10.254,0,0,1-5.474-2.373l2.514-3.054a7.5,7.5,0,0,0,4.416,2.067c1.222,0,1.645-.328,1.645-.939,0-2.185-7.659-.87-7.659-6.508a5.08,5.08,0,0,1,4.558-4.887h0v-2.537h2.8v2.514h0a5,5,0,0,1,4.581,4.228l-3.853.94a1.911,1.911,0,0,0-2.044-1.738c-1.081,0-1.668.47-1.668,1.151,0,2.419,7.683.869,7.683,6.7,0,2.09-1.363,3.97-4.7,4.417Z" fill="#f0bd5a"/></g></g></g><g transform="translate(108.859 -220.273)"><g transform="translate(23.141 220.273)"><circle cx="23.371" cy="23.371" r="23.371" fill="#f0bd5a"/><circle cx="18.049" cy="18.049" r="18.049" transform="translate(5.322 5.321)" fill="#f2d496"/><g transform="translate(-23.141 -220.273)"><path d="M48.169,251.725v2.349h-2.8v-2.326a10.254,10.254,0,0,1-5.474-2.373l2.514-3.054a7.5,7.5,0,0,0,4.416,2.067c1.222,0,1.645-.328,1.645-.939,0-2.185-7.659-.87-7.659-6.508a5.08,5.08,0,0,1,4.558-4.887h0v-2.537h2.8v2.514h0a5,5,0,0,1,4.581,4.228l-3.853.94a1.911,1.911,0,0,0-2.044-1.738c-1.081,0-1.668.47-1.668,1.151,0,2.419,7.683.869,7.683,6.7,0,2.09-1.363,3.97-4.7,4.417Z" fill="#f0bd5a"/></g></g></g><g transform="translate(174.859 -220.273)"><g transform="translate(23.141 220.273)"><circle cx="23.371" cy="23.371" r="23.371" fill="#f0bd5a"/><circle cx="18.049" cy="18.049" r="18.049" transform="translate(5.322 5.321)" fill="#f2d496"/><g transform="translate(-23.141 -220.273)"><path d="M48.169,251.725v2.349h-2.8v-2.326a10.254,10.254,0,0,1-5.474-2.373l2.514-3.054a7.5,7.5,0,0,0,4.416,2.067c1.222,0,1.645-.328,1.645-.939,0-2.185-7.659-.87-7.659-6.508a5.08,5.08,0,0,1,4.558-4.887h0v-2.537h2.8v2.514h0a5,5,0,0,1,4.581,4.228l-3.853.94a1.911,1.911,0,0,0-2.044-1.738c-1.081,0-1.668.47-1.668,1.151,0,2.419,7.683.869,7.683,6.7,0,2.09-1.363,3.97-4.7,4.417Z" fill="#f0bd5a"/></g></g></g><g transform="translate(240.859 -220.273)"><g transform="translate(23.141 220.273)"><circle cx="23.371" cy="23.371" r="23.371" fill="#f0bd5a"/><circle cx="18.049" cy="18.049" r="18.049" transform="translate(5.322 5.321)" fill="#f2d496"/><g transform="translate(-23.141 -220.273)"><path d="M48.169,251.725v2.349h-2.8v-2.326a10.254,10.254,0,0,1-5.474-2.373l2.514-3.054a7.5,7.5,0,0,0,4.416,2.067c1.222,0,1.645-.328,1.645-.939,0-2.185-7.659-.87-7.659-6.508a5.08,5.08,0,0,1,4.558-4.887h0v-2.537h2.8v2.514h0a5,5,0,0,1,4.581,4.228l-3.853.94a1.911,1.911,0,0,0-2.044-1.738c-1.081,0-1.668.47-1.668,1.151,0,2.419,7.683.869,7.683,6.7,0,2.09-1.363,3.97-4.7,4.417Z" fill="#f0bd5a"/></g></g></g><g transform="translate(306.859 -220.273)"><g transform="translate(23.141 220.273)"><circle cx="23.371" cy="23.371" r="23.371" fill="#f0bd5a"/><circle cx="18.049" cy="18.049" r="18.049" transform="translate(5.322 5.321)" fill="#f2d496"/><g transform="translate(-23.141 -220.273)"><path d="M48.169,251.725v2.349h-2.8v-2.326a10.254,10.254,0,0,1-5.474-2.373l2.514-3.054a7.5,7.5,0,0,0,4.416,2.067c1.222,0,1.645-.328,1.645-.939,0-2.185-7.659-.87-7.659-6.508a5.08,5.08,0,0,1,4.558-4.887h0v-2.537h2.8v2.514h0a5,5,0,0,1,4.581,4.228l-3.853.94a1.911,1.911,0,0,0-2.044-1.738c-1.081,0-1.668.47-1.668,1.151,0,2.419,7.683.869,7.683,6.7,0,2.09-1.363,3.97-4.7,4.417Z" fill="#f0bd5a"/></g></g></g><g transform="translate(372.859 -220.273)"><g transform="translate(23.141 220.273)"><circle cx="23.371" cy="23.371" r="23.371" fill="#f0bd5a"/><circle cx="18.049" cy="18.049" r="18.049" transform="translate(5.322 5.321)" fill="#f2d496"/><g transform="translate(-23.141 -220.273)"><path d="M48.169,251.725v2.349h-2.8v-2.326a10.254,10.254,0,0,1-5.474-2.373l2.514-3.054a7.5,7.5,0,0,0,4.416,2.067c1.222,0,1.645-.328,1.645-.939,0-2.185-7.659-.87-7.659-6.508a5.08,5.08,0,0,1,4.558-4.887h0v-2.537h2.8v2.514h0a5,5,0,0,1,4.581,4.228l-3.853.94a1.911,1.911,0,0,0-2.044-1.738c-1.081,0-1.668.47-1.668,1.151,0,2.419,7.683.869,7.683,6.7,0,2.09-1.363,3.97-4.7,4.417Z" fill="#f0bd5a"/></g></g></g><g transform="translate(438.859 -220.273)"><g transform="translate(23.141 220.273)"><circle cx="23.371" cy="23.371" r="23.371" fill="#f0bd5a"/><circle cx="18.049" cy="18.049" r="18.049" transform="translate(5.322 5.321)" fill="#f2d496"/><g transform="translate(-23.141 -220.273)"><path d="M48.169,251.725v2.349h-2.8v-2.326a10.254,10.254,0,0,1-5.474-2.373l2.514-3.054a7.5,7.5,0,0,0,4.416,2.067c1.222,0,1.645-.328,1.645-.939,0-2.185-7.659-.87-7.659-6.508a5.08,5.08,0,0,1,4.558-4.887h0v-2.537h2.8v2.514h0a5,5,0,0,1,4.581,4.228l-3.853.94a1.911,1.911,0,0,0-2.044-1.738c-1.081,0-1.668.47-1.668,1.151,0,2.419,7.683.869,7.683,6.7,0,2.09-1.363,3.97-4.7,4.417Z" fill="#f0bd5a"/></g></g></g><g transform="translate(504.859 -220.273)"><g transform="translate(23.141 220.273)"><circle cx="23.371" cy="23.371" r="23.371" fill="#f0bd5a"/><circle cx="18.049" cy="18.049" r="18.049" transform="translate(5.322 5.321)" fill="#f2d496"/><g transform="translate(-23.141 -220.273)"><path d="M48.169,251.725v2.349h-2.8v-2.326a10.254,10.254,0,0,1-5.474-2.373l2.514-3.054a7.5,7.5,0,0,0,4.416,2.067c1.222,0,1.645-.328,1.645-.939,0-2.185-7.659-.87-7.659-6.508a5.08,5.08,0,0,1,4.558-4.887h0v-2.537h2.8v2.514h0a5,5,0,0,1,4.581,4.228l-3.853.94a1.911,1.911,0,0,0-2.044-1.738c-1.081,0-1.668.47-1.668,1.151,0,2.419,7.683.869,7.683,6.7,0,2.09-1.363,3.97-4.7,4.417Z" fill="#f0bd5a"/></g></g></g><g transform="translate(-23.141 -157.273)"><g transform="translate(23.141 220.273)"><circle cx="23.371" cy="23.371" r="23.371" fill="#f0bd5a"/><circle cx="18.049" cy="18.049" r="18.049" transform="translate(5.322 5.321)" fill="#f2d496"/><g transform="translate(-23.141 -220.273)"><path d="M48.169,251.725v2.349h-2.8v-2.326a10.254,10.254,0,0,1-5.474-2.373l2.514-3.054a7.5,7.5,0,0,0,4.416,2.067c1.222,0,1.645-.328,1.645-.939,0-2.185-7.659-.87-7.659-6.508a5.08,5.08,0,0,1,4.558-4.887h0v-2.537h2.8v2.514h0a5,5,0,0,1,4.581,4.228l-3.853.94a1.911,1.911,0,0,0-2.044-1.738c-1.081,0-1.668.47-1.668,1.151,0,2.419,7.683.869,7.683,6.7,0,2.09-1.363,3.97-4.7,4.417Z" fill="#f0bd5a"/></g></g></g><g transform="translate(42.859 -157.273)"><g transform="translate(23.141 220.273)"><circle cx="23.371" cy="23.371" r="23.371" fill="#f0bd5a"/><circle cx="18.049" cy="18.049" r="18.049" transform="translate(5.322 5.321)" fill="#f2d496"/><g transform="translate(-23.141 -220.273)"><path d="M48.169,251.725v2.349h-2.8v-2.326a10.254,10.254,0,0,1-5.474-2.373l2.514-3.054a7.5,7.5,0,0,0,4.416,2.067c1.222,0,1.645-.328,1.645-.939,0-2.185-7.659-.87-7.659-6.508a5.08,5.08,0,0,1,4.558-4.887h0v-2.537h2.8v2.514h0a5,5,0,0,1,4.581,4.228l-3.853.94a1.911,1.911,0,0,0-2.044-1.738c-1.081,0-1.668.47-1.668,1.151,0,2.419,7.683.869,7.683,6.7,0,2.09-1.363,3.97-4.7,4.417Z" fill="#f0bd5a"/></g></g></g><g transform="translate(108.859 -157.273)"><g transform="translate(23.141 220.273)"><circle cx="23.371" cy="23.371" r="23.371" fill="#f0bd5a"/><circle cx="18.049" cy="18.049" r="18.049" transform="translate(5.322 5.321)" fill="#f2d496"/><g transform="translate(-23.141 -220.273)"><path d="M48.169,251.725v2.349h-2.8v-2.326a10.254,10.254,0,0,1-5.474-2.373l2.514-3.054a7.5,7.5,0,0,0,4.416,2.067c1.222,0,1.645-.328,1.645-.939,0-2.185-7.659-.87-7.659-6.508a5.08,5.08,0,0,1,4.558-4.887h0v-2.537h2.8v2.514h0a5,5,0,0,1,4.581,4.228l-3.853.94a1.911,1.911,0,0,0-2.044-1.738c-1.081,0-1.668.47-1.668,1.151,0,2.419,7.683.869,7.683,6.7,0,2.09-1.363,3.97-4.7,4.417Z" fill="#f0bd5a"/></g></g></g><g transform="translate(174.859 -157.273)"><g transform="translate(23.141 220.273)"><circle cx="23.371" cy="23.371" r="23.371" fill="#f0bd5a"/><circle cx="18.049" cy="18.049" r="18.049" transform="translate(5.322 5.321)" fill="#f2d496"/><g transform="translate(-23.141 -220.273)"><path d="M48.169,251.725v2.349h-2.8v-2.326a10.254,10.254,0,0,1-5.474-2.373l2.514-3.054a7.5,7.5,0,0,0,4.416,2.067c1.222,0,1.645-.328,1.645-.939,0-2.185-7.659-.87-7.659-6.508a5.08,5.08,0,0,1,4.558-4.887h0v-2.537h2.8v2.514h0a5,5,0,0,1,4.581,4.228l-3.853.94a1.911,1.911,0,0,0-2.044-1.738c-1.081,0-1.668.47-1.668,1.151,0,2.419,7.683.869,7.683,6.7,0,2.09-1.363,3.97-4.7,4.417Z" fill="#f0bd5a"/></g></g></g><g transform="translate(240.859 -157.273)"><g transform="translate(23.141 220.273)"><circle cx="23.371" cy="23.371" r="23.371" fill="#f0bd5a"/><circle cx="18.049" cy="18.049" r="18.049" transform="translate(5.322 5.321)" fill="#f2d496"/><g transform="translate(-23.141 -220.273)"><path d="M48.169,251.725v2.349h-2.8v-2.326a10.254,10.254,0,0,1-5.474-2.373l2.514-3.054a7.5,7.5,0,0,0,4.416,2.067c1.222,0,1.645-.328,1.645-.939,0-2.185-7.659-.87-7.659-6.508a5.08,5.08,0,0,1,4.558-4.887h0v-2.537h2.8v2.514h0a5,5,0,0,1,4.581,4.228l-3.853.94a1.911,1.911,0,0,0-2.044-1.738c-1.081,0-1.668.47-1.668,1.151,0,2.419,7.683.869,7.683,6.7,0,2.09-1.363,3.97-4.7,4.417Z" fill="#f0bd5a"/></g></g></g><g transform="translate(306.859 -157.273)"><g transform="translate(23.141 220.273)"><circle cx="23.371" cy="23.371" r="23.371" fill="#f0bd5a"/><circle cx="18.049" cy="18.049" r="18.049" transform="translate(5.322 5.321)" fill="#f2d496"/><g transform="translate(-23.141 -220.273)"><path d="M48.169,251.725v2.349h-2.8v-2.326a10.254,10.254,0,0,1-5.474-2.373l2.514-3.054a7.5,7.5,0,0,0,4.416,2.067c1.222,0,1.645-.328,1.645-.939,0-2.185-7.659-.87-7.659-6.508a5.08,5.08,0,0,1,4.558-4.887h0v-2.537h2.8v2.514h0a5,5,0,0,1,4.581,4.228l-3.853.94a1.911,1.911,0,0,0-2.044-1.738c-1.081,0-1.668.47-1.668,1.151,0,2.419,7.683.869,7.683,6.7,0,2.09-1.363,3.97-4.7,4.417Z" fill="#f0bd5a"/></g></g></g><g transform="translate(372.859 -157.273)"><g transform="translate(23.141 220.273)"><circle cx="23.371" cy="23.371" r="23.371" fill="#f0bd5a"/><circle cx="18.049" cy="18.049" r="18.049" transform="translate(5.322 5.321)" fill="#f2d496"/><g transform="translate(-23.141 -220.273)"><path d="M48.169,251.725v2.349h-2.8v-2.326a10.254,10.254,0,0,1-5.474-2.373l2.514-3.054a7.5,7.5,0,0,0,4.416,2.067c1.222,0,1.645-.328,1.645-.939,0-2.185-7.659-.87-7.659-6.508a5.08,5.08,0,0,1,4.558-4.887h0v-2.537h2.8v2.514h0a5,5,0,0,1,4.581,4.228l-3.853.94a1.911,1.911,0,0,0-2.044-1.738c-1.081,0-1.668.47-1.668,1.151,0,2.419,7.683.869,7.683,6.7,0,2.09-1.363,3.97-4.7,4.417Z" fill="#f0bd5a"/></g></g></g><g transform="translate(438.859 -157.273)"><g transform="translate(23.141 220.273)"><circle cx="23.371" cy="23.371" r="23.371" fill="#f0bd5a"/><circle cx="18.049" cy="18.049" r="18.049" transform="translate(5.322 5.321)" fill="#f2d496"/><g transform="translate(-23.141 -220.273)"><path d="M48.169,251.725v2.349h-2.8v-2.326a10.254,10.254,0,0,1-5.474-2.373l2.514-3.054a7.5,7.5,0,0,0,4.416,2.067c1.222,0,1.645-.328,1.645-.939,0-2.185-7.659-.87-7.659-6.508a5.08,5.08,0,0,1,4.558-4.887h0v-2.537h2.8v2.514h0a5,5,0,0,1,4.581,4.228l-3.853.94a1.911,1.911,0,0,0-2.044-1.738c-1.081,0-1.668.47-1.668,1.151,0,2.419,7.683.869,7.683,6.7,0,2.09-1.363,3.97-4.7,4.417Z" fill="#f0bd5a"/></g></g></g><g transform="translate(504.859 -157.273)"><g transform="translate(23.141 220.273)"><circle cx="23.371" cy="23.371" r="23.371" fill="#f0bd5a"/><circle cx="18.049" cy="18.049" r="18.049" transform="translate(5.322 5.321)" fill="#f2d496"/><g transform="translate(-23.141 -220.273)"><path d="M48.169,251.725v2.349h-2.8v-2.326a10.254,10.254,0,0,1-5.474-2.373l2.514-3.054a7.5,7.5,0,0,0,4.416,2.067c1.222,0,1.645-.328,1.645-.939,0-2.185-7.659-.87-7.659-6.508a5.08,5.08,0,0,1,4.558-4.887h0v-2.537h2.8v2.514h0a5,5,0,0,1,4.581,4.228l-3.853.94a1.911,1.911,0,0,0-2.044-1.738c-1.081,0-1.668.47-1.668,1.151,0,2.419,7.683.869,7.683,6.7,0,2.09-1.363,3.97-4.7,4.417Z" fill="#f0bd5a"/></g></g></g><g transform="translate(-23.141 -94.273)"><g transform="translate(23.141 220.273)"><circle cx="23.371" cy="23.371" r="23.371" fill="#f0bd5a"/><circle cx="18.049" cy="18.049" r="18.049" transform="translate(5.322 5.321)" fill="#f2d496"/><g transform="translate(-23.141 -220.273)"><path d="M48.169,251.725v2.349h-2.8v-2.326a10.254,10.254,0,0,1-5.474-2.373l2.514-3.054a7.5,7.5,0,0,0,4.416,2.067c1.222,0,1.645-.328,1.645-.939,0-2.185-7.659-.87-7.659-6.508a5.08,5.08,0,0,1,4.558-4.887h0v-2.537h2.8v2.514h0a5,5,0,0,1,4.581,4.228l-3.853.94a1.911,1.911,0,0,0-2.044-1.738c-1.081,0-1.668.47-1.668,1.151,0,2.419,7.683.869,7.683,6.7,0,2.09-1.363,3.97-4.7,4.417Z" fill="#f0bd5a"/></g></g></g><g transform="translate(42.859 -94.273)"><g transform="translate(23.141 220.273)"><circle cx="23.371" cy="23.371" r="23.371" fill="#f0bd5a"/><circle cx="18.049" cy="18.049" r="18.049" transform="translate(5.322 5.321)" fill="#f2d496"/><g transform="translate(-23.141 -220.273)"><path d="M48.169,251.725v2.349h-2.8v-2.326a10.254,10.254,0,0,1-5.474-2.373l2.514-3.054a7.5,7.5,0,0,0,4.416,2.067c1.222,0,1.645-.328,1.645-.939,0-2.185-7.659-.87-7.659-6.508a5.08,5.08,0,0,1,4.558-4.887h0v-2.537h2.8v2.514h0a5,5,0,0,1,4.581,4.228l-3.853.94a1.911,1.911,0,0,0-2.044-1.738c-1.081,0-1.668.47-1.668,1.151,0,2.419,7.683.869,7.683,6.7,0,2.09-1.363,3.97-4.7,4.417Z" fill="#f0bd5a"/></g></g></g><g transform="translate(108.859 -94.273)"><g transform="translate(23.141 220.273)"><circle cx="23.371" cy="23.371" r="23.371" fill="#f0bd5a"/><circle cx="18.049" cy="18.049" r="18.049" transform="translate(5.322 5.321)" fill="#f2d496"/><g transform="translate(-23.141 -220.273)"><path d="M48.169,251.725v2.349h-2.8v-2.326a10.254,10.254,0,0,1-5.474-2.373l2.514-3.054a7.5,7.5,0,0,0,4.416,2.067c1.222,0,1.645-.328,1.645-.939,0-2.185-7.659-.87-7.659-6.508a5.08,5.08,0,0,1,4.558-4.887h0v-2.537h2.8v2.514h0a5,5,0,0,1,4.581,4.228l-3.853.94a1.911,1.911,0,0,0-2.044-1.738c-1.081,0-1.668.47-1.668,1.151,0,2.419,7.683.869,7.683,6.7,0,2.09-1.363,3.97-4.7,4.417Z" fill="#f0bd5a"/></g></g></g><g transform="translate(174.859 -94.273)"><g transform="translate(23.141 220.273)"><circle cx="23.371" cy="23.371" r="23.371" fill="#f0bd5a"/><circle cx="18.049" cy="18.049" r="18.049" transform="translate(5.322 5.321)" fill="#f2d496"/><g transform="translate(-23.141 -220.273)"><path d="M48.169,251.725v2.349h-2.8v-2.326a10.254,10.254,0,0,1-5.474-2.373l2.514-3.054a7.5,7.5,0,0,0,4.416,2.067c1.222,0,1.645-.328,1.645-.939,0-2.185-7.659-.87-7.659-6.508a5.08,5.08,0,0,1,4.558-4.887h0v-2.537h2.8v2.514h0a5,5,0,0,1,4.581,4.228l-3.853.94a1.911,1.911,0,0,0-2.044-1.738c-1.081,0-1.668.47-1.668,1.151,0,2.419,7.683.869,7.683,6.7,0,2.09-1.363,3.97-4.7,4.417Z" fill="#f0bd5a"/></g></g></g><g transform="translate(240.859 -94.273)"><g transform="translate(23.141 220.273)"><circle cx="23.371" cy="23.371" r="23.371" fill="#f0bd5a"/><circle cx="18.049" cy="18.049" r="18.049" transform="translate(5.322 5.321)" fill="#f2d496"/><g transform="translate(-23.141 -220.273)"><path d="M48.169,251.725v2.349h-2.8v-2.326a10.254,10.254,0,0,1-5.474-2.373l2.514-3.054a7.5,7.5,0,0,0,4.416,2.067c1.222,0,1.645-.328,1.645-.939,0-2.185-7.659-.87-7.659-6.508a5.08,5.08,0,0,1,4.558-4.887h0v-2.537h2.8v2.514h0a5,5,0,0,1,4.581,4.228l-3.853.94a1.911,1.911,0,0,0-2.044-1.738c-1.081,0-1.668.47-1.668,1.151,0,2.419,7.683.869,7.683,6.7,0,2.09-1.363,3.97-4.7,4.417Z" fill="#f0bd5a"/></g></g></g><g transform="translate(306.859 -94.273)"><g transform="translate(23.141 220.273)"><circle cx="23.371" cy="23.371" r="23.371" fill="#f0bd5a"/><circle cx="18.049" cy="18.049" r="18.049" transform="translate(5.322 5.321)" fill="#f2d496"/><g transform="translate(-23.141 -220.273)"><path d="M48.169,251.725v2.349h-2.8v-2.326a10.254,10.254,0,0,1-5.474-2.373l2.514-3.054a7.5,7.5,0,0,0,4.416,2.067c1.222,0,1.645-.328,1.645-.939,0-2.185-7.659-.87-7.659-6.508a5.08,5.08,0,0,1,4.558-4.887h0v-2.537h2.8v2.514h0a5,5,0,0,1,4.581,4.228l-3.853.94a1.911,1.911,0,0,0-2.044-1.738c-1.081,0-1.668.47-1.668,1.151,0,2.419,7.683.869,7.683,6.7,0,2.09-1.363,3.97-4.7,4.417Z" fill="#f0bd5a"/></g></g></g><g transform="translate(372.859 -94.273)"><g transform="translate(23.141 220.273)"><circle cx="23.371" cy="23.371" r="23.371" fill="#f0bd5a"/><circle cx="18.049" cy="18.049" r="18.049" transform="translate(5.322 5.321)" fill="#f2d496"/><g transform="translate(-23.141 -220.273)"><path d="M48.169,251.725v2.349h-2.8v-2.326a10.254,10.254,0,0,1-5.474-2.373l2.514-3.054a7.5,7.5,0,0,0,4.416,2.067c1.222,0,1.645-.328,1.645-.939,0-2.185-7.659-.87-7.659-6.508a5.08,5.08,0,0,1,4.558-4.887h0v-2.537h2.8v2.514h0a5,5,0,0,1,4.581,4.228l-3.853.94a1.911,1.911,0,0,0-2.044-1.738c-1.081,0-1.668.47-1.668,1.151,0,2.419,7.683.869,7.683,6.7,0,2.09-1.363,3.97-4.7,4.417Z" fill="#f0bd5a"/></g></g></g><g transform="translate(438.859 -94.273)"><g transform="translate(23.141 220.273)"><circle cx="23.371" cy="23.371" r="23.371" fill="#f0bd5a"/><circle cx="18.049" cy="18.049" r="18.049" transform="translate(5.322 5.321)" fill="#f2d496"/><g transform="translate(-23.141 -220.273)"><path d="M48.169,251.725v2.349h-2.8v-2.326a10.254,10.254,0,0,1-5.474-2.373l2.514-3.054a7.5,7.5,0,0,0,4.416,2.067c1.222,0,1.645-.328,1.645-.939,0-2.185-7.659-.87-7.659-6.508a5.08,5.08,0,0,1,4.558-4.887h0v-2.537h2.8v2.514h0a5,5,0,0,1,4.581,4.228l-3.853.94a1.911,1.911,0,0,0-2.044-1.738c-1.081,0-1.668.47-1.668,1.151,0,2.419,7.683.869,7.683,6.7,0,2.09-1.363,3.97-4.7,4.417Z" fill="#f0bd5a"/></g></g></g><g transform="translate(504.859 -94.273)"><g transform="translate(23.141 220.273)"><circle cx="23.371" cy="23.371" r="23.371" fill="#f0bd5a"/><circle cx="18.049" cy="18.049" r="18.049" transform="translate(5.322 5.321)" fill="#f2d496"/><g transform="translate(-23.141 -220.273)"><path d="M48.169,251.725v2.349h-2.8v-2.326a10.254,10.254,0,0,1-5.474-2.373l2.514-3.054a7.5,7.5,0,0,0,4.416,2.067c1.222,0,1.645-.328,1.645-.939,0-2.185-7.659-.87-7.659-6.508a5.08,5.08,0,0,1,4.558-4.887h0v-2.537h2.8v2.514h0a5,5,0,0,1,4.581,4.228l-3.853.94a1.911,1.911,0,0,0-2.044-1.738c-1.081,0-1.668.47-1.668,1.151,0,2.419,7.683.869,7.683,6.7,0,2.09-1.363,3.97-4.7,4.417Z" fill="#f0bd5a"/></g></g></g><g transform="translate(-23.141 -31.273)"><g transform="translate(23.141 220.273)"><circle cx="23.371" cy="23.371" r="23.371" fill="#f0bd5a"/><circle cx="18.049" cy="18.049" r="18.049" transform="translate(5.322 5.321)" fill="#f2d496"/><g transform="translate(-23.141 -220.273)"><path d="M48.169,251.725v2.349h-2.8v-2.326a10.254,10.254,0,0,1-5.474-2.373l2.514-3.054a7.5,7.5,0,0,0,4.416,2.067c1.222,0,1.645-.328,1.645-.939,0-2.185-7.659-.87-7.659-6.508a5.08,5.08,0,0,1,4.558-4.887h0v-2.537h2.8v2.514h0a5,5,0,0,1,4.581,4.228l-3.853.94a1.911,1.911,0,0,0-2.044-1.738c-1.081,0-1.668.47-1.668,1.151,0,2.419,7.683.869,7.683,6.7,0,2.09-1.363,3.97-4.7,4.417Z" fill="#f0bd5a"/></g></g></g><g transform="translate(42.859 -31.273)"><g transform="translate(23.141 220.273)"><circle cx="23.371" cy="23.371" r="23.371" fill="#f0bd5a"/><circle cx="18.049" cy="18.049" r="18.049" transform="translate(5.322 5.321)" fill="#f2d496"/><g transform="translate(-23.141 -220.273)"><path d="M48.169,251.725v2.349h-2.8v-2.326a10.254,10.254,0,0,1-5.474-2.373l2.514-3.054a7.5,7.5,0,0,0,4.416,2.067c1.222,0,1.645-.328,1.645-.939,0-2.185-7.659-.87-7.659-6.508a5.08,5.08,0,0,1,4.558-4.887h0v-2.537h2.8v2.514h0a5,5,0,0,1,4.581,4.228l-3.853.94a1.911,1.911,0,0,0-2.044-1.738c-1.081,0-1.668.47-1.668,1.151,0,2.419,7.683.869,7.683,6.7,0,2.09-1.363,3.97-4.7,4.417Z" fill="#f0bd5a"/></g></g></g><g transform="translate(108.859 -31.273)"><g transform="translate(23.141 220.273)"><circle cx="23.371" cy="23.371" r="23.371" fill="#f0bd5a"/><circle cx="18.049" cy="18.049" r="18.049" transform="translate(5.322 5.321)" fill="#f2d496"/><g transform="translate(-23.141 -220.273)"><path d="M48.169,251.725v2.349h-2.8v-2.326a10.254,10.254,0,0,1-5.474-2.373l2.514-3.054a7.5,7.5,0,0,0,4.416,2.067c1.222,0,1.645-.328,1.645-.939,0-2.185-7.659-.87-7.659-6.508a5.08,5.08,0,0,1,4.558-4.887h0v-2.537h2.8v2.514h0a5,5,0,0,1,4.581,4.228l-3.853.94a1.911,1.911,0,0,0-2.044-1.738c-1.081,0-1.668.47-1.668,1.151,0,2.419,7.683.869,7.683,6.7,0,2.09-1.363,3.97-4.7,4.417Z" fill="#f0bd5a"/></g></g></g><g transform="translate(174.859 -31.273)"><g transform="translate(23.141 220.273)"><circle cx="23.371" cy="23.371" r="23.371" fill="#f0bd5a"/><circle cx="18.049" cy="18.049" r="18.049" transform="translate(5.322 5.321)" fill="#f2d496"/><g transform="translate(-23.141 -220.273)"><path d="M48.169,251.725v2.349h-2.8v-2.326a10.254,10.254,0,0,1-5.474-2.373l2.514-3.054a7.5,7.5,0,0,0,4.416,2.067c1.222,0,1.645-.328,1.645-.939,0-2.185-7.659-.87-7.659-6.508a5.08,5.08,0,0,1,4.558-4.887h0v-2.537h2.8v2.514h0a5,5,0,0,1,4.581,4.228l-3.853.94a1.911,1.911,0,0,0-2.044-1.738c-1.081,0-1.668.47-1.668,1.151,0,2.419,7.683.869,7.683,6.7,0,2.09-1.363,3.97-4.7,4.417Z" fill="#f0bd5a"/></g></g></g><g transform="translate(240.859 -31.273)"><g transform="translate(23.141 220.273)"><circle cx="23.371" cy="23.371" r="23.371" fill="#f0bd5a"/><circle cx="18.049" cy="18.049" r="18.049" transform="translate(5.322 5.321)" fill="#f2d496"/><g transform="translate(-23.141 -220.273)"><path d="M48.169,251.725v2.349h-2.8v-2.326a10.254,10.254,0,0,1-5.474-2.373l2.514-3.054a7.5,7.5,0,0,0,4.416,2.067c1.222,0,1.645-.328,1.645-.939,0-2.185-7.659-.87-7.659-6.508a5.08,5.08,0,0,1,4.558-4.887h0v-2.537h2.8v2.514h0a5,5,0,0,1,4.581,4.228l-3.853.94a1.911,1.911,0,0,0-2.044-1.738c-1.081,0-1.668.47-1.668,1.151,0,2.419,7.683.869,7.683,6.7,0,2.09-1.363,3.97-4.7,4.417Z" fill="#f0bd5a"/></g></g></g><g transform="translate(306.859 -31.273)"><g transform="translate(23.141 220.273)"><circle cx="23.371" cy="23.371" r="23.371" fill="#f0bd5a"/><circle cx="18.049" cy="18.049" r="18.049" transform="translate(5.322 5.321)" fill="#f2d496"/><g transform="translate(-23.141 -220.273)"><path d="M48.169,251.725v2.349h-2.8v-2.326a10.254,10.254,0,0,1-5.474-2.373l2.514-3.054a7.5,7.5,0,0,0,4.416,2.067c1.222,0,1.645-.328,1.645-.939,0-2.185-7.659-.87-7.659-6.508a5.08,5.08,0,0,1,4.558-4.887h0v-2.537h2.8v2.514h0a5,5,0,0,1,4.581,4.228l-3.853.94a1.911,1.911,0,0,0-2.044-1.738c-1.081,0-1.668.47-1.668,1.151,0,2.419,7.683.869,7.683,6.7,0,2.09-1.363,3.97-4.7,4.417Z" fill="#f0bd5a"/></g></g></g><g transform="translate(372.859 -31.273)"><g transform="translate(23.141 220.273)"><circle cx="23.371" cy="23.371" r="23.371" fill="#f0bd5a"/><circle cx="18.049" cy="18.049" r="18.049" transform="translate(5.322 5.321)" fill="#f2d496"/><g transform="translate(-23.141 -220.273)"><path d="M48.169,251.725v2.349h-2.8v-2.326a10.254,10.254,0,0,1-5.474-2.373l2.514-3.054a7.5,7.5,0,0,0,4.416,2.067c1.222,0,1.645-.328,1.645-.939,0-2.185-7.659-.87-7.659-6.508a5.08,5.08,0,0,1,4.558-4.887h0v-2.537h2.8v2.514h0a5,5,0,0,1,4.581,4.228l-3.853.94a1.911,1.911,0,0,0-2.044-1.738c-1.081,0-1.668.47-1.668,1.151,0,2.419,7.683.869,7.683,6.7,0,2.09-1.363,3.97-4.7,4.417Z" fill="#f0bd5a"/></g></g></g><g transform="translate(438.859 -31.273)"><g transform="translate(23.141 220.273)"><circle cx="23.371" cy="23.371" r="23.371" fill="#f0bd5a"/><circle cx="18.049" cy="18.049" r="18.049" transform="translate(5.322 5.321)" fill="#f2d496"/><g transform="translate(-23.141 -220.273)"><path d="M48.169,251.725v2.349h-2.8v-2.326a10.254,10.254,0,0,1-5.474-2.373l2.514-3.054a7.5,7.5,0,0,0,4.416,2.067c1.222,0,1.645-.328,1.645-.939,0-2.185-7.659-.87-7.659-6.508a5.08,5.08,0,0,1,4.558-4.887h0v-2.537h2.8v2.514h0a5,5,0,0,1,4.581,4.228l-3.853.94a1.911,1.911,0,0,0-2.044-1.738c-1.081,0-1.668.47-1.668,1.151,0,2.419,7.683.869,7.683,6.7,0,2.09-1.363,3.97-4.7,4.417Z" fill="#f0bd5a"/></g></g></g><g transform="translate(504.859 -31.273)"><g transform="translate(23.141 220.273)"><circle cx="23.371" cy="23.371" r="23.371" fill="#f0bd5a"/><circle cx="18.049" cy="18.049" r="18.049" transform="translate(5.322 5.321)" fill="#f2d496"/><g transform="translate(-23.141 -220.273)"><path d="M48.169,251.725v2.349h-2.8v-2.326a10.254,10.254,0,0,1-5.474-2.373l2.514-3.054a7.5,7.5,0,0,0,4.416,2.067c1.222,0,1.645-.328,1.645-.939,0-2.185-7.659-.87-7.659-6.508a5.08,5.08,0,0,1,4.558-4.887h0v-2.537h2.8v2.514h0a5,5,0,0,1,4.581,4.228l-3.853.94a1.911,1.911,0,0,0-2.044-1.738c-1.081,0-1.668.47-1.668,1.151,0,2.419,7.683.869,7.683,6.7,0,2.09-1.363,3.97-4.7,4.417Z" fill="#f0bd5a"/></g></g></g><g transform="translate(-23.141 31.727)"><g transform="translate(23.141 220.273)"><circle cx="23.371" cy="23.371" r="23.371" fill="#f0bd5a"/><circle cx="18.049" cy="18.049" r="18.049" transform="translate(5.322 5.321)" fill="#f2d496"/><g transform="translate(-23.141 -220.273)"><path d="M48.169,251.725v2.349h-2.8v-2.326a10.254,10.254,0,0,1-5.474-2.373l2.514-3.054a7.5,7.5,0,0,0,4.416,2.067c1.222,0,1.645-.328,1.645-.939,0-2.185-7.659-.87-7.659-6.508a5.08,5.08,0,0,1,4.558-4.887h0v-2.537h2.8v2.514h0a5,5,0,0,1,4.581,4.228l-3.853.94a1.911,1.911,0,0,0-2.044-1.738c-1.081,0-1.668.47-1.668,1.151,0,2.419,7.683.869,7.683,6.7,0,2.09-1.363,3.97-4.7,4.417Z" fill="#f0bd5a"/></g></g></g><g transform="translate(42.859 31.727)"><g transform="translate(23.141 220.273)"><circle cx="23.371" cy="23.371" r="23.371" fill="#f0bd5a"/><circle cx="18.049" cy="18.049" r="18.049" transform="translate(5.322 5.321)" fill="#f2d496"/><g transform="translate(-23.141 -220.273)"><path d="M48.169,251.725v2.349h-2.8v-2.326a10.254,10.254,0,0,1-5.474-2.373l2.514-3.054a7.5,7.5,0,0,0,4.416,2.067c1.222,0,1.645-.328,1.645-.939,0-2.185-7.659-.87-7.659-6.508a5.08,5.08,0,0,1,4.558-4.887h0v-2.537h2.8v2.514h0a5,5,0,0,1,4.581,4.228l-3.853.94a1.911,1.911,0,0,0-2.044-1.738c-1.081,0-1.668.47-1.668,1.151,0,2.419,7.683.869,7.683,6.7,0,2.09-1.363,3.97-4.7,4.417Z" fill="#f0bd5a"/></g></g></g><g transform="translate(108.859 31.727)"><g transform="translate(23.141 220.273)"><circle cx="23.371" cy="23.371" r="23.371" fill="#f0bd5a"/><circle cx="18.049" cy="18.049" r="18.049" transform="translate(5.322 5.321)" fill="#f2d496"/><g transform="translate(-23.141 -220.273)"><path d="M48.169,251.725v2.349h-2.8v-2.326a10.254,10.254,0,0,1-5.474-2.373l2.514-3.054a7.5,7.5,0,0,0,4.416,2.067c1.222,0,1.645-.328,1.645-.939,0-2.185-7.659-.87-7.659-6.508a5.08,5.08,0,0,1,4.558-4.887h0v-2.537h2.8v2.514h0a5,5,0,0,1,4.581,4.228l-3.853.94a1.911,1.911,0,0,0-2.044-1.738c-1.081,0-1.668.47-1.668,1.151,0,2.419,7.683.869,7.683,6.7,0,2.09-1.363,3.97-4.7,4.417Z" fill="#f0bd5a"/></g></g></g><g transform="translate(174.859 31.727)"><g transform="translate(23.141 220.273)"><circle cx="23.371" cy="23.371" r="23.371" fill="#f0bd5a"/><circle cx="18.049" cy="18.049" r="18.049" transform="translate(5.322 5.321)" fill="#f2d496"/><g transform="translate(-23.141 -220.273)"><path d="M48.169,251.725v2.349h-2.8v-2.326a10.254,10.254,0,0,1-5.474-2.373l2.514-3.054a7.5,7.5,0,0,0,4.416,2.067c1.222,0,1.645-.328,1.645-.939,0-2.185-7.659-.87-7.659-6.508a5.08,5.08,0,0,1,4.558-4.887h0v-2.537h2.8v2.514h0a5,5,0,0,1,4.581,4.228l-3.853.94a1.911,1.911,0,0,0-2.044-1.738c-1.081,0-1.668.47-1.668,1.151,0,2.419,7.683.869,7.683,6.7,0,2.09-1.363,3.97-4.7,4.417Z" fill="#f0bd5a"/></g></g></g><g transform="translate(240.859 31.727)"><g transform="translate(23.141 220.273)"><circle cx="23.371" cy="23.371" r="23.371" fill="#f0bd5a"/><circle cx="18.049" cy="18.049" r="18.049" transform="translate(5.322 5.321)" fill="#f2d496"/><g transform="translate(-23.141 -220.273)"><path d="M48.169,251.725v2.349h-2.8v-2.326a10.254,10.254,0,0,1-5.474-2.373l2.514-3.054a7.5,7.5,0,0,0,4.416,2.067c1.222,0,1.645-.328,1.645-.939,0-2.185-7.659-.87-7.659-6.508a5.08,5.08,0,0,1,4.558-4.887h0v-2.537h2.8v2.514h0a5,5,0,0,1,4.581,4.228l-3.853.94a1.911,1.911,0,0,0-2.044-1.738c-1.081,0-1.668.47-1.668,1.151,0,2.419,7.683.869,7.683,6.7,0,2.09-1.363,3.97-4.7,4.417Z" fill="#f0bd5a"/></g></g></g><g transform="translate(306.859 31.727)"><g transform="translate(23.141 220.273)"><circle cx="23.371" cy="23.371" r="23.371" fill="#f0bd5a"/><circle cx="18.049" cy="18.049" r="18.049" transform="translate(5.322 5.321)" fill="#f2d496"/><g transform="translate(-23.141 -220.273)"><path d="M48.169,251.725v2.349h-2.8v-2.326a10.254,10.254,0,0,1-5.474-2.373l2.514-3.054a7.5,7.5,0,0,0,4.416,2.067c1.222,0,1.645-.328,1.645-.939,0-2.185-7.659-.87-7.659-6.508a5.08,5.08,0,0,1,4.558-4.887h0v-2.537h2.8v2.514h0a5,5,0,0,1,4.581,4.228l-3.853.94a1.911,1.911,0,0,0-2.044-1.738c-1.081,0-1.668.47-1.668,1.151,0,2.419,7.683.869,7.683,6.7,0,2.09-1.363,3.97-4.7,4.417Z" fill="#f0bd5a"/></g></g></g><g transform="translate(372.859 31.727)"><g transform="translate(23.141 220.273)"><circle cx="23.371" cy="23.371" r="23.371" fill="#f0bd5a"/><circle cx="18.049" cy="18.049" r="18.049" transform="translate(5.322 5.321)" fill="#f2d496"/><g transform="translate(-23.141 -220.273)"><path d="M48.169,251.725v2.349h-2.8v-2.326a10.254,10.254,0,0,1-5.474-2.373l2.514-3.054a7.5,7.5,0,0,0,4.416,2.067c1.222,0,1.645-.328,1.645-.939,0-2.185-7.659-.87-7.659-6.508a5.08,5.08,0,0,1,4.558-4.887h0v-2.537h2.8v2.514h0a5,5,0,0,1,4.581,4.228l-3.853.94a1.911,1.911,0,0,0-2.044-1.738c-1.081,0-1.668.47-1.668,1.151,0,2.419,7.683.869,7.683,6.7,0,2.09-1.363,3.97-4.7,4.417Z" fill="#f0bd5a"/></g></g></g><g transform="translate(438.859 31.727)"><g transform="translate(23.141 220.273)"><circle cx="23.371" cy="23.371" r="23.371" fill="#f0bd5a"/><circle cx="18.049" cy="18.049" r="18.049" transform="translate(5.322 5.321)" fill="#f2d496"/><g transform="translate(-23.141 -220.273)"><path d="M48.169,251.725v2.349h-2.8v-2.326a10.254,10.254,0,0,1-5.474-2.373l2.514-3.054a7.5,7.5,0,0,0,4.416,2.067c1.222,0,1.645-.328,1.645-.939,0-2.185-7.659-.87-7.659-6.508a5.08,5.08,0,0,1,4.558-4.887h0v-2.537h2.8v2.514h0a5,5,0,0,1,4.581,4.228l-3.853.94a1.911,1.911,0,0,0-2.044-1.738c-1.081,0-1.668.47-1.668,1.151,0,2.419,7.683.869,7.683,6.7,0,2.09-1.363,3.97-4.7,4.417Z" fill="#f0bd5a"/></g></g></g><g transform="translate(504.859 31.727)"><g transform="translate(23.141 220.273)"><circle cx="23.371" cy="23.371" r="23.371" fill="#f0bd5a"/><circle cx="18.049" cy="18.049" r="18.049" transform="translate(5.322 5.321)" fill="#f2d496"/><g transform="translate(-23.141 -220.273)"><path d="M48.169,251.725v2.349h-2.8v-2.326a10.254,10.254,0,0,1-5.474-2.373l2.514-3.054a7.5,7.5,0,0,0,4.416,2.067c1.222,0,1.645-.328,1.645-.939,0-2.185-7.659-.87-7.659-6.508a5.08,5.08,0,0,1,4.558-4.887h0v-2.537h2.8v2.514h0a5,5,0,0,1,4.581,4.228l-3.853.94a1.911,1.911,0,0,0-2.044-1.738c-1.081,0-1.668.47-1.668,1.151,0,2.419,7.683.869,7.683,6.7,0,2.09-1.363,3.97-4.7,4.417Z" fill="#f0bd5a"/></g></g></g></g></svg>