<svg xmlns="http://www.w3.org/2000/svg" width="48.325" height="31.006" viewBox="0 0 48.325 31.006"><defs><style>.a{fill:#e9b65a;}.b{fill:#ee664e;}.c{fill:#176299;}</style></defs><g transform="translate(-171.021 -564.917)"><path class="a" d="M197.142,594.307l-15.631-23.855a3.575,3.575,0,0,1,2.99-5.535h31.263a3.576,3.576,0,0,1,2.991,5.535l-15.632,23.855A3.575,3.575,0,0,1,197.142,594.307Z"/></g><g transform="translate(-171.021 -564.917)"><path class="b" d="M192.484,594.307l-15.632-23.855a3.576,3.576,0,0,1,2.991-5.535h31.263a3.575,3.575,0,0,1,2.99,5.535l-15.631,23.855A3.575,3.575,0,0,1,192.484,594.307Z"/></g><g transform="translate(-171.021 -564.917)"><path class="c" d="M187.243,594.307l-15.631-23.855a3.575,3.575,0,0,1,2.99-5.535h31.263a3.575,3.575,0,0,1,2.99,5.535l-15.631,23.855A3.575,3.575,0,0,1,187.243,594.307Z"/></g></svg>