<svg xmlns="http://www.w3.org/2000/svg" xmlns:xlink="http://www.w3.org/1999/xlink" width="591.741" height="311.741" viewBox="0 0 591.741 311.741"><defs><style>.a{fill:none;}.b{clip-path:url(#a);}.c{fill:#262729;}.d{fill:#f0bd5a;}.e{fill:#f2d496;}.f{fill:#fff;}</style><clipPath id="a"><rect class="a" width="591.741" height="311.741"/></clipPath></defs><g class="b"><g transform="translate(-23.141 -220.273)"><g transform="translate(24.419 229.744)"><rect class="c" width="13.451" height="9.255" transform="translate(32.318 0.736) rotate(12.521)"/><line class="a" x1="48.638" transform="translate(0.049 7.647)"/><g transform="translate(-22.687 -231.578)"><ellipse class="d" cx="14.638" cy="14.152" rx="14.638" ry="14.152" transform="translate(25.767 231.578)"/><ellipse class="e" cx="11.194" cy="10.822" rx="11.194" ry="10.822" transform="translate(29.211 234.908)"/><ellipse class="d" cx="9.273" cy="8.965" rx="9.273" ry="8.965" transform="translate(31.132 236.765)"/></g><path class="f" d="M71.325,239.094H22.687a24.321,24.321,0,0,0,15.29,22.577l-1.035,4.257H57.07l-1.035-4.257A24.321,24.321,0,0,0,71.325,239.094Z" transform="translate(-22.687 -231.578)"/></g></g><g transform="translate(42.859 -220.273)"><g transform="translate(24.419 229.744)"><rect class="c" width="13.451" height="9.255" transform="translate(32.318 0.736) rotate(12.521)"/><line class="a" x1="48.638" transform="translate(0.049 7.647)"/><g transform="translate(-22.687 -231.578)"><ellipse class="d" cx="14.638" cy="14.152" rx="14.638" ry="14.152" transform="translate(25.767 231.578)"/><ellipse class="e" cx="11.194" cy="10.822" rx="11.194" ry="10.822" transform="translate(29.211 234.908)"/><ellipse class="d" cx="9.273" cy="8.965" rx="9.273" ry="8.965" transform="translate(31.132 236.765)"/></g><path class="f" d="M71.325,239.094H22.687a24.321,24.321,0,0,0,15.29,22.577l-1.035,4.257H57.07l-1.035-4.257A24.321,24.321,0,0,0,71.325,239.094Z" transform="translate(-22.687 -231.578)"/></g></g><g transform="translate(108.859 -220.273)"><g transform="translate(24.419 229.744)"><rect class="c" width="13.451" height="9.255" transform="translate(32.318 0.736) rotate(12.521)"/><line class="a" x1="48.638" transform="translate(0.049 7.647)"/><g transform="translate(-22.687 -231.578)"><ellipse class="d" cx="14.638" cy="14.152" rx="14.638" ry="14.152" transform="translate(25.767 231.578)"/><ellipse class="e" cx="11.194" cy="10.822" rx="11.194" ry="10.822" transform="translate(29.211 234.908)"/><ellipse class="d" cx="9.273" cy="8.965" rx="9.273" ry="8.965" transform="translate(31.132 236.765)"/></g><path class="f" d="M71.325,239.094H22.687a24.321,24.321,0,0,0,15.29,22.577l-1.035,4.257H57.07l-1.035-4.257A24.321,24.321,0,0,0,71.325,239.094Z" transform="translate(-22.687 -231.578)"/></g></g><g transform="translate(174.859 -220.273)"><g transform="translate(24.419 229.744)"><rect class="c" width="13.451" height="9.255" transform="translate(32.318 0.736) rotate(12.521)"/><line class="a" x1="48.638" transform="translate(0.049 7.647)"/><g transform="translate(-22.687 -231.578)"><ellipse class="d" cx="14.638" cy="14.152" rx="14.638" ry="14.152" transform="translate(25.767 231.578)"/><ellipse class="e" cx="11.194" cy="10.822" rx="11.194" ry="10.822" transform="translate(29.211 234.908)"/><ellipse class="d" cx="9.273" cy="8.965" rx="9.273" ry="8.965" transform="translate(31.132 236.765)"/></g><path class="f" d="M71.325,239.094H22.687a24.321,24.321,0,0,0,15.29,22.577l-1.035,4.257H57.07l-1.035-4.257A24.321,24.321,0,0,0,71.325,239.094Z" transform="translate(-22.687 -231.578)"/></g></g><g transform="translate(240.859 -220.273)"><g transform="translate(24.419 229.744)"><rect class="c" width="13.451" height="9.255" transform="translate(32.318 0.736) rotate(12.521)"/><line class="a" x1="48.638" transform="translate(0.049 7.647)"/><g transform="translate(-22.687 -231.578)"><ellipse class="d" cx="14.638" cy="14.152" rx="14.638" ry="14.152" transform="translate(25.767 231.578)"/><ellipse class="e" cx="11.194" cy="10.822" rx="11.194" ry="10.822" transform="translate(29.211 234.908)"/><ellipse class="d" cx="9.273" cy="8.965" rx="9.273" ry="8.965" transform="translate(31.132 236.765)"/></g><path class="f" d="M71.325,239.094H22.687a24.321,24.321,0,0,0,15.29,22.577l-1.035,4.257H57.07l-1.035-4.257A24.321,24.321,0,0,0,71.325,239.094Z" transform="translate(-22.687 -231.578)"/></g></g><g transform="translate(306.859 -220.273)"><g transform="translate(24.419 229.744)"><rect class="c" width="13.451" height="9.255" transform="translate(32.318 0.736) rotate(12.521)"/><line class="a" x1="48.638" transform="translate(0.049 7.647)"/><g transform="translate(-22.687 -231.578)"><ellipse class="d" cx="14.638" cy="14.152" rx="14.638" ry="14.152" transform="translate(25.767 231.578)"/><ellipse class="e" cx="11.194" cy="10.822" rx="11.194" ry="10.822" transform="translate(29.211 234.908)"/><ellipse class="d" cx="9.273" cy="8.965" rx="9.273" ry="8.965" transform="translate(31.132 236.765)"/></g><path class="f" d="M71.325,239.094H22.687a24.321,24.321,0,0,0,15.29,22.577l-1.035,4.257H57.07l-1.035-4.257A24.321,24.321,0,0,0,71.325,239.094Z" transform="translate(-22.687 -231.578)"/></g></g><g transform="translate(372.859 -220.273)"><g transform="translate(24.419 229.744)"><rect class="c" width="13.451" height="9.255" transform="translate(32.318 0.736) rotate(12.521)"/><line class="a" x1="48.638" transform="translate(0.049 7.647)"/><g transform="translate(-22.687 -231.578)"><ellipse class="d" cx="14.638" cy="14.152" rx="14.638" ry="14.152" transform="translate(25.767 231.578)"/><ellipse class="e" cx="11.194" cy="10.822" rx="11.194" ry="10.822" transform="translate(29.211 234.908)"/><ellipse class="d" cx="9.273" cy="8.965" rx="9.273" ry="8.965" transform="translate(31.132 236.765)"/></g><path class="f" d="M71.325,239.094H22.687a24.321,24.321,0,0,0,15.29,22.577l-1.035,4.257H57.07l-1.035-4.257A24.321,24.321,0,0,0,71.325,239.094Z" transform="translate(-22.687 -231.578)"/></g></g><g transform="translate(438.859 -220.273)"><g transform="translate(24.419 229.744)"><rect class="c" width="13.451" height="9.255" transform="translate(32.318 0.736) rotate(12.521)"/><line class="a" x1="48.638" transform="translate(0.049 7.647)"/><g transform="translate(-22.687 -231.578)"><ellipse class="d" cx="14.638" cy="14.152" rx="14.638" ry="14.152" transform="translate(25.767 231.578)"/><ellipse class="e" cx="11.194" cy="10.822" rx="11.194" ry="10.822" transform="translate(29.211 234.908)"/><ellipse class="d" cx="9.273" cy="8.965" rx="9.273" ry="8.965" transform="translate(31.132 236.765)"/></g><path class="f" d="M71.325,239.094H22.687a24.321,24.321,0,0,0,15.29,22.577l-1.035,4.257H57.07l-1.035-4.257A24.321,24.321,0,0,0,71.325,239.094Z" transform="translate(-22.687 -231.578)"/></g></g><g transform="translate(504.859 -220.273)"><g transform="translate(24.419 229.744)"><rect class="c" width="13.451" height="9.255" transform="translate(32.318 0.736) rotate(12.521)"/><line class="a" x1="48.638" transform="translate(0.049 7.647)"/><g transform="translate(-22.687 -231.578)"><ellipse class="d" cx="14.638" cy="14.152" rx="14.638" ry="14.152" transform="translate(25.767 231.578)"/><ellipse class="e" cx="11.194" cy="10.822" rx="11.194" ry="10.822" transform="translate(29.211 234.908)"/><ellipse class="d" cx="9.273" cy="8.965" rx="9.273" ry="8.965" transform="translate(31.132 236.765)"/></g><path class="f" d="M71.325,239.094H22.687a24.321,24.321,0,0,0,15.29,22.577l-1.035,4.257H57.07l-1.035-4.257A24.321,24.321,0,0,0,71.325,239.094Z" transform="translate(-22.687 -231.578)"/></g></g><g transform="translate(-23.141 -157.273)"><g transform="translate(24.419 229.744)"><rect class="c" width="13.451" height="9.255" transform="translate(32.318 0.736) rotate(12.521)"/><line class="a" x1="48.638" transform="translate(0.049 7.647)"/><g transform="translate(-22.687 -231.578)"><ellipse class="d" cx="14.638" cy="14.152" rx="14.638" ry="14.152" transform="translate(25.767 231.578)"/><ellipse class="e" cx="11.194" cy="10.822" rx="11.194" ry="10.822" transform="translate(29.211 234.908)"/><ellipse class="d" cx="9.273" cy="8.965" rx="9.273" ry="8.965" transform="translate(31.132 236.765)"/></g><path class="f" d="M71.325,239.094H22.687a24.321,24.321,0,0,0,15.29,22.577l-1.035,4.257H57.07l-1.035-4.257A24.321,24.321,0,0,0,71.325,239.094Z" transform="translate(-22.687 -231.578)"/></g></g><g transform="translate(42.859 -157.273)"><g transform="translate(24.419 229.744)"><rect class="c" width="13.451" height="9.255" transform="translate(32.318 0.736) rotate(12.521)"/><line class="a" x1="48.638" transform="translate(0.049 7.647)"/><g transform="translate(-22.687 -231.578)"><ellipse class="d" cx="14.638" cy="14.152" rx="14.638" ry="14.152" transform="translate(25.767 231.578)"/><ellipse class="e" cx="11.194" cy="10.822" rx="11.194" ry="10.822" transform="translate(29.211 234.908)"/><ellipse class="d" cx="9.273" cy="8.965" rx="9.273" ry="8.965" transform="translate(31.132 236.765)"/></g><path class="f" d="M71.325,239.094H22.687a24.321,24.321,0,0,0,15.29,22.577l-1.035,4.257H57.07l-1.035-4.257A24.321,24.321,0,0,0,71.325,239.094Z" transform="translate(-22.687 -231.578)"/></g></g><g transform="translate(108.859 -157.273)"><g transform="translate(24.419 229.744)"><rect class="c" width="13.451" height="9.255" transform="translate(32.318 0.736) rotate(12.521)"/><line class="a" x1="48.638" transform="translate(0.049 7.647)"/><g transform="translate(-22.687 -231.578)"><ellipse class="d" cx="14.638" cy="14.152" rx="14.638" ry="14.152" transform="translate(25.767 231.578)"/><ellipse class="e" cx="11.194" cy="10.822" rx="11.194" ry="10.822" transform="translate(29.211 234.908)"/><ellipse class="d" cx="9.273" cy="8.965" rx="9.273" ry="8.965" transform="translate(31.132 236.765)"/></g><path class="f" d="M71.325,239.094H22.687a24.321,24.321,0,0,0,15.29,22.577l-1.035,4.257H57.07l-1.035-4.257A24.321,24.321,0,0,0,71.325,239.094Z" transform="translate(-22.687 -231.578)"/></g></g><g transform="translate(174.859 -157.273)"><g transform="translate(24.419 229.744)"><rect class="c" width="13.451" height="9.255" transform="translate(32.318 0.736) rotate(12.521)"/><line class="a" x1="48.638" transform="translate(0.049 7.647)"/><g transform="translate(-22.687 -231.578)"><ellipse class="d" cx="14.638" cy="14.152" rx="14.638" ry="14.152" transform="translate(25.767 231.578)"/><ellipse class="e" cx="11.194" cy="10.822" rx="11.194" ry="10.822" transform="translate(29.211 234.908)"/><ellipse class="d" cx="9.273" cy="8.965" rx="9.273" ry="8.965" transform="translate(31.132 236.765)"/></g><path class="f" d="M71.325,239.094H22.687a24.321,24.321,0,0,0,15.29,22.577l-1.035,4.257H57.07l-1.035-4.257A24.321,24.321,0,0,0,71.325,239.094Z" transform="translate(-22.687 -231.578)"/></g></g><g transform="translate(240.859 -157.273)"><g transform="translate(24.419 229.744)"><rect class="c" width="13.451" height="9.255" transform="translate(32.318 0.736) rotate(12.521)"/><line class="a" x1="48.638" transform="translate(0.049 7.647)"/><g transform="translate(-22.687 -231.578)"><ellipse class="d" cx="14.638" cy="14.152" rx="14.638" ry="14.152" transform="translate(25.767 231.578)"/><ellipse class="e" cx="11.194" cy="10.822" rx="11.194" ry="10.822" transform="translate(29.211 234.908)"/><ellipse class="d" cx="9.273" cy="8.965" rx="9.273" ry="8.965" transform="translate(31.132 236.765)"/></g><path class="f" d="M71.325,239.094H22.687a24.321,24.321,0,0,0,15.29,22.577l-1.035,4.257H57.07l-1.035-4.257A24.321,24.321,0,0,0,71.325,239.094Z" transform="translate(-22.687 -231.578)"/></g></g><g transform="translate(306.859 -157.273)"><g transform="translate(24.419 229.744)"><rect class="c" width="13.451" height="9.255" transform="translate(32.318 0.736) rotate(12.521)"/><line class="a" x1="48.638" transform="translate(0.049 7.647)"/><g transform="translate(-22.687 -231.578)"><ellipse class="d" cx="14.638" cy="14.152" rx="14.638" ry="14.152" transform="translate(25.767 231.578)"/><ellipse class="e" cx="11.194" cy="10.822" rx="11.194" ry="10.822" transform="translate(29.211 234.908)"/><ellipse class="d" cx="9.273" cy="8.965" rx="9.273" ry="8.965" transform="translate(31.132 236.765)"/></g><path class="f" d="M71.325,239.094H22.687a24.321,24.321,0,0,0,15.29,22.577l-1.035,4.257H57.07l-1.035-4.257A24.321,24.321,0,0,0,71.325,239.094Z" transform="translate(-22.687 -231.578)"/></g></g><g transform="translate(372.859 -157.273)"><g transform="translate(24.419 229.744)"><rect class="c" width="13.451" height="9.255" transform="translate(32.318 0.736) rotate(12.521)"/><line class="a" x1="48.638" transform="translate(0.049 7.647)"/><g transform="translate(-22.687 -231.578)"><ellipse class="d" cx="14.638" cy="14.152" rx="14.638" ry="14.152" transform="translate(25.767 231.578)"/><ellipse class="e" cx="11.194" cy="10.822" rx="11.194" ry="10.822" transform="translate(29.211 234.908)"/><ellipse class="d" cx="9.273" cy="8.965" rx="9.273" ry="8.965" transform="translate(31.132 236.765)"/></g><path class="f" d="M71.325,239.094H22.687a24.321,24.321,0,0,0,15.29,22.577l-1.035,4.257H57.07l-1.035-4.257A24.321,24.321,0,0,0,71.325,239.094Z" transform="translate(-22.687 -231.578)"/></g></g><g transform="translate(438.859 -157.273)"><g transform="translate(24.419 229.744)"><rect class="c" width="13.451" height="9.255" transform="translate(32.318 0.736) rotate(12.521)"/><line class="a" x1="48.638" transform="translate(0.049 7.647)"/><g transform="translate(-22.687 -231.578)"><ellipse class="d" cx="14.638" cy="14.152" rx="14.638" ry="14.152" transform="translate(25.767 231.578)"/><ellipse class="e" cx="11.194" cy="10.822" rx="11.194" ry="10.822" transform="translate(29.211 234.908)"/><ellipse class="d" cx="9.273" cy="8.965" rx="9.273" ry="8.965" transform="translate(31.132 236.765)"/></g><path class="f" d="M71.325,239.094H22.687a24.321,24.321,0,0,0,15.29,22.577l-1.035,4.257H57.07l-1.035-4.257A24.321,24.321,0,0,0,71.325,239.094Z" transform="translate(-22.687 -231.578)"/></g></g><g transform="translate(504.859 -157.273)"><g transform="translate(24.419 229.744)"><rect class="c" width="13.451" height="9.255" transform="translate(32.318 0.736) rotate(12.521)"/><line class="a" x1="48.638" transform="translate(0.049 7.647)"/><g transform="translate(-22.687 -231.578)"><ellipse class="d" cx="14.638" cy="14.152" rx="14.638" ry="14.152" transform="translate(25.767 231.578)"/><ellipse class="e" cx="11.194" cy="10.822" rx="11.194" ry="10.822" transform="translate(29.211 234.908)"/><ellipse class="d" cx="9.273" cy="8.965" rx="9.273" ry="8.965" transform="translate(31.132 236.765)"/></g><path class="f" d="M71.325,239.094H22.687a24.321,24.321,0,0,0,15.29,22.577l-1.035,4.257H57.07l-1.035-4.257A24.321,24.321,0,0,0,71.325,239.094Z" transform="translate(-22.687 -231.578)"/></g></g><g transform="translate(-23.141 -94.273)"><g transform="translate(24.419 229.744)"><rect class="c" width="13.451" height="9.255" transform="translate(32.318 0.736) rotate(12.521)"/><line class="a" x1="48.638" transform="translate(0.049 7.647)"/><g transform="translate(-22.687 -231.578)"><ellipse class="d" cx="14.638" cy="14.152" rx="14.638" ry="14.152" transform="translate(25.767 231.578)"/><ellipse class="e" cx="11.194" cy="10.822" rx="11.194" ry="10.822" transform="translate(29.211 234.908)"/><ellipse class="d" cx="9.273" cy="8.965" rx="9.273" ry="8.965" transform="translate(31.132 236.765)"/></g><path class="f" d="M71.325,239.094H22.687a24.321,24.321,0,0,0,15.29,22.577l-1.035,4.257H57.07l-1.035-4.257A24.321,24.321,0,0,0,71.325,239.094Z" transform="translate(-22.687 -231.578)"/></g></g><g transform="translate(42.859 -94.273)"><g transform="translate(24.419 229.744)"><rect class="c" width="13.451" height="9.255" transform="translate(32.318 0.736) rotate(12.521)"/><line class="a" x1="48.638" transform="translate(0.049 7.647)"/><g transform="translate(-22.687 -231.578)"><ellipse class="d" cx="14.638" cy="14.152" rx="14.638" ry="14.152" transform="translate(25.767 231.578)"/><ellipse class="e" cx="11.194" cy="10.822" rx="11.194" ry="10.822" transform="translate(29.211 234.908)"/><ellipse class="d" cx="9.273" cy="8.965" rx="9.273" ry="8.965" transform="translate(31.132 236.765)"/></g><path class="f" d="M71.325,239.094H22.687a24.321,24.321,0,0,0,15.29,22.577l-1.035,4.257H57.07l-1.035-4.257A24.321,24.321,0,0,0,71.325,239.094Z" transform="translate(-22.687 -231.578)"/></g></g><g transform="translate(108.859 -94.273)"><g transform="translate(24.419 229.744)"><rect class="c" width="13.451" height="9.255" transform="translate(32.318 0.736) rotate(12.521)"/><line class="a" x1="48.638" transform="translate(0.049 7.647)"/><g transform="translate(-22.687 -231.578)"><ellipse class="d" cx="14.638" cy="14.152" rx="14.638" ry="14.152" transform="translate(25.767 231.578)"/><ellipse class="e" cx="11.194" cy="10.822" rx="11.194" ry="10.822" transform="translate(29.211 234.908)"/><ellipse class="d" cx="9.273" cy="8.965" rx="9.273" ry="8.965" transform="translate(31.132 236.765)"/></g><path class="f" d="M71.325,239.094H22.687a24.321,24.321,0,0,0,15.29,22.577l-1.035,4.257H57.07l-1.035-4.257A24.321,24.321,0,0,0,71.325,239.094Z" transform="translate(-22.687 -231.578)"/></g></g><g transform="translate(174.859 -94.273)"><g transform="translate(24.419 229.744)"><rect class="c" width="13.451" height="9.255" transform="translate(32.318 0.736) rotate(12.521)"/><line class="a" x1="48.638" transform="translate(0.049 7.647)"/><g transform="translate(-22.687 -231.578)"><ellipse class="d" cx="14.638" cy="14.152" rx="14.638" ry="14.152" transform="translate(25.767 231.578)"/><ellipse class="e" cx="11.194" cy="10.822" rx="11.194" ry="10.822" transform="translate(29.211 234.908)"/><ellipse class="d" cx="9.273" cy="8.965" rx="9.273" ry="8.965" transform="translate(31.132 236.765)"/></g><path class="f" d="M71.325,239.094H22.687a24.321,24.321,0,0,0,15.29,22.577l-1.035,4.257H57.07l-1.035-4.257A24.321,24.321,0,0,0,71.325,239.094Z" transform="translate(-22.687 -231.578)"/></g></g><g transform="translate(240.859 -94.273)"><g transform="translate(24.419 229.744)"><rect class="c" width="13.451" height="9.255" transform="translate(32.318 0.736) rotate(12.521)"/><line class="a" x1="48.638" transform="translate(0.049 7.647)"/><g transform="translate(-22.687 -231.578)"><ellipse class="d" cx="14.638" cy="14.152" rx="14.638" ry="14.152" transform="translate(25.767 231.578)"/><ellipse class="e" cx="11.194" cy="10.822" rx="11.194" ry="10.822" transform="translate(29.211 234.908)"/><ellipse class="d" cx="9.273" cy="8.965" rx="9.273" ry="8.965" transform="translate(31.132 236.765)"/></g><path class="f" d="M71.325,239.094H22.687a24.321,24.321,0,0,0,15.29,22.577l-1.035,4.257H57.07l-1.035-4.257A24.321,24.321,0,0,0,71.325,239.094Z" transform="translate(-22.687 -231.578)"/></g></g><g transform="translate(306.859 -94.273)"><g transform="translate(24.419 229.744)"><rect class="c" width="13.451" height="9.255" transform="translate(32.318 0.736) rotate(12.521)"/><line class="a" x1="48.638" transform="translate(0.049 7.647)"/><g transform="translate(-22.687 -231.578)"><ellipse class="d" cx="14.638" cy="14.152" rx="14.638" ry="14.152" transform="translate(25.767 231.578)"/><ellipse class="e" cx="11.194" cy="10.822" rx="11.194" ry="10.822" transform="translate(29.211 234.908)"/><ellipse class="d" cx="9.273" cy="8.965" rx="9.273" ry="8.965" transform="translate(31.132 236.765)"/></g><path class="f" d="M71.325,239.094H22.687a24.321,24.321,0,0,0,15.29,22.577l-1.035,4.257H57.07l-1.035-4.257A24.321,24.321,0,0,0,71.325,239.094Z" transform="translate(-22.687 -231.578)"/></g></g><g transform="translate(372.859 -94.273)"><g transform="translate(24.419 229.744)"><rect class="c" width="13.451" height="9.255" transform="translate(32.318 0.736) rotate(12.521)"/><line class="a" x1="48.638" transform="translate(0.049 7.647)"/><g transform="translate(-22.687 -231.578)"><ellipse class="d" cx="14.638" cy="14.152" rx="14.638" ry="14.152" transform="translate(25.767 231.578)"/><ellipse class="e" cx="11.194" cy="10.822" rx="11.194" ry="10.822" transform="translate(29.211 234.908)"/><ellipse class="d" cx="9.273" cy="8.965" rx="9.273" ry="8.965" transform="translate(31.132 236.765)"/></g><path class="f" d="M71.325,239.094H22.687a24.321,24.321,0,0,0,15.29,22.577l-1.035,4.257H57.07l-1.035-4.257A24.321,24.321,0,0,0,71.325,239.094Z" transform="translate(-22.687 -231.578)"/></g></g><g transform="translate(438.859 -94.273)"><g transform="translate(24.419 229.744)"><rect class="c" width="13.451" height="9.255" transform="translate(32.318 0.736) rotate(12.521)"/><line class="a" x1="48.638" transform="translate(0.049 7.647)"/><g transform="translate(-22.687 -231.578)"><ellipse class="d" cx="14.638" cy="14.152" rx="14.638" ry="14.152" transform="translate(25.767 231.578)"/><ellipse class="e" cx="11.194" cy="10.822" rx="11.194" ry="10.822" transform="translate(29.211 234.908)"/><ellipse class="d" cx="9.273" cy="8.965" rx="9.273" ry="8.965" transform="translate(31.132 236.765)"/></g><path class="f" d="M71.325,239.094H22.687a24.321,24.321,0,0,0,15.29,22.577l-1.035,4.257H57.07l-1.035-4.257A24.321,24.321,0,0,0,71.325,239.094Z" transform="translate(-22.687 -231.578)"/></g></g><g transform="translate(504.859 -94.273)"><g transform="translate(24.419 229.744)"><rect class="c" width="13.451" height="9.255" transform="translate(32.318 0.736) rotate(12.521)"/><line class="a" x1="48.638" transform="translate(0.049 7.647)"/><g transform="translate(-22.687 -231.578)"><ellipse class="d" cx="14.638" cy="14.152" rx="14.638" ry="14.152" transform="translate(25.767 231.578)"/><ellipse class="e" cx="11.194" cy="10.822" rx="11.194" ry="10.822" transform="translate(29.211 234.908)"/><ellipse class="d" cx="9.273" cy="8.965" rx="9.273" ry="8.965" transform="translate(31.132 236.765)"/></g><path class="f" d="M71.325,239.094H22.687a24.321,24.321,0,0,0,15.29,22.577l-1.035,4.257H57.07l-1.035-4.257A24.321,24.321,0,0,0,71.325,239.094Z" transform="translate(-22.687 -231.578)"/></g></g><g transform="translate(-23.141 -31.273)"><g transform="translate(24.419 229.744)"><rect class="c" width="13.451" height="9.255" transform="translate(32.318 0.736) rotate(12.521)"/><line class="a" x1="48.638" transform="translate(0.049 7.647)"/><g transform="translate(-22.687 -231.578)"><ellipse class="d" cx="14.638" cy="14.152" rx="14.638" ry="14.152" transform="translate(25.767 231.578)"/><ellipse class="e" cx="11.194" cy="10.822" rx="11.194" ry="10.822" transform="translate(29.211 234.908)"/><ellipse class="d" cx="9.273" cy="8.965" rx="9.273" ry="8.965" transform="translate(31.132 236.765)"/></g><path class="f" d="M71.325,239.094H22.687a24.321,24.321,0,0,0,15.29,22.577l-1.035,4.257H57.07l-1.035-4.257A24.321,24.321,0,0,0,71.325,239.094Z" transform="translate(-22.687 -231.578)"/></g></g><g transform="translate(42.859 -31.273)"><g transform="translate(24.419 229.744)"><rect class="c" width="13.451" height="9.255" transform="translate(32.318 0.736) rotate(12.521)"/><line class="a" x1="48.638" transform="translate(0.049 7.647)"/><g transform="translate(-22.687 -231.578)"><ellipse class="d" cx="14.638" cy="14.152" rx="14.638" ry="14.152" transform="translate(25.767 231.578)"/><ellipse class="e" cx="11.194" cy="10.822" rx="11.194" ry="10.822" transform="translate(29.211 234.908)"/><ellipse class="d" cx="9.273" cy="8.965" rx="9.273" ry="8.965" transform="translate(31.132 236.765)"/></g><path class="f" d="M71.325,239.094H22.687a24.321,24.321,0,0,0,15.29,22.577l-1.035,4.257H57.07l-1.035-4.257A24.321,24.321,0,0,0,71.325,239.094Z" transform="translate(-22.687 -231.578)"/></g></g><g transform="translate(108.859 -31.273)"><g transform="translate(24.419 229.744)"><rect class="c" width="13.451" height="9.255" transform="translate(32.318 0.736) rotate(12.521)"/><line class="a" x1="48.638" transform="translate(0.049 7.647)"/><g transform="translate(-22.687 -231.578)"><ellipse class="d" cx="14.638" cy="14.152" rx="14.638" ry="14.152" transform="translate(25.767 231.578)"/><ellipse class="e" cx="11.194" cy="10.822" rx="11.194" ry="10.822" transform="translate(29.211 234.908)"/><ellipse class="d" cx="9.273" cy="8.965" rx="9.273" ry="8.965" transform="translate(31.132 236.765)"/></g><path class="f" d="M71.325,239.094H22.687a24.321,24.321,0,0,0,15.29,22.577l-1.035,4.257H57.07l-1.035-4.257A24.321,24.321,0,0,0,71.325,239.094Z" transform="translate(-22.687 -231.578)"/></g></g><g transform="translate(174.859 -31.273)"><g transform="translate(24.419 229.744)"><rect class="c" width="13.451" height="9.255" transform="translate(32.318 0.736) rotate(12.521)"/><line class="a" x1="48.638" transform="translate(0.049 7.647)"/><g transform="translate(-22.687 -231.578)"><ellipse class="d" cx="14.638" cy="14.152" rx="14.638" ry="14.152" transform="translate(25.767 231.578)"/><ellipse class="e" cx="11.194" cy="10.822" rx="11.194" ry="10.822" transform="translate(29.211 234.908)"/><ellipse class="d" cx="9.273" cy="8.965" rx="9.273" ry="8.965" transform="translate(31.132 236.765)"/></g><path class="f" d="M71.325,239.094H22.687a24.321,24.321,0,0,0,15.29,22.577l-1.035,4.257H57.07l-1.035-4.257A24.321,24.321,0,0,0,71.325,239.094Z" transform="translate(-22.687 -231.578)"/></g></g><g transform="translate(240.859 -31.273)"><g transform="translate(24.419 229.744)"><rect class="c" width="13.451" height="9.255" transform="translate(32.318 0.736) rotate(12.521)"/><line class="a" x1="48.638" transform="translate(0.049 7.647)"/><g transform="translate(-22.687 -231.578)"><ellipse class="d" cx="14.638" cy="14.152" rx="14.638" ry="14.152" transform="translate(25.767 231.578)"/><ellipse class="e" cx="11.194" cy="10.822" rx="11.194" ry="10.822" transform="translate(29.211 234.908)"/><ellipse class="d" cx="9.273" cy="8.965" rx="9.273" ry="8.965" transform="translate(31.132 236.765)"/></g><path class="f" d="M71.325,239.094H22.687a24.321,24.321,0,0,0,15.29,22.577l-1.035,4.257H57.07l-1.035-4.257A24.321,24.321,0,0,0,71.325,239.094Z" transform="translate(-22.687 -231.578)"/></g></g><g transform="translate(306.859 -31.273)"><g transform="translate(24.419 229.744)"><rect class="c" width="13.451" height="9.255" transform="translate(32.318 0.736) rotate(12.521)"/><line class="a" x1="48.638" transform="translate(0.049 7.647)"/><g transform="translate(-22.687 -231.578)"><ellipse class="d" cx="14.638" cy="14.152" rx="14.638" ry="14.152" transform="translate(25.767 231.578)"/><ellipse class="e" cx="11.194" cy="10.822" rx="11.194" ry="10.822" transform="translate(29.211 234.908)"/><ellipse class="d" cx="9.273" cy="8.965" rx="9.273" ry="8.965" transform="translate(31.132 236.765)"/></g><path class="f" d="M71.325,239.094H22.687a24.321,24.321,0,0,0,15.29,22.577l-1.035,4.257H57.07l-1.035-4.257A24.321,24.321,0,0,0,71.325,239.094Z" transform="translate(-22.687 -231.578)"/></g></g><g transform="translate(372.859 -31.273)"><g transform="translate(24.419 229.744)"><rect class="c" width="13.451" height="9.255" transform="translate(32.318 0.736) rotate(12.521)"/><line class="a" x1="48.638" transform="translate(0.049 7.647)"/><g transform="translate(-22.687 -231.578)"><ellipse class="d" cx="14.638" cy="14.152" rx="14.638" ry="14.152" transform="translate(25.767 231.578)"/><ellipse class="e" cx="11.194" cy="10.822" rx="11.194" ry="10.822" transform="translate(29.211 234.908)"/><ellipse class="d" cx="9.273" cy="8.965" rx="9.273" ry="8.965" transform="translate(31.132 236.765)"/></g><path class="f" d="M71.325,239.094H22.687a24.321,24.321,0,0,0,15.29,22.577l-1.035,4.257H57.07l-1.035-4.257A24.321,24.321,0,0,0,71.325,239.094Z" transform="translate(-22.687 -231.578)"/></g></g><g transform="translate(438.859 -31.273)"><g transform="translate(24.419 229.744)"><rect class="c" width="13.451" height="9.255" transform="translate(32.318 0.736) rotate(12.521)"/><line class="a" x1="48.638" transform="translate(0.049 7.647)"/><g transform="translate(-22.687 -231.578)"><ellipse class="d" cx="14.638" cy="14.152" rx="14.638" ry="14.152" transform="translate(25.767 231.578)"/><ellipse class="e" cx="11.194" cy="10.822" rx="11.194" ry="10.822" transform="translate(29.211 234.908)"/><ellipse class="d" cx="9.273" cy="8.965" rx="9.273" ry="8.965" transform="translate(31.132 236.765)"/></g><path class="f" d="M71.325,239.094H22.687a24.321,24.321,0,0,0,15.29,22.577l-1.035,4.257H57.07l-1.035-4.257A24.321,24.321,0,0,0,71.325,239.094Z" transform="translate(-22.687 -231.578)"/></g></g><g transform="translate(504.859 -31.273)"><g transform="translate(24.419 229.744)"><rect class="c" width="13.451" height="9.255" transform="translate(32.318 0.736) rotate(12.521)"/><line class="a" x1="48.638" transform="translate(0.049 7.647)"/><g transform="translate(-22.687 -231.578)"><ellipse class="d" cx="14.638" cy="14.152" rx="14.638" ry="14.152" transform="translate(25.767 231.578)"/><ellipse class="e" cx="11.194" cy="10.822" rx="11.194" ry="10.822" transform="translate(29.211 234.908)"/><ellipse class="d" cx="9.273" cy="8.965" rx="9.273" ry="8.965" transform="translate(31.132 236.765)"/></g><path class="f" d="M71.325,239.094H22.687a24.321,24.321,0,0,0,15.29,22.577l-1.035,4.257H57.07l-1.035-4.257A24.321,24.321,0,0,0,71.325,239.094Z" transform="translate(-22.687 -231.578)"/></g></g><g transform="translate(-23.141 31.727)"><g transform="translate(24.419 229.744)"><rect class="c" width="13.451" height="9.255" transform="translate(32.318 0.736) rotate(12.521)"/><line class="a" x1="48.638" transform="translate(0.049 7.647)"/><g transform="translate(-22.687 -231.578)"><ellipse class="d" cx="14.638" cy="14.152" rx="14.638" ry="14.152" transform="translate(25.767 231.578)"/><ellipse class="e" cx="11.194" cy="10.822" rx="11.194" ry="10.822" transform="translate(29.211 234.908)"/><ellipse class="d" cx="9.273" cy="8.965" rx="9.273" ry="8.965" transform="translate(31.132 236.765)"/></g><path class="f" d="M71.325,239.094H22.687a24.321,24.321,0,0,0,15.29,22.577l-1.035,4.257H57.07l-1.035-4.257A24.321,24.321,0,0,0,71.325,239.094Z" transform="translate(-22.687 -231.578)"/></g></g><g transform="translate(42.859 31.727)"><g transform="translate(24.419 229.744)"><rect class="c" width="13.451" height="9.255" transform="translate(32.318 0.736) rotate(12.521)"/><line class="a" x1="48.638" transform="translate(0.049 7.647)"/><g transform="translate(-22.687 -231.578)"><ellipse class="d" cx="14.638" cy="14.152" rx="14.638" ry="14.152" transform="translate(25.767 231.578)"/><ellipse class="e" cx="11.194" cy="10.822" rx="11.194" ry="10.822" transform="translate(29.211 234.908)"/><ellipse class="d" cx="9.273" cy="8.965" rx="9.273" ry="8.965" transform="translate(31.132 236.765)"/></g><path class="f" d="M71.325,239.094H22.687a24.321,24.321,0,0,0,15.29,22.577l-1.035,4.257H57.07l-1.035-4.257A24.321,24.321,0,0,0,71.325,239.094Z" transform="translate(-22.687 -231.578)"/></g></g><g transform="translate(108.859 31.727)"><g transform="translate(24.419 229.744)"><rect class="c" width="13.451" height="9.255" transform="translate(32.318 0.736) rotate(12.521)"/><line class="a" x1="48.638" transform="translate(0.049 7.647)"/><g transform="translate(-22.687 -231.578)"><ellipse class="d" cx="14.638" cy="14.152" rx="14.638" ry="14.152" transform="translate(25.767 231.578)"/><ellipse class="e" cx="11.194" cy="10.822" rx="11.194" ry="10.822" transform="translate(29.211 234.908)"/><ellipse class="d" cx="9.273" cy="8.965" rx="9.273" ry="8.965" transform="translate(31.132 236.765)"/></g><path class="f" d="M71.325,239.094H22.687a24.321,24.321,0,0,0,15.29,22.577l-1.035,4.257H57.07l-1.035-4.257A24.321,24.321,0,0,0,71.325,239.094Z" transform="translate(-22.687 -231.578)"/></g></g><g transform="translate(174.859 31.727)"><g transform="translate(24.419 229.744)"><rect class="c" width="13.451" height="9.255" transform="translate(32.318 0.736) rotate(12.521)"/><line class="a" x1="48.638" transform="translate(0.049 7.647)"/><g transform="translate(-22.687 -231.578)"><ellipse class="d" cx="14.638" cy="14.152" rx="14.638" ry="14.152" transform="translate(25.767 231.578)"/><ellipse class="e" cx="11.194" cy="10.822" rx="11.194" ry="10.822" transform="translate(29.211 234.908)"/><ellipse class="d" cx="9.273" cy="8.965" rx="9.273" ry="8.965" transform="translate(31.132 236.765)"/></g><path class="f" d="M71.325,239.094H22.687a24.321,24.321,0,0,0,15.29,22.577l-1.035,4.257H57.07l-1.035-4.257A24.321,24.321,0,0,0,71.325,239.094Z" transform="translate(-22.687 -231.578)"/></g></g><g transform="translate(240.859 31.727)"><g transform="translate(24.419 229.744)"><rect class="c" width="13.451" height="9.255" transform="translate(32.318 0.736) rotate(12.521)"/><line class="a" x1="48.638" transform="translate(0.049 7.647)"/><g transform="translate(-22.687 -231.578)"><ellipse class="d" cx="14.638" cy="14.152" rx="14.638" ry="14.152" transform="translate(25.767 231.578)"/><ellipse class="e" cx="11.194" cy="10.822" rx="11.194" ry="10.822" transform="translate(29.211 234.908)"/><ellipse class="d" cx="9.273" cy="8.965" rx="9.273" ry="8.965" transform="translate(31.132 236.765)"/></g><path class="f" d="M71.325,239.094H22.687a24.321,24.321,0,0,0,15.29,22.577l-1.035,4.257H57.07l-1.035-4.257A24.321,24.321,0,0,0,71.325,239.094Z" transform="translate(-22.687 -231.578)"/></g></g><g transform="translate(306.859 31.727)"><g transform="translate(24.419 229.744)"><rect class="c" width="13.451" height="9.255" transform="translate(32.318 0.736) rotate(12.521)"/><line class="a" x1="48.638" transform="translate(0.049 7.647)"/><g transform="translate(-22.687 -231.578)"><ellipse class="d" cx="14.638" cy="14.152" rx="14.638" ry="14.152" transform="translate(25.767 231.578)"/><ellipse class="e" cx="11.194" cy="10.822" rx="11.194" ry="10.822" transform="translate(29.211 234.908)"/><ellipse class="d" cx="9.273" cy="8.965" rx="9.273" ry="8.965" transform="translate(31.132 236.765)"/></g><path class="f" d="M71.325,239.094H22.687a24.321,24.321,0,0,0,15.29,22.577l-1.035,4.257H57.07l-1.035-4.257A24.321,24.321,0,0,0,71.325,239.094Z" transform="translate(-22.687 -231.578)"/></g></g><g transform="translate(372.859 31.727)"><g transform="translate(24.419 229.744)"><rect class="c" width="13.451" height="9.255" transform="translate(32.318 0.736) rotate(12.521)"/><line class="a" x1="48.638" transform="translate(0.049 7.647)"/><g transform="translate(-22.687 -231.578)"><ellipse class="d" cx="14.638" cy="14.152" rx="14.638" ry="14.152" transform="translate(25.767 231.578)"/><ellipse class="e" cx="11.194" cy="10.822" rx="11.194" ry="10.822" transform="translate(29.211 234.908)"/><ellipse class="d" cx="9.273" cy="8.965" rx="9.273" ry="8.965" transform="translate(31.132 236.765)"/></g><path class="f" d="M71.325,239.094H22.687a24.321,24.321,0,0,0,15.29,22.577l-1.035,4.257H57.07l-1.035-4.257A24.321,24.321,0,0,0,71.325,239.094Z" transform="translate(-22.687 -231.578)"/></g></g><g transform="translate(438.859 31.727)"><g transform="translate(24.419 229.744)"><rect class="c" width="13.451" height="9.255" transform="translate(32.318 0.736) rotate(12.521)"/><line class="a" x1="48.638" transform="translate(0.049 7.647)"/><g transform="translate(-22.687 -231.578)"><ellipse class="d" cx="14.638" cy="14.152" rx="14.638" ry="14.152" transform="translate(25.767 231.578)"/><ellipse class="e" cx="11.194" cy="10.822" rx="11.194" ry="10.822" transform="translate(29.211 234.908)"/><ellipse class="d" cx="9.273" cy="8.965" rx="9.273" ry="8.965" transform="translate(31.132 236.765)"/></g><path class="f" d="M71.325,239.094H22.687a24.321,24.321,0,0,0,15.29,22.577l-1.035,4.257H57.07l-1.035-4.257A24.321,24.321,0,0,0,71.325,239.094Z" transform="translate(-22.687 -231.578)"/></g></g><g transform="translate(504.859 31.727)"><g transform="translate(24.419 229.744)"><rect class="c" width="13.451" height="9.255" transform="translate(32.318 0.736) rotate(12.521)"/><line class="a" x1="48.638" transform="translate(0.049 7.647)"/><g transform="translate(-22.687 -231.578)"><ellipse class="d" cx="14.638" cy="14.152" rx="14.638" ry="14.152" transform="translate(25.767 231.578)"/><ellipse class="e" cx="11.194" cy="10.822" rx="11.194" ry="10.822" transform="translate(29.211 234.908)"/><ellipse class="d" cx="9.273" cy="8.965" rx="9.273" ry="8.965" transform="translate(31.132 236.765)"/></g><path class="f" d="M71.325,239.094H22.687a24.321,24.321,0,0,0,15.29,22.577l-1.035,4.257H57.07l-1.035-4.257A24.321,24.321,0,0,0,71.325,239.094Z" transform="translate(-22.687 -231.578)"/></g></g></g></svg>