<svg xmlns="http://www.w3.org/2000/svg" xmlns:xlink="http://www.w3.org/1999/xlink" width="584.741" height="311.741" viewBox="0 0 584.741 311.741"><defs><style>.a{fill:none;}.b{clip-path:url(#a);}.c{fill:#262729;}.d{fill:#f0f2f4;}</style><clipPath id="a"><rect class="a" width="584.741" height="311.741"/></clipPath></defs><g class="b"><g transform="translate(-23.141 -220.273)"><g transform="translate(24.419 232.744)"><path class="c" d="M22.2,250.413l.774,2.127,2.382-.867.774,2.127,2-.727L28.9,255.2l1.8-.657.774,2.127,2.105-.766.774,2.127,7.983-2.905L41.571,253l1.964-.715-.774-2.127,1.978-.72-.774-2.127-.774-2.127L49,243.068l.774,2.127.774,2.127,1.978-.72.774,2.127,1.964-.715.774,2.127,7.982-2.905-.774-2.127,2.105-.766-.774-2.127,1.8-.657-.774-2.127,2-.727-.774-2.127,2.271-.826-.774-2.127Z" transform="translate(-22.201 -233.624)"/><g transform="translate(-22.201 -233.624)"><rect class="d" width="2.153" height="2.153" transform="translate(56.573 245.248) rotate(-20)"/><rect class="d" width="2.153" height="2.153" transform="translate(53.814 243.961) rotate(-20)"/><rect class="d" width="2.153" height="2.153" transform="translate(51.054 242.674) rotate(-20)"/></g><g transform="translate(-22.201 -233.624)"><rect class="d" width="2.153" height="2.153" transform="translate(34.718 253.202) rotate(-20)"/><rect class="d" width="2.153" height="2.153" transform="translate(31.959 251.916) rotate(-20)"/><rect class="d" width="2.153" height="2.153" transform="translate(29.2 250.629) rotate(-20)"/></g></g></g><g transform="translate(42.859 -220.273)"><g transform="translate(24.419 232.744)"><path class="c" d="M22.2,250.413l.774,2.127,2.382-.867.774,2.127,2-.727L28.9,255.2l1.8-.657.774,2.127,2.105-.766.774,2.127,7.983-2.905L41.571,253l1.964-.715-.774-2.127,1.978-.72-.774-2.127-.774-2.127L49,243.068l.774,2.127.774,2.127,1.978-.72.774,2.127,1.964-.715.774,2.127,7.982-2.905-.774-2.127,2.105-.766-.774-2.127,1.8-.657-.774-2.127,2-.727-.774-2.127,2.271-.826-.774-2.127Z" transform="translate(-22.201 -233.624)"/><g transform="translate(-22.201 -233.624)"><rect class="d" width="2.153" height="2.153" transform="translate(56.573 245.248) rotate(-20)"/><rect class="d" width="2.153" height="2.153" transform="translate(53.814 243.961) rotate(-20)"/><rect class="d" width="2.153" height="2.153" transform="translate(51.054 242.674) rotate(-20)"/></g><g transform="translate(-22.201 -233.624)"><rect class="d" width="2.153" height="2.153" transform="translate(34.718 253.202) rotate(-20)"/><rect class="d" width="2.153" height="2.153" transform="translate(31.959 251.916) rotate(-20)"/><rect class="d" width="2.153" height="2.153" transform="translate(29.2 250.629) rotate(-20)"/></g></g></g><g transform="translate(108.859 -220.273)"><g transform="translate(24.419 232.744)"><path class="c" d="M22.2,250.413l.774,2.127,2.382-.867.774,2.127,2-.727L28.9,255.2l1.8-.657.774,2.127,2.105-.766.774,2.127,7.983-2.905L41.571,253l1.964-.715-.774-2.127,1.978-.72-.774-2.127-.774-2.127L49,243.068l.774,2.127.774,2.127,1.978-.72.774,2.127,1.964-.715.774,2.127,7.982-2.905-.774-2.127,2.105-.766-.774-2.127,1.8-.657-.774-2.127,2-.727-.774-2.127,2.271-.826-.774-2.127Z" transform="translate(-22.201 -233.624)"/><g transform="translate(-22.201 -233.624)"><rect class="d" width="2.153" height="2.153" transform="translate(56.573 245.248) rotate(-20)"/><rect class="d" width="2.153" height="2.153" transform="translate(53.814 243.961) rotate(-20)"/><rect class="d" width="2.153" height="2.153" transform="translate(51.054 242.674) rotate(-20)"/></g><g transform="translate(-22.201 -233.624)"><rect class="d" width="2.153" height="2.153" transform="translate(34.718 253.202) rotate(-20)"/><rect class="d" width="2.153" height="2.153" transform="translate(31.959 251.916) rotate(-20)"/><rect class="d" width="2.153" height="2.153" transform="translate(29.2 250.629) rotate(-20)"/></g></g></g><g transform="translate(174.859 -220.273)"><g transform="translate(24.419 232.744)"><path class="c" d="M22.2,250.413l.774,2.127,2.382-.867.774,2.127,2-.727L28.9,255.2l1.8-.657.774,2.127,2.105-.766.774,2.127,7.983-2.905L41.571,253l1.964-.715-.774-2.127,1.978-.72-.774-2.127-.774-2.127L49,243.068l.774,2.127.774,2.127,1.978-.72.774,2.127,1.964-.715.774,2.127,7.982-2.905-.774-2.127,2.105-.766-.774-2.127,1.8-.657-.774-2.127,2-.727-.774-2.127,2.271-.826-.774-2.127Z" transform="translate(-22.201 -233.624)"/><g transform="translate(-22.201 -233.624)"><rect class="d" width="2.153" height="2.153" transform="translate(56.573 245.248) rotate(-20)"/><rect class="d" width="2.153" height="2.153" transform="translate(53.814 243.961) rotate(-20)"/><rect class="d" width="2.153" height="2.153" transform="translate(51.054 242.674) rotate(-20)"/></g><g transform="translate(-22.201 -233.624)"><rect class="d" width="2.153" height="2.153" transform="translate(34.718 253.202) rotate(-20)"/><rect class="d" width="2.153" height="2.153" transform="translate(31.959 251.916) rotate(-20)"/><rect class="d" width="2.153" height="2.153" transform="translate(29.2 250.629) rotate(-20)"/></g></g></g><g transform="translate(240.859 -220.273)"><g transform="translate(24.419 232.744)"><path class="c" d="M22.2,250.413l.774,2.127,2.382-.867.774,2.127,2-.727L28.9,255.2l1.8-.657.774,2.127,2.105-.766.774,2.127,7.983-2.905L41.571,253l1.964-.715-.774-2.127,1.978-.72-.774-2.127-.774-2.127L49,243.068l.774,2.127.774,2.127,1.978-.72.774,2.127,1.964-.715.774,2.127,7.982-2.905-.774-2.127,2.105-.766-.774-2.127,1.8-.657-.774-2.127,2-.727-.774-2.127,2.271-.826-.774-2.127Z" transform="translate(-22.201 -233.624)"/><g transform="translate(-22.201 -233.624)"><rect class="d" width="2.153" height="2.153" transform="translate(56.573 245.248) rotate(-20)"/><rect class="d" width="2.153" height="2.153" transform="translate(53.814 243.961) rotate(-20)"/><rect class="d" width="2.153" height="2.153" transform="translate(51.054 242.674) rotate(-20)"/></g><g transform="translate(-22.201 -233.624)"><rect class="d" width="2.153" height="2.153" transform="translate(34.718 253.202) rotate(-20)"/><rect class="d" width="2.153" height="2.153" transform="translate(31.959 251.916) rotate(-20)"/><rect class="d" width="2.153" height="2.153" transform="translate(29.2 250.629) rotate(-20)"/></g></g></g><g transform="translate(306.859 -220.273)"><g transform="translate(24.419 232.744)"><path class="c" d="M22.2,250.413l.774,2.127,2.382-.867.774,2.127,2-.727L28.9,255.2l1.8-.657.774,2.127,2.105-.766.774,2.127,7.983-2.905L41.571,253l1.964-.715-.774-2.127,1.978-.72-.774-2.127-.774-2.127L49,243.068l.774,2.127.774,2.127,1.978-.72.774,2.127,1.964-.715.774,2.127,7.982-2.905-.774-2.127,2.105-.766-.774-2.127,1.8-.657-.774-2.127,2-.727-.774-2.127,2.271-.826-.774-2.127Z" transform="translate(-22.201 -233.624)"/><g transform="translate(-22.201 -233.624)"><rect class="d" width="2.153" height="2.153" transform="translate(56.573 245.248) rotate(-20)"/><rect class="d" width="2.153" height="2.153" transform="translate(53.814 243.961) rotate(-20)"/><rect class="d" width="2.153" height="2.153" transform="translate(51.054 242.674) rotate(-20)"/></g><g transform="translate(-22.201 -233.624)"><rect class="d" width="2.153" height="2.153" transform="translate(34.718 253.202) rotate(-20)"/><rect class="d" width="2.153" height="2.153" transform="translate(31.959 251.916) rotate(-20)"/><rect class="d" width="2.153" height="2.153" transform="translate(29.2 250.629) rotate(-20)"/></g></g></g><g transform="translate(372.859 -220.273)"><g transform="translate(24.419 232.744)"><path class="c" d="M22.2,250.413l.774,2.127,2.382-.867.774,2.127,2-.727L28.9,255.2l1.8-.657.774,2.127,2.105-.766.774,2.127,7.983-2.905L41.571,253l1.964-.715-.774-2.127,1.978-.72-.774-2.127-.774-2.127L49,243.068l.774,2.127.774,2.127,1.978-.72.774,2.127,1.964-.715.774,2.127,7.982-2.905-.774-2.127,2.105-.766-.774-2.127,1.8-.657-.774-2.127,2-.727-.774-2.127,2.271-.826-.774-2.127Z" transform="translate(-22.201 -233.624)"/><g transform="translate(-22.201 -233.624)"><rect class="d" width="2.153" height="2.153" transform="translate(56.573 245.248) rotate(-20)"/><rect class="d" width="2.153" height="2.153" transform="translate(53.814 243.961) rotate(-20)"/><rect class="d" width="2.153" height="2.153" transform="translate(51.054 242.674) rotate(-20)"/></g><g transform="translate(-22.201 -233.624)"><rect class="d" width="2.153" height="2.153" transform="translate(34.718 253.202) rotate(-20)"/><rect class="d" width="2.153" height="2.153" transform="translate(31.959 251.916) rotate(-20)"/><rect class="d" width="2.153" height="2.153" transform="translate(29.2 250.629) rotate(-20)"/></g></g></g><g transform="translate(438.859 -220.273)"><g transform="translate(24.419 232.744)"><path class="c" d="M22.2,250.413l.774,2.127,2.382-.867.774,2.127,2-.727L28.9,255.2l1.8-.657.774,2.127,2.105-.766.774,2.127,7.983-2.905L41.571,253l1.964-.715-.774-2.127,1.978-.72-.774-2.127-.774-2.127L49,243.068l.774,2.127.774,2.127,1.978-.72.774,2.127,1.964-.715.774,2.127,7.982-2.905-.774-2.127,2.105-.766-.774-2.127,1.8-.657-.774-2.127,2-.727-.774-2.127,2.271-.826-.774-2.127Z" transform="translate(-22.201 -233.624)"/><g transform="translate(-22.201 -233.624)"><rect class="d" width="2.153" height="2.153" transform="translate(56.573 245.248) rotate(-20)"/><rect class="d" width="2.153" height="2.153" transform="translate(53.814 243.961) rotate(-20)"/><rect class="d" width="2.153" height="2.153" transform="translate(51.054 242.674) rotate(-20)"/></g><g transform="translate(-22.201 -233.624)"><rect class="d" width="2.153" height="2.153" transform="translate(34.718 253.202) rotate(-20)"/><rect class="d" width="2.153" height="2.153" transform="translate(31.959 251.916) rotate(-20)"/><rect class="d" width="2.153" height="2.153" transform="translate(29.2 250.629) rotate(-20)"/></g></g></g><g transform="translate(504.859 -220.273)"><g transform="translate(24.419 232.744)"><path class="c" d="M22.2,250.413l.774,2.127,2.382-.867.774,2.127,2-.727L28.9,255.2l1.8-.657.774,2.127,2.105-.766.774,2.127,7.983-2.905L41.571,253l1.964-.715-.774-2.127,1.978-.72-.774-2.127-.774-2.127L49,243.068l.774,2.127.774,2.127,1.978-.72.774,2.127,1.964-.715.774,2.127,7.982-2.905-.774-2.127,2.105-.766-.774-2.127,1.8-.657-.774-2.127,2-.727-.774-2.127,2.271-.826-.774-2.127Z" transform="translate(-22.201 -233.624)"/><g transform="translate(-22.201 -233.624)"><rect class="d" width="2.153" height="2.153" transform="translate(56.573 245.248) rotate(-20)"/><rect class="d" width="2.153" height="2.153" transform="translate(53.814 243.961) rotate(-20)"/><rect class="d" width="2.153" height="2.153" transform="translate(51.054 242.674) rotate(-20)"/></g><g transform="translate(-22.201 -233.624)"><rect class="d" width="2.153" height="2.153" transform="translate(34.718 253.202) rotate(-20)"/><rect class="d" width="2.153" height="2.153" transform="translate(31.959 251.916) rotate(-20)"/><rect class="d" width="2.153" height="2.153" transform="translate(29.2 250.629) rotate(-20)"/></g></g></g><g transform="translate(-23.141 -157.273)"><g transform="translate(24.419 232.744)"><path class="c" d="M22.2,250.413l.774,2.127,2.382-.867.774,2.127,2-.727L28.9,255.2l1.8-.657.774,2.127,2.105-.766.774,2.127,7.983-2.905L41.571,253l1.964-.715-.774-2.127,1.978-.72-.774-2.127-.774-2.127L49,243.068l.774,2.127.774,2.127,1.978-.72.774,2.127,1.964-.715.774,2.127,7.982-2.905-.774-2.127,2.105-.766-.774-2.127,1.8-.657-.774-2.127,2-.727-.774-2.127,2.271-.826-.774-2.127Z" transform="translate(-22.201 -233.624)"/><g transform="translate(-22.201 -233.624)"><rect class="d" width="2.153" height="2.153" transform="translate(56.573 245.248) rotate(-20)"/><rect class="d" width="2.153" height="2.153" transform="translate(53.814 243.961) rotate(-20)"/><rect class="d" width="2.153" height="2.153" transform="translate(51.054 242.674) rotate(-20)"/></g><g transform="translate(-22.201 -233.624)"><rect class="d" width="2.153" height="2.153" transform="translate(34.718 253.202) rotate(-20)"/><rect class="d" width="2.153" height="2.153" transform="translate(31.959 251.916) rotate(-20)"/><rect class="d" width="2.153" height="2.153" transform="translate(29.2 250.629) rotate(-20)"/></g></g></g><g transform="translate(42.859 -157.273)"><g transform="translate(24.419 232.744)"><path class="c" d="M22.2,250.413l.774,2.127,2.382-.867.774,2.127,2-.727L28.9,255.2l1.8-.657.774,2.127,2.105-.766.774,2.127,7.983-2.905L41.571,253l1.964-.715-.774-2.127,1.978-.72-.774-2.127-.774-2.127L49,243.068l.774,2.127.774,2.127,1.978-.72.774,2.127,1.964-.715.774,2.127,7.982-2.905-.774-2.127,2.105-.766-.774-2.127,1.8-.657-.774-2.127,2-.727-.774-2.127,2.271-.826-.774-2.127Z" transform="translate(-22.201 -233.624)"/><g transform="translate(-22.201 -233.624)"><rect class="d" width="2.153" height="2.153" transform="translate(56.573 245.248) rotate(-20)"/><rect class="d" width="2.153" height="2.153" transform="translate(53.814 243.961) rotate(-20)"/><rect class="d" width="2.153" height="2.153" transform="translate(51.054 242.674) rotate(-20)"/></g><g transform="translate(-22.201 -233.624)"><rect class="d" width="2.153" height="2.153" transform="translate(34.718 253.202) rotate(-20)"/><rect class="d" width="2.153" height="2.153" transform="translate(31.959 251.916) rotate(-20)"/><rect class="d" width="2.153" height="2.153" transform="translate(29.2 250.629) rotate(-20)"/></g></g></g><g transform="translate(108.859 -157.273)"><g transform="translate(24.419 232.744)"><path class="c" d="M22.2,250.413l.774,2.127,2.382-.867.774,2.127,2-.727L28.9,255.2l1.8-.657.774,2.127,2.105-.766.774,2.127,7.983-2.905L41.571,253l1.964-.715-.774-2.127,1.978-.72-.774-2.127-.774-2.127L49,243.068l.774,2.127.774,2.127,1.978-.72.774,2.127,1.964-.715.774,2.127,7.982-2.905-.774-2.127,2.105-.766-.774-2.127,1.8-.657-.774-2.127,2-.727-.774-2.127,2.271-.826-.774-2.127Z" transform="translate(-22.201 -233.624)"/><g transform="translate(-22.201 -233.624)"><rect class="d" width="2.153" height="2.153" transform="translate(56.573 245.248) rotate(-20)"/><rect class="d" width="2.153" height="2.153" transform="translate(53.814 243.961) rotate(-20)"/><rect class="d" width="2.153" height="2.153" transform="translate(51.054 242.674) rotate(-20)"/></g><g transform="translate(-22.201 -233.624)"><rect class="d" width="2.153" height="2.153" transform="translate(34.718 253.202) rotate(-20)"/><rect class="d" width="2.153" height="2.153" transform="translate(31.959 251.916) rotate(-20)"/><rect class="d" width="2.153" height="2.153" transform="translate(29.2 250.629) rotate(-20)"/></g></g></g><g transform="translate(174.859 -157.273)"><g transform="translate(24.419 232.744)"><path class="c" d="M22.2,250.413l.774,2.127,2.382-.867.774,2.127,2-.727L28.9,255.2l1.8-.657.774,2.127,2.105-.766.774,2.127,7.983-2.905L41.571,253l1.964-.715-.774-2.127,1.978-.72-.774-2.127-.774-2.127L49,243.068l.774,2.127.774,2.127,1.978-.72.774,2.127,1.964-.715.774,2.127,7.982-2.905-.774-2.127,2.105-.766-.774-2.127,1.8-.657-.774-2.127,2-.727-.774-2.127,2.271-.826-.774-2.127Z" transform="translate(-22.201 -233.624)"/><g transform="translate(-22.201 -233.624)"><rect class="d" width="2.153" height="2.153" transform="translate(56.573 245.248) rotate(-20)"/><rect class="d" width="2.153" height="2.153" transform="translate(53.814 243.961) rotate(-20)"/><rect class="d" width="2.153" height="2.153" transform="translate(51.054 242.674) rotate(-20)"/></g><g transform="translate(-22.201 -233.624)"><rect class="d" width="2.153" height="2.153" transform="translate(34.718 253.202) rotate(-20)"/><rect class="d" width="2.153" height="2.153" transform="translate(31.959 251.916) rotate(-20)"/><rect class="d" width="2.153" height="2.153" transform="translate(29.2 250.629) rotate(-20)"/></g></g></g><g transform="translate(240.859 -157.273)"><g transform="translate(24.419 232.744)"><path class="c" d="M22.2,250.413l.774,2.127,2.382-.867.774,2.127,2-.727L28.9,255.2l1.8-.657.774,2.127,2.105-.766.774,2.127,7.983-2.905L41.571,253l1.964-.715-.774-2.127,1.978-.72-.774-2.127-.774-2.127L49,243.068l.774,2.127.774,2.127,1.978-.72.774,2.127,1.964-.715.774,2.127,7.982-2.905-.774-2.127,2.105-.766-.774-2.127,1.8-.657-.774-2.127,2-.727-.774-2.127,2.271-.826-.774-2.127Z" transform="translate(-22.201 -233.624)"/><g transform="translate(-22.201 -233.624)"><rect class="d" width="2.153" height="2.153" transform="translate(56.573 245.248) rotate(-20)"/><rect class="d" width="2.153" height="2.153" transform="translate(53.814 243.961) rotate(-20)"/><rect class="d" width="2.153" height="2.153" transform="translate(51.054 242.674) rotate(-20)"/></g><g transform="translate(-22.201 -233.624)"><rect class="d" width="2.153" height="2.153" transform="translate(34.718 253.202) rotate(-20)"/><rect class="d" width="2.153" height="2.153" transform="translate(31.959 251.916) rotate(-20)"/><rect class="d" width="2.153" height="2.153" transform="translate(29.2 250.629) rotate(-20)"/></g></g></g><g transform="translate(306.859 -157.273)"><g transform="translate(24.419 232.744)"><path class="c" d="M22.2,250.413l.774,2.127,2.382-.867.774,2.127,2-.727L28.9,255.2l1.8-.657.774,2.127,2.105-.766.774,2.127,7.983-2.905L41.571,253l1.964-.715-.774-2.127,1.978-.72-.774-2.127-.774-2.127L49,243.068l.774,2.127.774,2.127,1.978-.72.774,2.127,1.964-.715.774,2.127,7.982-2.905-.774-2.127,2.105-.766-.774-2.127,1.8-.657-.774-2.127,2-.727-.774-2.127,2.271-.826-.774-2.127Z" transform="translate(-22.201 -233.624)"/><g transform="translate(-22.201 -233.624)"><rect class="d" width="2.153" height="2.153" transform="translate(56.573 245.248) rotate(-20)"/><rect class="d" width="2.153" height="2.153" transform="translate(53.814 243.961) rotate(-20)"/><rect class="d" width="2.153" height="2.153" transform="translate(51.054 242.674) rotate(-20)"/></g><g transform="translate(-22.201 -233.624)"><rect class="d" width="2.153" height="2.153" transform="translate(34.718 253.202) rotate(-20)"/><rect class="d" width="2.153" height="2.153" transform="translate(31.959 251.916) rotate(-20)"/><rect class="d" width="2.153" height="2.153" transform="translate(29.2 250.629) rotate(-20)"/></g></g></g><g transform="translate(372.859 -157.273)"><g transform="translate(24.419 232.744)"><path class="c" d="M22.2,250.413l.774,2.127,2.382-.867.774,2.127,2-.727L28.9,255.2l1.8-.657.774,2.127,2.105-.766.774,2.127,7.983-2.905L41.571,253l1.964-.715-.774-2.127,1.978-.72-.774-2.127-.774-2.127L49,243.068l.774,2.127.774,2.127,1.978-.72.774,2.127,1.964-.715.774,2.127,7.982-2.905-.774-2.127,2.105-.766-.774-2.127,1.8-.657-.774-2.127,2-.727-.774-2.127,2.271-.826-.774-2.127Z" transform="translate(-22.201 -233.624)"/><g transform="translate(-22.201 -233.624)"><rect class="d" width="2.153" height="2.153" transform="translate(56.573 245.248) rotate(-20)"/><rect class="d" width="2.153" height="2.153" transform="translate(53.814 243.961) rotate(-20)"/><rect class="d" width="2.153" height="2.153" transform="translate(51.054 242.674) rotate(-20)"/></g><g transform="translate(-22.201 -233.624)"><rect class="d" width="2.153" height="2.153" transform="translate(34.718 253.202) rotate(-20)"/><rect class="d" width="2.153" height="2.153" transform="translate(31.959 251.916) rotate(-20)"/><rect class="d" width="2.153" height="2.153" transform="translate(29.2 250.629) rotate(-20)"/></g></g></g><g transform="translate(438.859 -157.273)"><g transform="translate(24.419 232.744)"><path class="c" d="M22.2,250.413l.774,2.127,2.382-.867.774,2.127,2-.727L28.9,255.2l1.8-.657.774,2.127,2.105-.766.774,2.127,7.983-2.905L41.571,253l1.964-.715-.774-2.127,1.978-.72-.774-2.127-.774-2.127L49,243.068l.774,2.127.774,2.127,1.978-.72.774,2.127,1.964-.715.774,2.127,7.982-2.905-.774-2.127,2.105-.766-.774-2.127,1.8-.657-.774-2.127,2-.727-.774-2.127,2.271-.826-.774-2.127Z" transform="translate(-22.201 -233.624)"/><g transform="translate(-22.201 -233.624)"><rect class="d" width="2.153" height="2.153" transform="translate(56.573 245.248) rotate(-20)"/><rect class="d" width="2.153" height="2.153" transform="translate(53.814 243.961) rotate(-20)"/><rect class="d" width="2.153" height="2.153" transform="translate(51.054 242.674) rotate(-20)"/></g><g transform="translate(-22.201 -233.624)"><rect class="d" width="2.153" height="2.153" transform="translate(34.718 253.202) rotate(-20)"/><rect class="d" width="2.153" height="2.153" transform="translate(31.959 251.916) rotate(-20)"/><rect class="d" width="2.153" height="2.153" transform="translate(29.2 250.629) rotate(-20)"/></g></g></g><g transform="translate(504.859 -157.273)"><g transform="translate(24.419 232.744)"><path class="c" d="M22.2,250.413l.774,2.127,2.382-.867.774,2.127,2-.727L28.9,255.2l1.8-.657.774,2.127,2.105-.766.774,2.127,7.983-2.905L41.571,253l1.964-.715-.774-2.127,1.978-.72-.774-2.127-.774-2.127L49,243.068l.774,2.127.774,2.127,1.978-.72.774,2.127,1.964-.715.774,2.127,7.982-2.905-.774-2.127,2.105-.766-.774-2.127,1.8-.657-.774-2.127,2-.727-.774-2.127,2.271-.826-.774-2.127Z" transform="translate(-22.201 -233.624)"/><g transform="translate(-22.201 -233.624)"><rect class="d" width="2.153" height="2.153" transform="translate(56.573 245.248) rotate(-20)"/><rect class="d" width="2.153" height="2.153" transform="translate(53.814 243.961) rotate(-20)"/><rect class="d" width="2.153" height="2.153" transform="translate(51.054 242.674) rotate(-20)"/></g><g transform="translate(-22.201 -233.624)"><rect class="d" width="2.153" height="2.153" transform="translate(34.718 253.202) rotate(-20)"/><rect class="d" width="2.153" height="2.153" transform="translate(31.959 251.916) rotate(-20)"/><rect class="d" width="2.153" height="2.153" transform="translate(29.2 250.629) rotate(-20)"/></g></g></g><g transform="translate(-23.141 -94.273)"><g transform="translate(24.419 232.744)"><path class="c" d="M22.2,250.413l.774,2.127,2.382-.867.774,2.127,2-.727L28.9,255.2l1.8-.657.774,2.127,2.105-.766.774,2.127,7.983-2.905L41.571,253l1.964-.715-.774-2.127,1.978-.72-.774-2.127-.774-2.127L49,243.068l.774,2.127.774,2.127,1.978-.72.774,2.127,1.964-.715.774,2.127,7.982-2.905-.774-2.127,2.105-.766-.774-2.127,1.8-.657-.774-2.127,2-.727-.774-2.127,2.271-.826-.774-2.127Z" transform="translate(-22.201 -233.624)"/><g transform="translate(-22.201 -233.624)"><rect class="d" width="2.153" height="2.153" transform="translate(56.573 245.248) rotate(-20)"/><rect class="d" width="2.153" height="2.153" transform="translate(53.814 243.961) rotate(-20)"/><rect class="d" width="2.153" height="2.153" transform="translate(51.054 242.674) rotate(-20)"/></g><g transform="translate(-22.201 -233.624)"><rect class="d" width="2.153" height="2.153" transform="translate(34.718 253.202) rotate(-20)"/><rect class="d" width="2.153" height="2.153" transform="translate(31.959 251.916) rotate(-20)"/><rect class="d" width="2.153" height="2.153" transform="translate(29.2 250.629) rotate(-20)"/></g></g></g><g transform="translate(42.859 -94.273)"><g transform="translate(24.419 232.744)"><path class="c" d="M22.2,250.413l.774,2.127,2.382-.867.774,2.127,2-.727L28.9,255.2l1.8-.657.774,2.127,2.105-.766.774,2.127,7.983-2.905L41.571,253l1.964-.715-.774-2.127,1.978-.72-.774-2.127-.774-2.127L49,243.068l.774,2.127.774,2.127,1.978-.72.774,2.127,1.964-.715.774,2.127,7.982-2.905-.774-2.127,2.105-.766-.774-2.127,1.8-.657-.774-2.127,2-.727-.774-2.127,2.271-.826-.774-2.127Z" transform="translate(-22.201 -233.624)"/><g transform="translate(-22.201 -233.624)"><rect class="d" width="2.153" height="2.153" transform="translate(56.573 245.248) rotate(-20)"/><rect class="d" width="2.153" height="2.153" transform="translate(53.814 243.961) rotate(-20)"/><rect class="d" width="2.153" height="2.153" transform="translate(51.054 242.674) rotate(-20)"/></g><g transform="translate(-22.201 -233.624)"><rect class="d" width="2.153" height="2.153" transform="translate(34.718 253.202) rotate(-20)"/><rect class="d" width="2.153" height="2.153" transform="translate(31.959 251.916) rotate(-20)"/><rect class="d" width="2.153" height="2.153" transform="translate(29.2 250.629) rotate(-20)"/></g></g></g><g transform="translate(108.859 -94.273)"><g transform="translate(24.419 232.744)"><path class="c" d="M22.2,250.413l.774,2.127,2.382-.867.774,2.127,2-.727L28.9,255.2l1.8-.657.774,2.127,2.105-.766.774,2.127,7.983-2.905L41.571,253l1.964-.715-.774-2.127,1.978-.72-.774-2.127-.774-2.127L49,243.068l.774,2.127.774,2.127,1.978-.72.774,2.127,1.964-.715.774,2.127,7.982-2.905-.774-2.127,2.105-.766-.774-2.127,1.8-.657-.774-2.127,2-.727-.774-2.127,2.271-.826-.774-2.127Z" transform="translate(-22.201 -233.624)"/><g transform="translate(-22.201 -233.624)"><rect class="d" width="2.153" height="2.153" transform="translate(56.573 245.248) rotate(-20)"/><rect class="d" width="2.153" height="2.153" transform="translate(53.814 243.961) rotate(-20)"/><rect class="d" width="2.153" height="2.153" transform="translate(51.054 242.674) rotate(-20)"/></g><g transform="translate(-22.201 -233.624)"><rect class="d" width="2.153" height="2.153" transform="translate(34.718 253.202) rotate(-20)"/><rect class="d" width="2.153" height="2.153" transform="translate(31.959 251.916) rotate(-20)"/><rect class="d" width="2.153" height="2.153" transform="translate(29.2 250.629) rotate(-20)"/></g></g></g><g transform="translate(174.859 -94.273)"><g transform="translate(24.419 232.744)"><path class="c" d="M22.2,250.413l.774,2.127,2.382-.867.774,2.127,2-.727L28.9,255.2l1.8-.657.774,2.127,2.105-.766.774,2.127,7.983-2.905L41.571,253l1.964-.715-.774-2.127,1.978-.72-.774-2.127-.774-2.127L49,243.068l.774,2.127.774,2.127,1.978-.72.774,2.127,1.964-.715.774,2.127,7.982-2.905-.774-2.127,2.105-.766-.774-2.127,1.8-.657-.774-2.127,2-.727-.774-2.127,2.271-.826-.774-2.127Z" transform="translate(-22.201 -233.624)"/><g transform="translate(-22.201 -233.624)"><rect class="d" width="2.153" height="2.153" transform="translate(56.573 245.248) rotate(-20)"/><rect class="d" width="2.153" height="2.153" transform="translate(53.814 243.961) rotate(-20)"/><rect class="d" width="2.153" height="2.153" transform="translate(51.054 242.674) rotate(-20)"/></g><g transform="translate(-22.201 -233.624)"><rect class="d" width="2.153" height="2.153" transform="translate(34.718 253.202) rotate(-20)"/><rect class="d" width="2.153" height="2.153" transform="translate(31.959 251.916) rotate(-20)"/><rect class="d" width="2.153" height="2.153" transform="translate(29.2 250.629) rotate(-20)"/></g></g></g><g transform="translate(240.859 -94.273)"><g transform="translate(24.419 232.744)"><path class="c" d="M22.2,250.413l.774,2.127,2.382-.867.774,2.127,2-.727L28.9,255.2l1.8-.657.774,2.127,2.105-.766.774,2.127,7.983-2.905L41.571,253l1.964-.715-.774-2.127,1.978-.72-.774-2.127-.774-2.127L49,243.068l.774,2.127.774,2.127,1.978-.72.774,2.127,1.964-.715.774,2.127,7.982-2.905-.774-2.127,2.105-.766-.774-2.127,1.8-.657-.774-2.127,2-.727-.774-2.127,2.271-.826-.774-2.127Z" transform="translate(-22.201 -233.624)"/><g transform="translate(-22.201 -233.624)"><rect class="d" width="2.153" height="2.153" transform="translate(56.573 245.248) rotate(-20)"/><rect class="d" width="2.153" height="2.153" transform="translate(53.814 243.961) rotate(-20)"/><rect class="d" width="2.153" height="2.153" transform="translate(51.054 242.674) rotate(-20)"/></g><g transform="translate(-22.201 -233.624)"><rect class="d" width="2.153" height="2.153" transform="translate(34.718 253.202) rotate(-20)"/><rect class="d" width="2.153" height="2.153" transform="translate(31.959 251.916) rotate(-20)"/><rect class="d" width="2.153" height="2.153" transform="translate(29.2 250.629) rotate(-20)"/></g></g></g><g transform="translate(306.859 -94.273)"><g transform="translate(24.419 232.744)"><path class="c" d="M22.2,250.413l.774,2.127,2.382-.867.774,2.127,2-.727L28.9,255.2l1.8-.657.774,2.127,2.105-.766.774,2.127,7.983-2.905L41.571,253l1.964-.715-.774-2.127,1.978-.72-.774-2.127-.774-2.127L49,243.068l.774,2.127.774,2.127,1.978-.72.774,2.127,1.964-.715.774,2.127,7.982-2.905-.774-2.127,2.105-.766-.774-2.127,1.8-.657-.774-2.127,2-.727-.774-2.127,2.271-.826-.774-2.127Z" transform="translate(-22.201 -233.624)"/><g transform="translate(-22.201 -233.624)"><rect class="d" width="2.153" height="2.153" transform="translate(56.573 245.248) rotate(-20)"/><rect class="d" width="2.153" height="2.153" transform="translate(53.814 243.961) rotate(-20)"/><rect class="d" width="2.153" height="2.153" transform="translate(51.054 242.674) rotate(-20)"/></g><g transform="translate(-22.201 -233.624)"><rect class="d" width="2.153" height="2.153" transform="translate(34.718 253.202) rotate(-20)"/><rect class="d" width="2.153" height="2.153" transform="translate(31.959 251.916) rotate(-20)"/><rect class="d" width="2.153" height="2.153" transform="translate(29.2 250.629) rotate(-20)"/></g></g></g><g transform="translate(372.859 -94.273)"><g transform="translate(24.419 232.744)"><path class="c" d="M22.2,250.413l.774,2.127,2.382-.867.774,2.127,2-.727L28.9,255.2l1.8-.657.774,2.127,2.105-.766.774,2.127,7.983-2.905L41.571,253l1.964-.715-.774-2.127,1.978-.72-.774-2.127-.774-2.127L49,243.068l.774,2.127.774,2.127,1.978-.72.774,2.127,1.964-.715.774,2.127,7.982-2.905-.774-2.127,2.105-.766-.774-2.127,1.8-.657-.774-2.127,2-.727-.774-2.127,2.271-.826-.774-2.127Z" transform="translate(-22.201 -233.624)"/><g transform="translate(-22.201 -233.624)"><rect class="d" width="2.153" height="2.153" transform="translate(56.573 245.248) rotate(-20)"/><rect class="d" width="2.153" height="2.153" transform="translate(53.814 243.961) rotate(-20)"/><rect class="d" width="2.153" height="2.153" transform="translate(51.054 242.674) rotate(-20)"/></g><g transform="translate(-22.201 -233.624)"><rect class="d" width="2.153" height="2.153" transform="translate(34.718 253.202) rotate(-20)"/><rect class="d" width="2.153" height="2.153" transform="translate(31.959 251.916) rotate(-20)"/><rect class="d" width="2.153" height="2.153" transform="translate(29.2 250.629) rotate(-20)"/></g></g></g><g transform="translate(438.859 -94.273)"><g transform="translate(24.419 232.744)"><path class="c" d="M22.2,250.413l.774,2.127,2.382-.867.774,2.127,2-.727L28.9,255.2l1.8-.657.774,2.127,2.105-.766.774,2.127,7.983-2.905L41.571,253l1.964-.715-.774-2.127,1.978-.72-.774-2.127-.774-2.127L49,243.068l.774,2.127.774,2.127,1.978-.72.774,2.127,1.964-.715.774,2.127,7.982-2.905-.774-2.127,2.105-.766-.774-2.127,1.8-.657-.774-2.127,2-.727-.774-2.127,2.271-.826-.774-2.127Z" transform="translate(-22.201 -233.624)"/><g transform="translate(-22.201 -233.624)"><rect class="d" width="2.153" height="2.153" transform="translate(56.573 245.248) rotate(-20)"/><rect class="d" width="2.153" height="2.153" transform="translate(53.814 243.961) rotate(-20)"/><rect class="d" width="2.153" height="2.153" transform="translate(51.054 242.674) rotate(-20)"/></g><g transform="translate(-22.201 -233.624)"><rect class="d" width="2.153" height="2.153" transform="translate(34.718 253.202) rotate(-20)"/><rect class="d" width="2.153" height="2.153" transform="translate(31.959 251.916) rotate(-20)"/><rect class="d" width="2.153" height="2.153" transform="translate(29.2 250.629) rotate(-20)"/></g></g></g><g transform="translate(504.859 -94.273)"><g transform="translate(24.419 232.744)"><path class="c" d="M22.2,250.413l.774,2.127,2.382-.867.774,2.127,2-.727L28.9,255.2l1.8-.657.774,2.127,2.105-.766.774,2.127,7.983-2.905L41.571,253l1.964-.715-.774-2.127,1.978-.72-.774-2.127-.774-2.127L49,243.068l.774,2.127.774,2.127,1.978-.72.774,2.127,1.964-.715.774,2.127,7.982-2.905-.774-2.127,2.105-.766-.774-2.127,1.8-.657-.774-2.127,2-.727-.774-2.127,2.271-.826-.774-2.127Z" transform="translate(-22.201 -233.624)"/><g transform="translate(-22.201 -233.624)"><rect class="d" width="2.153" height="2.153" transform="translate(56.573 245.248) rotate(-20)"/><rect class="d" width="2.153" height="2.153" transform="translate(53.814 243.961) rotate(-20)"/><rect class="d" width="2.153" height="2.153" transform="translate(51.054 242.674) rotate(-20)"/></g><g transform="translate(-22.201 -233.624)"><rect class="d" width="2.153" height="2.153" transform="translate(34.718 253.202) rotate(-20)"/><rect class="d" width="2.153" height="2.153" transform="translate(31.959 251.916) rotate(-20)"/><rect class="d" width="2.153" height="2.153" transform="translate(29.2 250.629) rotate(-20)"/></g></g></g><g transform="translate(-23.141 -31.273)"><g transform="translate(24.419 232.744)"><path class="c" d="M22.2,250.413l.774,2.127,2.382-.867.774,2.127,2-.727L28.9,255.2l1.8-.657.774,2.127,2.105-.766.774,2.127,7.983-2.905L41.571,253l1.964-.715-.774-2.127,1.978-.72-.774-2.127-.774-2.127L49,243.068l.774,2.127.774,2.127,1.978-.72.774,2.127,1.964-.715.774,2.127,7.982-2.905-.774-2.127,2.105-.766-.774-2.127,1.8-.657-.774-2.127,2-.727-.774-2.127,2.271-.826-.774-2.127Z" transform="translate(-22.201 -233.624)"/><g transform="translate(-22.201 -233.624)"><rect class="d" width="2.153" height="2.153" transform="translate(56.573 245.248) rotate(-20)"/><rect class="d" width="2.153" height="2.153" transform="translate(53.814 243.961) rotate(-20)"/><rect class="d" width="2.153" height="2.153" transform="translate(51.054 242.674) rotate(-20)"/></g><g transform="translate(-22.201 -233.624)"><rect class="d" width="2.153" height="2.153" transform="translate(34.718 253.202) rotate(-20)"/><rect class="d" width="2.153" height="2.153" transform="translate(31.959 251.916) rotate(-20)"/><rect class="d" width="2.153" height="2.153" transform="translate(29.2 250.629) rotate(-20)"/></g></g></g><g transform="translate(42.859 -31.273)"><g transform="translate(24.419 232.744)"><path class="c" d="M22.2,250.413l.774,2.127,2.382-.867.774,2.127,2-.727L28.9,255.2l1.8-.657.774,2.127,2.105-.766.774,2.127,7.983-2.905L41.571,253l1.964-.715-.774-2.127,1.978-.72-.774-2.127-.774-2.127L49,243.068l.774,2.127.774,2.127,1.978-.72.774,2.127,1.964-.715.774,2.127,7.982-2.905-.774-2.127,2.105-.766-.774-2.127,1.8-.657-.774-2.127,2-.727-.774-2.127,2.271-.826-.774-2.127Z" transform="translate(-22.201 -233.624)"/><g transform="translate(-22.201 -233.624)"><rect class="d" width="2.153" height="2.153" transform="translate(56.573 245.248) rotate(-20)"/><rect class="d" width="2.153" height="2.153" transform="translate(53.814 243.961) rotate(-20)"/><rect class="d" width="2.153" height="2.153" transform="translate(51.054 242.674) rotate(-20)"/></g><g transform="translate(-22.201 -233.624)"><rect class="d" width="2.153" height="2.153" transform="translate(34.718 253.202) rotate(-20)"/><rect class="d" width="2.153" height="2.153" transform="translate(31.959 251.916) rotate(-20)"/><rect class="d" width="2.153" height="2.153" transform="translate(29.2 250.629) rotate(-20)"/></g></g></g><g transform="translate(108.859 -31.273)"><g transform="translate(24.419 232.744)"><path class="c" d="M22.2,250.413l.774,2.127,2.382-.867.774,2.127,2-.727L28.9,255.2l1.8-.657.774,2.127,2.105-.766.774,2.127,7.983-2.905L41.571,253l1.964-.715-.774-2.127,1.978-.72-.774-2.127-.774-2.127L49,243.068l.774,2.127.774,2.127,1.978-.72.774,2.127,1.964-.715.774,2.127,7.982-2.905-.774-2.127,2.105-.766-.774-2.127,1.8-.657-.774-2.127,2-.727-.774-2.127,2.271-.826-.774-2.127Z" transform="translate(-22.201 -233.624)"/><g transform="translate(-22.201 -233.624)"><rect class="d" width="2.153" height="2.153" transform="translate(56.573 245.248) rotate(-20)"/><rect class="d" width="2.153" height="2.153" transform="translate(53.814 243.961) rotate(-20)"/><rect class="d" width="2.153" height="2.153" transform="translate(51.054 242.674) rotate(-20)"/></g><g transform="translate(-22.201 -233.624)"><rect class="d" width="2.153" height="2.153" transform="translate(34.718 253.202) rotate(-20)"/><rect class="d" width="2.153" height="2.153" transform="translate(31.959 251.916) rotate(-20)"/><rect class="d" width="2.153" height="2.153" transform="translate(29.2 250.629) rotate(-20)"/></g></g></g><g transform="translate(174.859 -31.273)"><g transform="translate(24.419 232.744)"><path class="c" d="M22.2,250.413l.774,2.127,2.382-.867.774,2.127,2-.727L28.9,255.2l1.8-.657.774,2.127,2.105-.766.774,2.127,7.983-2.905L41.571,253l1.964-.715-.774-2.127,1.978-.72-.774-2.127-.774-2.127L49,243.068l.774,2.127.774,2.127,1.978-.72.774,2.127,1.964-.715.774,2.127,7.982-2.905-.774-2.127,2.105-.766-.774-2.127,1.8-.657-.774-2.127,2-.727-.774-2.127,2.271-.826-.774-2.127Z" transform="translate(-22.201 -233.624)"/><g transform="translate(-22.201 -233.624)"><rect class="d" width="2.153" height="2.153" transform="translate(56.573 245.248) rotate(-20)"/><rect class="d" width="2.153" height="2.153" transform="translate(53.814 243.961) rotate(-20)"/><rect class="d" width="2.153" height="2.153" transform="translate(51.054 242.674) rotate(-20)"/></g><g transform="translate(-22.201 -233.624)"><rect class="d" width="2.153" height="2.153" transform="translate(34.718 253.202) rotate(-20)"/><rect class="d" width="2.153" height="2.153" transform="translate(31.959 251.916) rotate(-20)"/><rect class="d" width="2.153" height="2.153" transform="translate(29.2 250.629) rotate(-20)"/></g></g></g><g transform="translate(240.859 -31.273)"><g transform="translate(24.419 232.744)"><path class="c" d="M22.2,250.413l.774,2.127,2.382-.867.774,2.127,2-.727L28.9,255.2l1.8-.657.774,2.127,2.105-.766.774,2.127,7.983-2.905L41.571,253l1.964-.715-.774-2.127,1.978-.72-.774-2.127-.774-2.127L49,243.068l.774,2.127.774,2.127,1.978-.72.774,2.127,1.964-.715.774,2.127,7.982-2.905-.774-2.127,2.105-.766-.774-2.127,1.8-.657-.774-2.127,2-.727-.774-2.127,2.271-.826-.774-2.127Z" transform="translate(-22.201 -233.624)"/><g transform="translate(-22.201 -233.624)"><rect class="d" width="2.153" height="2.153" transform="translate(56.573 245.248) rotate(-20)"/><rect class="d" width="2.153" height="2.153" transform="translate(53.814 243.961) rotate(-20)"/><rect class="d" width="2.153" height="2.153" transform="translate(51.054 242.674) rotate(-20)"/></g><g transform="translate(-22.201 -233.624)"><rect class="d" width="2.153" height="2.153" transform="translate(34.718 253.202) rotate(-20)"/><rect class="d" width="2.153" height="2.153" transform="translate(31.959 251.916) rotate(-20)"/><rect class="d" width="2.153" height="2.153" transform="translate(29.2 250.629) rotate(-20)"/></g></g></g><g transform="translate(306.859 -31.273)"><g transform="translate(24.419 232.744)"><path class="c" d="M22.2,250.413l.774,2.127,2.382-.867.774,2.127,2-.727L28.9,255.2l1.8-.657.774,2.127,2.105-.766.774,2.127,7.983-2.905L41.571,253l1.964-.715-.774-2.127,1.978-.72-.774-2.127-.774-2.127L49,243.068l.774,2.127.774,2.127,1.978-.72.774,2.127,1.964-.715.774,2.127,7.982-2.905-.774-2.127,2.105-.766-.774-2.127,1.8-.657-.774-2.127,2-.727-.774-2.127,2.271-.826-.774-2.127Z" transform="translate(-22.201 -233.624)"/><g transform="translate(-22.201 -233.624)"><rect class="d" width="2.153" height="2.153" transform="translate(56.573 245.248) rotate(-20)"/><rect class="d" width="2.153" height="2.153" transform="translate(53.814 243.961) rotate(-20)"/><rect class="d" width="2.153" height="2.153" transform="translate(51.054 242.674) rotate(-20)"/></g><g transform="translate(-22.201 -233.624)"><rect class="d" width="2.153" height="2.153" transform="translate(34.718 253.202) rotate(-20)"/><rect class="d" width="2.153" height="2.153" transform="translate(31.959 251.916) rotate(-20)"/><rect class="d" width="2.153" height="2.153" transform="translate(29.2 250.629) rotate(-20)"/></g></g></g><g transform="translate(372.859 -31.273)"><g transform="translate(24.419 232.744)"><path class="c" d="M22.2,250.413l.774,2.127,2.382-.867.774,2.127,2-.727L28.9,255.2l1.8-.657.774,2.127,2.105-.766.774,2.127,7.983-2.905L41.571,253l1.964-.715-.774-2.127,1.978-.72-.774-2.127-.774-2.127L49,243.068l.774,2.127.774,2.127,1.978-.72.774,2.127,1.964-.715.774,2.127,7.982-2.905-.774-2.127,2.105-.766-.774-2.127,1.8-.657-.774-2.127,2-.727-.774-2.127,2.271-.826-.774-2.127Z" transform="translate(-22.201 -233.624)"/><g transform="translate(-22.201 -233.624)"><rect class="d" width="2.153" height="2.153" transform="translate(56.573 245.248) rotate(-20)"/><rect class="d" width="2.153" height="2.153" transform="translate(53.814 243.961) rotate(-20)"/><rect class="d" width="2.153" height="2.153" transform="translate(51.054 242.674) rotate(-20)"/></g><g transform="translate(-22.201 -233.624)"><rect class="d" width="2.153" height="2.153" transform="translate(34.718 253.202) rotate(-20)"/><rect class="d" width="2.153" height="2.153" transform="translate(31.959 251.916) rotate(-20)"/><rect class="d" width="2.153" height="2.153" transform="translate(29.2 250.629) rotate(-20)"/></g></g></g><g transform="translate(438.859 -31.273)"><g transform="translate(24.419 232.744)"><path class="c" d="M22.2,250.413l.774,2.127,2.382-.867.774,2.127,2-.727L28.9,255.2l1.8-.657.774,2.127,2.105-.766.774,2.127,7.983-2.905L41.571,253l1.964-.715-.774-2.127,1.978-.72-.774-2.127-.774-2.127L49,243.068l.774,2.127.774,2.127,1.978-.72.774,2.127,1.964-.715.774,2.127,7.982-2.905-.774-2.127,2.105-.766-.774-2.127,1.8-.657-.774-2.127,2-.727-.774-2.127,2.271-.826-.774-2.127Z" transform="translate(-22.201 -233.624)"/><g transform="translate(-22.201 -233.624)"><rect class="d" width="2.153" height="2.153" transform="translate(56.573 245.248) rotate(-20)"/><rect class="d" width="2.153" height="2.153" transform="translate(53.814 243.961) rotate(-20)"/><rect class="d" width="2.153" height="2.153" transform="translate(51.054 242.674) rotate(-20)"/></g><g transform="translate(-22.201 -233.624)"><rect class="d" width="2.153" height="2.153" transform="translate(34.718 253.202) rotate(-20)"/><rect class="d" width="2.153" height="2.153" transform="translate(31.959 251.916) rotate(-20)"/><rect class="d" width="2.153" height="2.153" transform="translate(29.2 250.629) rotate(-20)"/></g></g></g><g transform="translate(504.859 -31.273)"><g transform="translate(24.419 232.744)"><path class="c" d="M22.2,250.413l.774,2.127,2.382-.867.774,2.127,2-.727L28.9,255.2l1.8-.657.774,2.127,2.105-.766.774,2.127,7.983-2.905L41.571,253l1.964-.715-.774-2.127,1.978-.72-.774-2.127-.774-2.127L49,243.068l.774,2.127.774,2.127,1.978-.72.774,2.127,1.964-.715.774,2.127,7.982-2.905-.774-2.127,2.105-.766-.774-2.127,1.8-.657-.774-2.127,2-.727-.774-2.127,2.271-.826-.774-2.127Z" transform="translate(-22.201 -233.624)"/><g transform="translate(-22.201 -233.624)"><rect class="d" width="2.153" height="2.153" transform="translate(56.573 245.248) rotate(-20)"/><rect class="d" width="2.153" height="2.153" transform="translate(53.814 243.961) rotate(-20)"/><rect class="d" width="2.153" height="2.153" transform="translate(51.054 242.674) rotate(-20)"/></g><g transform="translate(-22.201 -233.624)"><rect class="d" width="2.153" height="2.153" transform="translate(34.718 253.202) rotate(-20)"/><rect class="d" width="2.153" height="2.153" transform="translate(31.959 251.916) rotate(-20)"/><rect class="d" width="2.153" height="2.153" transform="translate(29.2 250.629) rotate(-20)"/></g></g></g><g transform="translate(-23.141 31.727)"><g transform="translate(24.419 232.744)"><path class="c" d="M22.2,250.413l.774,2.127,2.382-.867.774,2.127,2-.727L28.9,255.2l1.8-.657.774,2.127,2.105-.766.774,2.127,7.983-2.905L41.571,253l1.964-.715-.774-2.127,1.978-.72-.774-2.127-.774-2.127L49,243.068l.774,2.127.774,2.127,1.978-.72.774,2.127,1.964-.715.774,2.127,7.982-2.905-.774-2.127,2.105-.766-.774-2.127,1.8-.657-.774-2.127,2-.727-.774-2.127,2.271-.826-.774-2.127Z" transform="translate(-22.201 -233.624)"/><g transform="translate(-22.201 -233.624)"><rect class="d" width="2.153" height="2.153" transform="translate(56.573 245.248) rotate(-20)"/><rect class="d" width="2.153" height="2.153" transform="translate(53.814 243.961) rotate(-20)"/><rect class="d" width="2.153" height="2.153" transform="translate(51.054 242.674) rotate(-20)"/></g><g transform="translate(-22.201 -233.624)"><rect class="d" width="2.153" height="2.153" transform="translate(34.718 253.202) rotate(-20)"/><rect class="d" width="2.153" height="2.153" transform="translate(31.959 251.916) rotate(-20)"/><rect class="d" width="2.153" height="2.153" transform="translate(29.2 250.629) rotate(-20)"/></g></g></g><g transform="translate(42.859 31.727)"><g transform="translate(24.419 232.744)"><path class="c" d="M22.2,250.413l.774,2.127,2.382-.867.774,2.127,2-.727L28.9,255.2l1.8-.657.774,2.127,2.105-.766.774,2.127,7.983-2.905L41.571,253l1.964-.715-.774-2.127,1.978-.72-.774-2.127-.774-2.127L49,243.068l.774,2.127.774,2.127,1.978-.72.774,2.127,1.964-.715.774,2.127,7.982-2.905-.774-2.127,2.105-.766-.774-2.127,1.8-.657-.774-2.127,2-.727-.774-2.127,2.271-.826-.774-2.127Z" transform="translate(-22.201 -233.624)"/><g transform="translate(-22.201 -233.624)"><rect class="d" width="2.153" height="2.153" transform="translate(56.573 245.248) rotate(-20)"/><rect class="d" width="2.153" height="2.153" transform="translate(53.814 243.961) rotate(-20)"/><rect class="d" width="2.153" height="2.153" transform="translate(51.054 242.674) rotate(-20)"/></g><g transform="translate(-22.201 -233.624)"><rect class="d" width="2.153" height="2.153" transform="translate(34.718 253.202) rotate(-20)"/><rect class="d" width="2.153" height="2.153" transform="translate(31.959 251.916) rotate(-20)"/><rect class="d" width="2.153" height="2.153" transform="translate(29.2 250.629) rotate(-20)"/></g></g></g><g transform="translate(108.859 31.727)"><g transform="translate(24.419 232.744)"><path class="c" d="M22.2,250.413l.774,2.127,2.382-.867.774,2.127,2-.727L28.9,255.2l1.8-.657.774,2.127,2.105-.766.774,2.127,7.983-2.905L41.571,253l1.964-.715-.774-2.127,1.978-.72-.774-2.127-.774-2.127L49,243.068l.774,2.127.774,2.127,1.978-.72.774,2.127,1.964-.715.774,2.127,7.982-2.905-.774-2.127,2.105-.766-.774-2.127,1.8-.657-.774-2.127,2-.727-.774-2.127,2.271-.826-.774-2.127Z" transform="translate(-22.201 -233.624)"/><g transform="translate(-22.201 -233.624)"><rect class="d" width="2.153" height="2.153" transform="translate(56.573 245.248) rotate(-20)"/><rect class="d" width="2.153" height="2.153" transform="translate(53.814 243.961) rotate(-20)"/><rect class="d" width="2.153" height="2.153" transform="translate(51.054 242.674) rotate(-20)"/></g><g transform="translate(-22.201 -233.624)"><rect class="d" width="2.153" height="2.153" transform="translate(34.718 253.202) rotate(-20)"/><rect class="d" width="2.153" height="2.153" transform="translate(31.959 251.916) rotate(-20)"/><rect class="d" width="2.153" height="2.153" transform="translate(29.2 250.629) rotate(-20)"/></g></g></g><g transform="translate(174.859 31.727)"><g transform="translate(24.419 232.744)"><path class="c" d="M22.2,250.413l.774,2.127,2.382-.867.774,2.127,2-.727L28.9,255.2l1.8-.657.774,2.127,2.105-.766.774,2.127,7.983-2.905L41.571,253l1.964-.715-.774-2.127,1.978-.72-.774-2.127-.774-2.127L49,243.068l.774,2.127.774,2.127,1.978-.72.774,2.127,1.964-.715.774,2.127,7.982-2.905-.774-2.127,2.105-.766-.774-2.127,1.8-.657-.774-2.127,2-.727-.774-2.127,2.271-.826-.774-2.127Z" transform="translate(-22.201 -233.624)"/><g transform="translate(-22.201 -233.624)"><rect class="d" width="2.153" height="2.153" transform="translate(56.573 245.248) rotate(-20)"/><rect class="d" width="2.153" height="2.153" transform="translate(53.814 243.961) rotate(-20)"/><rect class="d" width="2.153" height="2.153" transform="translate(51.054 242.674) rotate(-20)"/></g><g transform="translate(-22.201 -233.624)"><rect class="d" width="2.153" height="2.153" transform="translate(34.718 253.202) rotate(-20)"/><rect class="d" width="2.153" height="2.153" transform="translate(31.959 251.916) rotate(-20)"/><rect class="d" width="2.153" height="2.153" transform="translate(29.2 250.629) rotate(-20)"/></g></g></g><g transform="translate(240.859 31.727)"><g transform="translate(24.419 232.744)"><path class="c" d="M22.2,250.413l.774,2.127,2.382-.867.774,2.127,2-.727L28.9,255.2l1.8-.657.774,2.127,2.105-.766.774,2.127,7.983-2.905L41.571,253l1.964-.715-.774-2.127,1.978-.72-.774-2.127-.774-2.127L49,243.068l.774,2.127.774,2.127,1.978-.72.774,2.127,1.964-.715.774,2.127,7.982-2.905-.774-2.127,2.105-.766-.774-2.127,1.8-.657-.774-2.127,2-.727-.774-2.127,2.271-.826-.774-2.127Z" transform="translate(-22.201 -233.624)"/><g transform="translate(-22.201 -233.624)"><rect class="d" width="2.153" height="2.153" transform="translate(56.573 245.248) rotate(-20)"/><rect class="d" width="2.153" height="2.153" transform="translate(53.814 243.961) rotate(-20)"/><rect class="d" width="2.153" height="2.153" transform="translate(51.054 242.674) rotate(-20)"/></g><g transform="translate(-22.201 -233.624)"><rect class="d" width="2.153" height="2.153" transform="translate(34.718 253.202) rotate(-20)"/><rect class="d" width="2.153" height="2.153" transform="translate(31.959 251.916) rotate(-20)"/><rect class="d" width="2.153" height="2.153" transform="translate(29.2 250.629) rotate(-20)"/></g></g></g><g transform="translate(306.859 31.727)"><g transform="translate(24.419 232.744)"><path class="c" d="M22.2,250.413l.774,2.127,2.382-.867.774,2.127,2-.727L28.9,255.2l1.8-.657.774,2.127,2.105-.766.774,2.127,7.983-2.905L41.571,253l1.964-.715-.774-2.127,1.978-.72-.774-2.127-.774-2.127L49,243.068l.774,2.127.774,2.127,1.978-.72.774,2.127,1.964-.715.774,2.127,7.982-2.905-.774-2.127,2.105-.766-.774-2.127,1.8-.657-.774-2.127,2-.727-.774-2.127,2.271-.826-.774-2.127Z" transform="translate(-22.201 -233.624)"/><g transform="translate(-22.201 -233.624)"><rect class="d" width="2.153" height="2.153" transform="translate(56.573 245.248) rotate(-20)"/><rect class="d" width="2.153" height="2.153" transform="translate(53.814 243.961) rotate(-20)"/><rect class="d" width="2.153" height="2.153" transform="translate(51.054 242.674) rotate(-20)"/></g><g transform="translate(-22.201 -233.624)"><rect class="d" width="2.153" height="2.153" transform="translate(34.718 253.202) rotate(-20)"/><rect class="d" width="2.153" height="2.153" transform="translate(31.959 251.916) rotate(-20)"/><rect class="d" width="2.153" height="2.153" transform="translate(29.2 250.629) rotate(-20)"/></g></g></g><g transform="translate(372.859 31.727)"><g transform="translate(24.419 232.744)"><path class="c" d="M22.2,250.413l.774,2.127,2.382-.867.774,2.127,2-.727L28.9,255.2l1.8-.657.774,2.127,2.105-.766.774,2.127,7.983-2.905L41.571,253l1.964-.715-.774-2.127,1.978-.72-.774-2.127-.774-2.127L49,243.068l.774,2.127.774,2.127,1.978-.72.774,2.127,1.964-.715.774,2.127,7.982-2.905-.774-2.127,2.105-.766-.774-2.127,1.8-.657-.774-2.127,2-.727-.774-2.127,2.271-.826-.774-2.127Z" transform="translate(-22.201 -233.624)"/><g transform="translate(-22.201 -233.624)"><rect class="d" width="2.153" height="2.153" transform="translate(56.573 245.248) rotate(-20)"/><rect class="d" width="2.153" height="2.153" transform="translate(53.814 243.961) rotate(-20)"/><rect class="d" width="2.153" height="2.153" transform="translate(51.054 242.674) rotate(-20)"/></g><g transform="translate(-22.201 -233.624)"><rect class="d" width="2.153" height="2.153" transform="translate(34.718 253.202) rotate(-20)"/><rect class="d" width="2.153" height="2.153" transform="translate(31.959 251.916) rotate(-20)"/><rect class="d" width="2.153" height="2.153" transform="translate(29.2 250.629) rotate(-20)"/></g></g></g><g transform="translate(438.859 31.727)"><g transform="translate(24.419 232.744)"><path class="c" d="M22.2,250.413l.774,2.127,2.382-.867.774,2.127,2-.727L28.9,255.2l1.8-.657.774,2.127,2.105-.766.774,2.127,7.983-2.905L41.571,253l1.964-.715-.774-2.127,1.978-.72-.774-2.127-.774-2.127L49,243.068l.774,2.127.774,2.127,1.978-.72.774,2.127,1.964-.715.774,2.127,7.982-2.905-.774-2.127,2.105-.766-.774-2.127,1.8-.657-.774-2.127,2-.727-.774-2.127,2.271-.826-.774-2.127Z" transform="translate(-22.201 -233.624)"/><g transform="translate(-22.201 -233.624)"><rect class="d" width="2.153" height="2.153" transform="translate(56.573 245.248) rotate(-20)"/><rect class="d" width="2.153" height="2.153" transform="translate(53.814 243.961) rotate(-20)"/><rect class="d" width="2.153" height="2.153" transform="translate(51.054 242.674) rotate(-20)"/></g><g transform="translate(-22.201 -233.624)"><rect class="d" width="2.153" height="2.153" transform="translate(34.718 253.202) rotate(-20)"/><rect class="d" width="2.153" height="2.153" transform="translate(31.959 251.916) rotate(-20)"/><rect class="d" width="2.153" height="2.153" transform="translate(29.2 250.629) rotate(-20)"/></g></g></g><g transform="translate(504.859 31.727)"><g transform="translate(24.419 232.744)"><path class="c" d="M22.2,250.413l.774,2.127,2.382-.867.774,2.127,2-.727L28.9,255.2l1.8-.657.774,2.127,2.105-.766.774,2.127,7.983-2.905L41.571,253l1.964-.715-.774-2.127,1.978-.72-.774-2.127-.774-2.127L49,243.068l.774,2.127.774,2.127,1.978-.72.774,2.127,1.964-.715.774,2.127,7.982-2.905-.774-2.127,2.105-.766-.774-2.127,1.8-.657-.774-2.127,2-.727-.774-2.127,2.271-.826-.774-2.127Z" transform="translate(-22.201 -233.624)"/><g transform="translate(-22.201 -233.624)"><rect class="d" width="2.153" height="2.153" transform="translate(56.573 245.248) rotate(-20)"/><rect class="d" width="2.153" height="2.153" transform="translate(53.814 243.961) rotate(-20)"/><rect class="d" width="2.153" height="2.153" transform="translate(51.054 242.674) rotate(-20)"/></g><g transform="translate(-22.201 -233.624)"><rect class="d" width="2.153" height="2.153" transform="translate(34.718 253.202) rotate(-20)"/><rect class="d" width="2.153" height="2.153" transform="translate(31.959 251.916) rotate(-20)"/><rect class="d" width="2.153" height="2.153" transform="translate(29.2 250.629) rotate(-20)"/></g></g></g></g></svg>