<svg xmlns="http://www.w3.org/2000/svg" xmlns:xlink="http://www.w3.org/1999/xlink" width="583.741" height="311.741" viewBox="0 0 583.741 311.741"><defs><style>.a{fill:none;}.b{clip-path:url(#a);}.c{fill:#fff;}.d{fill:#f0bd5a;}.e{fill:#f2d496;}</style><clipPath id="a"><rect class="a" width="583.741" height="311.741"/></clipPath></defs><g class="b"><g transform="translate(-23.141 -220.273)"><g transform="translate(29.419 222.744)"><path class="c" d="M28.107,246.9c0-12.99,8.388-26.632,18.735-26.632S65.576,233.915,65.576,246.9s-8.388,20.411-18.734,20.411S28.107,259.9,28.107,246.9Z" transform="translate(-28.107 -220.273)"/><circle class="d" cx="11.608" cy="11.608" r="11.608" transform="translate(7.43 19.634)"/><path class="e" d="M48.381,249.231a13.408,13.408,0,0,1,5.059,2.719,1.945,1.945,0,0,0,3.137-1.94,9.516,9.516,0,0,0-17.663-2.27l-.043.081a1.166,1.166,0,0,0,1.424,1.626A13.4,13.4,0,0,1,48.381,249.231Z" transform="translate(-28.107 -220.273)"/></g></g><g transform="translate(42.859 -220.273)"><g transform="translate(29.419 222.744)"><path class="c" d="M28.107,246.9c0-12.99,8.388-26.632,18.735-26.632S65.576,233.915,65.576,246.9s-8.388,20.411-18.734,20.411S28.107,259.9,28.107,246.9Z" transform="translate(-28.107 -220.273)"/><circle class="d" cx="11.608" cy="11.608" r="11.608" transform="translate(7.43 19.634)"/><path class="e" d="M48.381,249.231a13.408,13.408,0,0,1,5.059,2.719,1.945,1.945,0,0,0,3.137-1.94,9.516,9.516,0,0,0-17.663-2.27l-.043.081a1.166,1.166,0,0,0,1.424,1.626A13.4,13.4,0,0,1,48.381,249.231Z" transform="translate(-28.107 -220.273)"/></g></g><g transform="translate(108.859 -220.273)"><g transform="translate(29.419 222.744)"><path class="c" d="M28.107,246.9c0-12.99,8.388-26.632,18.735-26.632S65.576,233.915,65.576,246.9s-8.388,20.411-18.734,20.411S28.107,259.9,28.107,246.9Z" transform="translate(-28.107 -220.273)"/><circle class="d" cx="11.608" cy="11.608" r="11.608" transform="translate(7.43 19.634)"/><path class="e" d="M48.381,249.231a13.408,13.408,0,0,1,5.059,2.719,1.945,1.945,0,0,0,3.137-1.94,9.516,9.516,0,0,0-17.663-2.27l-.043.081a1.166,1.166,0,0,0,1.424,1.626A13.4,13.4,0,0,1,48.381,249.231Z" transform="translate(-28.107 -220.273)"/></g></g><g transform="translate(174.859 -220.273)"><g transform="translate(29.419 222.744)"><path class="c" d="M28.107,246.9c0-12.99,8.388-26.632,18.735-26.632S65.576,233.915,65.576,246.9s-8.388,20.411-18.734,20.411S28.107,259.9,28.107,246.9Z" transform="translate(-28.107 -220.273)"/><circle class="d" cx="11.608" cy="11.608" r="11.608" transform="translate(7.43 19.634)"/><path class="e" d="M48.381,249.231a13.408,13.408,0,0,1,5.059,2.719,1.945,1.945,0,0,0,3.137-1.94,9.516,9.516,0,0,0-17.663-2.27l-.043.081a1.166,1.166,0,0,0,1.424,1.626A13.4,13.4,0,0,1,48.381,249.231Z" transform="translate(-28.107 -220.273)"/></g></g><g transform="translate(240.859 -220.273)"><g transform="translate(29.419 222.744)"><path class="c" d="M28.107,246.9c0-12.99,8.388-26.632,18.735-26.632S65.576,233.915,65.576,246.9s-8.388,20.411-18.734,20.411S28.107,259.9,28.107,246.9Z" transform="translate(-28.107 -220.273)"/><circle class="d" cx="11.608" cy="11.608" r="11.608" transform="translate(7.43 19.634)"/><path class="e" d="M48.381,249.231a13.408,13.408,0,0,1,5.059,2.719,1.945,1.945,0,0,0,3.137-1.94,9.516,9.516,0,0,0-17.663-2.27l-.043.081a1.166,1.166,0,0,0,1.424,1.626A13.4,13.4,0,0,1,48.381,249.231Z" transform="translate(-28.107 -220.273)"/></g></g><g transform="translate(306.859 -220.273)"><g transform="translate(29.419 222.744)"><path class="c" d="M28.107,246.9c0-12.99,8.388-26.632,18.735-26.632S65.576,233.915,65.576,246.9s-8.388,20.411-18.734,20.411S28.107,259.9,28.107,246.9Z" transform="translate(-28.107 -220.273)"/><circle class="d" cx="11.608" cy="11.608" r="11.608" transform="translate(7.43 19.634)"/><path class="e" d="M48.381,249.231a13.408,13.408,0,0,1,5.059,2.719,1.945,1.945,0,0,0,3.137-1.94,9.516,9.516,0,0,0-17.663-2.27l-.043.081a1.166,1.166,0,0,0,1.424,1.626A13.4,13.4,0,0,1,48.381,249.231Z" transform="translate(-28.107 -220.273)"/></g></g><g transform="translate(372.859 -220.273)"><g transform="translate(29.419 222.744)"><path class="c" d="M28.107,246.9c0-12.99,8.388-26.632,18.735-26.632S65.576,233.915,65.576,246.9s-8.388,20.411-18.734,20.411S28.107,259.9,28.107,246.9Z" transform="translate(-28.107 -220.273)"/><circle class="d" cx="11.608" cy="11.608" r="11.608" transform="translate(7.43 19.634)"/><path class="e" d="M48.381,249.231a13.408,13.408,0,0,1,5.059,2.719,1.945,1.945,0,0,0,3.137-1.94,9.516,9.516,0,0,0-17.663-2.27l-.043.081a1.166,1.166,0,0,0,1.424,1.626A13.4,13.4,0,0,1,48.381,249.231Z" transform="translate(-28.107 -220.273)"/></g></g><g transform="translate(438.859 -220.273)"><g transform="translate(29.419 222.744)"><path class="c" d="M28.107,246.9c0-12.99,8.388-26.632,18.735-26.632S65.576,233.915,65.576,246.9s-8.388,20.411-18.734,20.411S28.107,259.9,28.107,246.9Z" transform="translate(-28.107 -220.273)"/><circle class="d" cx="11.608" cy="11.608" r="11.608" transform="translate(7.43 19.634)"/><path class="e" d="M48.381,249.231a13.408,13.408,0,0,1,5.059,2.719,1.945,1.945,0,0,0,3.137-1.94,9.516,9.516,0,0,0-17.663-2.27l-.043.081a1.166,1.166,0,0,0,1.424,1.626A13.4,13.4,0,0,1,48.381,249.231Z" transform="translate(-28.107 -220.273)"/></g></g><g transform="translate(504.859 -220.273)"><g transform="translate(29.419 222.744)"><path class="c" d="M28.107,246.9c0-12.99,8.388-26.632,18.735-26.632S65.576,233.915,65.576,246.9s-8.388,20.411-18.734,20.411S28.107,259.9,28.107,246.9Z" transform="translate(-28.107 -220.273)"/><circle class="d" cx="11.608" cy="11.608" r="11.608" transform="translate(7.43 19.634)"/><path class="e" d="M48.381,249.231a13.408,13.408,0,0,1,5.059,2.719,1.945,1.945,0,0,0,3.137-1.94,9.516,9.516,0,0,0-17.663-2.27l-.043.081a1.166,1.166,0,0,0,1.424,1.626A13.4,13.4,0,0,1,48.381,249.231Z" transform="translate(-28.107 -220.273)"/></g></g><g transform="translate(-23.141 -157.273)"><g transform="translate(29.419 222.744)"><path class="c" d="M28.107,246.9c0-12.99,8.388-26.632,18.735-26.632S65.576,233.915,65.576,246.9s-8.388,20.411-18.734,20.411S28.107,259.9,28.107,246.9Z" transform="translate(-28.107 -220.273)"/><circle class="d" cx="11.608" cy="11.608" r="11.608" transform="translate(7.43 19.634)"/><path class="e" d="M48.381,249.231a13.408,13.408,0,0,1,5.059,2.719,1.945,1.945,0,0,0,3.137-1.94,9.516,9.516,0,0,0-17.663-2.27l-.043.081a1.166,1.166,0,0,0,1.424,1.626A13.4,13.4,0,0,1,48.381,249.231Z" transform="translate(-28.107 -220.273)"/></g></g><g transform="translate(42.859 -157.273)"><g transform="translate(29.419 222.744)"><path class="c" d="M28.107,246.9c0-12.99,8.388-26.632,18.735-26.632S65.576,233.915,65.576,246.9s-8.388,20.411-18.734,20.411S28.107,259.9,28.107,246.9Z" transform="translate(-28.107 -220.273)"/><circle class="d" cx="11.608" cy="11.608" r="11.608" transform="translate(7.43 19.634)"/><path class="e" d="M48.381,249.231a13.408,13.408,0,0,1,5.059,2.719,1.945,1.945,0,0,0,3.137-1.94,9.516,9.516,0,0,0-17.663-2.27l-.043.081a1.166,1.166,0,0,0,1.424,1.626A13.4,13.4,0,0,1,48.381,249.231Z" transform="translate(-28.107 -220.273)"/></g></g><g transform="translate(108.859 -157.273)"><g transform="translate(29.419 222.744)"><path class="c" d="M28.107,246.9c0-12.99,8.388-26.632,18.735-26.632S65.576,233.915,65.576,246.9s-8.388,20.411-18.734,20.411S28.107,259.9,28.107,246.9Z" transform="translate(-28.107 -220.273)"/><circle class="d" cx="11.608" cy="11.608" r="11.608" transform="translate(7.43 19.634)"/><path class="e" d="M48.381,249.231a13.408,13.408,0,0,1,5.059,2.719,1.945,1.945,0,0,0,3.137-1.94,9.516,9.516,0,0,0-17.663-2.27l-.043.081a1.166,1.166,0,0,0,1.424,1.626A13.4,13.4,0,0,1,48.381,249.231Z" transform="translate(-28.107 -220.273)"/></g></g><g transform="translate(174.859 -157.273)"><g transform="translate(29.419 222.744)"><path class="c" d="M28.107,246.9c0-12.99,8.388-26.632,18.735-26.632S65.576,233.915,65.576,246.9s-8.388,20.411-18.734,20.411S28.107,259.9,28.107,246.9Z" transform="translate(-28.107 -220.273)"/><circle class="d" cx="11.608" cy="11.608" r="11.608" transform="translate(7.43 19.634)"/><path class="e" d="M48.381,249.231a13.408,13.408,0,0,1,5.059,2.719,1.945,1.945,0,0,0,3.137-1.94,9.516,9.516,0,0,0-17.663-2.27l-.043.081a1.166,1.166,0,0,0,1.424,1.626A13.4,13.4,0,0,1,48.381,249.231Z" transform="translate(-28.107 -220.273)"/></g></g><g transform="translate(240.859 -157.273)"><g transform="translate(29.419 222.744)"><path class="c" d="M28.107,246.9c0-12.99,8.388-26.632,18.735-26.632S65.576,233.915,65.576,246.9s-8.388,20.411-18.734,20.411S28.107,259.9,28.107,246.9Z" transform="translate(-28.107 -220.273)"/><circle class="d" cx="11.608" cy="11.608" r="11.608" transform="translate(7.43 19.634)"/><path class="e" d="M48.381,249.231a13.408,13.408,0,0,1,5.059,2.719,1.945,1.945,0,0,0,3.137-1.94,9.516,9.516,0,0,0-17.663-2.27l-.043.081a1.166,1.166,0,0,0,1.424,1.626A13.4,13.4,0,0,1,48.381,249.231Z" transform="translate(-28.107 -220.273)"/></g></g><g transform="translate(306.859 -157.273)"><g transform="translate(29.419 222.744)"><path class="c" d="M28.107,246.9c0-12.99,8.388-26.632,18.735-26.632S65.576,233.915,65.576,246.9s-8.388,20.411-18.734,20.411S28.107,259.9,28.107,246.9Z" transform="translate(-28.107 -220.273)"/><circle class="d" cx="11.608" cy="11.608" r="11.608" transform="translate(7.43 19.634)"/><path class="e" d="M48.381,249.231a13.408,13.408,0,0,1,5.059,2.719,1.945,1.945,0,0,0,3.137-1.94,9.516,9.516,0,0,0-17.663-2.27l-.043.081a1.166,1.166,0,0,0,1.424,1.626A13.4,13.4,0,0,1,48.381,249.231Z" transform="translate(-28.107 -220.273)"/></g></g><g transform="translate(372.859 -157.273)"><g transform="translate(29.419 222.744)"><path class="c" d="M28.107,246.9c0-12.99,8.388-26.632,18.735-26.632S65.576,233.915,65.576,246.9s-8.388,20.411-18.734,20.411S28.107,259.9,28.107,246.9Z" transform="translate(-28.107 -220.273)"/><circle class="d" cx="11.608" cy="11.608" r="11.608" transform="translate(7.43 19.634)"/><path class="e" d="M48.381,249.231a13.408,13.408,0,0,1,5.059,2.719,1.945,1.945,0,0,0,3.137-1.94,9.516,9.516,0,0,0-17.663-2.27l-.043.081a1.166,1.166,0,0,0,1.424,1.626A13.4,13.4,0,0,1,48.381,249.231Z" transform="translate(-28.107 -220.273)"/></g></g><g transform="translate(438.859 -157.273)"><g transform="translate(29.419 222.744)"><path class="c" d="M28.107,246.9c0-12.99,8.388-26.632,18.735-26.632S65.576,233.915,65.576,246.9s-8.388,20.411-18.734,20.411S28.107,259.9,28.107,246.9Z" transform="translate(-28.107 -220.273)"/><circle class="d" cx="11.608" cy="11.608" r="11.608" transform="translate(7.43 19.634)"/><path class="e" d="M48.381,249.231a13.408,13.408,0,0,1,5.059,2.719,1.945,1.945,0,0,0,3.137-1.94,9.516,9.516,0,0,0-17.663-2.27l-.043.081a1.166,1.166,0,0,0,1.424,1.626A13.4,13.4,0,0,1,48.381,249.231Z" transform="translate(-28.107 -220.273)"/></g></g><g transform="translate(504.859 -157.273)"><g transform="translate(29.419 222.744)"><path class="c" d="M28.107,246.9c0-12.99,8.388-26.632,18.735-26.632S65.576,233.915,65.576,246.9s-8.388,20.411-18.734,20.411S28.107,259.9,28.107,246.9Z" transform="translate(-28.107 -220.273)"/><circle class="d" cx="11.608" cy="11.608" r="11.608" transform="translate(7.43 19.634)"/><path class="e" d="M48.381,249.231a13.408,13.408,0,0,1,5.059,2.719,1.945,1.945,0,0,0,3.137-1.94,9.516,9.516,0,0,0-17.663-2.27l-.043.081a1.166,1.166,0,0,0,1.424,1.626A13.4,13.4,0,0,1,48.381,249.231Z" transform="translate(-28.107 -220.273)"/></g></g><g transform="translate(-23.141 -94.273)"><g transform="translate(29.419 222.744)"><path class="c" d="M28.107,246.9c0-12.99,8.388-26.632,18.735-26.632S65.576,233.915,65.576,246.9s-8.388,20.411-18.734,20.411S28.107,259.9,28.107,246.9Z" transform="translate(-28.107 -220.273)"/><circle class="d" cx="11.608" cy="11.608" r="11.608" transform="translate(7.43 19.634)"/><path class="e" d="M48.381,249.231a13.408,13.408,0,0,1,5.059,2.719,1.945,1.945,0,0,0,3.137-1.94,9.516,9.516,0,0,0-17.663-2.27l-.043.081a1.166,1.166,0,0,0,1.424,1.626A13.4,13.4,0,0,1,48.381,249.231Z" transform="translate(-28.107 -220.273)"/></g></g><g transform="translate(42.859 -94.273)"><g transform="translate(29.419 222.744)"><path class="c" d="M28.107,246.9c0-12.99,8.388-26.632,18.735-26.632S65.576,233.915,65.576,246.9s-8.388,20.411-18.734,20.411S28.107,259.9,28.107,246.9Z" transform="translate(-28.107 -220.273)"/><circle class="d" cx="11.608" cy="11.608" r="11.608" transform="translate(7.43 19.634)"/><path class="e" d="M48.381,249.231a13.408,13.408,0,0,1,5.059,2.719,1.945,1.945,0,0,0,3.137-1.94,9.516,9.516,0,0,0-17.663-2.27l-.043.081a1.166,1.166,0,0,0,1.424,1.626A13.4,13.4,0,0,1,48.381,249.231Z" transform="translate(-28.107 -220.273)"/></g></g><g transform="translate(108.859 -94.273)"><g transform="translate(29.419 222.744)"><path class="c" d="M28.107,246.9c0-12.99,8.388-26.632,18.735-26.632S65.576,233.915,65.576,246.9s-8.388,20.411-18.734,20.411S28.107,259.9,28.107,246.9Z" transform="translate(-28.107 -220.273)"/><circle class="d" cx="11.608" cy="11.608" r="11.608" transform="translate(7.43 19.634)"/><path class="e" d="M48.381,249.231a13.408,13.408,0,0,1,5.059,2.719,1.945,1.945,0,0,0,3.137-1.94,9.516,9.516,0,0,0-17.663-2.27l-.043.081a1.166,1.166,0,0,0,1.424,1.626A13.4,13.4,0,0,1,48.381,249.231Z" transform="translate(-28.107 -220.273)"/></g></g><g transform="translate(174.859 -94.273)"><g transform="translate(29.419 222.744)"><path class="c" d="M28.107,246.9c0-12.99,8.388-26.632,18.735-26.632S65.576,233.915,65.576,246.9s-8.388,20.411-18.734,20.411S28.107,259.9,28.107,246.9Z" transform="translate(-28.107 -220.273)"/><circle class="d" cx="11.608" cy="11.608" r="11.608" transform="translate(7.43 19.634)"/><path class="e" d="M48.381,249.231a13.408,13.408,0,0,1,5.059,2.719,1.945,1.945,0,0,0,3.137-1.94,9.516,9.516,0,0,0-17.663-2.27l-.043.081a1.166,1.166,0,0,0,1.424,1.626A13.4,13.4,0,0,1,48.381,249.231Z" transform="translate(-28.107 -220.273)"/></g></g><g transform="translate(240.859 -94.273)"><g transform="translate(29.419 222.744)"><path class="c" d="M28.107,246.9c0-12.99,8.388-26.632,18.735-26.632S65.576,233.915,65.576,246.9s-8.388,20.411-18.734,20.411S28.107,259.9,28.107,246.9Z" transform="translate(-28.107 -220.273)"/><circle class="d" cx="11.608" cy="11.608" r="11.608" transform="translate(7.43 19.634)"/><path class="e" d="M48.381,249.231a13.408,13.408,0,0,1,5.059,2.719,1.945,1.945,0,0,0,3.137-1.94,9.516,9.516,0,0,0-17.663-2.27l-.043.081a1.166,1.166,0,0,0,1.424,1.626A13.4,13.4,0,0,1,48.381,249.231Z" transform="translate(-28.107 -220.273)"/></g></g><g transform="translate(306.859 -94.273)"><g transform="translate(29.419 222.744)"><path class="c" d="M28.107,246.9c0-12.99,8.388-26.632,18.735-26.632S65.576,233.915,65.576,246.9s-8.388,20.411-18.734,20.411S28.107,259.9,28.107,246.9Z" transform="translate(-28.107 -220.273)"/><circle class="d" cx="11.608" cy="11.608" r="11.608" transform="translate(7.43 19.634)"/><path class="e" d="M48.381,249.231a13.408,13.408,0,0,1,5.059,2.719,1.945,1.945,0,0,0,3.137-1.94,9.516,9.516,0,0,0-17.663-2.27l-.043.081a1.166,1.166,0,0,0,1.424,1.626A13.4,13.4,0,0,1,48.381,249.231Z" transform="translate(-28.107 -220.273)"/></g></g><g transform="translate(372.859 -94.273)"><g transform="translate(29.419 222.744)"><path class="c" d="M28.107,246.9c0-12.99,8.388-26.632,18.735-26.632S65.576,233.915,65.576,246.9s-8.388,20.411-18.734,20.411S28.107,259.9,28.107,246.9Z" transform="translate(-28.107 -220.273)"/><circle class="d" cx="11.608" cy="11.608" r="11.608" transform="translate(7.43 19.634)"/><path class="e" d="M48.381,249.231a13.408,13.408,0,0,1,5.059,2.719,1.945,1.945,0,0,0,3.137-1.94,9.516,9.516,0,0,0-17.663-2.27l-.043.081a1.166,1.166,0,0,0,1.424,1.626A13.4,13.4,0,0,1,48.381,249.231Z" transform="translate(-28.107 -220.273)"/></g></g><g transform="translate(438.859 -94.273)"><g transform="translate(29.419 222.744)"><path class="c" d="M28.107,246.9c0-12.99,8.388-26.632,18.735-26.632S65.576,233.915,65.576,246.9s-8.388,20.411-18.734,20.411S28.107,259.9,28.107,246.9Z" transform="translate(-28.107 -220.273)"/><circle class="d" cx="11.608" cy="11.608" r="11.608" transform="translate(7.43 19.634)"/><path class="e" d="M48.381,249.231a13.408,13.408,0,0,1,5.059,2.719,1.945,1.945,0,0,0,3.137-1.94,9.516,9.516,0,0,0-17.663-2.27l-.043.081a1.166,1.166,0,0,0,1.424,1.626A13.4,13.4,0,0,1,48.381,249.231Z" transform="translate(-28.107 -220.273)"/></g></g><g transform="translate(504.859 -94.273)"><g transform="translate(29.419 222.744)"><path class="c" d="M28.107,246.9c0-12.99,8.388-26.632,18.735-26.632S65.576,233.915,65.576,246.9s-8.388,20.411-18.734,20.411S28.107,259.9,28.107,246.9Z" transform="translate(-28.107 -220.273)"/><circle class="d" cx="11.608" cy="11.608" r="11.608" transform="translate(7.43 19.634)"/><path class="e" d="M48.381,249.231a13.408,13.408,0,0,1,5.059,2.719,1.945,1.945,0,0,0,3.137-1.94,9.516,9.516,0,0,0-17.663-2.27l-.043.081a1.166,1.166,0,0,0,1.424,1.626A13.4,13.4,0,0,1,48.381,249.231Z" transform="translate(-28.107 -220.273)"/></g></g><g transform="translate(-23.141 -31.273)"><g transform="translate(29.419 222.744)"><path class="c" d="M28.107,246.9c0-12.99,8.388-26.632,18.735-26.632S65.576,233.915,65.576,246.9s-8.388,20.411-18.734,20.411S28.107,259.9,28.107,246.9Z" transform="translate(-28.107 -220.273)"/><circle class="d" cx="11.608" cy="11.608" r="11.608" transform="translate(7.43 19.634)"/><path class="e" d="M48.381,249.231a13.408,13.408,0,0,1,5.059,2.719,1.945,1.945,0,0,0,3.137-1.94,9.516,9.516,0,0,0-17.663-2.27l-.043.081a1.166,1.166,0,0,0,1.424,1.626A13.4,13.4,0,0,1,48.381,249.231Z" transform="translate(-28.107 -220.273)"/></g></g><g transform="translate(42.859 -31.273)"><g transform="translate(29.419 222.744)"><path class="c" d="M28.107,246.9c0-12.99,8.388-26.632,18.735-26.632S65.576,233.915,65.576,246.9s-8.388,20.411-18.734,20.411S28.107,259.9,28.107,246.9Z" transform="translate(-28.107 -220.273)"/><circle class="d" cx="11.608" cy="11.608" r="11.608" transform="translate(7.43 19.634)"/><path class="e" d="M48.381,249.231a13.408,13.408,0,0,1,5.059,2.719,1.945,1.945,0,0,0,3.137-1.94,9.516,9.516,0,0,0-17.663-2.27l-.043.081a1.166,1.166,0,0,0,1.424,1.626A13.4,13.4,0,0,1,48.381,249.231Z" transform="translate(-28.107 -220.273)"/></g></g><g transform="translate(108.859 -31.273)"><g transform="translate(29.419 222.744)"><path class="c" d="M28.107,246.9c0-12.99,8.388-26.632,18.735-26.632S65.576,233.915,65.576,246.9s-8.388,20.411-18.734,20.411S28.107,259.9,28.107,246.9Z" transform="translate(-28.107 -220.273)"/><circle class="d" cx="11.608" cy="11.608" r="11.608" transform="translate(7.43 19.634)"/><path class="e" d="M48.381,249.231a13.408,13.408,0,0,1,5.059,2.719,1.945,1.945,0,0,0,3.137-1.94,9.516,9.516,0,0,0-17.663-2.27l-.043.081a1.166,1.166,0,0,0,1.424,1.626A13.4,13.4,0,0,1,48.381,249.231Z" transform="translate(-28.107 -220.273)"/></g></g><g transform="translate(174.859 -31.273)"><g transform="translate(29.419 222.744)"><path class="c" d="M28.107,246.9c0-12.99,8.388-26.632,18.735-26.632S65.576,233.915,65.576,246.9s-8.388,20.411-18.734,20.411S28.107,259.9,28.107,246.9Z" transform="translate(-28.107 -220.273)"/><circle class="d" cx="11.608" cy="11.608" r="11.608" transform="translate(7.43 19.634)"/><path class="e" d="M48.381,249.231a13.408,13.408,0,0,1,5.059,2.719,1.945,1.945,0,0,0,3.137-1.94,9.516,9.516,0,0,0-17.663-2.27l-.043.081a1.166,1.166,0,0,0,1.424,1.626A13.4,13.4,0,0,1,48.381,249.231Z" transform="translate(-28.107 -220.273)"/></g></g><g transform="translate(240.859 -31.273)"><g transform="translate(29.419 222.744)"><path class="c" d="M28.107,246.9c0-12.99,8.388-26.632,18.735-26.632S65.576,233.915,65.576,246.9s-8.388,20.411-18.734,20.411S28.107,259.9,28.107,246.9Z" transform="translate(-28.107 -220.273)"/><circle class="d" cx="11.608" cy="11.608" r="11.608" transform="translate(7.43 19.634)"/><path class="e" d="M48.381,249.231a13.408,13.408,0,0,1,5.059,2.719,1.945,1.945,0,0,0,3.137-1.94,9.516,9.516,0,0,0-17.663-2.27l-.043.081a1.166,1.166,0,0,0,1.424,1.626A13.4,13.4,0,0,1,48.381,249.231Z" transform="translate(-28.107 -220.273)"/></g></g><g transform="translate(306.859 -31.273)"><g transform="translate(29.419 222.744)"><path class="c" d="M28.107,246.9c0-12.99,8.388-26.632,18.735-26.632S65.576,233.915,65.576,246.9s-8.388,20.411-18.734,20.411S28.107,259.9,28.107,246.9Z" transform="translate(-28.107 -220.273)"/><circle class="d" cx="11.608" cy="11.608" r="11.608" transform="translate(7.43 19.634)"/><path class="e" d="M48.381,249.231a13.408,13.408,0,0,1,5.059,2.719,1.945,1.945,0,0,0,3.137-1.94,9.516,9.516,0,0,0-17.663-2.27l-.043.081a1.166,1.166,0,0,0,1.424,1.626A13.4,13.4,0,0,1,48.381,249.231Z" transform="translate(-28.107 -220.273)"/></g></g><g transform="translate(372.859 -31.273)"><g transform="translate(29.419 222.744)"><path class="c" d="M28.107,246.9c0-12.99,8.388-26.632,18.735-26.632S65.576,233.915,65.576,246.9s-8.388,20.411-18.734,20.411S28.107,259.9,28.107,246.9Z" transform="translate(-28.107 -220.273)"/><circle class="d" cx="11.608" cy="11.608" r="11.608" transform="translate(7.43 19.634)"/><path class="e" d="M48.381,249.231a13.408,13.408,0,0,1,5.059,2.719,1.945,1.945,0,0,0,3.137-1.94,9.516,9.516,0,0,0-17.663-2.27l-.043.081a1.166,1.166,0,0,0,1.424,1.626A13.4,13.4,0,0,1,48.381,249.231Z" transform="translate(-28.107 -220.273)"/></g></g><g transform="translate(438.859 -31.273)"><g transform="translate(29.419 222.744)"><path class="c" d="M28.107,246.9c0-12.99,8.388-26.632,18.735-26.632S65.576,233.915,65.576,246.9s-8.388,20.411-18.734,20.411S28.107,259.9,28.107,246.9Z" transform="translate(-28.107 -220.273)"/><circle class="d" cx="11.608" cy="11.608" r="11.608" transform="translate(7.43 19.634)"/><path class="e" d="M48.381,249.231a13.408,13.408,0,0,1,5.059,2.719,1.945,1.945,0,0,0,3.137-1.94,9.516,9.516,0,0,0-17.663-2.27l-.043.081a1.166,1.166,0,0,0,1.424,1.626A13.4,13.4,0,0,1,48.381,249.231Z" transform="translate(-28.107 -220.273)"/></g></g><g transform="translate(504.859 -31.273)"><g transform="translate(29.419 222.744)"><path class="c" d="M28.107,246.9c0-12.99,8.388-26.632,18.735-26.632S65.576,233.915,65.576,246.9s-8.388,20.411-18.734,20.411S28.107,259.9,28.107,246.9Z" transform="translate(-28.107 -220.273)"/><circle class="d" cx="11.608" cy="11.608" r="11.608" transform="translate(7.43 19.634)"/><path class="e" d="M48.381,249.231a13.408,13.408,0,0,1,5.059,2.719,1.945,1.945,0,0,0,3.137-1.94,9.516,9.516,0,0,0-17.663-2.27l-.043.081a1.166,1.166,0,0,0,1.424,1.626A13.4,13.4,0,0,1,48.381,249.231Z" transform="translate(-28.107 -220.273)"/></g></g><g transform="translate(-23.141 31.727)"><g transform="translate(29.419 222.744)"><path class="c" d="M28.107,246.9c0-12.99,8.388-26.632,18.735-26.632S65.576,233.915,65.576,246.9s-8.388,20.411-18.734,20.411S28.107,259.9,28.107,246.9Z" transform="translate(-28.107 -220.273)"/><circle class="d" cx="11.608" cy="11.608" r="11.608" transform="translate(7.43 19.634)"/><path class="e" d="M48.381,249.231a13.408,13.408,0,0,1,5.059,2.719,1.945,1.945,0,0,0,3.137-1.94,9.516,9.516,0,0,0-17.663-2.27l-.043.081a1.166,1.166,0,0,0,1.424,1.626A13.4,13.4,0,0,1,48.381,249.231Z" transform="translate(-28.107 -220.273)"/></g></g><g transform="translate(42.859 31.727)"><g transform="translate(29.419 222.744)"><path class="c" d="M28.107,246.9c0-12.99,8.388-26.632,18.735-26.632S65.576,233.915,65.576,246.9s-8.388,20.411-18.734,20.411S28.107,259.9,28.107,246.9Z" transform="translate(-28.107 -220.273)"/><circle class="d" cx="11.608" cy="11.608" r="11.608" transform="translate(7.43 19.634)"/><path class="e" d="M48.381,249.231a13.408,13.408,0,0,1,5.059,2.719,1.945,1.945,0,0,0,3.137-1.94,9.516,9.516,0,0,0-17.663-2.27l-.043.081a1.166,1.166,0,0,0,1.424,1.626A13.4,13.4,0,0,1,48.381,249.231Z" transform="translate(-28.107 -220.273)"/></g></g><g transform="translate(108.859 31.727)"><g transform="translate(29.419 222.744)"><path class="c" d="M28.107,246.9c0-12.99,8.388-26.632,18.735-26.632S65.576,233.915,65.576,246.9s-8.388,20.411-18.734,20.411S28.107,259.9,28.107,246.9Z" transform="translate(-28.107 -220.273)"/><circle class="d" cx="11.608" cy="11.608" r="11.608" transform="translate(7.43 19.634)"/><path class="e" d="M48.381,249.231a13.408,13.408,0,0,1,5.059,2.719,1.945,1.945,0,0,0,3.137-1.94,9.516,9.516,0,0,0-17.663-2.27l-.043.081a1.166,1.166,0,0,0,1.424,1.626A13.4,13.4,0,0,1,48.381,249.231Z" transform="translate(-28.107 -220.273)"/></g></g><g transform="translate(174.859 31.727)"><g transform="translate(29.419 222.744)"><path class="c" d="M28.107,246.9c0-12.99,8.388-26.632,18.735-26.632S65.576,233.915,65.576,246.9s-8.388,20.411-18.734,20.411S28.107,259.9,28.107,246.9Z" transform="translate(-28.107 -220.273)"/><circle class="d" cx="11.608" cy="11.608" r="11.608" transform="translate(7.43 19.634)"/><path class="e" d="M48.381,249.231a13.408,13.408,0,0,1,5.059,2.719,1.945,1.945,0,0,0,3.137-1.94,9.516,9.516,0,0,0-17.663-2.27l-.043.081a1.166,1.166,0,0,0,1.424,1.626A13.4,13.4,0,0,1,48.381,249.231Z" transform="translate(-28.107 -220.273)"/></g></g><g transform="translate(240.859 31.727)"><g transform="translate(29.419 222.744)"><path class="c" d="M28.107,246.9c0-12.99,8.388-26.632,18.735-26.632S65.576,233.915,65.576,246.9s-8.388,20.411-18.734,20.411S28.107,259.9,28.107,246.9Z" transform="translate(-28.107 -220.273)"/><circle class="d" cx="11.608" cy="11.608" r="11.608" transform="translate(7.43 19.634)"/><path class="e" d="M48.381,249.231a13.408,13.408,0,0,1,5.059,2.719,1.945,1.945,0,0,0,3.137-1.94,9.516,9.516,0,0,0-17.663-2.27l-.043.081a1.166,1.166,0,0,0,1.424,1.626A13.4,13.4,0,0,1,48.381,249.231Z" transform="translate(-28.107 -220.273)"/></g></g><g transform="translate(306.859 31.727)"><g transform="translate(29.419 222.744)"><path class="c" d="M28.107,246.9c0-12.99,8.388-26.632,18.735-26.632S65.576,233.915,65.576,246.9s-8.388,20.411-18.734,20.411S28.107,259.9,28.107,246.9Z" transform="translate(-28.107 -220.273)"/><circle class="d" cx="11.608" cy="11.608" r="11.608" transform="translate(7.43 19.634)"/><path class="e" d="M48.381,249.231a13.408,13.408,0,0,1,5.059,2.719,1.945,1.945,0,0,0,3.137-1.94,9.516,9.516,0,0,0-17.663-2.27l-.043.081a1.166,1.166,0,0,0,1.424,1.626A13.4,13.4,0,0,1,48.381,249.231Z" transform="translate(-28.107 -220.273)"/></g></g><g transform="translate(372.859 31.727)"><g transform="translate(29.419 222.744)"><path class="c" d="M28.107,246.9c0-12.99,8.388-26.632,18.735-26.632S65.576,233.915,65.576,246.9s-8.388,20.411-18.734,20.411S28.107,259.9,28.107,246.9Z" transform="translate(-28.107 -220.273)"/><circle class="d" cx="11.608" cy="11.608" r="11.608" transform="translate(7.43 19.634)"/><path class="e" d="M48.381,249.231a13.408,13.408,0,0,1,5.059,2.719,1.945,1.945,0,0,0,3.137-1.94,9.516,9.516,0,0,0-17.663-2.27l-.043.081a1.166,1.166,0,0,0,1.424,1.626A13.4,13.4,0,0,1,48.381,249.231Z" transform="translate(-28.107 -220.273)"/></g></g><g transform="translate(438.859 31.727)"><g transform="translate(29.419 222.744)"><path class="c" d="M28.107,246.9c0-12.99,8.388-26.632,18.735-26.632S65.576,233.915,65.576,246.9s-8.388,20.411-18.734,20.411S28.107,259.9,28.107,246.9Z" transform="translate(-28.107 -220.273)"/><circle class="d" cx="11.608" cy="11.608" r="11.608" transform="translate(7.43 19.634)"/><path class="e" d="M48.381,249.231a13.408,13.408,0,0,1,5.059,2.719,1.945,1.945,0,0,0,3.137-1.94,9.516,9.516,0,0,0-17.663-2.27l-.043.081a1.166,1.166,0,0,0,1.424,1.626A13.4,13.4,0,0,1,48.381,249.231Z" transform="translate(-28.107 -220.273)"/></g></g><g transform="translate(504.859 31.727)"><g transform="translate(29.419 222.744)"><path class="c" d="M28.107,246.9c0-12.99,8.388-26.632,18.735-26.632S65.576,233.915,65.576,246.9s-8.388,20.411-18.734,20.411S28.107,259.9,28.107,246.9Z" transform="translate(-28.107 -220.273)"/><circle class="d" cx="11.608" cy="11.608" r="11.608" transform="translate(7.43 19.634)"/><path class="e" d="M48.381,249.231a13.408,13.408,0,0,1,5.059,2.719,1.945,1.945,0,0,0,3.137-1.94,9.516,9.516,0,0,0-17.663-2.27l-.043.081a1.166,1.166,0,0,0,1.424,1.626A13.4,13.4,0,0,1,48.381,249.231Z" transform="translate(-28.107 -220.273)"/></g></g></g></svg>