<svg xmlns="http://www.w3.org/2000/svg" xmlns:xlink="http://www.w3.org/1999/xlink" width="586.741" height="311.741" viewBox="0 0 586.741 311.741"><defs><style>.a{fill:none;}.b{clip-path:url(#a);}.c{fill:#50b083;}</style><clipPath id="a"><rect class="a" width="586.741" height="311.741"/></clipPath></defs><g class="b"><g transform="translate(-23.141 -220.273)"><g transform="translate(34.258 222.349)"><circle class="c" cx="4.369" cy="4.369" r="4.369" transform="translate(7.332)"/><g transform="translate(-28.258 -226.349)"><rect class="c" width="4.253" height="17.783" rx="2.126" transform="translate(38.537 235.663) rotate(35.312)"/><rect class="c" width="4.253" height="21.224" rx="2.126" transform="translate(40.193 249.715) rotate(28.64)"/><rect class="c" width="4.253" height="21.688" rx="2.126" transform="translate(53.704 268.449) rotate(155.509)"/><rect class="c" width="4.03" height="14.124" rx="2.015" transform="translate(54.177 244.825) rotate(135)"/><rect class="c" width="3.875" height="9.652" rx="1.938" transform="translate(53.152 252.725) rotate(-177.902)"/><path class="c" d="M46.822,253.34l-8.412.206-.6-16.5H46.3Z"/><path class="c" d="M38.691,236.522l1.369,2.692,4.574-2.165-.591-1.376Z"/></g></g></g><g transform="translate(42.859 -220.273)"><g transform="translate(34.258 222.349)"><circle class="c" cx="4.369" cy="4.369" r="4.369" transform="translate(7.332)"/><g transform="translate(-28.258 -226.349)"><rect class="c" width="4.253" height="17.783" rx="2.126" transform="translate(38.537 235.663) rotate(35.312)"/><rect class="c" width="4.253" height="21.224" rx="2.126" transform="translate(40.193 249.715) rotate(28.64)"/><rect class="c" width="4.253" height="21.688" rx="2.126" transform="translate(53.704 268.449) rotate(155.509)"/><rect class="c" width="4.03" height="14.124" rx="2.015" transform="translate(54.177 244.825) rotate(135)"/><rect class="c" width="3.875" height="9.652" rx="1.938" transform="translate(53.152 252.725) rotate(-177.902)"/><path class="c" d="M46.822,253.34l-8.412.206-.6-16.5H46.3Z"/><path class="c" d="M38.691,236.522l1.369,2.692,4.574-2.165-.591-1.376Z"/></g></g></g><g transform="translate(108.859 -220.273)"><g transform="translate(34.258 222.349)"><circle class="c" cx="4.369" cy="4.369" r="4.369" transform="translate(7.332)"/><g transform="translate(-28.258 -226.349)"><rect class="c" width="4.253" height="17.783" rx="2.126" transform="translate(38.537 235.663) rotate(35.312)"/><rect class="c" width="4.253" height="21.224" rx="2.126" transform="translate(40.193 249.715) rotate(28.64)"/><rect class="c" width="4.253" height="21.688" rx="2.126" transform="translate(53.704 268.449) rotate(155.509)"/><rect class="c" width="4.03" height="14.124" rx="2.015" transform="translate(54.177 244.825) rotate(135)"/><rect class="c" width="3.875" height="9.652" rx="1.938" transform="translate(53.152 252.725) rotate(-177.902)"/><path class="c" d="M46.822,253.34l-8.412.206-.6-16.5H46.3Z"/><path class="c" d="M38.691,236.522l1.369,2.692,4.574-2.165-.591-1.376Z"/></g></g></g><g transform="translate(174.859 -220.273)"><g transform="translate(34.258 222.349)"><circle class="c" cx="4.369" cy="4.369" r="4.369" transform="translate(7.332)"/><g transform="translate(-28.258 -226.349)"><rect class="c" width="4.253" height="17.783" rx="2.126" transform="translate(38.537 235.663) rotate(35.312)"/><rect class="c" width="4.253" height="21.224" rx="2.126" transform="translate(40.193 249.715) rotate(28.64)"/><rect class="c" width="4.253" height="21.688" rx="2.126" transform="translate(53.704 268.449) rotate(155.509)"/><rect class="c" width="4.03" height="14.124" rx="2.015" transform="translate(54.177 244.825) rotate(135)"/><rect class="c" width="3.875" height="9.652" rx="1.938" transform="translate(53.152 252.725) rotate(-177.902)"/><path class="c" d="M46.822,253.34l-8.412.206-.6-16.5H46.3Z"/><path class="c" d="M38.691,236.522l1.369,2.692,4.574-2.165-.591-1.376Z"/></g></g></g><g transform="translate(240.859 -220.273)"><g transform="translate(34.258 222.349)"><circle class="c" cx="4.369" cy="4.369" r="4.369" transform="translate(7.332)"/><g transform="translate(-28.258 -226.349)"><rect class="c" width="4.253" height="17.783" rx="2.126" transform="translate(38.537 235.663) rotate(35.312)"/><rect class="c" width="4.253" height="21.224" rx="2.126" transform="translate(40.193 249.715) rotate(28.64)"/><rect class="c" width="4.253" height="21.688" rx="2.126" transform="translate(53.704 268.449) rotate(155.509)"/><rect class="c" width="4.03" height="14.124" rx="2.015" transform="translate(54.177 244.825) rotate(135)"/><rect class="c" width="3.875" height="9.652" rx="1.938" transform="translate(53.152 252.725) rotate(-177.902)"/><path class="c" d="M46.822,253.34l-8.412.206-.6-16.5H46.3Z"/><path class="c" d="M38.691,236.522l1.369,2.692,4.574-2.165-.591-1.376Z"/></g></g></g><g transform="translate(306.859 -220.273)"><g transform="translate(34.258 222.349)"><circle class="c" cx="4.369" cy="4.369" r="4.369" transform="translate(7.332)"/><g transform="translate(-28.258 -226.349)"><rect class="c" width="4.253" height="17.783" rx="2.126" transform="translate(38.537 235.663) rotate(35.312)"/><rect class="c" width="4.253" height="21.224" rx="2.126" transform="translate(40.193 249.715) rotate(28.64)"/><rect class="c" width="4.253" height="21.688" rx="2.126" transform="translate(53.704 268.449) rotate(155.509)"/><rect class="c" width="4.03" height="14.124" rx="2.015" transform="translate(54.177 244.825) rotate(135)"/><rect class="c" width="3.875" height="9.652" rx="1.938" transform="translate(53.152 252.725) rotate(-177.902)"/><path class="c" d="M46.822,253.34l-8.412.206-.6-16.5H46.3Z"/><path class="c" d="M38.691,236.522l1.369,2.692,4.574-2.165-.591-1.376Z"/></g></g></g><g transform="translate(372.859 -220.273)"><g transform="translate(34.258 222.349)"><circle class="c" cx="4.369" cy="4.369" r="4.369" transform="translate(7.332)"/><g transform="translate(-28.258 -226.349)"><rect class="c" width="4.253" height="17.783" rx="2.126" transform="translate(38.537 235.663) rotate(35.312)"/><rect class="c" width="4.253" height="21.224" rx="2.126" transform="translate(40.193 249.715) rotate(28.64)"/><rect class="c" width="4.253" height="21.688" rx="2.126" transform="translate(53.704 268.449) rotate(155.509)"/><rect class="c" width="4.03" height="14.124" rx="2.015" transform="translate(54.177 244.825) rotate(135)"/><rect class="c" width="3.875" height="9.652" rx="1.938" transform="translate(53.152 252.725) rotate(-177.902)"/><path class="c" d="M46.822,253.34l-8.412.206-.6-16.5H46.3Z"/><path class="c" d="M38.691,236.522l1.369,2.692,4.574-2.165-.591-1.376Z"/></g></g></g><g transform="translate(438.859 -220.273)"><g transform="translate(34.258 222.349)"><circle class="c" cx="4.369" cy="4.369" r="4.369" transform="translate(7.332)"/><g transform="translate(-28.258 -226.349)"><rect class="c" width="4.253" height="17.783" rx="2.126" transform="translate(38.537 235.663) rotate(35.312)"/><rect class="c" width="4.253" height="21.224" rx="2.126" transform="translate(40.193 249.715) rotate(28.64)"/><rect class="c" width="4.253" height="21.688" rx="2.126" transform="translate(53.704 268.449) rotate(155.509)"/><rect class="c" width="4.03" height="14.124" rx="2.015" transform="translate(54.177 244.825) rotate(135)"/><rect class="c" width="3.875" height="9.652" rx="1.938" transform="translate(53.152 252.725) rotate(-177.902)"/><path class="c" d="M46.822,253.34l-8.412.206-.6-16.5H46.3Z"/><path class="c" d="M38.691,236.522l1.369,2.692,4.574-2.165-.591-1.376Z"/></g></g></g><g transform="translate(504.859 -220.273)"><g transform="translate(34.258 222.349)"><circle class="c" cx="4.369" cy="4.369" r="4.369" transform="translate(7.332)"/><g transform="translate(-28.258 -226.349)"><rect class="c" width="4.253" height="17.783" rx="2.126" transform="translate(38.537 235.663) rotate(35.312)"/><rect class="c" width="4.253" height="21.224" rx="2.126" transform="translate(40.193 249.715) rotate(28.64)"/><rect class="c" width="4.253" height="21.688" rx="2.126" transform="translate(53.704 268.449) rotate(155.509)"/><rect class="c" width="4.03" height="14.124" rx="2.015" transform="translate(54.177 244.825) rotate(135)"/><rect class="c" width="3.875" height="9.652" rx="1.938" transform="translate(53.152 252.725) rotate(-177.902)"/><path class="c" d="M46.822,253.34l-8.412.206-.6-16.5H46.3Z"/><path class="c" d="M38.691,236.522l1.369,2.692,4.574-2.165-.591-1.376Z"/></g></g></g><g transform="translate(-23.141 -157.273)"><g transform="translate(34.258 222.349)"><circle class="c" cx="4.369" cy="4.369" r="4.369" transform="translate(7.332)"/><g transform="translate(-28.258 -226.349)"><rect class="c" width="4.253" height="17.783" rx="2.126" transform="translate(38.537 235.663) rotate(35.312)"/><rect class="c" width="4.253" height="21.224" rx="2.126" transform="translate(40.193 249.715) rotate(28.64)"/><rect class="c" width="4.253" height="21.688" rx="2.126" transform="translate(53.704 268.449) rotate(155.509)"/><rect class="c" width="4.03" height="14.124" rx="2.015" transform="translate(54.177 244.825) rotate(135)"/><rect class="c" width="3.875" height="9.652" rx="1.938" transform="translate(53.152 252.725) rotate(-177.902)"/><path class="c" d="M46.822,253.34l-8.412.206-.6-16.5H46.3Z"/><path class="c" d="M38.691,236.522l1.369,2.692,4.574-2.165-.591-1.376Z"/></g></g></g><g transform="translate(42.859 -157.273)"><g transform="translate(34.258 222.349)"><circle class="c" cx="4.369" cy="4.369" r="4.369" transform="translate(7.332)"/><g transform="translate(-28.258 -226.349)"><rect class="c" width="4.253" height="17.783" rx="2.126" transform="translate(38.537 235.663) rotate(35.312)"/><rect class="c" width="4.253" height="21.224" rx="2.126" transform="translate(40.193 249.715) rotate(28.64)"/><rect class="c" width="4.253" height="21.688" rx="2.126" transform="translate(53.704 268.449) rotate(155.509)"/><rect class="c" width="4.03" height="14.124" rx="2.015" transform="translate(54.177 244.825) rotate(135)"/><rect class="c" width="3.875" height="9.652" rx="1.938" transform="translate(53.152 252.725) rotate(-177.902)"/><path class="c" d="M46.822,253.34l-8.412.206-.6-16.5H46.3Z"/><path class="c" d="M38.691,236.522l1.369,2.692,4.574-2.165-.591-1.376Z"/></g></g></g><g transform="translate(108.859 -157.273)"><g transform="translate(34.258 222.349)"><circle class="c" cx="4.369" cy="4.369" r="4.369" transform="translate(7.332)"/><g transform="translate(-28.258 -226.349)"><rect class="c" width="4.253" height="17.783" rx="2.126" transform="translate(38.537 235.663) rotate(35.312)"/><rect class="c" width="4.253" height="21.224" rx="2.126" transform="translate(40.193 249.715) rotate(28.64)"/><rect class="c" width="4.253" height="21.688" rx="2.126" transform="translate(53.704 268.449) rotate(155.509)"/><rect class="c" width="4.03" height="14.124" rx="2.015" transform="translate(54.177 244.825) rotate(135)"/><rect class="c" width="3.875" height="9.652" rx="1.938" transform="translate(53.152 252.725) rotate(-177.902)"/><path class="c" d="M46.822,253.34l-8.412.206-.6-16.5H46.3Z"/><path class="c" d="M38.691,236.522l1.369,2.692,4.574-2.165-.591-1.376Z"/></g></g></g><g transform="translate(174.859 -157.273)"><g transform="translate(34.258 222.349)"><circle class="c" cx="4.369" cy="4.369" r="4.369" transform="translate(7.332)"/><g transform="translate(-28.258 -226.349)"><rect class="c" width="4.253" height="17.783" rx="2.126" transform="translate(38.537 235.663) rotate(35.312)"/><rect class="c" width="4.253" height="21.224" rx="2.126" transform="translate(40.193 249.715) rotate(28.64)"/><rect class="c" width="4.253" height="21.688" rx="2.126" transform="translate(53.704 268.449) rotate(155.509)"/><rect class="c" width="4.03" height="14.124" rx="2.015" transform="translate(54.177 244.825) rotate(135)"/><rect class="c" width="3.875" height="9.652" rx="1.938" transform="translate(53.152 252.725) rotate(-177.902)"/><path class="c" d="M46.822,253.34l-8.412.206-.6-16.5H46.3Z"/><path class="c" d="M38.691,236.522l1.369,2.692,4.574-2.165-.591-1.376Z"/></g></g></g><g transform="translate(240.859 -157.273)"><g transform="translate(34.258 222.349)"><circle class="c" cx="4.369" cy="4.369" r="4.369" transform="translate(7.332)"/><g transform="translate(-28.258 -226.349)"><rect class="c" width="4.253" height="17.783" rx="2.126" transform="translate(38.537 235.663) rotate(35.312)"/><rect class="c" width="4.253" height="21.224" rx="2.126" transform="translate(40.193 249.715) rotate(28.64)"/><rect class="c" width="4.253" height="21.688" rx="2.126" transform="translate(53.704 268.449) rotate(155.509)"/><rect class="c" width="4.03" height="14.124" rx="2.015" transform="translate(54.177 244.825) rotate(135)"/><rect class="c" width="3.875" height="9.652" rx="1.938" transform="translate(53.152 252.725) rotate(-177.902)"/><path class="c" d="M46.822,253.34l-8.412.206-.6-16.5H46.3Z"/><path class="c" d="M38.691,236.522l1.369,2.692,4.574-2.165-.591-1.376Z"/></g></g></g><g transform="translate(306.859 -157.273)"><g transform="translate(34.258 222.349)"><circle class="c" cx="4.369" cy="4.369" r="4.369" transform="translate(7.332)"/><g transform="translate(-28.258 -226.349)"><rect class="c" width="4.253" height="17.783" rx="2.126" transform="translate(38.537 235.663) rotate(35.312)"/><rect class="c" width="4.253" height="21.224" rx="2.126" transform="translate(40.193 249.715) rotate(28.64)"/><rect class="c" width="4.253" height="21.688" rx="2.126" transform="translate(53.704 268.449) rotate(155.509)"/><rect class="c" width="4.03" height="14.124" rx="2.015" transform="translate(54.177 244.825) rotate(135)"/><rect class="c" width="3.875" height="9.652" rx="1.938" transform="translate(53.152 252.725) rotate(-177.902)"/><path class="c" d="M46.822,253.34l-8.412.206-.6-16.5H46.3Z"/><path class="c" d="M38.691,236.522l1.369,2.692,4.574-2.165-.591-1.376Z"/></g></g></g><g transform="translate(372.859 -157.273)"><g transform="translate(34.258 222.349)"><circle class="c" cx="4.369" cy="4.369" r="4.369" transform="translate(7.332)"/><g transform="translate(-28.258 -226.349)"><rect class="c" width="4.253" height="17.783" rx="2.126" transform="translate(38.537 235.663) rotate(35.312)"/><rect class="c" width="4.253" height="21.224" rx="2.126" transform="translate(40.193 249.715) rotate(28.64)"/><rect class="c" width="4.253" height="21.688" rx="2.126" transform="translate(53.704 268.449) rotate(155.509)"/><rect class="c" width="4.03" height="14.124" rx="2.015" transform="translate(54.177 244.825) rotate(135)"/><rect class="c" width="3.875" height="9.652" rx="1.938" transform="translate(53.152 252.725) rotate(-177.902)"/><path class="c" d="M46.822,253.34l-8.412.206-.6-16.5H46.3Z"/><path class="c" d="M38.691,236.522l1.369,2.692,4.574-2.165-.591-1.376Z"/></g></g></g><g transform="translate(438.859 -157.273)"><g transform="translate(34.258 222.349)"><circle class="c" cx="4.369" cy="4.369" r="4.369" transform="translate(7.332)"/><g transform="translate(-28.258 -226.349)"><rect class="c" width="4.253" height="17.783" rx="2.126" transform="translate(38.537 235.663) rotate(35.312)"/><rect class="c" width="4.253" height="21.224" rx="2.126" transform="translate(40.193 249.715) rotate(28.64)"/><rect class="c" width="4.253" height="21.688" rx="2.126" transform="translate(53.704 268.449) rotate(155.509)"/><rect class="c" width="4.03" height="14.124" rx="2.015" transform="translate(54.177 244.825) rotate(135)"/><rect class="c" width="3.875" height="9.652" rx="1.938" transform="translate(53.152 252.725) rotate(-177.902)"/><path class="c" d="M46.822,253.34l-8.412.206-.6-16.5H46.3Z"/><path class="c" d="M38.691,236.522l1.369,2.692,4.574-2.165-.591-1.376Z"/></g></g></g><g transform="translate(504.859 -157.273)"><g transform="translate(34.258 222.349)"><circle class="c" cx="4.369" cy="4.369" r="4.369" transform="translate(7.332)"/><g transform="translate(-28.258 -226.349)"><rect class="c" width="4.253" height="17.783" rx="2.126" transform="translate(38.537 235.663) rotate(35.312)"/><rect class="c" width="4.253" height="21.224" rx="2.126" transform="translate(40.193 249.715) rotate(28.64)"/><rect class="c" width="4.253" height="21.688" rx="2.126" transform="translate(53.704 268.449) rotate(155.509)"/><rect class="c" width="4.03" height="14.124" rx="2.015" transform="translate(54.177 244.825) rotate(135)"/><rect class="c" width="3.875" height="9.652" rx="1.938" transform="translate(53.152 252.725) rotate(-177.902)"/><path class="c" d="M46.822,253.34l-8.412.206-.6-16.5H46.3Z"/><path class="c" d="M38.691,236.522l1.369,2.692,4.574-2.165-.591-1.376Z"/></g></g></g><g transform="translate(-23.141 -94.273)"><g transform="translate(34.258 222.349)"><circle class="c" cx="4.369" cy="4.369" r="4.369" transform="translate(7.332)"/><g transform="translate(-28.258 -226.349)"><rect class="c" width="4.253" height="17.783" rx="2.126" transform="translate(38.537 235.663) rotate(35.312)"/><rect class="c" width="4.253" height="21.224" rx="2.126" transform="translate(40.193 249.715) rotate(28.64)"/><rect class="c" width="4.253" height="21.688" rx="2.126" transform="translate(53.704 268.449) rotate(155.509)"/><rect class="c" width="4.03" height="14.124" rx="2.015" transform="translate(54.177 244.825) rotate(135)"/><rect class="c" width="3.875" height="9.652" rx="1.938" transform="translate(53.152 252.725) rotate(-177.902)"/><path class="c" d="M46.822,253.34l-8.412.206-.6-16.5H46.3Z"/><path class="c" d="M38.691,236.522l1.369,2.692,4.574-2.165-.591-1.376Z"/></g></g></g><g transform="translate(42.859 -94.273)"><g transform="translate(34.258 222.349)"><circle class="c" cx="4.369" cy="4.369" r="4.369" transform="translate(7.332)"/><g transform="translate(-28.258 -226.349)"><rect class="c" width="4.253" height="17.783" rx="2.126" transform="translate(38.537 235.663) rotate(35.312)"/><rect class="c" width="4.253" height="21.224" rx="2.126" transform="translate(40.193 249.715) rotate(28.64)"/><rect class="c" width="4.253" height="21.688" rx="2.126" transform="translate(53.704 268.449) rotate(155.509)"/><rect class="c" width="4.03" height="14.124" rx="2.015" transform="translate(54.177 244.825) rotate(135)"/><rect class="c" width="3.875" height="9.652" rx="1.938" transform="translate(53.152 252.725) rotate(-177.902)"/><path class="c" d="M46.822,253.34l-8.412.206-.6-16.5H46.3Z"/><path class="c" d="M38.691,236.522l1.369,2.692,4.574-2.165-.591-1.376Z"/></g></g></g><g transform="translate(108.859 -94.273)"><g transform="translate(34.258 222.349)"><circle class="c" cx="4.369" cy="4.369" r="4.369" transform="translate(7.332)"/><g transform="translate(-28.258 -226.349)"><rect class="c" width="4.253" height="17.783" rx="2.126" transform="translate(38.537 235.663) rotate(35.312)"/><rect class="c" width="4.253" height="21.224" rx="2.126" transform="translate(40.193 249.715) rotate(28.64)"/><rect class="c" width="4.253" height="21.688" rx="2.126" transform="translate(53.704 268.449) rotate(155.509)"/><rect class="c" width="4.03" height="14.124" rx="2.015" transform="translate(54.177 244.825) rotate(135)"/><rect class="c" width="3.875" height="9.652" rx="1.938" transform="translate(53.152 252.725) rotate(-177.902)"/><path class="c" d="M46.822,253.34l-8.412.206-.6-16.5H46.3Z"/><path class="c" d="M38.691,236.522l1.369,2.692,4.574-2.165-.591-1.376Z"/></g></g></g><g transform="translate(174.859 -94.273)"><g transform="translate(34.258 222.349)"><circle class="c" cx="4.369" cy="4.369" r="4.369" transform="translate(7.332)"/><g transform="translate(-28.258 -226.349)"><rect class="c" width="4.253" height="17.783" rx="2.126" transform="translate(38.537 235.663) rotate(35.312)"/><rect class="c" width="4.253" height="21.224" rx="2.126" transform="translate(40.193 249.715) rotate(28.64)"/><rect class="c" width="4.253" height="21.688" rx="2.126" transform="translate(53.704 268.449) rotate(155.509)"/><rect class="c" width="4.03" height="14.124" rx="2.015" transform="translate(54.177 244.825) rotate(135)"/><rect class="c" width="3.875" height="9.652" rx="1.938" transform="translate(53.152 252.725) rotate(-177.902)"/><path class="c" d="M46.822,253.34l-8.412.206-.6-16.5H46.3Z"/><path class="c" d="M38.691,236.522l1.369,2.692,4.574-2.165-.591-1.376Z"/></g></g></g><g transform="translate(240.859 -94.273)"><g transform="translate(34.258 222.349)"><circle class="c" cx="4.369" cy="4.369" r="4.369" transform="translate(7.332)"/><g transform="translate(-28.258 -226.349)"><rect class="c" width="4.253" height="17.783" rx="2.126" transform="translate(38.537 235.663) rotate(35.312)"/><rect class="c" width="4.253" height="21.224" rx="2.126" transform="translate(40.193 249.715) rotate(28.64)"/><rect class="c" width="4.253" height="21.688" rx="2.126" transform="translate(53.704 268.449) rotate(155.509)"/><rect class="c" width="4.03" height="14.124" rx="2.015" transform="translate(54.177 244.825) rotate(135)"/><rect class="c" width="3.875" height="9.652" rx="1.938" transform="translate(53.152 252.725) rotate(-177.902)"/><path class="c" d="M46.822,253.34l-8.412.206-.6-16.5H46.3Z"/><path class="c" d="M38.691,236.522l1.369,2.692,4.574-2.165-.591-1.376Z"/></g></g></g><g transform="translate(306.859 -94.273)"><g transform="translate(34.258 222.349)"><circle class="c" cx="4.369" cy="4.369" r="4.369" transform="translate(7.332)"/><g transform="translate(-28.258 -226.349)"><rect class="c" width="4.253" height="17.783" rx="2.126" transform="translate(38.537 235.663) rotate(35.312)"/><rect class="c" width="4.253" height="21.224" rx="2.126" transform="translate(40.193 249.715) rotate(28.64)"/><rect class="c" width="4.253" height="21.688" rx="2.126" transform="translate(53.704 268.449) rotate(155.509)"/><rect class="c" width="4.03" height="14.124" rx="2.015" transform="translate(54.177 244.825) rotate(135)"/><rect class="c" width="3.875" height="9.652" rx="1.938" transform="translate(53.152 252.725) rotate(-177.902)"/><path class="c" d="M46.822,253.34l-8.412.206-.6-16.5H46.3Z"/><path class="c" d="M38.691,236.522l1.369,2.692,4.574-2.165-.591-1.376Z"/></g></g></g><g transform="translate(372.859 -94.273)"><g transform="translate(34.258 222.349)"><circle class="c" cx="4.369" cy="4.369" r="4.369" transform="translate(7.332)"/><g transform="translate(-28.258 -226.349)"><rect class="c" width="4.253" height="17.783" rx="2.126" transform="translate(38.537 235.663) rotate(35.312)"/><rect class="c" width="4.253" height="21.224" rx="2.126" transform="translate(40.193 249.715) rotate(28.64)"/><rect class="c" width="4.253" height="21.688" rx="2.126" transform="translate(53.704 268.449) rotate(155.509)"/><rect class="c" width="4.03" height="14.124" rx="2.015" transform="translate(54.177 244.825) rotate(135)"/><rect class="c" width="3.875" height="9.652" rx="1.938" transform="translate(53.152 252.725) rotate(-177.902)"/><path class="c" d="M46.822,253.34l-8.412.206-.6-16.5H46.3Z"/><path class="c" d="M38.691,236.522l1.369,2.692,4.574-2.165-.591-1.376Z"/></g></g></g><g transform="translate(438.859 -94.273)"><g transform="translate(34.258 222.349)"><circle class="c" cx="4.369" cy="4.369" r="4.369" transform="translate(7.332)"/><g transform="translate(-28.258 -226.349)"><rect class="c" width="4.253" height="17.783" rx="2.126" transform="translate(38.537 235.663) rotate(35.312)"/><rect class="c" width="4.253" height="21.224" rx="2.126" transform="translate(40.193 249.715) rotate(28.64)"/><rect class="c" width="4.253" height="21.688" rx="2.126" transform="translate(53.704 268.449) rotate(155.509)"/><rect class="c" width="4.03" height="14.124" rx="2.015" transform="translate(54.177 244.825) rotate(135)"/><rect class="c" width="3.875" height="9.652" rx="1.938" transform="translate(53.152 252.725) rotate(-177.902)"/><path class="c" d="M46.822,253.34l-8.412.206-.6-16.5H46.3Z"/><path class="c" d="M38.691,236.522l1.369,2.692,4.574-2.165-.591-1.376Z"/></g></g></g><g transform="translate(504.859 -94.273)"><g transform="translate(34.258 222.349)"><circle class="c" cx="4.369" cy="4.369" r="4.369" transform="translate(7.332)"/><g transform="translate(-28.258 -226.349)"><rect class="c" width="4.253" height="17.783" rx="2.126" transform="translate(38.537 235.663) rotate(35.312)"/><rect class="c" width="4.253" height="21.224" rx="2.126" transform="translate(40.193 249.715) rotate(28.64)"/><rect class="c" width="4.253" height="21.688" rx="2.126" transform="translate(53.704 268.449) rotate(155.509)"/><rect class="c" width="4.03" height="14.124" rx="2.015" transform="translate(54.177 244.825) rotate(135)"/><rect class="c" width="3.875" height="9.652" rx="1.938" transform="translate(53.152 252.725) rotate(-177.902)"/><path class="c" d="M46.822,253.34l-8.412.206-.6-16.5H46.3Z"/><path class="c" d="M38.691,236.522l1.369,2.692,4.574-2.165-.591-1.376Z"/></g></g></g><g transform="translate(-23.141 -31.273)"><g transform="translate(34.258 222.349)"><circle class="c" cx="4.369" cy="4.369" r="4.369" transform="translate(7.332)"/><g transform="translate(-28.258 -226.349)"><rect class="c" width="4.253" height="17.783" rx="2.126" transform="translate(38.537 235.663) rotate(35.312)"/><rect class="c" width="4.253" height="21.224" rx="2.126" transform="translate(40.193 249.715) rotate(28.64)"/><rect class="c" width="4.253" height="21.688" rx="2.126" transform="translate(53.704 268.449) rotate(155.509)"/><rect class="c" width="4.03" height="14.124" rx="2.015" transform="translate(54.177 244.825) rotate(135)"/><rect class="c" width="3.875" height="9.652" rx="1.938" transform="translate(53.152 252.725) rotate(-177.902)"/><path class="c" d="M46.822,253.34l-8.412.206-.6-16.5H46.3Z"/><path class="c" d="M38.691,236.522l1.369,2.692,4.574-2.165-.591-1.376Z"/></g></g></g><g transform="translate(42.859 -31.273)"><g transform="translate(34.258 222.349)"><circle class="c" cx="4.369" cy="4.369" r="4.369" transform="translate(7.332)"/><g transform="translate(-28.258 -226.349)"><rect class="c" width="4.253" height="17.783" rx="2.126" transform="translate(38.537 235.663) rotate(35.312)"/><rect class="c" width="4.253" height="21.224" rx="2.126" transform="translate(40.193 249.715) rotate(28.64)"/><rect class="c" width="4.253" height="21.688" rx="2.126" transform="translate(53.704 268.449) rotate(155.509)"/><rect class="c" width="4.03" height="14.124" rx="2.015" transform="translate(54.177 244.825) rotate(135)"/><rect class="c" width="3.875" height="9.652" rx="1.938" transform="translate(53.152 252.725) rotate(-177.902)"/><path class="c" d="M46.822,253.34l-8.412.206-.6-16.5H46.3Z"/><path class="c" d="M38.691,236.522l1.369,2.692,4.574-2.165-.591-1.376Z"/></g></g></g><g transform="translate(108.859 -31.273)"><g transform="translate(34.258 222.349)"><circle class="c" cx="4.369" cy="4.369" r="4.369" transform="translate(7.332)"/><g transform="translate(-28.258 -226.349)"><rect class="c" width="4.253" height="17.783" rx="2.126" transform="translate(38.537 235.663) rotate(35.312)"/><rect class="c" width="4.253" height="21.224" rx="2.126" transform="translate(40.193 249.715) rotate(28.64)"/><rect class="c" width="4.253" height="21.688" rx="2.126" transform="translate(53.704 268.449) rotate(155.509)"/><rect class="c" width="4.03" height="14.124" rx="2.015" transform="translate(54.177 244.825) rotate(135)"/><rect class="c" width="3.875" height="9.652" rx="1.938" transform="translate(53.152 252.725) rotate(-177.902)"/><path class="c" d="M46.822,253.34l-8.412.206-.6-16.5H46.3Z"/><path class="c" d="M38.691,236.522l1.369,2.692,4.574-2.165-.591-1.376Z"/></g></g></g><g transform="translate(174.859 -31.273)"><g transform="translate(34.258 222.349)"><circle class="c" cx="4.369" cy="4.369" r="4.369" transform="translate(7.332)"/><g transform="translate(-28.258 -226.349)"><rect class="c" width="4.253" height="17.783" rx="2.126" transform="translate(38.537 235.663) rotate(35.312)"/><rect class="c" width="4.253" height="21.224" rx="2.126" transform="translate(40.193 249.715) rotate(28.64)"/><rect class="c" width="4.253" height="21.688" rx="2.126" transform="translate(53.704 268.449) rotate(155.509)"/><rect class="c" width="4.03" height="14.124" rx="2.015" transform="translate(54.177 244.825) rotate(135)"/><rect class="c" width="3.875" height="9.652" rx="1.938" transform="translate(53.152 252.725) rotate(-177.902)"/><path class="c" d="M46.822,253.34l-8.412.206-.6-16.5H46.3Z"/><path class="c" d="M38.691,236.522l1.369,2.692,4.574-2.165-.591-1.376Z"/></g></g></g><g transform="translate(240.859 -31.273)"><g transform="translate(34.258 222.349)"><circle class="c" cx="4.369" cy="4.369" r="4.369" transform="translate(7.332)"/><g transform="translate(-28.258 -226.349)"><rect class="c" width="4.253" height="17.783" rx="2.126" transform="translate(38.537 235.663) rotate(35.312)"/><rect class="c" width="4.253" height="21.224" rx="2.126" transform="translate(40.193 249.715) rotate(28.64)"/><rect class="c" width="4.253" height="21.688" rx="2.126" transform="translate(53.704 268.449) rotate(155.509)"/><rect class="c" width="4.03" height="14.124" rx="2.015" transform="translate(54.177 244.825) rotate(135)"/><rect class="c" width="3.875" height="9.652" rx="1.938" transform="translate(53.152 252.725) rotate(-177.902)"/><path class="c" d="M46.822,253.34l-8.412.206-.6-16.5H46.3Z"/><path class="c" d="M38.691,236.522l1.369,2.692,4.574-2.165-.591-1.376Z"/></g></g></g><g transform="translate(306.859 -31.273)"><g transform="translate(34.258 222.349)"><circle class="c" cx="4.369" cy="4.369" r="4.369" transform="translate(7.332)"/><g transform="translate(-28.258 -226.349)"><rect class="c" width="4.253" height="17.783" rx="2.126" transform="translate(38.537 235.663) rotate(35.312)"/><rect class="c" width="4.253" height="21.224" rx="2.126" transform="translate(40.193 249.715) rotate(28.64)"/><rect class="c" width="4.253" height="21.688" rx="2.126" transform="translate(53.704 268.449) rotate(155.509)"/><rect class="c" width="4.03" height="14.124" rx="2.015" transform="translate(54.177 244.825) rotate(135)"/><rect class="c" width="3.875" height="9.652" rx="1.938" transform="translate(53.152 252.725) rotate(-177.902)"/><path class="c" d="M46.822,253.34l-8.412.206-.6-16.5H46.3Z"/><path class="c" d="M38.691,236.522l1.369,2.692,4.574-2.165-.591-1.376Z"/></g></g></g><g transform="translate(372.859 -31.273)"><g transform="translate(34.258 222.349)"><circle class="c" cx="4.369" cy="4.369" r="4.369" transform="translate(7.332)"/><g transform="translate(-28.258 -226.349)"><rect class="c" width="4.253" height="17.783" rx="2.126" transform="translate(38.537 235.663) rotate(35.312)"/><rect class="c" width="4.253" height="21.224" rx="2.126" transform="translate(40.193 249.715) rotate(28.64)"/><rect class="c" width="4.253" height="21.688" rx="2.126" transform="translate(53.704 268.449) rotate(155.509)"/><rect class="c" width="4.03" height="14.124" rx="2.015" transform="translate(54.177 244.825) rotate(135)"/><rect class="c" width="3.875" height="9.652" rx="1.938" transform="translate(53.152 252.725) rotate(-177.902)"/><path class="c" d="M46.822,253.34l-8.412.206-.6-16.5H46.3Z"/><path class="c" d="M38.691,236.522l1.369,2.692,4.574-2.165-.591-1.376Z"/></g></g></g><g transform="translate(438.859 -31.273)"><g transform="translate(34.258 222.349)"><circle class="c" cx="4.369" cy="4.369" r="4.369" transform="translate(7.332)"/><g transform="translate(-28.258 -226.349)"><rect class="c" width="4.253" height="17.783" rx="2.126" transform="translate(38.537 235.663) rotate(35.312)"/><rect class="c" width="4.253" height="21.224" rx="2.126" transform="translate(40.193 249.715) rotate(28.64)"/><rect class="c" width="4.253" height="21.688" rx="2.126" transform="translate(53.704 268.449) rotate(155.509)"/><rect class="c" width="4.03" height="14.124" rx="2.015" transform="translate(54.177 244.825) rotate(135)"/><rect class="c" width="3.875" height="9.652" rx="1.938" transform="translate(53.152 252.725) rotate(-177.902)"/><path class="c" d="M46.822,253.34l-8.412.206-.6-16.5H46.3Z"/><path class="c" d="M38.691,236.522l1.369,2.692,4.574-2.165-.591-1.376Z"/></g></g></g><g transform="translate(504.859 -31.273)"><g transform="translate(34.258 222.349)"><circle class="c" cx="4.369" cy="4.369" r="4.369" transform="translate(7.332)"/><g transform="translate(-28.258 -226.349)"><rect class="c" width="4.253" height="17.783" rx="2.126" transform="translate(38.537 235.663) rotate(35.312)"/><rect class="c" width="4.253" height="21.224" rx="2.126" transform="translate(40.193 249.715) rotate(28.64)"/><rect class="c" width="4.253" height="21.688" rx="2.126" transform="translate(53.704 268.449) rotate(155.509)"/><rect class="c" width="4.03" height="14.124" rx="2.015" transform="translate(54.177 244.825) rotate(135)"/><rect class="c" width="3.875" height="9.652" rx="1.938" transform="translate(53.152 252.725) rotate(-177.902)"/><path class="c" d="M46.822,253.34l-8.412.206-.6-16.5H46.3Z"/><path class="c" d="M38.691,236.522l1.369,2.692,4.574-2.165-.591-1.376Z"/></g></g></g><g transform="translate(-23.141 31.727)"><g transform="translate(34.258 222.349)"><circle class="c" cx="4.369" cy="4.369" r="4.369" transform="translate(7.332)"/><g transform="translate(-28.258 -226.349)"><rect class="c" width="4.253" height="17.783" rx="2.126" transform="translate(38.537 235.663) rotate(35.312)"/><rect class="c" width="4.253" height="21.224" rx="2.126" transform="translate(40.193 249.715) rotate(28.64)"/><rect class="c" width="4.253" height="21.688" rx="2.126" transform="translate(53.704 268.449) rotate(155.509)"/><rect class="c" width="4.03" height="14.124" rx="2.015" transform="translate(54.177 244.825) rotate(135)"/><rect class="c" width="3.875" height="9.652" rx="1.938" transform="translate(53.152 252.725) rotate(-177.902)"/><path class="c" d="M46.822,253.34l-8.412.206-.6-16.5H46.3Z"/><path class="c" d="M38.691,236.522l1.369,2.692,4.574-2.165-.591-1.376Z"/></g></g></g><g transform="translate(42.859 31.727)"><g transform="translate(34.258 222.349)"><circle class="c" cx="4.369" cy="4.369" r="4.369" transform="translate(7.332)"/><g transform="translate(-28.258 -226.349)"><rect class="c" width="4.253" height="17.783" rx="2.126" transform="translate(38.537 235.663) rotate(35.312)"/><rect class="c" width="4.253" height="21.224" rx="2.126" transform="translate(40.193 249.715) rotate(28.64)"/><rect class="c" width="4.253" height="21.688" rx="2.126" transform="translate(53.704 268.449) rotate(155.509)"/><rect class="c" width="4.03" height="14.124" rx="2.015" transform="translate(54.177 244.825) rotate(135)"/><rect class="c" width="3.875" height="9.652" rx="1.938" transform="translate(53.152 252.725) rotate(-177.902)"/><path class="c" d="M46.822,253.34l-8.412.206-.6-16.5H46.3Z"/><path class="c" d="M38.691,236.522l1.369,2.692,4.574-2.165-.591-1.376Z"/></g></g></g><g transform="translate(108.859 31.727)"><g transform="translate(34.258 222.349)"><circle class="c" cx="4.369" cy="4.369" r="4.369" transform="translate(7.332)"/><g transform="translate(-28.258 -226.349)"><rect class="c" width="4.253" height="17.783" rx="2.126" transform="translate(38.537 235.663) rotate(35.312)"/><rect class="c" width="4.253" height="21.224" rx="2.126" transform="translate(40.193 249.715) rotate(28.64)"/><rect class="c" width="4.253" height="21.688" rx="2.126" transform="translate(53.704 268.449) rotate(155.509)"/><rect class="c" width="4.03" height="14.124" rx="2.015" transform="translate(54.177 244.825) rotate(135)"/><rect class="c" width="3.875" height="9.652" rx="1.938" transform="translate(53.152 252.725) rotate(-177.902)"/><path class="c" d="M46.822,253.34l-8.412.206-.6-16.5H46.3Z"/><path class="c" d="M38.691,236.522l1.369,2.692,4.574-2.165-.591-1.376Z"/></g></g></g><g transform="translate(174.859 31.727)"><g transform="translate(34.258 222.349)"><circle class="c" cx="4.369" cy="4.369" r="4.369" transform="translate(7.332)"/><g transform="translate(-28.258 -226.349)"><rect class="c" width="4.253" height="17.783" rx="2.126" transform="translate(38.537 235.663) rotate(35.312)"/><rect class="c" width="4.253" height="21.224" rx="2.126" transform="translate(40.193 249.715) rotate(28.64)"/><rect class="c" width="4.253" height="21.688" rx="2.126" transform="translate(53.704 268.449) rotate(155.509)"/><rect class="c" width="4.03" height="14.124" rx="2.015" transform="translate(54.177 244.825) rotate(135)"/><rect class="c" width="3.875" height="9.652" rx="1.938" transform="translate(53.152 252.725) rotate(-177.902)"/><path class="c" d="M46.822,253.34l-8.412.206-.6-16.5H46.3Z"/><path class="c" d="M38.691,236.522l1.369,2.692,4.574-2.165-.591-1.376Z"/></g></g></g><g transform="translate(240.859 31.727)"><g transform="translate(34.258 222.349)"><circle class="c" cx="4.369" cy="4.369" r="4.369" transform="translate(7.332)"/><g transform="translate(-28.258 -226.349)"><rect class="c" width="4.253" height="17.783" rx="2.126" transform="translate(38.537 235.663) rotate(35.312)"/><rect class="c" width="4.253" height="21.224" rx="2.126" transform="translate(40.193 249.715) rotate(28.64)"/><rect class="c" width="4.253" height="21.688" rx="2.126" transform="translate(53.704 268.449) rotate(155.509)"/><rect class="c" width="4.03" height="14.124" rx="2.015" transform="translate(54.177 244.825) rotate(135)"/><rect class="c" width="3.875" height="9.652" rx="1.938" transform="translate(53.152 252.725) rotate(-177.902)"/><path class="c" d="M46.822,253.34l-8.412.206-.6-16.5H46.3Z"/><path class="c" d="M38.691,236.522l1.369,2.692,4.574-2.165-.591-1.376Z"/></g></g></g><g transform="translate(306.859 31.727)"><g transform="translate(34.258 222.349)"><circle class="c" cx="4.369" cy="4.369" r="4.369" transform="translate(7.332)"/><g transform="translate(-28.258 -226.349)"><rect class="c" width="4.253" height="17.783" rx="2.126" transform="translate(38.537 235.663) rotate(35.312)"/><rect class="c" width="4.253" height="21.224" rx="2.126" transform="translate(40.193 249.715) rotate(28.64)"/><rect class="c" width="4.253" height="21.688" rx="2.126" transform="translate(53.704 268.449) rotate(155.509)"/><rect class="c" width="4.03" height="14.124" rx="2.015" transform="translate(54.177 244.825) rotate(135)"/><rect class="c" width="3.875" height="9.652" rx="1.938" transform="translate(53.152 252.725) rotate(-177.902)"/><path class="c" d="M46.822,253.34l-8.412.206-.6-16.5H46.3Z"/><path class="c" d="M38.691,236.522l1.369,2.692,4.574-2.165-.591-1.376Z"/></g></g></g><g transform="translate(372.859 31.727)"><g transform="translate(34.258 222.349)"><circle class="c" cx="4.369" cy="4.369" r="4.369" transform="translate(7.332)"/><g transform="translate(-28.258 -226.349)"><rect class="c" width="4.253" height="17.783" rx="2.126" transform="translate(38.537 235.663) rotate(35.312)"/><rect class="c" width="4.253" height="21.224" rx="2.126" transform="translate(40.193 249.715) rotate(28.64)"/><rect class="c" width="4.253" height="21.688" rx="2.126" transform="translate(53.704 268.449) rotate(155.509)"/><rect class="c" width="4.03" height="14.124" rx="2.015" transform="translate(54.177 244.825) rotate(135)"/><rect class="c" width="3.875" height="9.652" rx="1.938" transform="translate(53.152 252.725) rotate(-177.902)"/><path class="c" d="M46.822,253.34l-8.412.206-.6-16.5H46.3Z"/><path class="c" d="M38.691,236.522l1.369,2.692,4.574-2.165-.591-1.376Z"/></g></g></g><g transform="translate(438.859 31.727)"><g transform="translate(34.258 222.349)"><circle class="c" cx="4.369" cy="4.369" r="4.369" transform="translate(7.332)"/><g transform="translate(-28.258 -226.349)"><rect class="c" width="4.253" height="17.783" rx="2.126" transform="translate(38.537 235.663) rotate(35.312)"/><rect class="c" width="4.253" height="21.224" rx="2.126" transform="translate(40.193 249.715) rotate(28.64)"/><rect class="c" width="4.253" height="21.688" rx="2.126" transform="translate(53.704 268.449) rotate(155.509)"/><rect class="c" width="4.03" height="14.124" rx="2.015" transform="translate(54.177 244.825) rotate(135)"/><rect class="c" width="3.875" height="9.652" rx="1.938" transform="translate(53.152 252.725) rotate(-177.902)"/><path class="c" d="M46.822,253.34l-8.412.206-.6-16.5H46.3Z"/><path class="c" d="M38.691,236.522l1.369,2.692,4.574-2.165-.591-1.376Z"/></g></g></g><g transform="translate(504.859 31.727)"><g transform="translate(34.258 222.349)"><circle class="c" cx="4.369" cy="4.369" r="4.369" transform="translate(7.332)"/><g transform="translate(-28.258 -226.349)"><rect class="c" width="4.253" height="17.783" rx="2.126" transform="translate(38.537 235.663) rotate(35.312)"/><rect class="c" width="4.253" height="21.224" rx="2.126" transform="translate(40.193 249.715) rotate(28.64)"/><rect class="c" width="4.253" height="21.688" rx="2.126" transform="translate(53.704 268.449) rotate(155.509)"/><rect class="c" width="4.03" height="14.124" rx="2.015" transform="translate(54.177 244.825) rotate(135)"/><rect class="c" width="3.875" height="9.652" rx="1.938" transform="translate(53.152 252.725) rotate(-177.902)"/><path class="c" d="M46.822,253.34l-8.412.206-.6-16.5H46.3Z"/><path class="c" d="M38.691,236.522l1.369,2.692,4.574-2.165-.591-1.376Z"/></g></g></g></g></svg>