<svg xmlns="http://www.w3.org/2000/svg" xmlns:xlink="http://www.w3.org/1999/xlink" width="576.741" height="311.741" viewBox="0 0 576.741 311.741"><defs><style>.a{fill:none;}.b{clip-path:url(#a);}.c{fill:#f5664e;}</style><clipPath id="a"><rect class="a" width="576.741" height="311.741"/></clipPath></defs><g class="b"><g transform="translate(-23.141 -220.273)"><g transform="translate(-127.165 -2.975)"><circle class="c" cx="4.51" cy="4.51" r="4.51" transform="translate(168.474 224.718)"/><rect class="c" width="3.395" height="17.006" rx="1.698" transform="translate(164.584 236.018)"/><rect class="c" width="3.395" height="17.006" rx="1.698" transform="translate(178.486 236.018)"/><rect class="c" width="4.39" height="21.911" rx="2.195" transform="translate(168.455 248.794)"/><rect class="c" width="4.39" height="21.911" rx="2.195" transform="translate(173.619 248.794)"/><rect class="c" width="9.555" height="17.59" transform="translate(168.455 235.435)"/><rect class="c" width="4.896" height="17.297" rx="2.448" transform="translate(181.881 234.953) rotate(90)"/></g></g><g transform="translate(42.859 -220.273)"><g transform="translate(-127.165 -2.975)"><circle class="c" cx="4.51" cy="4.51" r="4.51" transform="translate(168.474 224.718)"/><rect class="c" width="3.395" height="17.006" rx="1.698" transform="translate(164.584 236.018)"/><rect class="c" width="3.395" height="17.006" rx="1.698" transform="translate(178.486 236.018)"/><rect class="c" width="4.39" height="21.911" rx="2.195" transform="translate(168.455 248.794)"/><rect class="c" width="4.39" height="21.911" rx="2.195" transform="translate(173.619 248.794)"/><rect class="c" width="9.555" height="17.59" transform="translate(168.455 235.435)"/><rect class="c" width="4.896" height="17.297" rx="2.448" transform="translate(181.881 234.953) rotate(90)"/></g></g><g transform="translate(108.859 -220.273)"><g transform="translate(-127.165 -2.975)"><circle class="c" cx="4.51" cy="4.51" r="4.51" transform="translate(168.474 224.718)"/><rect class="c" width="3.395" height="17.006" rx="1.698" transform="translate(164.584 236.018)"/><rect class="c" width="3.395" height="17.006" rx="1.698" transform="translate(178.486 236.018)"/><rect class="c" width="4.39" height="21.911" rx="2.195" transform="translate(168.455 248.794)"/><rect class="c" width="4.39" height="21.911" rx="2.195" transform="translate(173.619 248.794)"/><rect class="c" width="9.555" height="17.59" transform="translate(168.455 235.435)"/><rect class="c" width="4.896" height="17.297" rx="2.448" transform="translate(181.881 234.953) rotate(90)"/></g></g><g transform="translate(174.859 -220.273)"><g transform="translate(-127.165 -2.975)"><circle class="c" cx="4.51" cy="4.51" r="4.51" transform="translate(168.474 224.718)"/><rect class="c" width="3.395" height="17.006" rx="1.698" transform="translate(164.584 236.018)"/><rect class="c" width="3.395" height="17.006" rx="1.698" transform="translate(178.486 236.018)"/><rect class="c" width="4.39" height="21.911" rx="2.195" transform="translate(168.455 248.794)"/><rect class="c" width="4.39" height="21.911" rx="2.195" transform="translate(173.619 248.794)"/><rect class="c" width="9.555" height="17.59" transform="translate(168.455 235.435)"/><rect class="c" width="4.896" height="17.297" rx="2.448" transform="translate(181.881 234.953) rotate(90)"/></g></g><g transform="translate(240.859 -220.273)"><g transform="translate(-127.165 -2.975)"><circle class="c" cx="4.51" cy="4.51" r="4.51" transform="translate(168.474 224.718)"/><rect class="c" width="3.395" height="17.006" rx="1.698" transform="translate(164.584 236.018)"/><rect class="c" width="3.395" height="17.006" rx="1.698" transform="translate(178.486 236.018)"/><rect class="c" width="4.39" height="21.911" rx="2.195" transform="translate(168.455 248.794)"/><rect class="c" width="4.39" height="21.911" rx="2.195" transform="translate(173.619 248.794)"/><rect class="c" width="9.555" height="17.59" transform="translate(168.455 235.435)"/><rect class="c" width="4.896" height="17.297" rx="2.448" transform="translate(181.881 234.953) rotate(90)"/></g></g><g transform="translate(306.859 -220.273)"><g transform="translate(-127.165 -2.975)"><circle class="c" cx="4.51" cy="4.51" r="4.51" transform="translate(168.474 224.718)"/><rect class="c" width="3.395" height="17.006" rx="1.698" transform="translate(164.584 236.018)"/><rect class="c" width="3.395" height="17.006" rx="1.698" transform="translate(178.486 236.018)"/><rect class="c" width="4.39" height="21.911" rx="2.195" transform="translate(168.455 248.794)"/><rect class="c" width="4.39" height="21.911" rx="2.195" transform="translate(173.619 248.794)"/><rect class="c" width="9.555" height="17.59" transform="translate(168.455 235.435)"/><rect class="c" width="4.896" height="17.297" rx="2.448" transform="translate(181.881 234.953) rotate(90)"/></g></g><g transform="translate(372.859 -220.273)"><g transform="translate(-127.165 -2.975)"><circle class="c" cx="4.51" cy="4.51" r="4.51" transform="translate(168.474 224.718)"/><rect class="c" width="3.395" height="17.006" rx="1.698" transform="translate(164.584 236.018)"/><rect class="c" width="3.395" height="17.006" rx="1.698" transform="translate(178.486 236.018)"/><rect class="c" width="4.39" height="21.911" rx="2.195" transform="translate(168.455 248.794)"/><rect class="c" width="4.39" height="21.911" rx="2.195" transform="translate(173.619 248.794)"/><rect class="c" width="9.555" height="17.59" transform="translate(168.455 235.435)"/><rect class="c" width="4.896" height="17.297" rx="2.448" transform="translate(181.881 234.953) rotate(90)"/></g></g><g transform="translate(438.859 -220.273)"><g transform="translate(-127.165 -2.975)"><circle class="c" cx="4.51" cy="4.51" r="4.51" transform="translate(168.474 224.718)"/><rect class="c" width="3.395" height="17.006" rx="1.698" transform="translate(164.584 236.018)"/><rect class="c" width="3.395" height="17.006" rx="1.698" transform="translate(178.486 236.018)"/><rect class="c" width="4.39" height="21.911" rx="2.195" transform="translate(168.455 248.794)"/><rect class="c" width="4.39" height="21.911" rx="2.195" transform="translate(173.619 248.794)"/><rect class="c" width="9.555" height="17.59" transform="translate(168.455 235.435)"/><rect class="c" width="4.896" height="17.297" rx="2.448" transform="translate(181.881 234.953) rotate(90)"/></g></g><g transform="translate(504.859 -220.273)"><g transform="translate(-127.165 -2.975)"><circle class="c" cx="4.51" cy="4.51" r="4.51" transform="translate(168.474 224.718)"/><rect class="c" width="3.395" height="17.006" rx="1.698" transform="translate(164.584 236.018)"/><rect class="c" width="3.395" height="17.006" rx="1.698" transform="translate(178.486 236.018)"/><rect class="c" width="4.39" height="21.911" rx="2.195" transform="translate(168.455 248.794)"/><rect class="c" width="4.39" height="21.911" rx="2.195" transform="translate(173.619 248.794)"/><rect class="c" width="9.555" height="17.59" transform="translate(168.455 235.435)"/><rect class="c" width="4.896" height="17.297" rx="2.448" transform="translate(181.881 234.953) rotate(90)"/></g></g><g transform="translate(-23.141 -157.273)"><g transform="translate(-127.165 -2.975)"><circle class="c" cx="4.51" cy="4.51" r="4.51" transform="translate(168.474 224.718)"/><rect class="c" width="3.395" height="17.006" rx="1.698" transform="translate(164.584 236.018)"/><rect class="c" width="3.395" height="17.006" rx="1.698" transform="translate(178.486 236.018)"/><rect class="c" width="4.39" height="21.911" rx="2.195" transform="translate(168.455 248.794)"/><rect class="c" width="4.39" height="21.911" rx="2.195" transform="translate(173.619 248.794)"/><rect class="c" width="9.555" height="17.59" transform="translate(168.455 235.435)"/><rect class="c" width="4.896" height="17.297" rx="2.448" transform="translate(181.881 234.953) rotate(90)"/></g></g><g transform="translate(42.859 -157.273)"><g transform="translate(-127.165 -2.975)"><circle class="c" cx="4.51" cy="4.51" r="4.51" transform="translate(168.474 224.718)"/><rect class="c" width="3.395" height="17.006" rx="1.698" transform="translate(164.584 236.018)"/><rect class="c" width="3.395" height="17.006" rx="1.698" transform="translate(178.486 236.018)"/><rect class="c" width="4.39" height="21.911" rx="2.195" transform="translate(168.455 248.794)"/><rect class="c" width="4.39" height="21.911" rx="2.195" transform="translate(173.619 248.794)"/><rect class="c" width="9.555" height="17.59" transform="translate(168.455 235.435)"/><rect class="c" width="4.896" height="17.297" rx="2.448" transform="translate(181.881 234.953) rotate(90)"/></g></g><g transform="translate(108.859 -157.273)"><g transform="translate(-127.165 -2.975)"><circle class="c" cx="4.51" cy="4.51" r="4.51" transform="translate(168.474 224.718)"/><rect class="c" width="3.395" height="17.006" rx="1.698" transform="translate(164.584 236.018)"/><rect class="c" width="3.395" height="17.006" rx="1.698" transform="translate(178.486 236.018)"/><rect class="c" width="4.39" height="21.911" rx="2.195" transform="translate(168.455 248.794)"/><rect class="c" width="4.39" height="21.911" rx="2.195" transform="translate(173.619 248.794)"/><rect class="c" width="9.555" height="17.59" transform="translate(168.455 235.435)"/><rect class="c" width="4.896" height="17.297" rx="2.448" transform="translate(181.881 234.953) rotate(90)"/></g></g><g transform="translate(174.859 -157.273)"><g transform="translate(-127.165 -2.975)"><circle class="c" cx="4.51" cy="4.51" r="4.51" transform="translate(168.474 224.718)"/><rect class="c" width="3.395" height="17.006" rx="1.698" transform="translate(164.584 236.018)"/><rect class="c" width="3.395" height="17.006" rx="1.698" transform="translate(178.486 236.018)"/><rect class="c" width="4.39" height="21.911" rx="2.195" transform="translate(168.455 248.794)"/><rect class="c" width="4.39" height="21.911" rx="2.195" transform="translate(173.619 248.794)"/><rect class="c" width="9.555" height="17.59" transform="translate(168.455 235.435)"/><rect class="c" width="4.896" height="17.297" rx="2.448" transform="translate(181.881 234.953) rotate(90)"/></g></g><g transform="translate(240.859 -157.273)"><g transform="translate(-127.165 -2.975)"><circle class="c" cx="4.51" cy="4.51" r="4.51" transform="translate(168.474 224.718)"/><rect class="c" width="3.395" height="17.006" rx="1.698" transform="translate(164.584 236.018)"/><rect class="c" width="3.395" height="17.006" rx="1.698" transform="translate(178.486 236.018)"/><rect class="c" width="4.39" height="21.911" rx="2.195" transform="translate(168.455 248.794)"/><rect class="c" width="4.39" height="21.911" rx="2.195" transform="translate(173.619 248.794)"/><rect class="c" width="9.555" height="17.59" transform="translate(168.455 235.435)"/><rect class="c" width="4.896" height="17.297" rx="2.448" transform="translate(181.881 234.953) rotate(90)"/></g></g><g transform="translate(306.859 -157.273)"><g transform="translate(-127.165 -2.975)"><circle class="c" cx="4.51" cy="4.51" r="4.51" transform="translate(168.474 224.718)"/><rect class="c" width="3.395" height="17.006" rx="1.698" transform="translate(164.584 236.018)"/><rect class="c" width="3.395" height="17.006" rx="1.698" transform="translate(178.486 236.018)"/><rect class="c" width="4.39" height="21.911" rx="2.195" transform="translate(168.455 248.794)"/><rect class="c" width="4.39" height="21.911" rx="2.195" transform="translate(173.619 248.794)"/><rect class="c" width="9.555" height="17.59" transform="translate(168.455 235.435)"/><rect class="c" width="4.896" height="17.297" rx="2.448" transform="translate(181.881 234.953) rotate(90)"/></g></g><g transform="translate(372.859 -157.273)"><g transform="translate(-127.165 -2.975)"><circle class="c" cx="4.51" cy="4.51" r="4.51" transform="translate(168.474 224.718)"/><rect class="c" width="3.395" height="17.006" rx="1.698" transform="translate(164.584 236.018)"/><rect class="c" width="3.395" height="17.006" rx="1.698" transform="translate(178.486 236.018)"/><rect class="c" width="4.39" height="21.911" rx="2.195" transform="translate(168.455 248.794)"/><rect class="c" width="4.39" height="21.911" rx="2.195" transform="translate(173.619 248.794)"/><rect class="c" width="9.555" height="17.59" transform="translate(168.455 235.435)"/><rect class="c" width="4.896" height="17.297" rx="2.448" transform="translate(181.881 234.953) rotate(90)"/></g></g><g transform="translate(438.859 -157.273)"><g transform="translate(-127.165 -2.975)"><circle class="c" cx="4.51" cy="4.51" r="4.51" transform="translate(168.474 224.718)"/><rect class="c" width="3.395" height="17.006" rx="1.698" transform="translate(164.584 236.018)"/><rect class="c" width="3.395" height="17.006" rx="1.698" transform="translate(178.486 236.018)"/><rect class="c" width="4.39" height="21.911" rx="2.195" transform="translate(168.455 248.794)"/><rect class="c" width="4.39" height="21.911" rx="2.195" transform="translate(173.619 248.794)"/><rect class="c" width="9.555" height="17.59" transform="translate(168.455 235.435)"/><rect class="c" width="4.896" height="17.297" rx="2.448" transform="translate(181.881 234.953) rotate(90)"/></g></g><g transform="translate(504.859 -157.273)"><g transform="translate(-127.165 -2.975)"><circle class="c" cx="4.51" cy="4.51" r="4.51" transform="translate(168.474 224.718)"/><rect class="c" width="3.395" height="17.006" rx="1.698" transform="translate(164.584 236.018)"/><rect class="c" width="3.395" height="17.006" rx="1.698" transform="translate(178.486 236.018)"/><rect class="c" width="4.39" height="21.911" rx="2.195" transform="translate(168.455 248.794)"/><rect class="c" width="4.39" height="21.911" rx="2.195" transform="translate(173.619 248.794)"/><rect class="c" width="9.555" height="17.59" transform="translate(168.455 235.435)"/><rect class="c" width="4.896" height="17.297" rx="2.448" transform="translate(181.881 234.953) rotate(90)"/></g></g><g transform="translate(-23.141 -94.273)"><g transform="translate(-127.165 -2.975)"><circle class="c" cx="4.51" cy="4.51" r="4.51" transform="translate(168.474 224.718)"/><rect class="c" width="3.395" height="17.006" rx="1.698" transform="translate(164.584 236.018)"/><rect class="c" width="3.395" height="17.006" rx="1.698" transform="translate(178.486 236.018)"/><rect class="c" width="4.39" height="21.911" rx="2.195" transform="translate(168.455 248.794)"/><rect class="c" width="4.39" height="21.911" rx="2.195" transform="translate(173.619 248.794)"/><rect class="c" width="9.555" height="17.59" transform="translate(168.455 235.435)"/><rect class="c" width="4.896" height="17.297" rx="2.448" transform="translate(181.881 234.953) rotate(90)"/></g></g><g transform="translate(42.859 -94.273)"><g transform="translate(-127.165 -2.975)"><circle class="c" cx="4.51" cy="4.51" r="4.51" transform="translate(168.474 224.718)"/><rect class="c" width="3.395" height="17.006" rx="1.698" transform="translate(164.584 236.018)"/><rect class="c" width="3.395" height="17.006" rx="1.698" transform="translate(178.486 236.018)"/><rect class="c" width="4.39" height="21.911" rx="2.195" transform="translate(168.455 248.794)"/><rect class="c" width="4.39" height="21.911" rx="2.195" transform="translate(173.619 248.794)"/><rect class="c" width="9.555" height="17.59" transform="translate(168.455 235.435)"/><rect class="c" width="4.896" height="17.297" rx="2.448" transform="translate(181.881 234.953) rotate(90)"/></g></g><g transform="translate(108.859 -94.273)"><g transform="translate(-127.165 -2.975)"><circle class="c" cx="4.51" cy="4.51" r="4.51" transform="translate(168.474 224.718)"/><rect class="c" width="3.395" height="17.006" rx="1.698" transform="translate(164.584 236.018)"/><rect class="c" width="3.395" height="17.006" rx="1.698" transform="translate(178.486 236.018)"/><rect class="c" width="4.39" height="21.911" rx="2.195" transform="translate(168.455 248.794)"/><rect class="c" width="4.39" height="21.911" rx="2.195" transform="translate(173.619 248.794)"/><rect class="c" width="9.555" height="17.59" transform="translate(168.455 235.435)"/><rect class="c" width="4.896" height="17.297" rx="2.448" transform="translate(181.881 234.953) rotate(90)"/></g></g><g transform="translate(174.859 -94.273)"><g transform="translate(-127.165 -2.975)"><circle class="c" cx="4.51" cy="4.51" r="4.51" transform="translate(168.474 224.718)"/><rect class="c" width="3.395" height="17.006" rx="1.698" transform="translate(164.584 236.018)"/><rect class="c" width="3.395" height="17.006" rx="1.698" transform="translate(178.486 236.018)"/><rect class="c" width="4.39" height="21.911" rx="2.195" transform="translate(168.455 248.794)"/><rect class="c" width="4.39" height="21.911" rx="2.195" transform="translate(173.619 248.794)"/><rect class="c" width="9.555" height="17.59" transform="translate(168.455 235.435)"/><rect class="c" width="4.896" height="17.297" rx="2.448" transform="translate(181.881 234.953) rotate(90)"/></g></g><g transform="translate(240.859 -94.273)"><g transform="translate(-127.165 -2.975)"><circle class="c" cx="4.51" cy="4.51" r="4.51" transform="translate(168.474 224.718)"/><rect class="c" width="3.395" height="17.006" rx="1.698" transform="translate(164.584 236.018)"/><rect class="c" width="3.395" height="17.006" rx="1.698" transform="translate(178.486 236.018)"/><rect class="c" width="4.39" height="21.911" rx="2.195" transform="translate(168.455 248.794)"/><rect class="c" width="4.39" height="21.911" rx="2.195" transform="translate(173.619 248.794)"/><rect class="c" width="9.555" height="17.59" transform="translate(168.455 235.435)"/><rect class="c" width="4.896" height="17.297" rx="2.448" transform="translate(181.881 234.953) rotate(90)"/></g></g><g transform="translate(306.859 -94.273)"><g transform="translate(-127.165 -2.975)"><circle class="c" cx="4.51" cy="4.51" r="4.51" transform="translate(168.474 224.718)"/><rect class="c" width="3.395" height="17.006" rx="1.698" transform="translate(164.584 236.018)"/><rect class="c" width="3.395" height="17.006" rx="1.698" transform="translate(178.486 236.018)"/><rect class="c" width="4.39" height="21.911" rx="2.195" transform="translate(168.455 248.794)"/><rect class="c" width="4.39" height="21.911" rx="2.195" transform="translate(173.619 248.794)"/><rect class="c" width="9.555" height="17.59" transform="translate(168.455 235.435)"/><rect class="c" width="4.896" height="17.297" rx="2.448" transform="translate(181.881 234.953) rotate(90)"/></g></g><g transform="translate(372.859 -94.273)"><g transform="translate(-127.165 -2.975)"><circle class="c" cx="4.51" cy="4.51" r="4.51" transform="translate(168.474 224.718)"/><rect class="c" width="3.395" height="17.006" rx="1.698" transform="translate(164.584 236.018)"/><rect class="c" width="3.395" height="17.006" rx="1.698" transform="translate(178.486 236.018)"/><rect class="c" width="4.39" height="21.911" rx="2.195" transform="translate(168.455 248.794)"/><rect class="c" width="4.39" height="21.911" rx="2.195" transform="translate(173.619 248.794)"/><rect class="c" width="9.555" height="17.59" transform="translate(168.455 235.435)"/><rect class="c" width="4.896" height="17.297" rx="2.448" transform="translate(181.881 234.953) rotate(90)"/></g></g><g transform="translate(438.859 -94.273)"><g transform="translate(-127.165 -2.975)"><circle class="c" cx="4.51" cy="4.51" r="4.51" transform="translate(168.474 224.718)"/><rect class="c" width="3.395" height="17.006" rx="1.698" transform="translate(164.584 236.018)"/><rect class="c" width="3.395" height="17.006" rx="1.698" transform="translate(178.486 236.018)"/><rect class="c" width="4.39" height="21.911" rx="2.195" transform="translate(168.455 248.794)"/><rect class="c" width="4.39" height="21.911" rx="2.195" transform="translate(173.619 248.794)"/><rect class="c" width="9.555" height="17.59" transform="translate(168.455 235.435)"/><rect class="c" width="4.896" height="17.297" rx="2.448" transform="translate(181.881 234.953) rotate(90)"/></g></g><g transform="translate(504.859 -94.273)"><g transform="translate(-127.165 -2.975)"><circle class="c" cx="4.51" cy="4.51" r="4.51" transform="translate(168.474 224.718)"/><rect class="c" width="3.395" height="17.006" rx="1.698" transform="translate(164.584 236.018)"/><rect class="c" width="3.395" height="17.006" rx="1.698" transform="translate(178.486 236.018)"/><rect class="c" width="4.39" height="21.911" rx="2.195" transform="translate(168.455 248.794)"/><rect class="c" width="4.39" height="21.911" rx="2.195" transform="translate(173.619 248.794)"/><rect class="c" width="9.555" height="17.59" transform="translate(168.455 235.435)"/><rect class="c" width="4.896" height="17.297" rx="2.448" transform="translate(181.881 234.953) rotate(90)"/></g></g><g transform="translate(-23.141 -31.273)"><g transform="translate(-127.165 -2.975)"><circle class="c" cx="4.51" cy="4.51" r="4.51" transform="translate(168.474 224.718)"/><rect class="c" width="3.395" height="17.006" rx="1.698" transform="translate(164.584 236.018)"/><rect class="c" width="3.395" height="17.006" rx="1.698" transform="translate(178.486 236.018)"/><rect class="c" width="4.39" height="21.911" rx="2.195" transform="translate(168.455 248.794)"/><rect class="c" width="4.39" height="21.911" rx="2.195" transform="translate(173.619 248.794)"/><rect class="c" width="9.555" height="17.59" transform="translate(168.455 235.435)"/><rect class="c" width="4.896" height="17.297" rx="2.448" transform="translate(181.881 234.953) rotate(90)"/></g></g><g transform="translate(42.859 -31.273)"><g transform="translate(-127.165 -2.975)"><circle class="c" cx="4.51" cy="4.51" r="4.51" transform="translate(168.474 224.718)"/><rect class="c" width="3.395" height="17.006" rx="1.698" transform="translate(164.584 236.018)"/><rect class="c" width="3.395" height="17.006" rx="1.698" transform="translate(178.486 236.018)"/><rect class="c" width="4.39" height="21.911" rx="2.195" transform="translate(168.455 248.794)"/><rect class="c" width="4.39" height="21.911" rx="2.195" transform="translate(173.619 248.794)"/><rect class="c" width="9.555" height="17.59" transform="translate(168.455 235.435)"/><rect class="c" width="4.896" height="17.297" rx="2.448" transform="translate(181.881 234.953) rotate(90)"/></g></g><g transform="translate(108.859 -31.273)"><g transform="translate(-127.165 -2.975)"><circle class="c" cx="4.51" cy="4.51" r="4.51" transform="translate(168.474 224.718)"/><rect class="c" width="3.395" height="17.006" rx="1.698" transform="translate(164.584 236.018)"/><rect class="c" width="3.395" height="17.006" rx="1.698" transform="translate(178.486 236.018)"/><rect class="c" width="4.39" height="21.911" rx="2.195" transform="translate(168.455 248.794)"/><rect class="c" width="4.39" height="21.911" rx="2.195" transform="translate(173.619 248.794)"/><rect class="c" width="9.555" height="17.59" transform="translate(168.455 235.435)"/><rect class="c" width="4.896" height="17.297" rx="2.448" transform="translate(181.881 234.953) rotate(90)"/></g></g><g transform="translate(174.859 -31.273)"><g transform="translate(-127.165 -2.975)"><circle class="c" cx="4.51" cy="4.51" r="4.51" transform="translate(168.474 224.718)"/><rect class="c" width="3.395" height="17.006" rx="1.698" transform="translate(164.584 236.018)"/><rect class="c" width="3.395" height="17.006" rx="1.698" transform="translate(178.486 236.018)"/><rect class="c" width="4.39" height="21.911" rx="2.195" transform="translate(168.455 248.794)"/><rect class="c" width="4.39" height="21.911" rx="2.195" transform="translate(173.619 248.794)"/><rect class="c" width="9.555" height="17.59" transform="translate(168.455 235.435)"/><rect class="c" width="4.896" height="17.297" rx="2.448" transform="translate(181.881 234.953) rotate(90)"/></g></g><g transform="translate(240.859 -31.273)"><g transform="translate(-127.165 -2.975)"><circle class="c" cx="4.51" cy="4.51" r="4.51" transform="translate(168.474 224.718)"/><rect class="c" width="3.395" height="17.006" rx="1.698" transform="translate(164.584 236.018)"/><rect class="c" width="3.395" height="17.006" rx="1.698" transform="translate(178.486 236.018)"/><rect class="c" width="4.39" height="21.911" rx="2.195" transform="translate(168.455 248.794)"/><rect class="c" width="4.39" height="21.911" rx="2.195" transform="translate(173.619 248.794)"/><rect class="c" width="9.555" height="17.59" transform="translate(168.455 235.435)"/><rect class="c" width="4.896" height="17.297" rx="2.448" transform="translate(181.881 234.953) rotate(90)"/></g></g><g transform="translate(306.859 -31.273)"><g transform="translate(-127.165 -2.975)"><circle class="c" cx="4.51" cy="4.51" r="4.51" transform="translate(168.474 224.718)"/><rect class="c" width="3.395" height="17.006" rx="1.698" transform="translate(164.584 236.018)"/><rect class="c" width="3.395" height="17.006" rx="1.698" transform="translate(178.486 236.018)"/><rect class="c" width="4.39" height="21.911" rx="2.195" transform="translate(168.455 248.794)"/><rect class="c" width="4.39" height="21.911" rx="2.195" transform="translate(173.619 248.794)"/><rect class="c" width="9.555" height="17.59" transform="translate(168.455 235.435)"/><rect class="c" width="4.896" height="17.297" rx="2.448" transform="translate(181.881 234.953) rotate(90)"/></g></g><g transform="translate(372.859 -31.273)"><g transform="translate(-127.165 -2.975)"><circle class="c" cx="4.51" cy="4.51" r="4.51" transform="translate(168.474 224.718)"/><rect class="c" width="3.395" height="17.006" rx="1.698" transform="translate(164.584 236.018)"/><rect class="c" width="3.395" height="17.006" rx="1.698" transform="translate(178.486 236.018)"/><rect class="c" width="4.39" height="21.911" rx="2.195" transform="translate(168.455 248.794)"/><rect class="c" width="4.39" height="21.911" rx="2.195" transform="translate(173.619 248.794)"/><rect class="c" width="9.555" height="17.59" transform="translate(168.455 235.435)"/><rect class="c" width="4.896" height="17.297" rx="2.448" transform="translate(181.881 234.953) rotate(90)"/></g></g><g transform="translate(438.859 -31.273)"><g transform="translate(-127.165 -2.975)"><circle class="c" cx="4.51" cy="4.51" r="4.51" transform="translate(168.474 224.718)"/><rect class="c" width="3.395" height="17.006" rx="1.698" transform="translate(164.584 236.018)"/><rect class="c" width="3.395" height="17.006" rx="1.698" transform="translate(178.486 236.018)"/><rect class="c" width="4.39" height="21.911" rx="2.195" transform="translate(168.455 248.794)"/><rect class="c" width="4.39" height="21.911" rx="2.195" transform="translate(173.619 248.794)"/><rect class="c" width="9.555" height="17.59" transform="translate(168.455 235.435)"/><rect class="c" width="4.896" height="17.297" rx="2.448" transform="translate(181.881 234.953) rotate(90)"/></g></g><g transform="translate(504.859 -31.273)"><g transform="translate(-127.165 -2.975)"><circle class="c" cx="4.51" cy="4.51" r="4.51" transform="translate(168.474 224.718)"/><rect class="c" width="3.395" height="17.006" rx="1.698" transform="translate(164.584 236.018)"/><rect class="c" width="3.395" height="17.006" rx="1.698" transform="translate(178.486 236.018)"/><rect class="c" width="4.39" height="21.911" rx="2.195" transform="translate(168.455 248.794)"/><rect class="c" width="4.39" height="21.911" rx="2.195" transform="translate(173.619 248.794)"/><rect class="c" width="9.555" height="17.59" transform="translate(168.455 235.435)"/><rect class="c" width="4.896" height="17.297" rx="2.448" transform="translate(181.881 234.953) rotate(90)"/></g></g><g transform="translate(-23.141 31.727)"><g transform="translate(-127.165 -2.975)"><circle class="c" cx="4.51" cy="4.51" r="4.51" transform="translate(168.474 224.718)"/><rect class="c" width="3.395" height="17.006" rx="1.698" transform="translate(164.584 236.018)"/><rect class="c" width="3.395" height="17.006" rx="1.698" transform="translate(178.486 236.018)"/><rect class="c" width="4.39" height="21.911" rx="2.195" transform="translate(168.455 248.794)"/><rect class="c" width="4.39" height="21.911" rx="2.195" transform="translate(173.619 248.794)"/><rect class="c" width="9.555" height="17.59" transform="translate(168.455 235.435)"/><rect class="c" width="4.896" height="17.297" rx="2.448" transform="translate(181.881 234.953) rotate(90)"/></g></g><g transform="translate(42.859 31.727)"><g transform="translate(-127.165 -2.975)"><circle class="c" cx="4.51" cy="4.51" r="4.51" transform="translate(168.474 224.718)"/><rect class="c" width="3.395" height="17.006" rx="1.698" transform="translate(164.584 236.018)"/><rect class="c" width="3.395" height="17.006" rx="1.698" transform="translate(178.486 236.018)"/><rect class="c" width="4.39" height="21.911" rx="2.195" transform="translate(168.455 248.794)"/><rect class="c" width="4.39" height="21.911" rx="2.195" transform="translate(173.619 248.794)"/><rect class="c" width="9.555" height="17.59" transform="translate(168.455 235.435)"/><rect class="c" width="4.896" height="17.297" rx="2.448" transform="translate(181.881 234.953) rotate(90)"/></g></g><g transform="translate(108.859 31.727)"><g transform="translate(-127.165 -2.975)"><circle class="c" cx="4.51" cy="4.51" r="4.51" transform="translate(168.474 224.718)"/><rect class="c" width="3.395" height="17.006" rx="1.698" transform="translate(164.584 236.018)"/><rect class="c" width="3.395" height="17.006" rx="1.698" transform="translate(178.486 236.018)"/><rect class="c" width="4.39" height="21.911" rx="2.195" transform="translate(168.455 248.794)"/><rect class="c" width="4.39" height="21.911" rx="2.195" transform="translate(173.619 248.794)"/><rect class="c" width="9.555" height="17.59" transform="translate(168.455 235.435)"/><rect class="c" width="4.896" height="17.297" rx="2.448" transform="translate(181.881 234.953) rotate(90)"/></g></g><g transform="translate(174.859 31.727)"><g transform="translate(-127.165 -2.975)"><circle class="c" cx="4.51" cy="4.51" r="4.51" transform="translate(168.474 224.718)"/><rect class="c" width="3.395" height="17.006" rx="1.698" transform="translate(164.584 236.018)"/><rect class="c" width="3.395" height="17.006" rx="1.698" transform="translate(178.486 236.018)"/><rect class="c" width="4.39" height="21.911" rx="2.195" transform="translate(168.455 248.794)"/><rect class="c" width="4.39" height="21.911" rx="2.195" transform="translate(173.619 248.794)"/><rect class="c" width="9.555" height="17.59" transform="translate(168.455 235.435)"/><rect class="c" width="4.896" height="17.297" rx="2.448" transform="translate(181.881 234.953) rotate(90)"/></g></g><g transform="translate(240.859 31.727)"><g transform="translate(-127.165 -2.975)"><circle class="c" cx="4.51" cy="4.51" r="4.51" transform="translate(168.474 224.718)"/><rect class="c" width="3.395" height="17.006" rx="1.698" transform="translate(164.584 236.018)"/><rect class="c" width="3.395" height="17.006" rx="1.698" transform="translate(178.486 236.018)"/><rect class="c" width="4.39" height="21.911" rx="2.195" transform="translate(168.455 248.794)"/><rect class="c" width="4.39" height="21.911" rx="2.195" transform="translate(173.619 248.794)"/><rect class="c" width="9.555" height="17.59" transform="translate(168.455 235.435)"/><rect class="c" width="4.896" height="17.297" rx="2.448" transform="translate(181.881 234.953) rotate(90)"/></g></g><g transform="translate(306.859 31.727)"><g transform="translate(-127.165 -2.975)"><circle class="c" cx="4.51" cy="4.51" r="4.51" transform="translate(168.474 224.718)"/><rect class="c" width="3.395" height="17.006" rx="1.698" transform="translate(164.584 236.018)"/><rect class="c" width="3.395" height="17.006" rx="1.698" transform="translate(178.486 236.018)"/><rect class="c" width="4.39" height="21.911" rx="2.195" transform="translate(168.455 248.794)"/><rect class="c" width="4.39" height="21.911" rx="2.195" transform="translate(173.619 248.794)"/><rect class="c" width="9.555" height="17.59" transform="translate(168.455 235.435)"/><rect class="c" width="4.896" height="17.297" rx="2.448" transform="translate(181.881 234.953) rotate(90)"/></g></g><g transform="translate(372.859 31.727)"><g transform="translate(-127.165 -2.975)"><circle class="c" cx="4.51" cy="4.51" r="4.51" transform="translate(168.474 224.718)"/><rect class="c" width="3.395" height="17.006" rx="1.698" transform="translate(164.584 236.018)"/><rect class="c" width="3.395" height="17.006" rx="1.698" transform="translate(178.486 236.018)"/><rect class="c" width="4.39" height="21.911" rx="2.195" transform="translate(168.455 248.794)"/><rect class="c" width="4.39" height="21.911" rx="2.195" transform="translate(173.619 248.794)"/><rect class="c" width="9.555" height="17.59" transform="translate(168.455 235.435)"/><rect class="c" width="4.896" height="17.297" rx="2.448" transform="translate(181.881 234.953) rotate(90)"/></g></g><g transform="translate(438.859 31.727)"><g transform="translate(-127.165 -2.975)"><circle class="c" cx="4.51" cy="4.51" r="4.51" transform="translate(168.474 224.718)"/><rect class="c" width="3.395" height="17.006" rx="1.698" transform="translate(164.584 236.018)"/><rect class="c" width="3.395" height="17.006" rx="1.698" transform="translate(178.486 236.018)"/><rect class="c" width="4.39" height="21.911" rx="2.195" transform="translate(168.455 248.794)"/><rect class="c" width="4.39" height="21.911" rx="2.195" transform="translate(173.619 248.794)"/><rect class="c" width="9.555" height="17.59" transform="translate(168.455 235.435)"/><rect class="c" width="4.896" height="17.297" rx="2.448" transform="translate(181.881 234.953) rotate(90)"/></g></g><g transform="translate(504.859 31.727)"><g transform="translate(-127.165 -2.975)"><circle class="c" cx="4.51" cy="4.51" r="4.51" transform="translate(168.474 224.718)"/><rect class="c" width="3.395" height="17.006" rx="1.698" transform="translate(164.584 236.018)"/><rect class="c" width="3.395" height="17.006" rx="1.698" transform="translate(178.486 236.018)"/><rect class="c" width="4.39" height="21.911" rx="2.195" transform="translate(168.455 248.794)"/><rect class="c" width="4.39" height="21.911" rx="2.195" transform="translate(173.619 248.794)"/><rect class="c" width="9.555" height="17.59" transform="translate(168.455 235.435)"/><rect class="c" width="4.896" height="17.297" rx="2.448" transform="translate(181.881 234.953) rotate(90)"/></g></g></g></svg>