<svg xmlns="http://www.w3.org/2000/svg" xmlns:xlink="http://www.w3.org/1999/xlink" width="147.026" height="160.971" viewBox="0 0 147.026 160.971"><defs><style>.a{fill:#fff;}.b{filter:url(#a);}</style><filter id="a" x="0" y="0" width="147.026" height="160.971" filterUnits="userSpaceOnUse"><feOffset dy="7" input="SourceAlpha"/><feGaussianBlur stdDeviation="2.5" result="b"/><feFlood flood-color="#176299" flood-opacity="0.302"/><feComposite operator="in" in2="b"/><feComposite in="SourceGraphic"/></filter></defs><g transform="translate(-1293.5 -3853.5)"><g class="b" transform="matrix(1, 0, 0, 1, 1293.5, 3853.5)"><path class="a" d="M211.677,282.617a22.866,22.866,0,0,0-13.312-34.287l-4.441-1.223-4.315-1.188-19.266-5.307-4.441-1.223a23.06,23.06,0,0,0-3.348-.66,22.868,22.868,0,0,0-24.777,16.638q-.306,1.113-.5,2.241a22.633,22.633,0,0,0-.312,4.433,61.583,61.583,0,0,0,2.993,117.848l4.369,1.2.036.009.036.011,4.369,1.2a61.583,61.583,0,0,0,62.908-99.7Z" transform="translate(-87.21 -238.06)"/></g></g></svg>