<?xml version="1.0" encoding="utf-8"?>
<!-- Generator: Adobe Illustrator 24.2.3, SVG Export Plug-In . SVG Version: 6.00 Build 0)  -->
<svg version="1.1" id="圖層_1" xmlns="http://www.w3.org/2000/svg" xmlns:xlink="http://www.w3.org/1999/xlink" x="0px" y="0px"
	 viewBox="0 0 141.7 141.6" style="enable-background:new 0 0 141.7 141.6;" xml:space="preserve">
<g transform="translate(-125.093 -242.045)">
	<path style="fill:#176299;" d="M130.9,370.7c-0.9-8.9,3.8-14.7,11.9-15.4c6.9-0.7,12.6,3.3,13.5,9.7l-6.7,0.7
		c-0.4-3-3.2-5.1-6.2-4.8c-3.8,0.4-5.9,3.8-5.4,9.2c0.5,5.4,3.2,8.4,7.1,8c3-0.2,5.3-2.8,5.2-5.8l6.7-0.7c0.3,6.5-4.3,11.3-11.4,12
		C137.4,384.3,131.8,379.6,130.9,370.7z"/>
	<path style="fill:#176299;" d="M158.2,354.2l6.6-0.6l1,10.6l0.1,0c0.7-2.8,3.2-4.8,6.1-4.9c4.6-0.5,7.5,2.2,7.9,7.1l1.3,13.3
		l-6.7,0.7l-1.2-11.8c-0.2-2.3-1.5-3.7-3.7-3.4c-2.3,0.2-3.4,2-3.1,4.3l1.1,11.6l-6.7,0.7L158.2,354.2z"/>
	<path style="fill:#176299;" d="M203.5,370.8c-0.2,4.3-3.8,7.5-9.2,8c-6.6,0.6-10.9-3-11.6-9.7s2.9-11.3,9.2-11.9
		c6.2-0.6,10.6,3.1,11.2,9.4l0.2,1.9l-13.9,1.4l0,0.4c0.1,2.2,1.9,3.9,4.1,3.8c0.1,0,0.3,0,0.4,0c1.6,0,3-1.1,3.5-2.6L203.5,370.8z
		 M189.1,366l7.5-0.7c-0.2-2-1.9-3.5-3.9-3.3c-0.1,0-0.1,0-0.2,0C190.5,362.1,189,363.9,189.1,366L189.1,366z"/>
	<path style="fill:#176299;" d="M219,363.3c-0.4-2.1-1.9-3.4-3.8-3.2c-2.4,0.2-3.6,2.4-3.2,6.1c0.4,3.7,1.9,5.6,4.3,5.4
		c2-0.2,3.1-1.6,3.2-3.8l6.2-0.6c0.3,5.3-3.1,8.9-8.9,9.5c-6.5,0.6-10.9-3-11.5-9.8c-0.7-6.7,3-11.2,9.4-11.8
		c5.8-0.6,9.9,2.5,10.6,7.7L219,363.3z"/>
	<path style="fill:#176299;" d="M239.8,353l7.5-0.7l-6.5,9.6l8.9,11.1l-7.7,0.8l-5.8-7.3l-1.1,1.6l0.6,6.3l-6.7,0.7l-2.7-27.4
		l6.7-0.7l1.4,14.6l0.1,0L239.8,353z"/>
	<path style="fill:#176299;" d="M264.2,343.8l1.2,18.5l-5.7,0.6l-2.4-18.3L264.2,343.8z M259.6,369.1c-0.3-2,1.1-3.8,3-4.1
		s3.8,1.1,4.1,3c0.3,2-1.1,3.8-3,4.1c-0.1,0-0.1,0-0.2,0C261.6,372.4,259.8,371.1,259.6,369.1C259.6,369.1,259.6,369.1,259.6,369.1z
		"/>
</g>
</svg>
