<svg xmlns="http://www.w3.org/2000/svg" width="107.527" height="15.91" viewBox="0 0 107.527 15.91"><defs><style>.a{fill:#3d3a39;}</style></defs><g transform="translate(-131.444 -592.043)"><path class="a" d="M163.979,597.943a8.067,8.067,0,0,0-2.056-3.575h0a7.981,7.981,0,0,0-11.262,0h0l-2.816,2.815-2.815-2.815a7.982,7.982,0,0,0-11.263,0h0A7.964,7.964,0,0,0,145.03,605.63h0l2.815-2.816,2.816,2.816h0l2.815-2.816L150.661,600l2.815-2.816h0a3.966,3.966,0,0,1,5.631,0h0a3.964,3.964,0,0,1,0,5.631h0l2.816,2.816a7.981,7.981,0,0,0,2.056-7.687Zm-21.81,4.916h0a3.966,3.966,0,0,1-5.631,0h0a3.965,3.965,0,0,1,0-5.631h0a3.965,3.965,0,0,1,5.631,0l2.816,2.816Z"/></g><g transform="translate(-131.444 -592.043)"><path class="a" d="M211.486,597.452h-.4v1.608h.4a1.6,1.6,0,0,1,1.609,1.609h-3.62a1.6,1.6,0,0,1,1.609-1.609v-1.608a3.2,3.2,0,0,0-3.218,3.217h0v1.609h0a3.2,3.2,0,0,0,3.218,3.218h3.173v-1.564h-3.173a1.6,1.6,0,0,1-1.609-1.609H214.7v-1.609h0A3.242,3.242,0,0,0,211.486,597.452Z"/><path class="a" d="M237.362,602.323h1.609v-1.609h0a3.2,3.2,0,0,0-3.218-3.218h-.4V599.1h.4a1.6,1.6,0,0,1,1.609,1.609h-3.62a1.6,1.6,0,0,1,1.609-1.609V597.5a3.205,3.205,0,0,0-3.218,3.218h0v1.609h0a3.2,3.2,0,0,0,3.218,3.218h3.173v-1.609h-3.173a1.6,1.6,0,0,1-1.609-1.609Z"/><path class="a" d="M192.671,597.72h-1.609v4.826a1.6,1.6,0,0,1-1.609,1.609h-.4a1.6,1.6,0,0,1-1.609-1.609V597.72h-1.609v4.826h0a3.2,3.2,0,0,0,3.218,3.218h.4a3.2,3.2,0,0,0,3.218-3.218h0V597.72Z"/><path class="a" d="M204.827,597.72h-2.413a3.2,3.2,0,0,0-3.218,3.217v1.609a3.2,3.2,0,0,0,3.218,3.218h.8a3.2,3.2,0,0,0,3.218-3.218v-8.089h-1.609Zm0,4.826a1.6,1.6,0,0,1-1.609,1.609h-.8a1.6,1.6,0,0,1-1.609-1.609h0v-1.609h0a1.6,1.6,0,0,1,1.609-1.608h2.413v3.217Z"/><rect class="a" width="1.609" height="8.089" transform="translate(223.597 597.496)"/><rect class="a" width="1.609" height="1.609" transform="translate(223.597 594.636)"/><path class="a" d="M197.229,597.452a3.2,3.2,0,0,0-3.217,3.217h0V605.5h1.608v-4.827h0a1.6,1.6,0,0,1,1.609-1.609h.8v-1.608Z"/><path class="a" d="M230.167,597.452a3.2,3.2,0,0,0-3.218,3.217h0V605.5h1.609v-4.827h0a1.6,1.6,0,0,1,1.609-1.609h.849v-1.608Z"/><path class="a" d="M181.185,597.452h-1.207a3.2,3.2,0,0,0-3.217,3.217v1.609a3.2,3.2,0,0,0,3.217,3.218h1.207a3.2,3.2,0,0,0,3.218-3.218h-1.609a1.6,1.6,0,0,1-1.609,1.609h-1.207a1.6,1.6,0,0,1-1.608-1.609h0v-1.609h0a1.6,1.6,0,0,1,1.608-1.609h1.207a1.6,1.6,0,0,1,1.609,1.609h0v1.609H184.4v-1.609h0A3.2,3.2,0,0,0,181.185,597.452Z"/><path class="a" d="M172.247,597.5v8.089h1.609V599.1h2.011V597.5h-2.011a1.6,1.6,0,0,1,1.609-1.609h1.162v-1.609h-1.162A3.2,3.2,0,0,0,172.247,597.5Z"/><path class="a" d="M222.033,601.563a1.637,1.637,0,0,0-1.43-.849h-3.039v-.358a1.213,1.213,0,0,1,.67-1.117,1.244,1.244,0,0,1,.581-.134h2.771V597.5h-2.771a2.89,2.89,0,0,0-2.86,2.905v.313a1.532,1.532,0,0,0,.224.8,1.577,1.577,0,0,0,1.385.8h3.084v.357a1.263,1.263,0,0,1-.671,1.118,1.455,1.455,0,0,1-.625.178h-3.308v1.609h3.308a2.919,2.919,0,0,0,2.9-2.86v-.447A1.693,1.693,0,0,0,222.033,601.563Z"/></g></svg>