<svg xmlns="http://www.w3.org/2000/svg" width="575.825" height="65.125" viewBox="0 0 575.825 65.125"><defs><style>.a,.b{fill:none;stroke-miterlimit:10;stroke-width:6px;}.a{stroke:#d5dee4;}.b{stroke:#a9b7be;}.c{fill:#a9b7be;}</style></defs><g transform="translate(1.075)"><path class="a" d="M5530.241-4844.045c87.767-33.68,185.285-52.438,288-52.438,101.812,0,198.521,18.433,285.688,51.555" transform="translate(-5530.241 4906.37)"/><g transform="translate(-5389.563 4906.37)"><path class="b" d="M5530.241-4883.416c44.417-8.393,93.769-13.068,145.749-13.068,51.525,0,100.467,4.594,144.58,12.848"/><circle class="c" cx="10.208" cy="10.208" r="10.208" transform="translate(5520.033 -4893.961)"/><circle class="c" cx="10" cy="10" r="10" transform="translate(5593.284 -4903.76)"/><circle class="c" cx="10" cy="10" r="10" transform="translate(5666.327 -4906.37)"/><circle class="c" cx="10" cy="10" r="10" transform="translate(5739.371 -4903.76)"/><circle class="c" cx="10" cy="10" r="10" transform="translate(5812.414 -4893.753)"/></g></g></svg>