<svg xmlns="http://www.w3.org/2000/svg" width="150.826" height="50.417" viewBox="0 0 150.826 50.417"><g transform="translate(-111.847 -1191.033)"><path d="M250.662,1191.033h-126.8c-.462,0-.919,0-1.38,0-.386,0-.768.009-1.158.016a16.563,16.563,0,0,0-2.526.222,8.4,8.4,0,0,0-2.4.791,8.121,8.121,0,0,0-2.04,1.485,7.893,7.893,0,0,0-1.485,2.043,8.322,8.322,0,0,0-.787,2.4,16.321,16.321,0,0,0-.226,2.524c-.012.386-.013.774-.019,1.16v29.134c.006.391.007.77.019,1.162a16.306,16.306,0,0,0,.226,2.523,8.3,8.3,0,0,0,.787,2.4,7.823,7.823,0,0,0,1.485,2.035,7.933,7.933,0,0,0,2.04,1.486,8.477,8.477,0,0,0,2.4.8,17.092,17.092,0,0,0,2.526.223c.39.008.772.013,1.158.013.461,0,.918,0,1.38,0h126.8c.453,0,.913,0,1.366,0,.384,0,.778-.005,1.162-.013a16.872,16.872,0,0,0,2.521-.223,8.6,8.6,0,0,0,2.4-.8,7.923,7.923,0,0,0,2.038-1.486,8.053,8.053,0,0,0,1.49-2.035,8.347,8.347,0,0,0,.78-2.4,17.09,17.09,0,0,0,.234-2.523c.005-.392.005-.771.005-1.162.01-.458.01-.913.01-1.379v-26.378c0-.462,0-.92-.01-1.377,0-.386,0-.774-.005-1.16a17.107,17.107,0,0,0-.234-2.524,8.369,8.369,0,0,0-.78-2.4,8.155,8.155,0,0,0-3.528-3.528,8.521,8.521,0,0,0-2.4-.791,16.355,16.355,0,0,0-2.521-.222c-.384-.007-.778-.014-1.162-.016-.453,0-.913,0-1.366,0Z" fill="#b0b1b0"/><path d="M122.491,1240.347c-.385,0-.759-.005-1.14-.014a16.074,16.074,0,0,1-2.356-.2,7.413,7.413,0,0,1-2.088-.691,6.8,6.8,0,0,1-1.761-1.281,6.706,6.706,0,0,1-1.286-1.76,7.213,7.213,0,0,1-.685-2.089,15.683,15.683,0,0,1-.21-2.363c-.008-.266-.018-1.151-.018-1.151v-29.117s.011-.871.018-1.127a15.614,15.614,0,0,1,.209-2.36,7.264,7.264,0,0,1,.685-2.095,6.766,6.766,0,0,1,1.28-1.762,7.034,7.034,0,0,1,1.767-1.288,7.324,7.324,0,0,1,2.084-.686,15.921,15.921,0,0,1,2.364-.207l1.137-.015H252.022l1.151.016a15.581,15.581,0,0,1,2.342.205,7.512,7.512,0,0,1,2.106.69,7.06,7.06,0,0,1,3.044,3.051,7.279,7.279,0,0,1,.675,2.078,16.426,16.426,0,0,1,.219,2.379c0,.356,0,.74,0,1.121.01.473.01.923.01,1.377v26.378c0,.458,0,.905-.01,1.355,0,.41,0,.786-.005,1.172a15.917,15.917,0,0,1-.215,2.336,7.233,7.233,0,0,1-.681,2.105,7.1,7.1,0,0,1-3.044,3.036,7.4,7.4,0,0,1-2.1.693,15.89,15.89,0,0,1-2.356.2c-.369.009-.756.014-1.131.014l-1.366,0Z"/><path d="M143.066,1216.62a6.235,6.235,0,0,1,2.97-5.233,6.39,6.39,0,0,0-5.031-2.72c-2.116-.222-4.168,1.267-5.247,1.267-1.1,0-2.76-1.244-4.548-1.208a6.7,6.7,0,0,0-5.638,3.439c-2.437,4.22-.619,10.422,1.716,13.834,1.168,1.67,2.534,3.536,4.32,3.47,1.749-.072,2.4-1.115,4.512-1.115,2.091,0,2.7,1.115,4.526,1.073,1.876-.03,3.058-1.678,4.185-3.364a13.827,13.827,0,0,0,1.914-3.9A6.027,6.027,0,0,1,143.066,1216.62Z" fill="#fff"/><path d="M139.623,1206.424a6.143,6.143,0,0,0,1.4-4.4,6.252,6.252,0,0,0-4.043,2.092,5.847,5.847,0,0,0-1.441,4.237A5.169,5.169,0,0,0,139.623,1206.424Z" fill="#fff"/><path d="M165.165,1225.24H159.2l-1.433,4.231h-2.527l5.651-15.652h2.625l5.651,15.652H166.6Zm-5.348-1.952h4.729l-2.332-6.866h-.065Z" fill="#fff"/><path d="M181.37,1223.766c0,3.546-1.9,5.824-4.762,5.824a3.867,3.867,0,0,1-3.59-2h-.054v5.652h-2.343v-15.187h2.268v1.9h.043a4.048,4.048,0,0,1,3.633-2.017C179.461,1217.94,181.37,1220.229,181.37,1223.766Zm-2.407,0c0-2.311-1.194-3.83-3.016-3.83-1.789,0-2.993,1.551-2.993,3.83,0,2.3,1.2,3.839,2.993,3.839C177.769,1227.6,178.963,1226.1,178.963,1223.766Z" fill="#fff"/><path d="M193.93,1223.766c0,3.546-1.9,5.824-4.762,5.824a3.867,3.867,0,0,1-3.59-2h-.055v5.652h-2.342v-15.187h2.267v1.9h.043a4.051,4.051,0,0,1,3.634-2.017C192.021,1217.94,193.93,1220.229,193.93,1223.766Zm-2.407,0c0-2.311-1.194-3.83-3.016-3.83-1.79,0-2.993,1.551-2.993,3.83,0,2.3,1.2,3.839,2.993,3.839C190.329,1227.6,191.523,1226.1,191.523,1223.766Z" fill="#fff"/><path d="M202.231,1225.11c.174,1.552,1.682,2.571,3.742,2.571,1.974,0,3.395-1.019,3.395-2.419,0-1.214-.857-1.942-2.885-2.44l-2.029-.489c-2.874-.694-4.208-2.038-4.208-4.22,0-2.7,2.353-4.555,5.695-4.555,3.307,0,5.575,1.855,5.651,4.555h-2.364c-.142-1.561-1.433-2.5-3.32-2.5s-3.178.954-3.178,2.342c0,1.107.824,1.758,2.842,2.256l1.724.424c3.212.759,4.546,2.049,4.546,4.338,0,2.929-2.333,4.763-6.042,4.763-3.471,0-5.815-1.791-5.966-4.622Z" fill="#fff"/><path d="M216.9,1215.359v2.7h2.17v1.855H216.9v6.291c0,.978.435,1.433,1.389,1.433a7.3,7.3,0,0,0,.77-.054v1.844a6.448,6.448,0,0,1-1.3.108c-2.31,0-3.211-.868-3.211-3.081v-6.541h-1.66v-1.855h1.66v-2.7Z" fill="#fff"/><path d="M220.324,1223.766c0-3.591,2.114-5.847,5.412-5.847s5.413,2.256,5.413,5.847-2.093,5.846-5.413,5.846S220.324,1227.366,220.324,1223.766Zm8.439,0c0-2.463-1.129-3.917-3.027-3.917s-3.025,1.465-3.025,3.917c0,2.472,1.127,3.915,3.025,3.915S228.763,1226.238,228.763,1223.766Z" fill="#fff"/><path d="M233.081,1218.059h2.234V1220h.054a2.721,2.721,0,0,1,2.745-2.062,3.613,3.613,0,0,1,.8.087v2.191a3.282,3.282,0,0,0-1.052-.141,2.36,2.36,0,0,0-2.441,2.625v6.769h-2.342Z" fill="#fff"/><path d="M249.716,1226.119c-.315,2.072-2.333,3.493-4.914,3.493-3.319,0-5.38-2.224-5.38-5.792s2.072-5.9,5.282-5.9c3.157,0,5.142,2.169,5.142,5.629v.8h-8.059v.142a2.971,2.971,0,0,0,3.069,3.232,2.583,2.583,0,0,0,2.636-1.6Zm-7.918-3.406H247.5a2.744,2.744,0,0,0-2.8-2.9A2.889,2.889,0,0,0,241.8,1222.713Z" fill="#fff"/><path d="M159.752,1202.038a2.494,2.494,0,1,1-.037,4.987h-1.74v2.533h-1.168v-7.52ZM157.975,1206h1.469c1.006,0,1.6-.522,1.6-1.455,0-.954-.569-1.475-1.6-1.475h-1.469Z" fill="#fff"/><path d="M163.762,1203.883h1.078v.87h.084a1.539,1.539,0,0,1,1.533-.964,2.375,2.375,0,0,1,.5.046v1.106a3.017,3.017,0,0,0-.625-.068,1.33,1.33,0,0,0-1.449,1.334v3.351h-1.12Z" fill="#fff"/><path d="M172.847,1208.026a2.3,2.3,0,0,1-2.459,1.642c-1.626,0-2.622-1.115-2.622-2.93s1.017-2.965,2.617-2.965c1.579,0,2.532,1.079,2.532,2.861v.391h-4.008v.063a1.5,1.5,0,0,0,1.512,1.626,1.36,1.36,0,0,0,1.35-.688Zm-3.94-1.829h2.867a1.369,1.369,0,0,0-1.4-1.47A1.452,1.452,0,0,0,168.907,1206.2Z" fill="#fff"/><path d="M174.439,1207.078v-1.1h3.419v1.1Z" fill="#fff"/><path d="M179.377,1206.718c0-1.83,1.022-2.945,2.678-2.945s2.675,1.115,2.675,2.945-1.017,2.95-2.675,2.95S179.377,1208.558,179.377,1206.718Zm4.2,0c0-1.23-.553-1.95-1.523-1.95s-1.521.72-1.521,1.95.548,1.954,1.521,1.954S183.578,1207.953,183.578,1206.718Z" fill="#fff"/><path d="M186.233,1203.883h1.078v.87h.084a1.537,1.537,0,0,1,1.532-.964,2.378,2.378,0,0,1,.5.046v1.106a3.017,3.017,0,0,0-.625-.068,1.33,1.33,0,0,0-1.449,1.334v3.351h-1.12Z" fill="#fff"/><path d="M190.238,1206.718c0-1.793.922-2.929,2.356-2.929a1.869,1.869,0,0,1,1.741,1h.084v-3.117h1.12v7.891h-1.073v-.9h-.089a1.97,1.97,0,0,1-1.783.99C191.15,1209.652,190.238,1208.516,190.238,1206.718Zm1.157,0c0,1.2.568,1.928,1.517,1.928s1.528-.735,1.528-1.923-.59-1.928-1.528-1.928S191.4,1205.524,191.4,1206.718Z" fill="#fff"/><path d="M202.176,1208.026a2.3,2.3,0,0,1-2.459,1.642c-1.626,0-2.622-1.115-2.622-2.93s1.017-2.965,2.617-2.965c1.579,0,2.532,1.079,2.532,2.861v.391h-4.008v.063a1.5,1.5,0,0,0,1.511,1.626,1.361,1.361,0,0,0,1.351-.688Zm-3.94-1.829H201.1a1.37,1.37,0,0,0-1.4-1.47A1.451,1.451,0,0,0,198.236,1206.2Z" fill="#fff"/><path d="M203.748,1203.883h1.078v.87h.084a1.537,1.537,0,0,1,1.532-.964,2.392,2.392,0,0,1,.5.046v1.106a3.026,3.026,0,0,0-.625-.068,1.33,1.33,0,0,0-1.449,1.334v3.351h-1.12Z" fill="#fff"/><path d="M210.977,1206.718c0-1.83,1.021-2.945,2.678-2.945s2.675,1.115,2.675,2.945-1.017,2.95-2.675,2.95S210.977,1208.558,210.977,1206.718Zm4.2,0c0-1.23-.553-1.95-1.523-1.95s-1.521.72-1.521,1.95.547,1.954,1.521,1.954S215.178,1207.953,215.178,1206.718Z" fill="#fff"/><path d="M217.834,1203.883h1.078v.9H219a1.7,1.7,0,0,1,1.693-1.011,1.846,1.846,0,0,1,1.965,2.111v3.674h-1.12v-3.393c0-.912-.4-1.365-1.225-1.365a1.3,1.3,0,0,0-1.355,1.438v3.32h-1.12Z" fill="#fff"/><path d="M228.982,1202.47v1.439h1.229v.943h-1.229v2.918c0,.595.245.855.8.855a3.59,3.59,0,0,0,.427-.026v.933a3.629,3.629,0,0,1-.609.058c-1.246,0-1.742-.438-1.742-1.533v-3.2h-.9v-.943h.9v-1.439Z" fill="#fff"/><path d="M231.741,1201.667h1.111v3.128h.088a1.746,1.746,0,0,1,1.731-1.017,1.87,1.87,0,0,1,1.955,2.116v3.664H235.5v-3.388c0-.906-.422-1.365-1.213-1.365a1.326,1.326,0,0,0-1.43,1.439v3.314h-1.12Z" fill="#fff"/><path d="M243.157,1208.026a2.3,2.3,0,0,1-2.46,1.642c-1.626,0-2.622-1.115-2.622-2.93s1.017-2.965,2.617-2.965c1.58,0,2.532,1.079,2.532,2.861v.391h-4.008v.063a1.5,1.5,0,0,0,1.512,1.626,1.36,1.36,0,0,0,1.35-.688Zm-3.941-1.829h2.867a1.369,1.369,0,0,0-1.4-1.47A1.452,1.452,0,0,0,239.216,1206.2Z" fill="#fff"/></g></svg>