<svg xmlns="http://www.w3.org/2000/svg" width="40.062" height="40.062" viewBox="0 0 40.062 40.062"><defs><style>.a{fill:#fff;}.b{fill:#17629d;fill-rule:evenodd;}</style></defs><rect class="a" width="40.062" height="40.062" rx="20.031"/><path class="b" d="M240.691,43.495a8.935,8.935,0,0,0,9.016-8.855q0-.081,0-.162v-.429a6.989,6.989,0,0,0,1.546-1.632,7.09,7.09,0,0,1-1.8.515,3.339,3.339,0,0,0,1.374-1.717,7.913,7.913,0,0,1-1.975.773,3.064,3.064,0,0,0-2.318-1.03,3.225,3.225,0,0,0-3.177,3.177,1.667,1.667,0,0,0,.085.687,8.876,8.876,0,0,1-6.526-3.349,3.272,3.272,0,0,0-.429,1.631,3.413,3.413,0,0,0,1.374,2.663,2.91,2.91,0,0,1-1.46-.429h0a3.138,3.138,0,0,0,2.576,3.091,2.613,2.613,0,0,1-.858.086,1.445,1.445,0,0,1-.6-.086,3.253,3.253,0,0,0,3,2.233,6.481,6.481,0,0,1-3.95,1.373,2.372,2.372,0,0,1-.773-.086,8.1,8.1,0,0,0,4.895,1.546" transform="translate(-223.494 -17.196)"/></svg>