<svg xmlns="http://www.w3.org/2000/svg" width="98.571" height="54.689" viewBox="0 0 98.571 54.689"><defs><style>.a{fill:#176299;}.b{fill:#0f436e;}.c{fill:#4e80a9;}.d{fill:#ee664e;}.e{fill:#bb523e;opacity:0.22;}.f{fill:#354663;}</style></defs><g transform="translate(300.444 -989.883)"><path class="a" d="M-211.386,993.14h-74.883a14.175,14.175,0,0,0-14.175,14.175v27.744c0,5.254,3.84,6.973,9.094,6.973l79.964,2.54a9.513,9.513,0,0,0,9.513-9.513v-32.406A9.513,9.513,0,0,0-211.386,993.14Z"/><path class="b" d="M-212.769,999.566l-75.955,1.335c-2.643,0-5.61,3.763-5.61,6.406v26.053c0,2.643,2.355,3.206,5,3.206l76.566,1.58a4.786,4.786,0,0,0,4.786-4.786v-29.008A4.786,4.786,0,0,0-212.769,999.566Z"/><path class="c" d="M-272.128,989.883h-11.791a3.563,3.563,0,0,0-3.563,3.563h15.354Z"/><rect class="c" width="11.023" height="1.019" transform="translate(-240.916 992.076)"/><rect class="c" width="11.023" height="1.019" transform="translate(-224.603 992.076)"/></g><g transform="translate(300.444 -989.883)"><path class="d" d="M-273.386,1009.58l-.556-.556h-9.324l-.556.556,2.143,2.143h6.15Z"/><path class="d" d="M-275.193,1018.208l1.349,1.349,1.349-1.349v-7.737l-.556-.556-.973.973-1.17,1.17Z"/><path class="d" d="M-282.015,1012.058l-2.143-2.143-.556.556v7.737l1.349,1.349,1.349-1.349Z"/><path class="d" d="M-283.822,1030.207l.556.556h9.324l.556-.556-2.143-2.143h-6.15Z"/><path class="e" d="M-283.029,1019.893l1.349,1.349h6.15l1.349-1.349-1.349-1.349h-6.15Z"/><path class="d" d="M-283.364,1020.229l-1.349,1.349v7.737l.556.556,2.143-2.143v-6.15Z"/><path class="d" d="M-275.193,1027.728l1.17,1.17.973.973.556-.556v-7.737l-1.349-1.349-1.349,1.349Z"/><path class="d" d="M-257.024,1009.58l-.556-.556H-266.9l-.556.556,2.143,2.143h6.15Z"/><path class="d" d="M-258.831,1018.208l1.349,1.349,1.349-1.349v-7.737l-.556-.556-.973.973-1.17,1.17Z"/><path class="d" d="M-265.652,1012.058l-2.143-2.143-.556.556v7.737l1.349,1.349,1.349-1.349Z"/><path class="d" d="M-267.459,1030.207l.556.556h9.324l.556-.556-2.143-2.143h-6.15Z"/><path class="d" d="M-266.666,1019.893l1.349,1.349h6.15l1.349-1.349-1.349-1.349h-6.15Z"/><path class="d" d="M-267,1020.229l-1.349,1.349v7.737l.556.556,2.143-2.143v-6.15Z"/><path class="d" d="M-258.831,1027.728l1.17,1.17.973.973.556-.556v-7.737l-1.349-1.349-1.349,1.349Z"/><path class="d" d="M-218.066,1009.58l-.556-.556h-9.324l-.556.556,2.143,2.143h6.15Z"/><path class="d" d="M-219.873,1018.208l1.349,1.349,1.349-1.349v-7.737l-.556-.556-.973.973-1.17,1.17Z"/><path class="d" d="M-226.694,1012.058l-2.143-2.143-.556.556v7.737l1.349,1.349,1.349-1.349Z"/><path class="d" d="M-228.5,1030.207l.556.556h9.324l.556-.556-2.143-2.143h-6.15Z"/><path class="f" d="M-227.708,1019.893l1.349,1.349h6.15l1.349-1.349-1.349-1.349h-6.15Z"/><path class="d" d="M-228.044,1020.229l-1.349,1.349v7.737l.556.556,2.143-2.143v-6.15Z"/><path class="d" d="M-219.873,1027.728l1.17,1.17.973.973.556-.556v-7.737l-1.349-1.349-1.349,1.349Z"/><rect class="d" width="2.699" height="2.699" transform="translate(-252.293 1021.578)"/><rect class="d" width="2.699" height="2.699" transform="translate(-252.293 1015.845)"/><path class="d" d="M-244.864,1009.58l.556-.556h9.324l.556.556-2.143,2.143h-6.15Z"/><path class="d" d="M-243.057,1018.208l-1.349,1.349-1.349-1.349v-7.737l.556-.556.973.973,1.17,1.17Z"/><path class="d" d="M-236.235,1012.058l2.143-2.143.556.556v7.737l-1.349,1.349-1.349-1.349Z"/><path class="d" d="M-234.428,1030.207l-.556.556h-9.324l-.556-.556,2.143-2.143h6.15Z"/><path class="f" d="M-235.222,1019.893l-1.349,1.349h-6.15l-1.349-1.349,1.349-1.349h6.15Z"/><path class="d" d="M-234.886,1020.229l1.349,1.349v7.737l-.556.556-2.143-2.143v-6.15Z"/><path class="d" d="M-243.057,1027.728l-1.17,1.17-.973.973-.556-.556v-7.737l1.349-1.349,1.349,1.349Z"/></g></svg>