<svg xmlns="http://www.w3.org/2000/svg" xmlns:xlink="http://www.w3.org/1999/xlink" width="147.026" height="160.971" viewBox="0 0 147.026 160.971"><defs><style>.a{fill:#fff;opacity:0;}.b{fill:#e9b65a;}.c{fill:#ee664e;}.d{fill:#176299;}.e{filter:url(#a);}</style><filter id="a" x="0" y="0" width="147.026" height="160.971" filterUnits="userSpaceOnUse"><feOffset dy="7" input="SourceAlpha"/><feGaussianBlur stdDeviation="2.5" result="b"/><feFlood flood-color="#176299" flood-opacity="0.302"/><feComposite operator="in" in2="b"/><feComposite in="SourceGraphic"/></filter></defs><g transform="translate(-1293.5 -3853.5)"><g class="e" transform="matrix(1, 0, 0, 1, 1293.5, 3853.5)"><path class="a" d="M211.677,282.617a22.866,22.866,0,0,0-13.312-34.287l-4.441-1.223-4.315-1.188-19.266-5.307-4.441-1.223a23.06,23.06,0,0,0-3.348-.66,22.868,22.868,0,0,0-24.777,16.638q-.306,1.113-.5,2.241a22.633,22.633,0,0,0-.312,4.433,61.583,61.583,0,0,0,2.993,117.848l4.369,1.2.036.009.036.011,4.369,1.2a61.583,61.583,0,0,0,62.908-99.7Z" transform="translate(-87.21 -238.06)"/></g><g transform="translate(1206.292 3615.437)"><path class="b" d="M177.042,279.66l-.027-.007-.026-.008-.028-.007-.026-.008-.027-.007-.027-.008-.027-.007-.027-.008-.027-.007-.027-.007-.027-.008-.027-.007-.027-.007-.027-.008-.027-.007-.027-.008-.027-.007-.027-.008-.027-.007-.027-.008-.027-.007-.027-.007-.027-.008-.027-.007-.027-.008-.027-.007-.027-.007-.027-.008-.027-.007-.027-.008-.027-.007-.027-.008-.027-.007-.027-.008-.027-.007-.026-.007-.027-.008-.027-.007-.027-.008-.027-.007-.027-.007-.027-.008-.027-.007-.027-.008-.027-.007-.027-.008-.027-.007-.027-.008-.027-.007-.027-.007-.027-.008-.027-.007-.027-.008-.027-.007-.027-.007-.027-.008-.027-.007-.027-.008-.027-.007-.027-.008-.027-.007-.027-.008-.027-.007-.027-.007-.027-.008-.027-.007-.027-.008-.026-.007-.027-.007-.027-.008-.027-.007-.027-.008-.027-.007-.027-.008-.027-.007-.027-.008-.027-.007-.027-.007-.027-.008-.027-.007-.027-.008-.027-.007-.027-.007-.027-.008-.027-.007-.027-.008-.027-.007-.027-.008-.027-.007-.027-.008-.027-.007-.027-.007-.027-.008-.027-.007-.027-.008-.027-.007-.027-.007-.027-.008-.027-.007-.026-.008-.028-.007-.026-.008-.027-.007-.027-.008-.027-.007-.027-.007-.027-.008-.027-.007-.027-.008-.027-.007-.027-.007-.027-.008-.027-.007-.027-.008-.027-.007-.027-.008-.027-.007-.027-.008-.027-.007-.027-.007-.027-.008-.027-.007-.027-.008-.027-.007-.027-.007-.027-.008-.027-.007-.027-.008-.027-.007-.027-.008-.027-.007-.026-.008-.027-.007-.027-.007-.027-.008-.027-.007-.027-.007-.027-.008-.027-.007-.027-.008-.027-.007-.027-.008-.027-.007-.027-.008-.027-.007-.027-.008-.027-.007-.027-.007-.027-.008-.027-.007-.027-.007-.027-.008-.027-.007-.027-.008-.027-.007-.027-.008-.027-.007-.027-.008-.027-.007-.027-.008-.027-.007-.027-.007a44.876,44.876,0,0,0-23.832,86.531l.027.007.027.008.027.007.027.008.027.007.027.008.027.007.027.008.027.007.027.007.027.008.027.007.027.007.027.008.027.007.027.008.027.007.027.008.027.007.027.008.027.007.027.007.027.008.027.007.027.008.027.007.027.007.027.008.027.007.026.008.028.007.026.008.027.007.027.008.027.007.027.007.027.008.027.007.027.008.027.007.027.007.027.008.027.007.027.008.027.007.027.008.027.007.027.008.027.007.027.007.027.008.027.007.027.008.027.007.027.007.027.008.027.007.027.008.027.007.027.008.027.007.026.008.027.007.027.007.027.008.027.007.027.008.027.007.027.007.027.008.027.007.027.008.027.007.027.008.027.007.027.008.027.007.027.007.027.008.027.007.027.008.027.007.027.007.027.008.027.007.027.008.027.007.027.008.027.007.027.008.027.007.027.007.027.008.026.007.028.008.026.007.027.007.027.008.027.007.027.008.027.007.027.008.027.007.027.008.027.007.027.007.027.008.027.007.027.008.027.007.027.007.027.008.027.007.027.008.027.007.027.008.027.007.027.008.027.007.027.007.027.008.027.007.027.008.027.007.027.007.027.008.027.007.026.008.027.007.027.008.027.007.027.008.027.007.027.007.027.008.027.007.027.008.027.007.027.007.027.008.027.007.027.008.027.007.027.008.027.007.027.008.027.007.027.007.027.008.027.007.027.008.027.007.027.007.027.008.027.007.027.008.027.007.027.008.027.007.026.008.027.007.027.007a44.876,44.876,0,1,0,23.832-86.531Zm-43.328,34.614a32.625,32.625,0,0,1,37.858-23.287,32.583,32.583,0,0,1-17.261,62.674A32.626,32.626,0,0,1,133.714,314.274Z"/><path class="b" d="M181.2,334.454l.054.014.053.015.054.015.054.015.054.015.054.015.054.015.054.014.054.015.054.015.054.015.054.015.054.015.054.015.054.014.054.015.054.015.053.015.054.015.054.015.054.015.054.014.054.015.054.015.054.015.054.015.054.015.054.014.054.015.054.015.054.015a4.3,4.3,0,1,0,2.285-8.3l-.054-.015-.054-.015-.054-.015-.054-.015-.054-.015-.054-.015-.054-.014-.054-.015-.053-.015-.054-.015-.054-.015-.054-.015-.054-.015-.054-.014-.054-.015-.054-.015-.054-.015-.054-.015-.054-.015-.054-.015-.054-.014-.054-.015-.054-.015-.054-.015-.054-.015-.053-.015-.054-.015-.054-.014-.054-.015-.054-.015-.054-.015-.054-.015-.054-.015-.054-.015-.054-.014-.054-.015-.054-.015-.054-.015-.054-.015-.054-.015-.054-.015-.053-.014-.054-.015-.054-.015-.054-.015-.054-.015-.054-.015-.054-.015-.054-.014-.054-.015-.054-.015-.054-.015-.054-.015-.054-.015-.054-.015-.054-.014-.054-.015-.053-.015-.054-.015-.054-.015-.054-.015-.054-.015-.054-.014-.054-.015-.054-.015-.054-.015-.054-.015-.054-.015-.054-.014-.054-.015-.054-.015-.054-.015-.054-.015-.053-.015-.054-.015-.054-.014-.054-.015-.054-.015-.054-.015-.054-.015-.054-.015-11.041-3.041,5.224-18.965a4.3,4.3,0,0,0-3.007-5.292l-.027-.006-.026-.008-.028-.007-.026-.008-.028-.007-.026-.008-.027-.007-.027-.008-.027-.007-.027-.008-.027-.007-.027-.008-.027-.006-.027-.009-.027-.006-.027-.008-.027-.007-.027-.008-.027-.007-.027-.008-.027-.007-.027-.008-.027-.007-.027-.008-.027-.007-.027-.008-.027-.006-.027-.009-.027-.006-.027-.008-.027-.007-.026-.008-.028-.007-.026-.008-.028-.007-.026-.008-.028-.007-.026-.008-.027-.007-.027-.008-.027-.006-.027-.009-.027-.006-.027-.008-.027-.007-.027-.008-.027-.007-.027-.008-.027-.007-.027-.008-.027-.007-.027-.008-.027-.007-.027-.008-.027-.006-.027-.009-.027-.006-.027-.008-.027-.007-.027-.008-.027-.007-.027-.008-.027-.007-.027-.008-.027-.007-.026-.008-.028-.007-.026-.008-.028-.006-.026-.009-.027-.006-.027-.008-.027-.007-.027-.008-.027-.007-.027-.008-.027-.007-.027-.008-.027-.007-.027-.008-.027-.007-.027-.008-.027-.006-.027-.009-.027-.006-.027-.008-.027-.007-.027-.008-.027-.007-.027-.008-.027-.007-.027-.008-.027-.007-.027-.008-.027-.007-.027-.008-.027-.006-.026-.009-.028-.006-.026-.008-.028-.007-.026-.008-.027-.007-.027-.008-.027-.007-.027-.008-.027-.007-.027-.008-.027-.007-.027-.008-.027-.006-.027-.009-.027-.006-.027-.008-.027-.007-.027-.008-.027-.007-.027-.008-.027-.007-.027-.008-.027-.007-.027-.008-.027-.007-.027-.008-.027-.006-.027-.008-.027-.007-.027-.008-.027-.007-.026-.008-.028-.007-.026-.008-.028-.007-.026-.008-.028-.007-.026-.008-.027-.007-.027-.008-.027-.006-.027-.008-.027-.007-.027-.008-.027-.007-.027-.008-.027-.007-.027-.008-.027-.007-.027-.008-.027-.007-.027-.008-.027-.007-.027-.008-.027-.006-.027-.008-.027-.007-.027-.008-.027-.007-.027-.008-.027-.007-.027-.008-.027-.007-.026-.008a4.3,4.3,0,0,0-5.292,3.006l-6.366,23.115a4.3,4.3,0,0,0,3.006,5.291l.054.015.054.015.054.015.054.015.054.014.054.015.054.015.054.015.054.015.054.015.054.014.053.015.054.015.054.015.054.015.054.015.054.015.054.014.054.015.054.015.054.015.054.015.054.015.054.015.054.014.054.015.054.015.053.015.054.015.054.015.054.015.054.014.054.015.054.015.054.015.054.015.054.015.054.015.054.014.054.015.054.015.054.015.054.015.053.015.054.015.054.014.054.015.054.015.054.015.054.015.054.015.054.015.054.014.054.015.054.015.054.015.054.015.054.015.054.015.054.014.053.015.054.015.054.015.054.015.054.015.054.015.054.014.054.015.054.015.054.015.054.015.054.015.054.015.054.014.054.015.053.015.054.015.054.015.054.015.054.015.054.014,15.19,4.184.054.015.054.014.053.015.054.015.054.015.054.015.054.015.054.015.054.014.054.015.054.015.054.015.054.015.054.015.054.015.054.014.054.015.054.015.054.015.053.015.054.015.054.015.054.014.054.015.054.015.054.015.054.015.054.015.054.015.054.014.054.015.054.015.054.015.054.015.054.015.053.015.054.014.054.015.054.015.054.015.054.015.054.015.054.015.054.014.054.015.054.015.054.015.054.015.054.015Z"/><path class="b" d="M162.638,268.59l.054.015.054.015.054.015.054.015.053.014.054.015.054.015.054.015.054.015.054.015.054.015.054.014.054.015.054.015.054.015.054.015.054.015.054.014.054.015.054.015.053.015.054.015.054.015.054.015.054.014.054.015.054.015.054.015.054.015.054.015.054.015.054.014.054.015.054.015.054.015.054.015.054.015.053.015.054.014.054.015.054.015.054.015.054.015.054.015.054.015.054.014.054.015.054.015.054.015.054.015.054.015.054.015.054.014.053.015.054.015.054.015.054.015.054.015.054.015.054.014.054.015.054.015.054.015.054.015.054.015.054.015.054.014.054.015.054.015.053.015.054.015.054.015.054.015.054.014.054.015.054.015.054.015.054.015.054.015.054.015.054.014,19.338,5.326h0l.054.015h0l.054.015h0l.054.015h0l.054.015h0l.054.015h0l.054.015h0l.054.014h0l.053.015h0l.053.015h0l.053.015h0l.054.015h0l.054.015h0l.054.015h0l.054.014h0l.054.015h0l.054.015h0l.054.015h0l.054.015h0l.054.015h0l.054.015h0l.054.014h0l.054.015h0l.054.015h0l.053.015h0l.053.015h0l.054.015h0l.054.014h0l.054.014h0l.054.015h0l.054.015h0l.054.015h0l.054.015h0l.054.015h0l.054.014h0l.054.014h0l.054.015h0l.054.015h0l.054.015h0l.054.015h0l.053.015h0l.053.014h0l.053.015h0l.054.015h0l.054.015h0l.054.015h0l.054.015h0l.054.015h0l.054.014h0l.054.015h0l.054.015h0l.054.015h0l.054.015h0l.054.015h0l.054.015h0l.054.014h0l.053.015h0l.053.015h0l.053.015h0l.054.015h0l.054.015h0l.054.015h0l.054.014h0l.054.015h0l.054.015h0l.054.015h0l.054.015h0l.054.015h0l.054.015h0l.054.014h0l.054.015h0l.054.015h0l.053.015h0l.053.015h0l.053.015h0l.054.015h0l.054.014h0l.054.015h0l.054.015h0l.054.015h0l.054.015h0l.054.015h0a6.148,6.148,0,1,0,3.265-11.854h0l-.054-.015h0l-.054-.015h0l-.054-.015h0l-.054-.014h0l-.054-.015h0l-.054-.015h0l-.054-.015h0l-.054-.015h0l-.054-.015h0l-.054-.015h0l-.054-.014h0l-.054-.015h0l-.053-.015h0l-.053-.015h0l-.053-.015h0l-.054-.015h0l-.054-.014h0l-.054-.014h0l-.054-.015h0l-.054-.015h0l-.054-.015h0l-.054-.015h0l-.054-.015h0l-.054-.014h0l-.054-.014h0l-.054-.015h0l-.054-.015h0l-.054-.015h0l-.054-.015h0l-.053-.015h0l-.053-.014h0l-.054-.014h0l-.054-.015h0l-.054-.015h0l-.054-.015h0l-.054-.015h0l-.054-.015h0l-.054-.014h0l-.054-.015h0l-.054-.015h0l-.054-.015h0l-.054-.015h0l-.054-.015h0l-.054-.015h0l-.053-.014h0l-.053-.015h0l-.053-.015h0l-.054-.015h0l-.054-.015h0l-.054-.015h0l-.054-.015h0l-.054-.014h0l-.054-.015h0l-.054-.015h0l-.054-.015h0l-.054-.015h0l-.054-.015h0l-.054-.015h0l-.054-.014h0l-.054-.015h0l-.054-.015h0l-.053-.015h0l-.053-.015h0l-.053-.015h0l-.054-.015h0l-.054-.014h0l-.054-.015h0l-.054-.015h0l-.054-.015h0l-.054-.015h0l-.054-.015h0l-.054-.015h0l-.054-.014h0l-.054-.015h0l-.054-.015h0l-.054-.015h0l-.054-.015h0l-.053-.015h0l-.053-.015h0l-.054-.014h0l-.054-.015h0l-19.339-5.326-.053-.015-.054-.015-.054-.015-.054-.015-.054-.015-.054-.014-.054-.015-.054-.015-.054-.015-.054-.015-.054-.015-.054-.015-.054-.014-.054-.015-.054-.015-.054-.015-.053-.015-.054-.015-.054-.015-.054-.014-.054-.015-.054-.015-.054-.015-.054-.015-.054-.015-.054-.015-.054-.014-.054-.015-.054-.015-.054-.015-.054-.015-.054-.015-.054-.015-.053-.014-.054-.015-.054-.015-.054-.015-.054-.015-.054-.015-.054-.015-.054-.014-.054-.015-.054-.015-.054-.015-.054-.015-.054-.015-.054-.014-.054-.015-.054-.015-.053-.015-.054-.015-.054-.015-.054-.015-.054-.014-.054-.015-.054-.015-.054-.015-.054-.015-.054-.015-.054-.015-.054-.014-.054-.015-.054-.015-.054-.015-.054-.015-.053-.015-.054-.015-.054-.014-.054-.015-.054-.015-.054-.015-.054-.015-.054-.015-.054-.015-.054-.014-.054-.015-.054-.015-.054-.015-.054-.015-.054-.015-.054-.015a6.148,6.148,0,1,0-3.264,11.854Z"/><path class="c" d="M172.6,278.437l-.027-.008-.027-.007-.027-.008-.027-.007-.027-.007-.027-.008-.027-.007-.027-.008-.027-.007-.027-.008-.027-.007-.027-.008-.027-.007-.027-.007-.027-.008-.027-.007-.027-.008-.027-.007-.027-.007-.027-.008-.027-.007-.027-.008-.027-.007-.027-.008-.027-.007-.027-.008-.027-.007-.027-.007-.027-.008-.026-.007-.027-.008-.027-.007-.027-.007-.027-.008-.027-.007-.027-.008-.027-.007-.027-.008-.027-.007-.027-.008-.027-.007-.027-.007-.027-.008-.027-.007-.027-.007-.027-.008-.027-.007-.027-.008-.027-.007-.027-.008-.027-.007-.027-.008-.027-.007-.027-.008-.027-.007-.027-.007-.027-.008-.027-.007-.027-.007-.027-.008-.027-.007-.026-.008-.027-.007-.027-.008-.027-.007-.027-.008-.027-.007-.027-.008-.027-.007-.027-.007-.027-.008-.027-.007-.027-.007-.027-.008-.027-.007-.027-.008-.027-.007-.027-.008-.027-.007-.027-.008-.027-.007-.027-.007-.027-.008-.027-.007-.027-.008-.027-.007-.027-.007-.027-.008-.027-.007-.027-.008-.027-.007-.027-.008-.027-.007-.026-.008-.028-.007-.026-.007-.027-.008-.027-.007-.027-.008-.027-.007-.027-.007-.027-.008-.027-.007-.027-.008-.027-.007-.027-.008-.027-.007-.027-.008-.027-.007-.027-.007-.027-.008-.027-.007-.027-.008-.027-.007-.027-.007-.027-.008-.027-.007-.027-.008-.027-.007-.027-.008-.027-.007-.027-.008-.027-.007-.027-.007-.027-.008-.026-.007-.027-.008-.027-.007-.027-.007-.027-.008-.027-.007-.027-.008-.027-.007-.027-.008-.027-.007-.027-.008-.027-.007-.027-.007-.027-.008-.027-.007-.027-.008-.027-.007-.027-.007-.027-.008-.027-.007-.027-.008-.027-.007-.027-.008-.027-.007-.027-.008-.027-.007-.027-.007-.027-.008-.027-.007-.027-.008-.027-.007-.027-.007-.026-.008-.028-.007-.026-.008-.027-.007-.027-.008A44.877,44.877,0,0,0,144.4,363.765l.027.007.027.008.027.007.026.007.027.008.027.007.027.008.027.007.027.007.027.008.027.007.027.008.027.007.027.008.027.007.027.008.027.007.027.007.027.008.027.007.027.008.027.007.027.007.027.008.027.007.027.008.027.007.027.008.027.007.027.008.027.007.027.007.027.008.027.007.027.008.026.007.028.007.026.008.027.007.027.008.027.007.027.008.027.007.027.008.027.007.027.007.027.008.027.007.027.008.027.007.027.007.027.008.027.007.027.008.027.007.027.008.027.007.027.008.027.007.027.007.027.008.027.007.027.008.027.007.027.007.027.008.027.007.026.008.027.007.027.008.027.007.027.008.027.007.027.007.027.008.027.007.027.008.027.007.027.007.027.008.027.007.027.008.027.007.027.008.027.007.027.008.027.007.027.007.027.008.027.007.027.008.027.007.027.007.027.008.027.007.027.008.027.007.027.008.027.007.026.008.028.007.026.007.027.008.027.007.027.007.027.008.027.007.027.008.027.007.027.008.027.007.027.008.027.007.027.008.027.007.027.007.027.008.027.007.027.007.027.008.027.007.027.008.027.007.027.008.027.007.027.008.027.007.027.007.027.008.027.007.027.008.027.007.027.007.026.008.027.007.027.008.027.007.027.008.027.007.027.008.027.007.027.007.027.008.027.007.027.008.027.007.027.007.027.008.027.007.027.008.027.007.027.008.027.007.027.008.027.007.027.007.027.008.027.007.027.008.027.007.027.007.027.008A44.876,44.876,0,0,0,172.6,278.437Zm-43.329,34.614a32.626,32.626,0,0,1,37.859-23.287,32.582,32.582,0,0,1-17.261,62.673A32.624,32.624,0,0,1,129.272,313.051Z"/><path class="c" d="M176.753,333.23l.054.015.054.015.054.015.054.015.053.014.054.015.054.015.054.015.054.015.054.015.054.015.054.014.054.015.054.015.054.015.054.015.054.015.054.015.054.014.054.015.054.015.053.015.054.015.054.015.054.015.054.014.054.015.054.015.054.015.054.015.054.015a4.3,4.3,0,0,0,2.285-8.3l-.054-.015-.054-.015-.054-.014-.054-.015-.054-.015-.053-.015-.054-.015-.054-.015-.054-.015-.054-.014-.054-.015-.054-.015-.054-.015-.054-.015-.054-.015-.054-.014-.054-.015-.054-.015-.054-.015-.054-.015-.054-.015-.054-.015-.053-.014-.054-.015-.054-.015-.054-.015-.054-.015-.054-.015-.054-.015-.054-.014-.054-.015-.054-.015-.054-.015-.054-.015-.054-.015-.054-.015-.054-.014-.054-.015-.053-.015-.054-.015-.054-.015-.054-.015-.054-.015-.054-.014-.054-.015-.054-.015-.054-.015-.054-.015-.054-.015-.054-.015-.054-.014-.054-.015-.054-.015-.054-.015-.053-.015-.054-.015-.054-.015-.054-.014-.054-.015-.054-.015-.054-.015-.054-.015-.054-.015-.054-.015-.054-.014-.054-.015-.054-.015-.054-.015-.054-.015-.054-.015-.053-.015-.054-.014-.054-.015-.054-.015-.054-.015-.054-.015-.054-.015-.054-.015-.054-.014-.054-.015-.054-.015L165.3,321.149l5.224-18.966a4.3,4.3,0,0,0-3.006-5.291l-.027-.007-.027-.008-.027-.007-.027-.008-.027-.006-.027-.009-.027-.006-.027-.008-.027-.007-.027-.008-.027-.007-.027-.008-.027-.007-.027-.008-.027-.007-.027-.008-.027-.007-.027-.008-.027-.006-.027-.008-.027-.007-.027-.008-.027-.007-.027-.008-.027-.007-.026-.008-.028-.007-.026-.008-.028-.007-.026-.008-.028-.007-.026-.008-.027-.006-.027-.008-.027-.007-.027-.008-.027-.007-.027-.008-.027-.007-.027-.008-.027-.007-.027-.008-.027-.007-.027-.008-.027-.007-.027-.008-.027-.006-.027-.008-.027-.007-.027-.008-.027-.007-.027-.008-.027-.007-.027-.008-.027-.007-.027-.008-.027-.007-.027-.008-.027-.006-.026-.009-.028-.006-.026-.008-.028-.007-.026-.008-.027-.007-.027-.008-.027-.007-.027-.008-.027-.007-.027-.008-.027-.007-.027-.008-.027-.006-.027-.009-.027-.006-.027-.008-.027-.007-.027-.008-.027-.007-.027-.008-.027-.007-.027-.008-.027-.007-.027-.008-.027-.007-.027-.008-.027-.006-.027-.009-.027-.006-.027-.008-.027-.007-.026-.008-.028-.007-.026-.008-.028-.007-.026-.008-.027-.007-.027-.008-.027-.007-.027-.008-.027-.006-.027-.009-.027-.006-.027-.008-.027-.007-.027-.008-.027-.007-.027-.008-.027-.007-.027-.008-.027-.007-.027-.008-.027-.007-.027-.008-.027-.006-.027-.009-.027-.006-.027-.008-.027-.007-.027-.008-.027-.007-.027-.008-.027-.007-.026-.008-.028-.007-.026-.008-.028-.007-.026-.008-.027-.006-.027-.009-.027-.006-.027-.008-.027-.007-.027-.008-.027-.007-.027-.008-.027-.007-.027-.008-.027-.007-.027-.008-.027-.007-.027-.008-.027-.006-.027-.009-.027-.006-.027-.008-.027-.007-.027-.008-.027-.007-.027-.008-.027-.007-.027-.008-.027-.007-.027-.008-.027-.007-.026-.008-.028-.006-.026-.009-.028-.006-.026-.008-.028-.007-.026-.008a4.3,4.3,0,0,0-5.292,3.006l-6.366,23.114A4.3,4.3,0,0,0,154.5,327.1l.054.015.054.014.054.015.054.015.054.015.054.015.054.015.054.015.054.014.054.015.054.015.054.015.054.015.054.015.053.015.054.014.054.015.054.015.054.015.054.015.054.015.054.015.054.014.054.015.054.015.054.015.054.015.054.015.054.015.054.014.053.015.054.015.054.015.054.015.054.015.054.015.054.014.054.015.054.015.054.015.054.015.054.015.054.015.054.014.054.015.054.015.053.015.054.015.054.015.054.015.054.014.054.015.054.015.054.015.054.015.054.015.054.015.054.014.054.015.054.015.054.015.054.015.054.015.053.014.054.015.054.015.054.015.054.015.054.015.054.015.054.014.054.015.054.015.054.015.054.015.054.015.054.015.054.014.053.015.054.015.054.015,15.19,4.183.054.015.054.015.054.015.054.015.054.015.053.015.054.014.054.015.054.015.054.015.054.015.054.015.054.015.054.014.054.015.054.015.054.015.054.015.054.015.054.015.054.014.054.015.053.015.054.015.054.015.054.015.054.015.054.014.054.015.054.015.054.015.054.015.054.015.054.015.054.014.054.015.054.015.054.015.053.015.054.015.054.015.054.014.054.015.054.015.054.015.054.015.054.015.054.014.054.015Z"/><path class="c" d="M158.2,267.367l.054.015.054.014.054.015.054.015.054.015.054.015.054.015.053.015.054.014.054.015.054.015.054.015.054.015.054.015.054.015.054.014.054.015.054.015.054.015.054.015.054.015.054.015.054.014.054.015.053.015.054.015.054.015.054.015.054.015.054.014.054.015.054.015.054.015.054.015.054.015.054.015.054.014.054.015.054.015.054.015.053.015.054.015.054.015.054.014.054.015.054.015.054.015.054.015.054.015.054.015.054.014.054.015.054.015.054.015.054.015.054.015.053.015.054.014.054.015.054.015.054.015.054.015.054.015.054.015.054.014.054.015.054.015.054.015.054.015.054.015.054.014.054.015.053.015.054.015.054.015.054.015.054.015.054.014.054.015.054.015.054.015L181.9,273.9h0l.054.015h0l.054.015h0l.054.015h0l.054.014h0l.054.015h0l.054.015h0l.054.015h0l.054.015h0l.054.015h0l.054.015h0l.053.014h0l.053.015h0l.053.015h0l.054.015h0l.054.015h0l.054.015h0l.054.015h0l.054.014h0l.054.015h0l.054.015h0l.054.015h0l.054.015h0l.054.015h0l.054.015h0l.054.014h0l.054.015h0l.053.015h0l.053.015h0l.054.015h0l.054.015h0l.054.015h0l.054.014h0l.054.015h0l.054.015h0l.054.015h0l.054.015h0l.054.015h0l.054.015h0l.054.014h0l.054.015h0l.054.015h0l.054.015h0l.053.015h0l.053.015h0l.053.015h0l.054.014h0l.054.015h0l.054.015h0l.054.015h0l.054.015h0l.054.015h0l.054.015h0l.054.014h0l.054.015h0l.054.015h0l.054.015h0l.054.015h0l.054.015h0l.053.015h0l.053.014h0l.053.015h0l.054.015h0l.054.015h0l.054.015h0l.054.015h0l.054.015h0l.054.014h0l.054.015h0l.054.015h0l.054.015h0l.054.015h0l.054.015h0l.054.014h0l.054.014h0l.053.015h0l.053.015h0l.053.015h0l.054.015h0l.054.015h0l.054.014h0l.054.014h0a6.147,6.147,0,1,0,3.265-11.853h0l-.054-.015h0l-.054-.015h0l-.054-.015h0l-.054-.015h0l-.054-.015h0l-.054-.014h0l-.054-.015h0l-.054-.015h0l-.054-.015h0L189,263.1h0l-.053-.015h0l-.053-.015h0l-.054-.014h0l-.054-.015h0l-.054-.015h0l-.054-.015h0l-.054-.015h0l-.054-.015h0l-.054-.015h0l-.054-.014h0l-.054-.015h0l-.054-.015h0l-.054-.015h0l-.054-.015h0l-.054-.015h0l-.054-.015h0l-.053-.014h0l-.053-.015h0l-.054-.015h0l-.054-.015h0l-.054-.015h0l-.054-.015h0l-.054-.015h0l-.054-.014h0l-.054-.015h0l-.054-.015h0l-.054-.015h0l-.054-.015h0l-.054-.015h0l-.054-.015h0l-.054-.014h0l-.053-.015h0l-.053-.015h0l-.053-.015h0l-.054-.015h0l-.054-.015h0l-.054-.014h0l-.054-.014h0l-.054-.015h0l-.054-.015h0l-.054-.015h0l-.054-.015h0l-.054-.015h0l-.054-.014h0l-.054-.014h0l-.054-.015h0l-.054-.015h0l-.054-.015h0l-.053-.015h0l-.053-.015h0l-.054-.014h0l-.054-.014h0l-.054-.015h0l-.054-.015h0l-.054-.015h0l-.054-.015h0l-.054-.015h0l-.054-.014h0l-.054-.015h0l-.054-.015h0l-.054-.015h0l-.054-.015h0l-.054-.015h0l-.054-.015h0l-.053-.014h0l-.053-.015h0l-.054-.015h0l-.054-.015h0l-.054-.015h0l-.054-.015h0l-.054-.015h0l-19.338-5.326-.054-.014-.054-.015-.054-.015-.054-.015-.054-.015-.054-.015-.054-.015-.054-.014-.054-.015-.054-.015-.054-.015-.054-.015-.054-.015-.053-.015-.054-.014-.054-.015-.054-.015-.054-.015-.054-.015-.054-.015-.054-.015-.054-.014-.054-.015-.054-.015-.054-.015-.054-.015-.054-.015-.054-.015-.054-.014-.053-.015-.054-.015-.054-.015-.054-.015-.054-.015-.054-.015-.054-.014-.054-.015-.054-.015-.054-.015-.054-.015-.054-.015-.054-.015-.054-.014-.054-.015-.054-.015-.054-.015-.053-.015-.054-.015-.054-.015-.054-.014-.054-.015-.054-.015-.054-.015-.054-.015-.054-.015-.054-.015-.054-.014-.054-.015-.054-.015-.054-.015-.054-.015-.054-.015-.053-.015-.054-.014-.054-.015-.054-.015-.054-.015-.054-.015-.054-.015-.054-.015-.054-.014-.054-.015-.054-.015-.054-.015-.054-.015-.054-.015-.054-.014-.054-.015-.053-.015-.054-.015-.054-.015a6.148,6.148,0,1,0-3.265,11.854Z"/><path class="d" d="M168.232,277.233a44.877,44.877,0,1,0,31.349,55.182A44.928,44.928,0,0,0,168.232,277.233Zm-20.568,74.678a32.582,32.582,0,1,1,40.064-22.761A32.618,32.618,0,0,1,147.664,351.911Z"/><path class="d" d="M176.341,324.19l-15.41-4.244,5.224-18.966a4.3,4.3,0,0,0-8.3-2.285l-6.366,23.114A4.3,4.3,0,0,0,154.5,327.1l19.559,5.386a4.3,4.3,0,0,0,2.285-8.3Z"/><path class="d" d="M158.2,267.367,181.9,273.9h0a6.148,6.148,0,1,0,3.265-11.854h0l-23.707-6.529a6.148,6.148,0,1,0-3.265,11.854Z"/></g></g></svg>