<svg xmlns="http://www.w3.org/2000/svg" width="147.026" height="160.971"><defs><filter id="a" x="0" y="0" width="147.026" height="160.971" filterUnits="userSpaceOnUse"><feOffset dy="7"/><feGaussianBlur stdDeviation="2.5" result="b"/><feFlood flood-color="#176299" flood-opacity=".302"/><feComposite operator="in" in2="b"/><feComposite in="SourceGraphic"/></filter></defs><g transform="translate(.002 -.003)" filter="url(#a)"><path d="M124.467 44.557a22.866 22.866 0 00-13.312-34.287l-4.441-1.223-4.315-1.188-19.266-5.307-4.441-1.223a23.06 23.06 0 00-3.348-.66 22.868 22.868 0 00-24.777 16.638q-.306 1.113-.5 2.241a22.633 22.633 0 00-.312 4.433 61.583 61.583 0 002.993 117.848l4.369 1.2.036.009.036.011 4.369 1.2a61.583 61.583 0 0062.908-99.7z" fill="#fff"/></g><path d="M89.834 41.597l-.027-.007-.026-.008-.028-.007-.026-.008-.027-.007-.027-.008-.027-.007-.027-.008-.027-.007-.027-.007-.027-.008-.027-.007-.027-.007-.027-.008-.027-.007-.027-.008-.027-.007-.027-.008-.027-.007-.027-.008-.027-.007-.027-.007-.027-.008-.027-.007-.027-.008-.027-.007-.027-.007-.027-.008-.027-.007-.027-.008-.027-.007-.027-.008-.027-.007-.027-.008-.027-.007-.026-.007-.027-.008-.027-.007-.027-.008-.027-.007-.027-.007-.027-.008-.027-.007-.027-.008-.027-.007-.027-.008-.027-.007-.027-.008-.027-.007-.027-.007-.027-.008-.027-.007-.027-.008-.027-.007-.027-.007-.027-.008-.027-.007-.027-.008-.027-.007-.027-.008-.027-.007-.027-.008-.027-.007-.027-.007-.027-.008-.027-.007-.027-.008-.026-.007-.027-.007-.027-.008-.027-.007-.027-.008-.027-.007-.027-.008-.027-.007-.027-.008-.027-.007-.027-.007-.027-.008-.027-.007-.027-.008-.027-.007-.027-.007-.027-.008-.027-.007-.027-.008-.027-.007-.027-.008-.027-.007-.027-.008-.027-.007-.027-.007-.027-.008-.027-.007-.027-.008-.027-.007-.027-.007-.027-.008-.027-.007-.026-.008-.028-.007-.026-.008-.027-.007-.027-.008-.027-.007-.027-.007-.027-.008-.027-.007-.027-.008-.027-.007-.027-.007-.027-.008-.027-.007-.027-.008-.027-.007-.027-.008-.027-.007-.027-.008-.027-.007-.027-.007-.027-.008-.027-.007-.027-.008-.027-.007-.027-.007-.027-.008-.027-.007-.027-.008-.027-.007-.027-.008-.027-.007-.026-.008-.027-.007-.027-.007-.027-.008-.027-.007-.027-.007-.027-.008-.027-.007-.027-.008-.027-.007-.027-.008-.027-.007-.027-.008-.027-.007-.027-.008-.027-.007-.027-.007-.027-.008-.027-.007-.027-.007-.027-.008-.027-.007-.027-.008-.027-.007-.027-.008-.027-.007-.027-.008-.027-.007-.027-.008-.027-.007-.027-.007a44.876 44.876 0 00-23.832 86.531l.027.007.027.008.027.007.027.008.027.007.027.008.027.007.027.008.027.007.027.007.027.008.027.007.027.007.027.008.027.007.027.008.027.007.027.008.027.007.027.008.027.007.027.007.027.008.027.007.027.008.027.007.027.007.027.008.027.007.026.008.028.007.026.008.027.007.027.008.027.007.027.007.027.008.027.007.027.008.027.007.027.007.027.008.027.007.027.008.027.007.027.008.027.007.027.008.027.007.027.007.027.008.027.007.027.008.027.007.027.007.027.008.027.007.027.008.027.007.027.008.027.007.026.008.027.007.027.007.027.008.027.007.027.008.027.007.027.007.027.008.027.007.027.008.027.007.027.008.027.007.027.008.027.007.027.007.027.008.027.007.027.008.027.007.027.007.027.008.027.007.027.008.027.007.027.008.027.007.027.008.027.007.027.007.027.008.026.007.028.008.026.007.027.007.027.008.027.007.027.008.027.007.027.008.027.007.027.008.027.007.027.007.027.008.027.007.027.008.027.007.027.007.027.008.027.007.027.008.027.007.027.008.027.007.027.008.027.007.027.007.027.008.027.007.027.008.027.007.027.007.027.008.027.007.026.008.027.007.027.008.027.007.027.008.027.007.027.007.027.008.027.007.027.008.027.007.027.007.027.008.027.007.027.008.027.007.027.008.027.007.027.008.027.007.027.007.027.008.027.007.027.008.027.007.027.007.027.008.027.007.027.008.027.007.027.008.027.007.026.008.027.007.027.007a44.876 44.876 0 1023.832-86.531zM46.506 76.211a32.625 32.625 0 0137.858-23.287 32.583 32.583 0 01-17.261 62.674 32.626 32.626 0 01-20.597-39.387z" fill="#e9b65a"/><path d="M93.992 96.391l.054.014.053.015.054.015.054.015.054.015.054.015.054.015.054.014.054.015.054.015.054.015.054.015.054.015.054.015.054.014.054.015.054.015.053.015.054.015.054.015.054.015.054.014.054.015.054.015.054.015.054.015.054.015.054.014.054.015.054.015.054.015a4.304 4.304 0 102.285-8.3l-.054-.015-.054-.015-.054-.015-.054-.015-.054-.015-.054-.015-.054-.014-.054-.015-.053-.015-.054-.015-.054-.015-.054-.015-.054-.015-.054-.014-.054-.015-.054-.015-.054-.015-.054-.015-.054-.015-.054-.015-.054-.014-.054-.015-.054-.015-.054-.015-.054-.015-.053-.015-.054-.015-.054-.014-.054-.015-.054-.015-.054-.015-.054-.015-.054-.015-.054-.015-.054-.014-.054-.015-.054-.015-.054-.015-.054-.015-.054-.015-.054-.015-.053-.014-.054-.015-.054-.015-.054-.015-.054-.015-.054-.015-.054-.015-.054-.014-.054-.015-.054-.015-.054-.015-.054-.015-.054-.015-.054-.015-.054-.014-.054-.015-.053-.015-.054-.015-.054-.015-.054-.015-.054-.015-.054-.014-.054-.015-.054-.015-.054-.015-.054-.015-.054-.015-.054-.014-.054-.015-.054-.015-.054-.015-.054-.015-.053-.015-.054-.015-.054-.014-.054-.015-.054-.015-.054-.015-.054-.015-.054-.015-11.041-3.041 5.224-18.965a4.3 4.3 0 00-3.007-5.292l-.027-.006-.026-.008-.028-.007-.026-.008-.028-.007-.026-.008-.027-.007-.027-.008-.027-.007-.027-.008-.027-.007-.027-.008-.027-.006-.027-.009-.027-.006-.027-.008-.027-.007-.027-.008-.027-.007-.027-.008-.027-.007-.027-.008-.027-.007-.027-.008-.027-.007-.027-.008-.027-.006-.027-.009-.027-.006-.027-.008-.027-.007-.026-.008-.028-.007-.026-.008-.028-.007-.026-.008-.028-.007-.026-.008-.027-.007-.027-.008-.027-.006-.027-.009-.027-.006-.027-.008-.027-.007-.027-.008-.027-.007-.027-.008-.027-.007-.027-.008-.027-.007-.027-.008-.027-.007-.027-.008-.027-.006-.027-.009-.027-.006-.027-.008-.027-.007-.027-.008-.027-.007-.027-.008-.027-.007-.027-.008-.027-.007-.026-.008-.028-.007-.026-.008-.028-.006-.026-.009-.027-.006-.027-.008-.027-.007-.027-.008-.027-.007-.027-.008-.027-.007-.027-.008-.027-.007-.027-.008-.027-.007-.027-.008-.027-.006-.027-.009-.027-.006-.027-.008-.027-.007-.027-.008-.027-.007-.027-.008-.027-.007-.027-.008-.027-.007-.027-.008-.027-.007-.027-.008-.027-.006-.026-.009-.028-.006-.026-.008-.028-.007-.026-.008-.027-.007-.027-.008-.027-.007-.027-.008-.027-.007-.027-.008-.027-.007-.027-.008-.027-.006-.027-.009-.027-.006-.027-.008-.027-.007-.027-.008-.027-.007-.027-.008-.027-.007-.027-.008-.027-.007-.027-.008-.027-.007-.027-.008-.027-.006-.027-.008-.027-.007-.027-.008-.027-.007-.026-.008-.028-.007-.026-.008-.028-.007-.026-.008-.028-.007-.026-.008-.027-.007-.027-.008-.027-.006-.027-.008-.027-.007-.027-.008-.027-.007-.027-.008-.027-.007-.027-.008-.027-.007-.027-.008-.027-.007-.027-.008-.027-.007-.027-.008-.027-.006-.027-.008-.027-.007-.027-.008-.027-.007-.027-.008-.027-.007-.027-.008-.027-.007-.026-.008a4.3 4.3 0 00-5.292 3.006L68.73 84.967a4.3 4.3 0 003.006 5.291l.054.015.054.015.054.015.054.015.054.014.054.015.054.015.054.015.054.015.054.015.054.014.053.015.054.015.054.015.054.015.054.015.054.015.054.014.054.015.054.015.054.015.054.015.054.015.054.015.054.014.054.015.054.015.053.015.054.015.054.015.054.015.054.014.054.015.054.015.054.015.054.015.054.015.054.015.054.014.054.015.054.015.054.015.054.015.053.015.054.015.054.014.054.015.054.015.054.015.054.015.054.015.054.015.054.014.054.015.054.015.054.015.054.015.054.015.054.015.054.014.053.015.054.015.054.015.054.015.054.015.054.015.054.014.054.015.054.015.054.015.054.015.054.015.054.015.054.014.054.015.053.015.054.015.054.015.054.015.054.015.054.014 15.19 4.184.054.015.054.014.053.015.054.015.054.015.054.015.054.015.054.015.054.014.054.015.054.015.054.015.054.015.054.015.054.015.054.014.054.015.054.015.054.015.053.015.054.015.054.015.054.014.054.015.054.015.054.015.054.015.054.015.054.015.054.014.054.015.054.015.054.015.054.015.054.015.053.015.054.014.054.015.054.015.054.015.054.015.054.015.054.015.054.014.054.015.054.015.054.015.054.015.054.015zM75.43 30.527l.054.015.054.015.054.015.054.015.053.014.054.015.054.015.054.015.054.015.054.015.054.015.054.014.054.015.054.015.054.015.054.015.054.015.054.014.054.015.054.015.053.015.054.015.054.015.054.015.054.014.054.015.054.015.054.015.054.015.054.015.054.015.054.014.054.015.054.015.054.015.054.015.054.015.053.015.054.014.054.015.054.015.054.015.054.015.054.015.054.015.054.014.054.015.054.015.054.015.054.015.054.015.054.015.054.014.053.015.054.015.054.015.054.015.054.015.054.015.054.014.054.015.054.015.054.015.054.015.054.015.054.015.054.014.054.015.054.015.053.015.054.015.054.015.054.015.054.014.054.015.054.015.054.015.054.015.054.015.054.015.054.014 19.338 5.326.054.015.054.015.054.015.054.015.054.015.054.015.054.014.053.015.053.015.053.015.054.015.054.015.054.015.054.014.054.015.054.015.054.015.054.015.054.015.054.015.054.014.054.015.054.015.053.015.053.015.054.015.054.014.054.014.054.015.054.015.054.015.054.015.054.015.054.014.054.014.054.015.054.015.054.015.054.015.053.015.053.014.053.015.054.015.054.015.054.015.054.015.054.015.054.014.054.015.054.015.054.015.054.015.054.015.054.015.054.014.053.015.053.015.053.015.054.015.054.015.054.015.054.014.054.015.054.015.054.015.054.015.054.015.054.015.054.014.054.015.054.015.053.015.053.015.053.015.054.015.054.014.054.015.054.015.054.015.054.015.054.015a6.148 6.148 0 103.265-11.854l-.054-.015-.054-.015-.054-.015-.054-.014-.054-.015-.054-.015-.054-.015-.054-.015-.054-.015-.054-.015-.054-.014-.054-.015-.053-.015-.053-.015-.053-.015-.054-.015-.054-.014-.054-.014-.054-.015-.054-.015-.054-.015-.054-.015-.054-.015-.054-.014-.054-.014-.054-.015-.054-.015-.054-.015-.054-.015-.053-.015-.053-.014-.054-.014-.054-.015-.054-.015-.054-.015-.054-.015-.054-.015-.054-.014-.054-.015-.054-.015-.054-.015-.054-.015-.054-.015-.054-.015-.053-.014-.053-.015-.053-.015-.054-.015-.054-.015-.054-.015-.054-.015-.054-.014-.054-.015-.054-.015-.054-.015-.054-.015-.054-.015-.054-.015-.054-.014-.054-.015-.054-.015-.053-.015-.053-.015-.053-.015-.054-.015-.054-.014-.054-.015-.054-.015-.054-.015-.054-.015-.054-.015-.054-.015-.054-.014-.054-.015-.054-.015-.054-.015-.054-.015-.053-.015-.053-.015-.054-.014-.054-.015-19.339-5.326-.053-.015-.054-.015-.054-.015-.054-.015-.054-.015-.054-.014-.054-.015-.054-.015-.054-.015-.054-.015-.054-.015-.054-.015-.054-.014-.054-.015-.054-.015-.054-.015-.053-.015-.054-.015-.054-.015-.054-.014-.054-.015-.054-.015-.054-.015-.054-.015-.054-.015-.054-.015-.054-.014-.054-.015-.054-.015-.054-.015-.054-.015-.054-.015-.054-.015-.053-.014-.054-.015-.054-.015-.054-.015-.054-.015-.054-.015-.054-.015-.054-.014-.054-.015-.054-.015-.054-.015-.054-.015-.054-.015-.054-.014-.054-.015-.054-.015-.053-.015-.054-.015-.054-.015-.054-.015-.054-.014-.054-.015-.054-.015-.054-.015-.054-.015-.054-.015-.054-.015-.054-.014-.054-.015-.054-.015-.054-.015-.054-.015-.053-.015-.054-.015-.054-.014-.054-.015-.054-.015-.054-.015-.054-.015-.054-.015-.054-.015-.054-.014-.054-.015-.054-.015-.054-.015-.054-.015-.054-.015-.054-.015a6.148 6.148 0 10-3.264 11.854z" fill="#e9b65a"/><path d="M85.392 40.374l-.027-.008-.027-.007-.027-.008-.027-.007-.027-.007-.027-.008-.027-.007-.027-.008-.027-.007-.027-.008-.027-.007-.027-.008-.027-.007-.027-.007-.027-.008-.027-.007-.027-.008-.027-.007-.027-.007-.027-.008-.027-.007-.027-.008-.027-.007-.027-.008-.027-.007-.027-.008-.027-.007-.027-.007-.027-.008-.026-.007-.027-.008-.027-.007-.027-.007-.027-.008-.027-.007-.027-.008-.027-.007-.027-.008-.027-.007-.027-.008-.027-.007-.027-.007-.027-.008-.027-.007-.027-.007-.027-.008-.027-.007-.027-.008-.027-.007-.027-.008-.027-.007-.027-.008-.027-.007-.027-.008-.027-.007-.027-.007-.027-.008-.027-.007-.027-.007-.027-.008-.027-.007-.026-.008-.027-.007-.027-.008-.027-.007-.027-.008-.027-.007-.027-.008-.027-.007-.027-.007-.027-.008-.027-.007-.027-.007-.027-.008-.027-.007-.027-.008-.027-.007-.027-.008-.027-.007-.027-.008-.027-.007-.027-.007-.027-.008-.027-.007-.027-.008-.027-.007-.027-.007-.027-.008-.027-.007-.027-.008-.027-.007-.027-.008-.027-.007-.026-.008-.028-.007-.026-.007-.027-.008-.027-.007-.027-.008-.027-.007-.027-.007-.027-.008-.027-.007-.027-.008-.027-.007-.027-.008-.027-.007-.027-.008-.027-.007-.027-.007-.027-.008-.027-.007-.027-.008-.027-.007-.027-.007-.027-.008-.027-.007-.027-.008-.027-.007-.027-.008-.027-.007-.027-.008-.027-.007-.027-.007-.027-.008-.026-.007-.027-.008-.027-.007-.027-.007-.027-.008-.027-.007-.027-.008-.027-.007-.027-.008-.027-.007-.027-.008-.027-.007-.027-.007-.027-.008-.027-.007-.027-.008-.027-.007-.027-.007-.027-.008-.027-.007-.027-.008-.027-.007-.027-.008-.027-.007-.027-.008-.027-.007-.027-.007-.027-.008-.027-.007-.027-.008-.027-.007-.027-.007-.026-.008-.028-.007-.026-.008-.027-.007-.027-.008a44.877 44.877 0 00-23.831 86.532l.027.007.027.008.027.007.026.007.027.008.027.007.027.008.027.007.027.007.027.008.027.007.027.008.027.007.027.008.027.007.027.008.027.007.027.007.027.008.027.007.027.008.027.007.027.007.027.008.027.007.027.008.027.007.027.008.027.007.027.008.027.007.027.007.027.008.027.007.027.008.026.007.028.007.026.008.027.007.027.008.027.007.027.008.027.007.027.008.027.007.027.007.027.008.027.007.027.008.027.007.027.007.027.008.027.007.027.008.027.007.027.008.027.007.027.008.027.007.027.007.027.008.027.007.027.008.027.007.027.007.027.008.027.007.026.008.027.007.027.008.027.007.027.008.027.007.027.007.027.008.027.007.027.008.027.007.027.007.027.008.027.007.027.008.027.007.027.008.027.007.027.008.027.007.027.007.027.008.027.007.027.008.027.007.027.007.027.008.027.007.027.008.027.007.027.008.027.007.026.008.028.007.026.007.027.008.027.007.027.007.027.008.027.007.027.008.027.007.027.008.027.007.027.008.027.007.027.008.027.007.027.007.027.008.027.007.027.007.027.008.027.007.027.008.027.007.027.008.027.007.027.008.027.007.027.007.027.008.027.007.027.008.027.007.027.007.026.008.027.007.027.008.027.007.027.008.027.007.027.008.027.007.027.007.027.008.027.007.027.008.027.007.027.007.027.008.027.007.027.008.027.007.027.008.027.007.027.008.027.007.027.007.027.008.027.007.027.008.027.007.027.007.027.008a44.876 44.876 0 0023.831-86.531zM42.063 74.988a32.626 32.626 0 0137.859-23.287 32.582 32.582 0 01-17.261 62.673 32.624 32.624 0 01-20.597-39.386z" fill="#ee664e"/><path d="M89.545 95.167l.054.015.054.015.054.015.054.015.053.014.054.015.054.015.054.015.054.015.054.015.054.015.054.014.054.015.054.015.054.015.054.015.054.015.054.015.054.014.054.015.054.015.053.015.054.015.054.015.054.015.054.014.054.015.054.015.054.015.054.015.054.015a4.304 4.304 0 002.285-8.3l-.054-.015-.054-.015-.054-.014-.054-.015-.054-.015-.053-.015-.054-.015-.054-.015-.054-.015-.054-.014-.054-.015-.054-.015-.054-.015-.054-.015-.054-.015-.054-.014-.054-.015-.054-.015-.054-.015-.054-.015-.054-.015-.054-.015-.053-.014-.054-.015-.054-.015-.054-.015-.054-.015-.054-.015-.054-.015-.054-.014-.054-.015-.054-.015-.054-.015-.054-.015-.054-.015-.054-.015-.054-.014-.054-.015-.053-.015-.054-.015-.054-.015-.054-.015-.054-.015-.054-.014-.054-.015-.054-.015-.054-.015-.054-.015-.054-.015-.054-.015-.054-.014-.054-.015-.054-.015-.054-.015-.053-.015-.054-.015-.054-.015-.054-.014-.054-.015-.054-.015-.054-.015-.054-.015-.054-.015-.054-.015-.054-.014-.054-.015-.054-.015-.054-.015-.054-.015-.054-.015-.053-.015-.054-.014-.054-.015-.054-.015-.054-.015-.054-.015-.054-.015-.054-.015-.054-.014-.054-.015-.054-.015-11.041-3.039 5.224-18.966a4.3 4.3 0 00-3.006-5.291l-.027-.007-.027-.008-.027-.007-.027-.008-.027-.006-.027-.009-.027-.006-.027-.008-.027-.007-.027-.008-.027-.007-.027-.008-.027-.007-.027-.008-.027-.007-.027-.008-.027-.007-.027-.008-.027-.006-.027-.008-.027-.007-.027-.008-.027-.007-.027-.008-.027-.007-.026-.008-.028-.007-.026-.008-.028-.007-.026-.008-.028-.007-.026-.008-.027-.006-.027-.008-.027-.007-.027-.008-.027-.007-.027-.008-.027-.007-.027-.008-.027-.007-.027-.008-.027-.007-.027-.008-.027-.007-.027-.008-.027-.006-.027-.008-.027-.007-.027-.008-.027-.007-.027-.008-.027-.007-.027-.008-.027-.007-.027-.008-.027-.007-.027-.008-.027-.006-.026-.009-.028-.006-.026-.008-.028-.007-.026-.008-.027-.007-.027-.008-.027-.007-.027-.008-.027-.007-.027-.008-.027-.007-.027-.008-.027-.006-.027-.009-.027-.006-.027-.008-.027-.007-.027-.008-.027-.007-.027-.008-.027-.007-.027-.008-.027-.007-.027-.008-.027-.007-.027-.008-.027-.006-.027-.009-.027-.006-.027-.008-.027-.007-.026-.008-.028-.007-.026-.008-.028-.007-.026-.008-.027-.007-.027-.008-.027-.007-.027-.008-.027-.006-.027-.009-.027-.006-.027-.008-.027-.007-.027-.008-.027-.007-.027-.008-.027-.007-.027-.008-.027-.007-.027-.008-.027-.007-.027-.008-.027-.006-.027-.009-.027-.006-.027-.008-.027-.007-.027-.008-.027-.007-.027-.008-.027-.007-.026-.008-.028-.007-.026-.008-.028-.007-.026-.008-.027-.006-.027-.009-.027-.006-.027-.008-.027-.007-.027-.008-.027-.007-.027-.008-.027-.007-.027-.008-.027-.007-.027-.008-.027-.007-.027-.008-.027-.006-.027-.009-.027-.006-.027-.008-.027-.007-.027-.008-.027-.007-.027-.008-.027-.007-.027-.008-.027-.007-.027-.008-.027-.007-.026-.008-.028-.006-.026-.009-.028-.006-.026-.008-.028-.007-.026-.008a4.3 4.3 0 00-5.292 3.006l-6.366 23.114a4.3 4.3 0 003.009 5.291l.054.015.054.014.054.015.054.015.054.015.054.015.054.015.054.015.054.014.054.015.054.015.054.015.054.015.054.015.053.015.054.014.054.015.054.015.054.015.054.015.054.015.054.015.054.014.054.015.054.015.054.015.054.015.054.015.054.015.054.014.053.015.054.015.054.015.054.015.054.015.054.015.054.014.054.015.054.015.054.015.054.015.054.015.054.015.054.014.054.015.054.015.053.015.054.015.054.015.054.015.054.014.054.015.054.015.054.015.054.015.054.015.054.015.054.014.054.015.054.015.054.015.054.015.054.015.053.014.054.015.054.015.054.015.054.015.054.015.054.015.054.014.054.015.054.015.054.015.054.015.054.015.054.015.054.014.053.015.054.015.054.015 15.19 4.183.054.015.054.015.054.015.054.015.054.015.053.015.054.014.054.015.054.015.054.015.054.015.054.015.054.015.054.014.054.015.054.015.054.015.054.015.054.015.054.015.054.014.054.015.053.015.054.015.054.015.054.015.054.015.054.014.054.015.054.015.054.015.054.015.054.015.054.015.054.014.054.015.054.015.054.015.053.015.054.015.054.015.054.014.054.015.054.015.054.015.054.015.054.015.054.014.054.015zM70.992 29.304l.054.015.054.014.054.015.054.015.054.015.054.015.054.015.053.015.054.014.054.015.054.015.054.015.054.015.054.015.054.015.054.014.054.015.054.015.054.015.054.015.054.015.054.015.054.014.054.015.053.015.054.015.054.015.054.015.054.015.054.014.054.015.054.015.054.015.054.015.054.015.054.015.054.014.054.015.054.015.054.015.053.015.054.015.054.015.054.014.054.015.054.015.054.015.054.015.054.015.054.015.054.014.054.015.054.015.054.015.054.015.054.015.053.015.054.014.054.015.054.015.054.015.054.015.054.015.054.015.054.014.054.015.054.015.054.015.054.015.054.015.054.014.054.015.053.015.054.015.054.015.054.015.054.015.054.014.054.015.054.015.054.015 19.331 5.33.054.015.054.015.054.015.054.014.054.015.054.015.054.015.054.015.054.015.054.015.053.014.053.015.053.015.054.015.054.015.054.015.054.015.054.014.054.015.054.015.054.015.054.015.054.015.054.015.054.014.054.015.053.015.053.015.054.015.054.015.054.015.054.014.054.015.054.015.054.015.054.015.054.015.054.015.054.014.054.015.054.015.054.015.053.015.053.015.053.015.054.014.054.015.054.015.054.015.054.015.054.015.054.015.054.014.054.015.054.015.054.015.054.015.054.015.053.015.053.014.053.015.054.015.054.015.054.015.054.015.054.015.054.014.054.015.054.015.054.015.054.015.054.015.054.014.054.014.053.015.053.015.053.015.054.015.054.015.054.014.054.014a6.147 6.147 0 103.265-11.853l-.054-.015-.054-.015-.054-.015-.054-.015-.054-.015-.054-.014-.054-.015-.054-.015-.054-.015-.039-.014-.053-.015-.053-.015-.054-.014-.054-.015-.054-.015-.054-.015-.054-.015-.054-.015-.054-.015-.054-.014-.054-.015-.054-.015-.054-.015-.054-.015-.054-.015-.054-.015-.053-.014-.053-.015-.054-.015-.054-.015-.054-.015-.054-.015-.054-.015-.054-.014-.054-.015-.054-.015-.054-.015-.054-.015-.054-.015-.054-.015-.054-.014-.053-.015-.053-.015-.053-.015-.054-.015-.054-.015-.054-.014-.054-.014-.054-.015-.054-.015-.054-.015-.054-.015-.054-.015-.054-.014-.054-.014-.054-.015-.054-.015-.054-.015-.053-.015-.053-.015-.054-.014-.054-.014-.054-.015-.054-.015-.054-.015-.054-.015-.054-.015-.054-.014-.054-.015-.054-.015-.054-.015-.054-.015-.054-.015-.054-.015-.053-.014-.053-.015-.054-.015-.054-.015-.054-.015-.054-.015-.054-.015-19.338-5.326-.054-.014-.054-.015-.054-.015-.054-.015-.054-.015-.054-.015-.054-.015-.054-.014-.054-.015-.054-.015-.054-.015-.054-.015-.054-.015-.053-.015-.054-.014-.054-.015-.054-.015-.054-.015-.054-.015-.054-.015-.054-.015-.054-.014-.054-.015-.054-.015-.054-.015-.054-.015-.054-.015-.054-.015-.054-.014-.053-.015-.054-.015-.054-.015-.054-.015-.054-.015-.054-.015-.054-.014-.054-.015-.054-.015-.054-.015-.054-.015-.054-.015-.054-.015-.054-.014-.054-.015-.054-.015-.054-.015-.053-.015-.054-.015-.054-.015-.054-.014-.054-.015-.054-.015-.054-.015-.054-.015-.054-.015-.054-.015-.054-.014-.054-.015-.054-.015-.054-.015-.054-.015-.054-.015-.053-.015-.054-.014-.054-.015-.054-.015-.054-.015-.054-.015-.054-.015-.054-.015-.054-.014-.054-.015-.054-.015-.054-.015-.054-.015-.054-.015-.054-.014-.054-.015-.053-.015-.054-.015-.054-.015a6.148 6.148 0 10-3.265 11.854z" fill="#ee664e"/><path d="M81.024 39.17a44.877 44.877 0 1031.349 55.182A44.928 44.928 0 0081.024 39.17zm-20.568 74.678a32.582 32.582 0 1140.064-22.761 32.618 32.618 0 01-40.064 22.761z" fill="#176299"/><path d="M89.133 86.127l-15.41-4.244 5.224-18.966a4.304 4.304 0 00-8.3-2.285l-6.366 23.114a4.3 4.3 0 003.011 5.291l19.559 5.386a4.304 4.304 0 002.285-8.3zM70.992 29.304l23.7 6.533a6.148 6.148 0 103.265-11.854L74.25 17.454a6.148 6.148 0 10-3.265 11.854z" fill="#176299"/></svg>