<svg xmlns="http://www.w3.org/2000/svg" width="575.825" height="65.125" viewBox="0 0 575.825 65.125"><defs><style>.a,.b,.d,.e,.g{fill:none;}.a{stroke:#d5dee4;}.a,.b,.d,.e{stroke-miterlimit:10;}.a,.b,.d{stroke-width:6px;}.b{stroke:#a9b7be;}.c{fill:#a9b7be;}.d,.e{stroke:#00629d;}.e{stroke-width:4px;}.f{fill:#00629d;}.g{stroke:#68b1ed;stroke-linecap:round;stroke-linejoin:round;stroke-width:1.5px;}</style></defs><g transform="translate(322.657 292)"><g transform="translate(-321.583 -292)"><path class="a" d="M5530.241-4844.045c87.767-33.68,185.285-52.438,288-52.438,101.812,0,198.521,18.433,285.688,51.555" transform="translate(-5530.241 4906.37)"/><g transform="translate(-5389.563 4906.37)"><path class="b" d="M5530.241-4883.416c44.417-8.393,93.769-13.068,145.749-13.068,51.525,0,100.467,4.594,144.58,12.848"/><circle class="c" cx="10.208" cy="10.208" r="10.208" transform="translate(5520.033 -4893.961)"/><circle class="c" cx="10" cy="10" r="10" transform="translate(5593.284 -4903.76)"/><circle class="c" cx="10" cy="10" r="10" transform="translate(5666.327 -4906.37)"/><circle class="c" cx="10" cy="10" r="10" transform="translate(5739.371 -4903.76)"/><circle class="c" cx="10" cy="10" r="10" transform="translate(5812.414 -4893.753)"/></g></g><g transform="translate(-178.904 -282)"><path class="d" d="M42.1,56.994c22.208-4.2,45.651-7.464,70.038-9.682s49.721-3.386,75.711-3.386c25.17,0,49.724,1.1,73.4,3.179,24.79,2.182,48.617,5.446,71.181,9.669" transform="translate(-42.096 -43.926)"/><path class="d" d="M187.845,43.926c25.17,0,49.724,1.1,73.4,3.179" transform="translate(-42.096 -43.926)"/><path class="d" d="M112.134,47.312c24.388-2.217,49.721-3.386,75.711-3.386" transform="translate(-42.096 -43.926)"/><path class="e" d="M42.1,56.994c22.208-4.2,45.651-7.464,70.038-9.682" transform="translate(-42.096 -43.926)"/></g><g transform="translate(-223 -325.926)"><circle class="f" cx="10" cy="10" r="10" transform="translate(178.355 33.926)"/><path class="g" d="M184.847,43.882l2.783,2.726,4.285-4.851"/></g><g transform="translate(-223 -325.926)"><circle class="f" cx="10" cy="10" r="10" transform="translate(32.096 46.656)"/><path class="g" d="M38.588,56.613l2.783,2.726,4.284-4.851"/></g><g transform="translate(-223 -325.926)"><circle class="f" cx="10" cy="10" r="10" transform="translate(324.269 46.656)"/><path class="g" d="M330.761,56.613l2.783,2.726,4.285-4.851"/></g><g transform="translate(-223 -325.926)"><circle class="f" cx="10" cy="10" r="10" transform="translate(105.139 36.65)"/><path class="g" d="M111.632,46.606l2.783,2.726,4.285-4.851"/></g><g transform="translate(-223 -325.926)"><circle class="f" cx="10" cy="10" r="10" transform="translate(251.244 36.65)"/><path class="g" d="M257.736,46.606l2.783,2.726,4.284-4.851"/></g></g></svg>