<svg xmlns="http://www.w3.org/2000/svg" width="442.032" height="206.521" viewBox="0 0 442.032 206.521"><g transform="translate(-724.089 -124.536)"><path d="M1064.087,311.482a16.579,16.579,0,0,0,10.319-4.652,15.108,15.108,0,0,0,4.519-10.809,15.937,15.937,0,0,0-2.077-7.994.334.334,0,0,1,.265-.492l38.183-3.15a15.122,15.122,0,0,0,13.793-15.067,13.923,13.923,0,0,0-4.224-9.965h0a.336.336,0,0,1,.139-.563,57.883,57.883,0,0,0,8.084-107.679.333.333,0,0,1-.1-.528,15.467,15.467,0,0,0-11.283-26.047h-32.312a15.468,15.468,0,0,0-11.284,26.047.333.333,0,0,1-.1.528,58.042,58.042,0,0,0-12.366,7.975.333.333,0,0,1-.492-.07,14.211,14.211,0,0,0-2.1-2.509c-2.726-2.582-5-4-10.332-4l-6.751.5a15.4,15.4,0,0,0-8.03,3.025,18.97,18.97,0,0,0-4.983,6.025l-4.865,8.24a.334.334,0,0,1-.569.01l-4.183-6.517c-1.241-2.035-4.865-7.793-12.868-7.793h0l-39.192,3.172c-5.967.492-13.88,3.376-17.706,14.313l-14.281,40.07a4.58,4.58,0,0,1-3.939,3.028l-9.158.756a2.453,2.453,0,0,1-2.655-2.445l-.005-36.467a14.009,14.009,0,0,0-14.082-14.1c-.4,0-.8.016-1.2.049l-59.014,4.869a15.838,15.838,0,0,0-13.69,10.721.333.333,0,0,1-.515.152c-5.931-4.453-13.541-6.781-22.324-6.781-1.447,0-2.946.063-4.456.188l-5.483.452h-.018c-.226,0-.454.016-.681.034l-64.309,5.306a14.953,14.953,0,0,0-13.667,14.646,13.782,13.782,0,0,0,13.85,13.981c.392,0,.79-.016,1.183-.049l30.635-2.528a.334.334,0,0,1,.361.333v36.691a15.457,15.457,0,0,0,3.862,10.753,13.738,13.738,0,0,0,5.773,3.735.333.333,0,0,1,.171.5,14.8,14.8,0,0,0-2.387,8.17,13.693,13.693,0,0,0,4.263,10.184,14.183,14.183,0,0,0,9.871,3.684c.482,0,.975-.02,1.467-.061l16.785-1.385a.334.334,0,0,1,.361.333V315.8a15.384,15.384,0,0,0,3.877,10.732,14.465,14.465,0,0,0,10.815,4.523Z" fill="#fff"/><path d="M1108.239,154.234a49.15,49.15,0,1,0,49.149,49.15A49.206,49.206,0,0,0,1108.239,154.234Zm0,85.014a35.864,35.864,0,1,1,35.863-35.864A35.9,35.9,0,0,1,1108.239,239.248Z" fill="#e7bc6a"/><path d="M1112.951,201.457V179.912a4.713,4.713,0,0,0-9.425,0V206.17a4.713,4.713,0,0,0,4.713,4.713h22.218a4.713,4.713,0,1,0,0-9.426Z" fill="#e7bc6a"/><path d="M1094.773,146.735H1121.7a6.733,6.733,0,1,0,0-13.466h-26.931a6.733,6.733,0,1,0,0,13.466Z" fill="#e7bc6a"/><path d="M1105.548,154.234a49.15,49.15,0,1,0,49.149,49.15A49.206,49.206,0,0,0,1105.548,154.234Zm0,85.014a35.864,35.864,0,1,1,35.864-35.864A35.9,35.9,0,0,1,1105.548,239.248Z" fill="#e26e57"/><path d="M1110.261,201.457V179.912a4.713,4.713,0,0,0-9.426,0V206.17a4.713,4.713,0,0,0,4.713,4.713h22.218a4.713,4.713,0,1,0,0-9.426Z" fill="#e26e57"/><path d="M1092.082,146.735h26.931a6.733,6.733,0,1,0,0-13.466h-26.931a6.733,6.733,0,1,0,0,13.466Z" fill="#e26e57"/><path d="M1102.857,154.234a49.15,49.15,0,1,0,49.15,49.15A49.205,49.205,0,0,0,1102.857,154.234Zm0,85.014a35.864,35.864,0,1,1,35.864-35.864A35.905,35.905,0,0,1,1102.857,239.248Z" fill="#2d6299"/><path d="M1107.57,201.457V179.912a4.713,4.713,0,0,0-9.426,0V206.17a4.713,4.713,0,0,0,4.713,4.713h22.219a4.713,4.713,0,0,0,0-9.426Z" fill="#2d6299"/><path d="M1089.392,146.735h26.931a6.733,6.733,0,1,0,0-13.466h-26.931a6.733,6.733,0,1,0,0,13.466Z" fill="#2d6299"/><path d="M839.846,211.809c0-20.558-11.446-31.194-30.881-29.591l-5.882.485a2.153,2.153,0,0,0-.3,0l-58.928,4.862a6.228,6.228,0,0,0-5.652,6.006,5.064,5.064,0,0,0,5.582,5.165l40.447-3.338v46.537c0,4.488,2.514,6.884,6.778,6.532l17.955-1.481C828.4,245.385,839.846,232.367,839.846,211.809ZM797.788,236.69V194.317l9.561-.789c11.939-.985,18.672,5.911,18.672,19.466,0,14-6.553,21.907-18.672,22.907Z" fill="#e7bc6a"/><path d="M1022.794,203.272a7.1,7.1,0,0,1,1.217,4.021v15.759c0,4.444,2.514,6.84,6.778,6.488s6.778-3.163,6.778-7.606V206.172a8.1,8.1,0,0,1,1.214-4.217l18.536-30.218a9.031,9.031,0,0,0,1.436-4.742c0-3.591-2.872-6.047-6.688-5.732-2.693.222-4.443,1.579-6.149,4.682l-14.334,24.278a.929.929,0,0,1-1.575.124l-14.075-21.928c-1.8-2.949-3.367-3.9-6.284-3.656a7.057,7.057,0,0,0-6.778,6.933,7.708,7.708,0,0,0,1.391,4.463Z" fill="#e7bc6a"/><path d="M877.753,257.99c0-3.5-2.424-5.411-6.1-5.107L797.8,258.976c-3.726.307-6.15,2.617-6.15,6.118s2.469,5.407,6.15,5.1l26.6-2.2v47.355c0,4.444,2.514,6.84,6.778,6.488s6.778-3.163,6.778-7.606V266.885l23.138-1.909a2.829,2.829,0,0,1,3.12,2.862v44.235c0,4.444,2.513,6.84,6.778,6.488s6.777-3.163,6.777-7.606V258.572c0-.183-.006-.36-.015-.534Z" fill="#e7bc6a"/><path d="M948.418,245.651c-4.758.393-7.406,2.631-9.381,7.777l-14.868,37.86a1.407,1.407,0,0,1-2.591.218l-14.994-35.4c-1.975-4.864-4.578-6.624-9.292-6.235-5.52.455-8.752,4-8.752,9.475v51.439c0,3.995,2.244,6.144,6.059,5.829s6.015-2.83,6.015-6.825V271.545l.359-.03L917,309.424a5.285,5.285,0,0,0,5.88,3.6c2.827-.233,4.623-1.638,5.79-4.607l16.024-40.508.359-.03v38.244c0,3.994,2.2,6.147,6.015,5.832s6.06-2.834,6.06-6.829V253.686C957.126,248.165,953.894,245.2,948.418,245.651Z" fill="#e7bc6a"/><path d="M993.022,228.147a5.95,5.95,0,0,0,6.247,3.985l.2-.017c4.543-.381,7.711-5.145,6.181-9.3L987.744,174.2c-1.93-5.138-5.072-7.212-10.369-6.775-5.117.422-8.3,3.108-10.189,8.516l-16.948,47.553a1.044,1.044,0,0,1-.883.689l-30.15,2.488a3.991,3.991,0,0,1-4.4-4.037l-.006-44.212a5.291,5.291,0,0,0-5.835-5.353l-53.633,4.425c-4.264.352-6.778,4.06-6.778,8.5v50.632c0,4.488,2.514,6.884,6.778,6.532l30.792-2.54c3.726-.307,6.15-2.617,6.15-6.118s-2.469-5.407-6.15-5.1l-24.014,1.982v-14.9l22.847-1.885a6.179,6.179,0,0,0,5.656-6.337c0-3.232-2.29-7.228-5.656-6.95l-22.847,1.885V189.055l38.161-3.149a.888.888,0,0,1,.979.9v45.478c0,4.489,2.514,7.737,6.778,7.386l47.388-3.91.024,0,.032,0c3.591-.3,5.611-2.258,6.867-6.671L965.75,218.7l23.386-1.929Zm-24.31-20.193,8.394-27.22.314-.026,8.574,25.821Z" fill="#e7bc6a"/><path d="M1114.505,264.131l-46.683,3.852a22.287,22.287,0,0,0,2.729-10.863c0-12.793-8.528-19.944-23.43-18.715l-19.75,1.63c-4.264.352-6.778,3.163-6.778,7.606v42.787a4.11,4.11,0,0,1-3.715,4.022l-35.425,2.923-.11-14.571,22.847-1.885a6.177,6.177,0,0,0,5.655-6.336c0-3.232-2.178-7.007-5.545-6.729l-22.847,1.885V255.111l.027-.029,23.992-1.979a9.1,9.1,0,0,0,1.107-.16,2.472,2.472,0,0,0,.567-.138,5.816,5.816,0,0,0,4.475-5.87c0-3.532-2.468-5.457-6.149-5.153l-30.8,2.6c-4.264.351-6.777,3.162-6.777,7.606v51.419c0,4.489,2.513,6.885,6.777,6.533l52.455-4.328c.17-.014.336-.033.5-.056,4.1-.443,6.518-3.227,6.518-7.579l.022-15.662,12.49-1.031,9.8,16.947c2.2,3.768,3.681,4.813,6.913,4.546,3.95-.326,6.822-3.166,6.822-6.757a7.79,7.79,0,0,0-1.436-4.55l-6.939-11.436,52.761-4.353a6.392,6.392,0,0,0,5.778-6.3A5.282,5.282,0,0,0,1114.505,264.131Zm-68.686,5.623-11.67.963V250.069l11.535-.952c6.733-.555,10.953,3.136,10.953,9.42C1056.637,264.956,1052.642,269.191,1045.819,269.754Z" fill="#e7bc6a"/><path d="M837.156,212.031c0-20.558-11.446-31.194-30.882-29.591l-5.882.485a2.14,2.14,0,0,0-.3,0l-58.929,4.862a6.228,6.228,0,0,0-5.652,6.006,5.064,5.064,0,0,0,5.582,5.165l40.448-3.338V242.16c0,4.488,2.513,6.884,6.778,6.532l17.954-1.481C825.71,245.607,837.156,232.589,837.156,212.031ZM795.1,236.912V194.539l9.561-.789c11.94-.985,18.673,5.911,18.673,19.466,0,14-6.554,21.907-18.673,22.907Z" fill="#e26e57"/><path d="M1020.1,203.494a7.105,7.105,0,0,1,1.217,4.021v15.759c0,4.444,2.513,6.84,6.778,6.488s6.777-3.163,6.777-7.606V206.394a8.089,8.089,0,0,1,1.215-4.217l18.535-30.218a9.022,9.022,0,0,0,1.437-4.742c0-3.591-2.873-6.047-6.688-5.732-2.693.222-4.444,1.579-6.15,4.682l-14.333,24.278a.93.93,0,0,1-1.576.124l-14.075-21.928c-1.8-2.949-3.366-3.9-6.284-3.656a7.057,7.057,0,0,0-6.778,6.933,7.7,7.7,0,0,0,1.392,4.463Z" fill="#e26e57"/><path d="M875.062,258.212c0-3.5-2.424-5.411-6.1-5.107L795.11,259.2c-3.725.307-6.149,2.617-6.149,6.118s2.468,5.407,6.149,5.1l26.6-2.2V315.58c0,4.444,2.513,6.84,6.778,6.488s6.777-3.163,6.777-7.606V267.107L858.4,265.2a2.829,2.829,0,0,1,3.12,2.862V312.3c0,4.444,2.514,6.84,6.778,6.488s6.778-3.163,6.778-7.606V258.794c0-.183-.007-.36-.016-.534Z" fill="#e26e57"/><path d="M945.727,245.873c-4.758.393-7.406,2.631-9.381,7.777l-14.868,37.86a1.407,1.407,0,0,1-2.591.218l-14.994-35.4c-1.975-4.864-4.578-6.624-9.291-6.235-5.521.455-8.753,4-8.753,9.475v51.439c0,3.995,2.244,6.144,6.06,5.829s6.015-2.83,6.015-6.825V271.767l.359-.03,16.024,37.909a5.285,5.285,0,0,0,5.88,3.6c2.828-.233,4.623-1.638,5.79-4.607L942,268.13l.359-.03v38.244c0,3.994,2.2,6.147,6.015,5.832s6.059-2.834,6.059-6.829V253.908C954.435,248.387,951.2,245.422,945.727,245.873Z" fill="#e26e57"/><path d="M990.331,228.369a5.951,5.951,0,0,0,6.248,3.985l.2-.017c4.542-.381,7.71-5.145,6.181-9.3l-17.91-48.617c-1.931-5.138-5.073-7.212-10.369-6.775-5.117.422-8.3,3.108-10.189,8.516l-16.948,47.553a1.045,1.045,0,0,1-.884.689l-30.15,2.488a3.991,3.991,0,0,1-4.4-4.037l-.006-44.212a5.291,5.291,0,0,0-5.834-5.353l-53.633,4.425c-4.265.352-6.778,4.06-6.778,8.5v50.632c0,4.488,2.513,6.884,6.778,6.532l30.791-2.54c3.726-.307,6.15-2.617,6.15-6.118s-2.469-5.407-6.15-5.1L859.418,231.6V216.7l22.847-1.886a6.176,6.176,0,0,0,5.656-6.336c0-3.232-2.289-7.228-5.656-6.95l-22.847,1.885V189.277l38.161-3.149a.888.888,0,0,1,.979.9v45.478c0,4.489,2.514,7.737,6.778,7.386l47.389-3.91.023,0,.032,0c3.591-.3,5.611-2.258,6.868-6.671l3.411-10.381,23.386-1.929Zm-24.309-20.193,8.393-27.22.315-.026,8.573,25.821Z" fill="#e26e57"/><path d="M1111.815,264.353l-46.684,3.852a22.288,22.288,0,0,0,2.73-10.863c0-12.793-8.529-19.944-23.431-18.715l-19.75,1.63c-4.264.352-6.778,3.163-6.778,7.606V290.65a4.11,4.11,0,0,1-3.715,4.022L978.763,297.6l-.111-14.571,22.847-1.885a6.179,6.179,0,0,0,5.656-6.336c0-3.232-2.179-7.007-5.545-6.729l-22.847,1.885V255.333l.026-.029,23.992-1.979a9.143,9.143,0,0,0,1.108-.16,2.472,2.472,0,0,0,.567-.138,5.817,5.817,0,0,0,4.475-5.87c0-3.532-2.469-5.457-6.15-5.153l-30.8,2.6c-4.265.351-6.778,3.162-6.778,7.606V303.63c0,4.489,2.513,6.885,6.778,6.533l52.454-4.328c.17-.014.337-.033.5-.056,4.106-.443,6.518-3.227,6.518-7.58l.022-15.661,12.491-1.031,9.8,16.947c2.2,3.768,3.68,4.813,6.912,4.546,3.95-.326,6.823-3.166,6.823-6.757a7.784,7.784,0,0,0-1.437-4.55l-6.938-11.436,52.76-4.353a6.392,6.392,0,0,0,5.778-6.3A5.281,5.281,0,0,0,1111.815,264.353Zm-68.686,5.623-11.671.963V250.291l11.536-.952c6.733-.555,10.952,3.136,10.952,9.42C1053.946,265.178,1049.951,269.413,1043.129,269.976Z" fill="#e26e57"/><path d="M834.465,212.253c0-20.558-11.446-31.194-30.882-29.591l-5.819.48a.867.867,0,0,1-.125,0,2.1,2.1,0,0,0-.237.006l-58.928,4.862a6.229,6.229,0,0,0-5.653,6.006,5.065,5.065,0,0,0,5.583,5.165l39.355-3.247a1.008,1.008,0,0,1,1.092,1v45.441c0,4.488,2.514,6.884,6.778,6.532l17.954-1.481C823.019,245.829,834.465,232.811,834.465,212.253Zm-42.058,22.173V195.69a1.009,1.009,0,0,1,.926-1.005l8.634-.713c11.94-.985,18.673,5.911,18.673,19.466,0,14-6.553,21.907-18.673,22.907l-6.862.566A2.493,2.493,0,0,1,792.407,234.426Z" fill="#2d6299"/><path d="M1017.413,203.716a7.1,7.1,0,0,1,1.217,4.021V223.5c0,4.444,2.514,6.84,6.778,6.488s6.778-3.163,6.778-7.606V206.616a8.1,8.1,0,0,1,1.214-4.218l18.536-30.217a9.03,9.03,0,0,0,1.436-4.742c0-3.591-2.873-6.047-6.688-5.732-2.693.222-4.444,1.579-6.149,4.682L1026.2,190.667a.93.93,0,0,1-1.576.124l-14.074-21.928c-1.8-2.949-3.367-3.9-6.284-3.656a7.057,7.057,0,0,0-6.778,6.933,7.708,7.708,0,0,0,1.391,4.463Z" fill="#2d6299"/><path d="M872.372,258.434c0-3.5-2.424-5.411-6.1-5.107L792.42,259.42c-3.726.307-6.15,2.617-6.15,6.118s2.469,5.407,6.15,5.1l26.6-2.194V315.8c0,4.444,2.514,6.84,6.778,6.488s6.778-3.163,6.778-7.606V267.329l23.138-1.909a2.828,2.828,0,0,1,3.119,2.862v44.235c0,4.444,2.514,6.84,6.778,6.488s6.778-3.163,6.778-7.606V259.016c0-.183-.006-.36-.015-.534Z" fill="#2d6299"/><path d="M943.037,246.1c-4.758.393-7.406,2.631-9.381,7.777l-14.869,37.86a1.406,1.406,0,0,1-2.59.217l-14.994-35.4c-1.975-4.864-4.579-6.624-9.292-6.235-5.521.455-8.753,4-8.753,9.475v51.439c0,3.995,2.245,6.144,6.06,5.829s6.015-2.83,6.015-6.825V271.989l.359-.03,16.024,37.909a5.286,5.286,0,0,0,5.881,3.6c2.827-.233,4.623-1.638,5.79-4.607l16.024-40.508.359-.03v38.244c0,3.994,2.2,6.147,6.015,5.832s6.06-2.834,6.06-6.829V254.13C951.745,248.609,948.513,245.644,943.037,246.1Z" fill="#2d6299"/><path d="M913.824,227.116a3.992,3.992,0,0,1-4.4-4.037l0-44.212a5.292,5.292,0,0,0-5.835-5.353l-53.633,4.425c-4.264.352-6.778,4.06-6.778,8.5v50.632c0,4.488,2.514,6.884,6.778,6.532l30.792-2.54c3.725-.307,6.149-2.617,6.149-6.118s-2.468-5.407-6.149-5.1l-22.078,1.822a1.789,1.789,0,0,1-1.936-1.783V218.52a1.732,1.732,0,0,1,1.59-1.727l21.257-1.754a6.176,6.176,0,0,0,5.655-6.336c0-3.232-2.289-7.228-5.655-6.95l-20.972,1.73a1.731,1.731,0,0,1-1.875-1.726v-10.55a1.854,1.854,0,0,1,1.7-1.848l36.459-3.009a.889.889,0,0,1,.979.9v45.478c0,4.489,2.513,7.737,6.778,7.386l47.388-3.91.024,0,.032,0c3.591-.3,5.611-2.258,6.867-6.671l3.412-10.381,23.385-1.929,3.886,11.374a5.952,5.952,0,0,0,6.248,3.985l.2-.017c4.543-.381,7.711-5.145,6.181-9.3l-17.91-48.617c-1.93-5.138-5.072-7.212-10.369-6.775-5.117.422-8.3,3.108-10.189,8.516l-16.116,45.181a4.688,4.688,0,0,1-4.205,3.236Zm66.788-20.143L963.331,208.4l7.988-25.546a.677.677,0,0,1,1.289-.011Z" fill="#2d6299"/><path d="M1000.091,253.547a9.155,9.155,0,0,0,1.107-.16,2.472,2.472,0,0,0,.567-.138,5.816,5.816,0,0,0,4.475-5.87c0-3.532-2.468-5.457-6.149-5.153l-30.8,2.6c-4.264.351-6.778,3.162-6.778,7.606v51.419c0,4.489,2.514,6.885,6.778,6.533l52.455-4.328c.17-.014.336-.033.5-.056,4.1-.443,6.518-3.227,6.518-7.58l.019-13.486a2.364,2.364,0,0,1,2.171-2.354l9.465-.781a1.359,1.359,0,0,1,1.288.674l9.365,16.2c2.2,3.768,3.681,4.813,6.912,4.546,3.95-.326,6.823-3.166,6.823-6.757a7.79,7.79,0,0,0-1.436-4.55l-6.939-11.436,52.761-4.353a6.392,6.392,0,0,0,5.778-6.3,5.282,5.282,0,0,0-5.851-5.252l-46.683,3.852a22.287,22.287,0,0,0,2.729-10.863c0-12.793-8.528-19.944-23.43-18.715l-19.75,1.63c-4.265.352-6.778,3.163-6.778,7.606v42.787a4.11,4.11,0,0,1-3.715,4.022l-33.436,2.759a1.852,1.852,0,0,1-2-1.832l-.087-11.481a1.179,1.179,0,0,1,1.081-1.184l21.758-1.8a6.178,6.178,0,0,0,5.655-6.336c0-3.232-2.179-7.007-5.545-6.729l-21.572,1.779a1.178,1.178,0,0,1-1.275-1.174v-11.67a1.852,1.852,0,0,1,1.7-1.845Zm40.347,16.651-10.045.828a1.5,1.5,0,0,1-1.625-1.5V252.747a2.426,2.426,0,0,1,2.226-2.418l9.309-.768c6.733-.555,10.952,3.136,10.952,9.42C1051.255,265.4,1047.261,269.635,1040.438,270.2Z" fill="#2d6299"/></g></svg>