<svg version="1.1" id="圖層_1" xmlns="http://www.w3.org/2000/svg" x="0" y="0" viewBox="0 0 252.6 167" xml:space="preserve"><style>.st0{fill:#e9b65a}.st3{fill:#b68f48}</style><path class="st0" d="M4.9 53h44.3c2.7 0 4.9 2.2 4.9 4.9v16c0 2.7-2.2 4.9-4.9 4.9H4.9c-2.7 0-4.9-2.2-4.9-4.9v-16C0 55.1 2.2 53 4.9 53zM4.9 82.9h44.3c2.7 0 4.9 2.2 4.9 4.9v74.3c0 2.7-2.2 4.9-4.9 4.9H4.9c-2.7 0-4.9-2.2-4.9-4.9V87.8c0-2.7 2.2-4.9 4.9-4.9z"/><path d="M64.2 72.2h126.6c2.7 0 4.9 2.2 4.9 4.9v85c0 2.7-2.2 4.9-4.9 4.9H64.2c-2.7 0-4.9-2.2-4.9-4.9v-85c0-2.7 2.2-4.9 4.9-4.9z" fill="#ebcd8f"/><path d="M186.2 150.6l-4.8-.3-3.4 3.7v-11.2l8.2 7.8z" fill="#0f436e"/><path class="st3" d="M3.2 96.2h48.1v.5H3.2zM71.7 81.4h111.2v3H71.7zM71.7 100.5h111.2v3H71.7zM71.7 110h111.2v3H71.7zM6.3 88.3h16.6v3H6.3zM6.3 59h16.6v3H6.3zM71.7 91h97v3h-97z"/><path d="M223 251.3h82.5c1.8 0 3.3 1.5 3.3 3.3V271c0 1.8-1.5 3.3-3.3 3.3H223c-1.8 0-3.3-1.5-3.3-3.3v-16.4c0-1.8 1.5-3.3 3.3-3.3z" fill="#ee664e" transform="translate(-86.627 -223.54)"/><path d="M238.4 267.6h-3.8c0 .8-.6 1.5-1.5 1.5s-1.5-.6-1.5-1.5v-.1h-3.8c-.3 0-.6-.2-.7-.5-.1-.3 0-.6.2-.8.8-.6 1.2-1.5 1.2-2.4v-2.3c0-2.5 2-4.5 4.5-4.5s4.5 2 4.5 4.5v2.3c0 .9.4 1.8 1.2 2.4.3.2.3.5.2.8.1.3-.2.6-.5.6z" fill-rule="evenodd" clip-rule="evenodd" fill="#fff" transform="translate(-86.627 -223.54)"/></svg>